<svg xmlns="http://www.w3.org/2000/svg" width="500" height="500" style="width:100%;height:100%;transform:translate3d(0,0,0);content-visibility:visible" viewBox="0 0 500 500"><defs><clipPath id="a"><path d="M0 0h500v500H0z"/></clipPath></defs><g clip-path="url(#a)"><path fill="none" stroke="#121330" stroke-linecap="round" stroke-linejoin="round" stroke-width="12.04" d="M145.227-62.137c26.001 13.373 41.579 30.409 41.579 48.961C186.806 29.811 103.17 64.66 0 64.66c-103.17 0-186.806-34.849-186.806-77.836 0-19.739 17.636-37.763 46.699-51.484" style="display:block" transform="translate(250 276.382)"/><g fill="none" stroke="#07A889" stroke-linecap="round" stroke-linejoin="round" stroke-width="12.04" style="display:block"><path d="M308.186 242.595s0 0 0 0c13.151 0 23.812-10.661 23.812-23.812v-31.518c0-13.151-10.661-23.812-23.812-23.812 0 0 0 0 0 0-13.151 0-23.812 10.661-23.812 23.812v31.518c0 13.151 10.661 23.812 23.812 23.812zM212.2 218.893l.159-11.405c.297-21.284 15.343-39.503 36.187-43.819 0 0 0 0 0 0"/><path d="M212.196 219.366c0 12.829 10.004 23.229 22.345 23.229s22.345-10.4 22.345-23.229c0-12.829-10.004-23.229-22.345-23.229s-22.345 10.4-22.345 23.229zm-51.363-17.148c13.229 0 23.956 9.077 23.956 20.219 0 11.132-10.722 20.159-23.951 20.159-10.411 0-19.27-5.591-22.569-13.399"/><path d="M140.46 176.025c3.057-7.226 10.782-12.348 19.837-12.348 11.743 0 21.253 8.622 21.253 19.269 0 10.647-9.51 19.279-21.253 19.279m-.001 0h-4.766m234.531-23.081c0 8.666-7.026 15.692-15.692 15.692s-15.692-7.026-15.692-15.692 7.026-15.692 15.692-15.692 15.692 7.026 15.692 15.692z"/></g><path fill="none" stroke="#121330" stroke-linecap="round" stroke-linejoin="round" stroke-width="12.04" d="M-14.895-29.79 14.895 0l-29.79 29.79" style="display:block" transform="translate(250 340.76)"/><path fill="none" style="display:none"/><g class="com" style="display:none"><path/><path/><path/><path/><path/><path/><path/><path/><path/><path/><path/><path/></g></g></svg>