<svg xmlns="http://www.w3.org/2000/svg" width="500" height="500" style="width:100%;height:100%;transform:translate3d(0,0,0);content-visibility:visible" viewBox="0 0 500 500"><defs><clipPath id="a"><path d="M0 0h500v500H0z"/></clipPath></defs><g clip-path="url(#a)"><path fill="none" stroke="#07A889" stroke-linecap="round" stroke-linejoin="round" stroke-width="12.04" d="M175.953 0h-351.906" style="display:block" transform="translate(278.141 131.249)"/><g fill="none" stroke-linecap="round" stroke-linejoin="round" stroke-width="12.04" style="display:block"><path stroke="#07A889" d="m53.249 224.338-7.343-53.71H72.83l5.418 39.603M53.25 224.338l-7.343 53.718h26.924l5.36-39.212m199.95-75.935v-31.664m99.14 203.864v33.646m-103.222-33.646v33.646m145.335-21.727c0 18.229-4.966 21.728-30.845 21.728H237.33m75.649-158.345v63.068c0 10.28 8.331 18.61 18.611 18.61h71.839"/><path stroke="#121330" d="M241.387 210.23h65.825c53.834 0 97.475 43.64 97.475 97.474v.001c0 15.135-12.271 27.405-27.406 27.405H274.059c-18.044 0-32.672-14.628-32.672-32.672V210.23zm0 0H73.337v28.288l168.05 11.424m17.437-39.712 5.968-47.32h26.692l5.968 47.32"/></g><g class="com" style="display:none"><path/><path/><path/><path/><path/><path/><path/><path/><path/><path/><path/><path/></g></g></svg>