<svg xmlns="http://www.w3.org/2000/svg" width="500" height="500" style="width:100%;height:100%;transform:translate3d(0,0,0);content-visibility:visible" viewBox="0 0 500 500"><defs><clipPath id="c"><path d="M0 0h500v500H0z"/></clipPath><filter id="a" width="100%" height="100%" x="0%" y="0%" filterUnits="objectBoundingBox"><feComponentTransfer in="SourceGraphic"><feFuncA tableValues="1.0 0.0" type="table"/></feComponentTransfer></filter><mask id="d" mask-type="alpha"><g filter="url(#a)"><path fill="#fff" d="M0 0h500v500H0z" opacity="0"/><use xmlns:ns1="http://www.w3.org/1999/xlink" ns1:href="#b"/></g></mask><g id="b" fill="red" style="display:block"><path d="M269.55 181.865v97.923c0 8.613-8.268 15.583-18.469 15.583h-2.162c-10.201 0-18.469-6.97-18.469-15.583v-97.923"/><path d="M208.251 144.973c0 23.057 18.692 41.749 41.749 41.749 23.057 0 41.749-18.692 41.749-41.749 0-23.057-18.692-41.749-41.749-41.749-23.057 0-41.749 18.692-41.749 41.749z"/></g></defs><g clip-path="url(#c)"><g fill="none" stroke-linecap="round" stroke-linejoin="round" stroke-width="12.04" mask="url(#d)" style="display:block"><path stroke="#121330" d="m401.77 281.968-122.505 64.283a62.984 62.984 0 0 1-58.531 0L98.23 281.968c-10.958-5.75-10.958-21.437 0-27.187l122.504-64.283a62.984 62.984 0 0 1 58.531 0l122.505 64.283c10.958 5.75 10.958 21.437 0 27.187zm8.225 43.06c0 5.366-2.753 10.733-8.231 13.598l-122.501 64.283a62.98 62.98 0 0 1-58.526 0L98.236 338.626c-5.478-2.865-8.231-8.232-8.231-13.598m.007.005v-56.658m319.976 56.658v-56.658"/><path stroke="#07A889" d="M145.925 266.074c0 7.791 10.683 14.106 23.862 14.106 13.179 0 23.862-6.315 23.862-14.106 0-7.791-10.683-14.106-23.862-14.106-13.179 0-23.862 6.315-23.862 14.106z"/></g><g fill="none" stroke-linecap="round" stroke-linejoin="round" stroke-width="12.04" style="display:block"><path stroke="#121330" d="M269.55 181.865v97.923c0 8.613-8.268 15.583-18.469 15.583h-2.162c-10.201 0-18.469-6.97-18.469-15.583v-97.923"/><path stroke="#07A889" d="M208.251 144.973c0 23.057 18.692 41.749 41.749 41.749 23.057 0 41.749-18.692 41.749-41.749 0-23.057-18.692-41.749-41.749-41.749-23.057 0-41.749 18.692-41.749 41.749z"/></g><g class="com" style="display:none"><path/><path/><path/><path/><path/><path/><path/><path/><path/><path/><path/><path/></g></g></svg>