<svg xmlns="http://www.w3.org/2000/svg" width="500" height="500" style="width:100%;height:100%;transform:translate3d(0,0,0);content-visibility:visible" viewBox="0 0 500 500"><defs><clipPath id="c"><path d="M0 0h500v500H0z"/></clipPath><filter id="a" width="100%" height="100%" x="0%" y="0%" filterUnits="objectBoundingBox"><feComponentTransfer in="SourceGraphic"><feFuncA tableValues="1.0 0.0" type="table"/></feComponentTransfer></filter><mask id="d" mask-type="alpha"><g filter="url(#a)"><path fill="#fff" d="M0 0h500v500H0z" opacity="0"/><use xmlns:ns1="http://www.w3.org/1999/xlink" ns1:href="#b"/></g></mask><g id="b" style="display:block"><path fill-opacity="0" stroke="#07A889" stroke-linecap="round" stroke-linejoin="round" stroke-width="0" d="M327 354.547c0-30.406 24.649-55.055 55.055-55.055s55.055 24.649 55.055 55.055-24.649 55.055-55.055 55.055S327 384.953 327 354.547z"/><path fill="red" d="M327 354.547c0-30.406 24.649-55.055 55.055-55.055s55.055 24.649 55.055 55.055-24.649 55.055-55.055 55.055S327 384.953 327 354.547z"/><path fill-opacity="0" stroke="#07A889" stroke-linecap="round" stroke-linejoin="round" stroke-width="0" d="M382.055 327.91v53.274"/><path fill="red" d="M382.055 327.91v53.274"/><path fill-opacity="0" stroke="#07A889" stroke-linecap="round" stroke-linejoin="round" stroke-width="0" d="M408.692 354.547h-53.274"/><path fill="red" d="M408.692 354.547h-53.274"/></g></defs><g clip-path="url(#c)"><path fill="none" stroke="#121330" stroke-linecap="round" stroke-linejoin="round" stroke-width="12.04" d="M19.125 0c0-10.562-8.563-19.125-19.125-19.125S-19.125-10.562-19.125 0-10.562 19.125 0 19.125 19.125 10.562 19.125 0z" style="display:block" transform="translate(286.176 242.105)"/><path fill="none" stroke="#07A889" stroke-linecap="round" stroke-linejoin="round" stroke-width="12.04" d="M0 0" style="display:block" transform="translate(286.176 242.105)"/><g fill="none" mask="url(#d)" style="display:block"><path stroke="#121330" stroke-linecap="round" stroke-linejoin="round" stroke-width="12.04" d="M104.035 133.102h291.93c7.817 0 14.154 6.337 14.154 14.154v222.022c0 7.817-6.337 14.154-14.154 14.154h-291.93c-7.817 0-14.154-6.337-14.154-14.154V147.256c0-7.817 6.337-14.154 14.154-14.154zm306.084 45.661H89.881m272.325-28.687v-33.508m-224.413 33.508v-33.508M250 150.076v-33.508"/><path stroke="#121330" stroke-linecap="round" stroke-linejoin="round" stroke-width="12.04" d="M160.598 242.105c0 10.562-8.563 19.125-19.125 19.125s-19.125-8.563-19.125-19.125 8.563-19.125 19.125-19.125 19.125 8.563 19.125 19.125z"/><path stroke="#07A889" stroke-linecap="round" stroke-linejoin="round" stroke-width="12.04" d="M232.949 242.105c0 10.562-8.563 19.125-19.125 19.125s-19.125-8.563-19.125-19.125 8.563-19.125 19.125-19.125 19.125 8.563 19.125 19.125z"/><path stroke="#121330" stroke-linecap="round" stroke-linejoin="round" stroke-width="12.04" d="M377.652 242.105c0 10.562-8.563 19.125-19.125 19.125s-19.125-8.563-19.125-19.125 8.563-19.125 19.125-19.125 19.125 8.563 19.125 19.125z"/><path stroke="#07A889" stroke-linecap="round" stroke-linejoin="round" stroke-width="12.04" d="M160.598 320.091c0 10.562-8.563 19.125-19.125 19.125s-19.125-8.563-19.125-19.125 8.563-19.125 19.125-19.125 19.125 8.563 19.125 19.125z"/><path stroke="#121330" stroke-linecap="round" stroke-linejoin="round" stroke-width="12.04" d="M232.949 320.091c0 10.562-8.563 19.125-19.125 19.125s-19.125-8.563-19.125-19.125 8.563-19.125 19.125-19.125 19.125 8.563 19.125 19.125z"/><path stroke="#07A889" stroke-width="2" d="M286.176 320.091"/><path stroke="#121330" stroke-linecap="round" stroke-linejoin="round" stroke-width="12.04" d="M305.301 320.091c0 10.562-8.563 19.125-19.125 19.125s-19.125-8.563-19.125-19.125 8.563-19.125 19.125-19.125 19.125 8.563 19.125 19.125z"/></g><path fill="none" stroke="#07A889" stroke-linecap="round" stroke-linejoin="round" stroke-width="12.04" d="M327 354.547c0-30.406 24.649-55.055 55.055-55.055s55.055 24.649 55.055 55.055-24.649 55.055-55.055 55.055S327 384.953 327 354.547zm55.055-26.637v53.274m26.637-26.637h-53.274" style="display:block"/><g class="com" style="display:none"><path/><path/><path/><path/><path/><path/><path/><path/><path/><path/><path/><path/></g></g></svg>