<svg xmlns="http://www.w3.org/2000/svg" width="500" height="500" style="width:100%;height:100%;transform:translate3d(0,0,0);content-visibility:visible" viewBox="0 0 500 500"><defs><filter id="a" width="100%" height="100%" x="0%" y="0%" filterUnits="objectBoundingBox"><feComponentTransfer in="SourceGraphic"><feFuncA tableValues="1.0 0.0" type="table"/></feComponentTransfer></filter><filter id="c" width="100%" height="100%" x="0%" y="0%" filterUnits="objectBoundingBox"><feComponentTransfer in="SourceGraphic"><feFuncA tableValues="1.0 0.0" type="table"/></feComponentTransfer></filter><filter id="e" width="100%" height="100%" x="0%" y="0%" filterUnits="objectBoundingBox"><feComponentTransfer in="SourceGraphic"><feFuncA tableValues="1.0 0.0" type="table"/></feComponentTransfer></filter><filter id="g" width="100%" height="100%" x="0%" y="0%" filterUnits="objectBoundingBox"><feComponentTransfer in="SourceGraphic"><feFuncA tableValues="1.0 0.0" type="table"/></feComponentTransfer></filter><filter id="i" width="100%" height="100%" x="0%" y="0%" filterUnits="objectBoundingBox"><feComponentTransfer in="SourceGraphic"><feFuncA tableValues="1.0 0.0" type="table"/></feComponentTransfer></filter><filter id="k" width="100%" height="100%" x="0%" y="0%" filterUnits="objectBoundingBox"><feComponentTransfer in="SourceGraphic"><feFuncA tableValues="1.0 0.0" type="table"/></feComponentTransfer></filter><mask id="w" mask-type="alpha"><g filter="url(#a)"><path fill="#fff" d="M0 0h500v500H0z" opacity="0"/><use xmlns:ns1="http://www.w3.org/1999/xlink" ns1:href="#b"/></g></mask><mask id="v" mask-type="alpha"><g filter="url(#c)"><path fill="#fff" d="M0 0h500v500H0z" opacity="0"/><use xmlns:ns2="http://www.w3.org/1999/xlink" ns2:href="#d"/></g></mask><mask id="t" mask-type="alpha"><g filter="url(#e)"><path fill="#fff" d="M0 0h500v500H0z" opacity="0"/><use xmlns:ns3="http://www.w3.org/1999/xlink" ns3:href="#f"/></g></mask><mask id="s" mask-type="alpha"><g filter="url(#g)"><path fill="#fff" d="M0 0h500v500H0z" opacity="0"/><use xmlns:ns4="http://www.w3.org/1999/xlink" ns4:href="#h"/></g></mask><mask id="r" mask-type="alpha"><g filter="url(#i)"><path fill="#fff" d="M0 0h500v500H0z" opacity="0"/><use xmlns:ns5="http://www.w3.org/1999/xlink" ns5:href="#j"/></g></mask><mask id="q" mask-type="alpha"><g filter="url(#k)"><path fill="#fff" d="M0 0h500v500H0z" opacity="0"/><use xmlns:ns6="http://www.w3.org/1999/xlink" ns6:href="#l"/></g></mask><clipPath id="o"><path d="M0 0h500v500H0z"/></clipPath><clipPath id="m"><path d="M0 0h500v500H0z"/></clipPath><clipPath id="u"><path d="M0 0h500v500H0z"/></clipPath><clipPath id="n"><path d="M0 0h500v500H0z"/></clipPath><clipPath id="p"><path d="M0 0h500v500H0z"/></clipPath><path id="h" fill="red" d="M274.39 281.03v-38.86h84.97v38.86" style="display:block"/><path id="j" fill="red" d="M274.39 281.03v-38.86h84.97v38.86" style="display:block"/><path id="b" fill="#FFF" d="M59.672 0c0 45.441-23.818 85.334-59.672 107.864C-35.854 85.334-59.672 45.441-59.672 0c0-45.458 23.818-85.35 59.672-107.864C35.854-85.35 59.672-45.458 59.672 0z" style="display:block" transform="matrix(.64 0 0 .64 181 320.57)"/><path id="d" fill="#FFF" d="M59.672 0c0 45.441-23.818 85.334-59.672 107.864C-35.854 85.334-59.672 45.441-59.672 0c0-45.458 23.818-85.35 59.672-107.864C35.854-85.35 59.672-45.458 59.672 0z" style="display:block" transform="matrix(.64 0 0 .64 181 320.57)"/><g id="f" clip-path="url(#m)" style="display:block" transform="matrix(.64 0 0 .64 21 175.654)"><g style="display:block"><path fill="#FFF" d="M358.985 307.993c-30.819 27.287-72.177 35.089-108.988 24.301-6.25-37.846 6.504-77.956 37.323-105.243 30.83-27.297 72.189-35.098 108.989-24.301 6.261 37.837-6.494 77.946-37.324 105.243z"/><path fill-opacity="0" stroke="#08A88A" stroke-linecap="round" stroke-linejoin="round" stroke-width="0" d="M358.985 307.993c-30.819 27.287-72.177 35.089-108.988 24.301-6.25-37.846 6.504-77.956 37.323-105.243 30.83-27.297 72.189-35.098 108.989-24.301 6.261 37.837-6.494 77.946-37.324 105.243z"/></g><g style="display:block"><path fill="#FFF" d="M141.011 307.994c30.819 27.287 72.177 35.089 108.988 24.301 6.25-37.846-6.504-77.956-37.323-105.243-30.83-27.297-72.189-35.098-108.989-24.301-6.261 37.837 6.494 77.946 37.324 105.243z"/><path fill-opacity="0" stroke="#08A88A" stroke-linecap="round" stroke-linejoin="round" stroke-width="0" d="M141.011 307.994c30.819 27.287 72.177 35.089 108.988 24.301 6.25-37.846-6.504-77.956-37.323-105.243-30.83-27.297-72.189-35.098-108.989-24.301-6.261 37.837 6.494 77.946 37.324 105.243z"/></g><g style="display:block"><path fill="#FFF" d="M309.672 226.431c0 45.441-23.818 85.334-59.672 107.864-35.854-22.53-59.672-62.423-59.672-107.864 0-45.458 23.818-85.35 59.672-107.864 35.854 22.514 59.672 62.406 59.672 107.864z"/><path fill-opacity="0" stroke="#121331" stroke-linecap="round" stroke-linejoin="round" stroke-width="0" d="M309.672 226.431c0 45.441-23.818 85.334-59.672 107.864-35.854-22.53-59.672-62.423-59.672-107.864 0-45.458 23.818-85.35 59.672-107.864 35.854 22.514 59.672 62.406 59.672 107.864z"/></g></g><g id="l" clip-path="url(#n)" style="display:block" transform="matrix(.64 0 0 .64 21 175.654)"><g style="display:block"><path fill="#FFF" d="M358.985 307.993c-30.819 27.287-72.177 35.089-108.988 24.301-6.25-37.846 6.504-77.956 37.323-105.243 30.83-27.297 72.189-35.098 108.989-24.301 6.261 37.837-6.494 77.946-37.324 105.243z"/><path fill-opacity="0" stroke="#08A88A" stroke-linecap="round" stroke-linejoin="round" stroke-width="0" d="M358.985 307.993c-30.819 27.287-72.177 35.089-108.988 24.301-6.25-37.846 6.504-77.956 37.323-105.243 30.83-27.297 72.189-35.098 108.989-24.301 6.261 37.837-6.494 77.946-37.324 105.243z"/></g><g style="display:block"><path fill="#FFF" d="M141.011 307.994c30.819 27.287 72.177 35.089 108.988 24.301 6.25-37.846-6.504-77.956-37.323-105.243-30.83-27.297-72.189-35.098-108.989-24.301-6.261 37.837 6.494 77.946 37.324 105.243z"/><path fill-opacity="0" stroke="#08A88A" stroke-linecap="round" stroke-linejoin="round" stroke-width="0" d="M141.011 307.994c30.819 27.287 72.177 35.089 108.988 24.301 6.25-37.846-6.504-77.956-37.323-105.243-30.83-27.297-72.189-35.098-108.989-24.301-6.261 37.837 6.494 77.946 37.324 105.243z"/></g><g style="display:block"><path fill="#FFF" d="M309.672 226.431c0 45.441-23.818 85.334-59.672 107.864-35.854-22.53-59.672-62.423-59.672-107.864 0-45.458 23.818-85.35 59.672-107.864 35.854 22.514 59.672 62.406 59.672 107.864z"/><path fill-opacity="0" stroke="#121331" stroke-linecap="round" stroke-linejoin="round" stroke-width="0" d="M309.672 226.431c0 45.441-23.818 85.334-59.672 107.864-35.854-22.53-59.672-62.423-59.672-107.864 0-45.458 23.818-85.35 59.672-107.864 35.854 22.514 59.672 62.406 59.672 107.864z"/></g></g></defs><g clip-path="url(#o)"><g clip-path="url(#p)" mask="url(#q)" style="display:block"><g mask="url(#r)" style="display:block"><path fill="none" stroke="#121330" stroke-linecap="round" stroke-linejoin="round" stroke-width="11.97" d="m336.685 343.64-81.62-253.372"/></g><g mask="url(#s)" style="display:block"><path fill="none" stroke="#121330" stroke-linecap="round" stroke-linejoin="round" stroke-width="11.97" d="m292.557 358.609 81.62-253.372"/></g><path fill="none" stroke="#07A889" stroke-linecap="round" stroke-linejoin="round" stroke-width="11.97" d="M-37.909-49.915v-38.857h84.964v38.857M-97.819 23.784v-47.568c0-14.432 11.7-26.131 26.132-26.131H71.687c14.432 0 26.132 11.699 26.132 26.131v47.568c0 14.432-11.7 26.131-26.132 26.131l-96.374-.084" style="display:block" transform="translate(312.301 330.94)"/></g><g mask="url(#t)" style="display:block"><g fill="none" stroke="#121330" stroke-linecap="round" stroke-linejoin="round" stroke-width="19.04" clip-path="url(#u)" transform="matrix(.64 0 0 .64 21 175.654)"><path d="M-2.472 46.143C-40.438 44.11-72.781 23.907-90.12-4.827c20.308-26.717 54.625-43.349 92.591-41.316C40.45-44.109 72.795-23.906 90.12 4.827 69.825 31.545 35.507 48.177-2.472 46.143z" style="display:block" transform="translate(340.122 337.122)"/><path d="M2.472 46.143C40.438 44.11 72.781 23.907 90.12-4.827 69.812-31.544 35.495-48.176-2.471-46.143-40.45-44.109-72.795-23.906-90.12 4.827c20.295 26.718 54.613 43.35 92.592 41.316z" style="display:block" transform="translate(159.878 337.121)"/></g></g><g mask="url(#v)" style="display:block"><path fill="none" stroke="#07A889" stroke-linecap="round" stroke-linejoin="round" stroke-width="12.186" d="M250.75 372.77c-19.724 17.463-46.194 22.457-69.753 15.552-4-24.221 4.163-49.891 23.887-67.355 19.731-17.47 46.201-22.463 69.753-15.553 4.007 24.216-4.156 49.886-23.887 67.356z"/></g><g mask="url(#w)" style="display:block"><path fill="none" stroke="#07A889" stroke-linecap="round" stroke-linejoin="round" stroke-width="12.186" d="M111.246 372.77c19.724 17.464 46.194 22.457 69.753 15.553 4-24.221-4.163-49.892-23.887-67.355-19.731-17.47-46.201-22.463-69.753-15.553-4.007 24.216 4.156 49.885 23.887 67.355z"/></g><path fill="none" stroke="#121330" stroke-linecap="round" stroke-linejoin="round" stroke-width="19.04" d="M59.672 0c0 45.441-23.818 85.334-59.672 107.864C-35.854 85.334-59.672 45.441-59.672 0c0-45.458 23.818-85.35 59.672-107.864C35.854-85.35 59.672-45.458 59.672 0z" style="display:block" transform="matrix(.64 0 0 .64 181 320.57)"/><g class="com" style="display:none"><path/><path/><path/><path/><path/><path/><path/><path/><path/><path/><path/><path/></g></g></svg>