<svg xmlns="http://www.w3.org/2000/svg" width="500" height="500"
    style="width:100%;height:100%;transform:translate3d(0,0,0);content-visibility:visible"
    viewBox="0 0 500 500">
    <defs>
        <clipPath id="a">
            <path d="M0 0h500v500H0z" />
        </clipPath>
    </defs>
    <g clip-path="url(#a)">
        <path fill="none" stroke="#121330" stroke-linecap="round" stroke-linejoin="round"
            stroke-width="2.1"
            d="M8.677 31.836h-21.21l.066-2.067c0-7.742 6.277-14.019 14.019-14.019h16.031c7.742 0 14.019 6.277 14.019 14.019l-.066 2.067s0 0 0 0H8.677"
            style="display:block" transform="translate(191.878 185.43) scale(6.068)" />
        <path fill="none" stroke="#07A889" stroke-linecap="round" stroke-linejoin="round"
            stroke-width="2.1"
            d="M15.673-9.749a10.107 10.107 0 0 1 2.373 6.522s0 0 0 0c0 5.604-4.544 10.148-10.148 10.148S-2.25 2.377-2.25-3.227 2.293-13.375 7.898-13.375c3.121 0 5.913 1.409 7.775 3.626"
            style="display:block" transform="translate(202.012 205.152) scale(6.068)" />
        <g class="com" style="display:none">
            <path />
            <path />
            <path />
            <path />
            <path />
            <path />
            <path />
            <path />
            <path />
            <path />
            <path />
            <path />
        </g>
    </g>
</svg>