<svg xmlns="http://www.w3.org/2000/svg" width="500" height="500" style="width:100%;height:100%;transform:translate3d(0,0,0);content-visibility:visible" viewBox="0 0 500 500"><defs><clipPath id="a"><path d="M0 0h500v500H0z"/></clipPath></defs><g clip-path="url(#a)"><g fill="none" stroke="#121330" stroke-linecap="round" stroke-linejoin="round" stroke-width="12.6" style="display:block"><path d="M124.074 381.608V271.862l-18.807-18.807"/><path d="M124.208 91.743s0 0 0 0c25.792 0 46.701 17.257 46.701 46.701V265.19c0 25.792-20.909 46.702-46.701 46.702 0 0 0 0 0 0-25.792 0-46.702-20.91-46.702-46.702V138.444c0-31.444 20.91-46.701 46.702-46.701zm-15.459 289.865h28.065"/></g><path fill="none" stroke="#07A889" stroke-linecap="round" stroke-linejoin="round" stroke-width="12.6" d="M1343.157 258.799a34.308 34.308 0 0 1 0-30.685s0 0 0 0a34.31 34.31 0 0 0 0-30.686s0 0 0 0a34.31 34.31 0 0 1-1.514-27.184" style="display:block" transform="translate(-1070.5 -52)"/><path fill="none" stroke="#07A889" stroke-linecap="round" stroke-linejoin="round" stroke-width="12.6" d="M1343.157 258.799a34.308 34.308 0 0 1 0-30.685s0 0 0 0a34.31 34.31 0 0 0 0-30.686s0 0 0 0a34.31 34.31 0 0 1-1.514-27.184" style="display:block" transform="matrix(-1 0 0 1 1661.564 -52)"/><path fill="none" stroke="#07A889" stroke-linecap="round" stroke-linejoin="round" stroke-width="12.6" d="M1343.157 258.799a34.308 34.308 0 0 1 0-30.685s0 0 0 0a34.31 34.31 0 0 0 0-30.686s0 0 0 0a34.31 34.31 0 0 1-1.514-27.184" style="display:block" transform="translate(-980 -52)"/><g fill="none" stroke-linecap="round" stroke-linejoin="round" stroke-width="12.6" style="display:block"><path stroke="#07A889" d="M291.327 287.647h56.645m57.474 0h19.314m-213.488 0h19.313"/><path stroke="#121330" d="M409.51 259.868c0 50.532-40.964 91.496-91.496 91.496s-91.497-40.964-91.497-91.496m139.386 77.977 12.724 35.331H247.96m12.109-42.496-22.116 77.614m-18.686 0h39.03m154.237-19.455c0 11.363-9.211 20.573-20.574 20.573-11.363 0-20.573-9.21-20.573-20.573s9.21-20.574 20.573-20.574 20.574 9.211 20.574 20.574z"/><path stroke="#07A889" d="M412.242 259.868H223.785c-6.913 0-12.518-5.605-12.518-12.518 0 0 0 0 0 0 0-6.913 5.605-12.518 12.518-12.518h188.457c6.913 0 12.518 5.605 12.518 12.518 0 0 0 0 0 0 0 6.913-5.605 12.518-12.518 12.518z"/></g><g class="com" style="display:none"><path/><path/><path/><path/><path/><path/><path/><path/><path/><path/><path/><path/></g></g></svg>