<svg xmlns="http://www.w3.org/2000/svg" width="500" height="500" style="width:100%;height:100%;transform:translate3d(0,0,0);content-visibility:visible" viewBox="0 0 500 500"><defs><clipPath id="a"><path d="M0 0h500v500H0z"/></clipPath></defs><g clip-path="url(#a)"><g fill="none" stroke-linecap="round" stroke-linejoin="round" stroke-width="11.718" style="display:block"><path stroke="#07A889" d="m216.544 121.195-.006-27.668c-.003-15.27 14.163-27.667 31.614-27.667h5.535c17.452 0 31.623 12.298 31.626 27.445l.007 27.445M101.2 369.97v-71.61c0-16.938 8.96-33.19 19.995-36.27l19.995-5.58m261.795 113.46v-71.61c0-16.938-9.585-33.19-21.39-36.27l-21.39-5.58"/><path stroke="#121330" d="M417.4 383.92c0-6.672-5.418-12.09-12.09-12.09H96.55c-6.672 0-12.09 5.418-12.09 12.09v.93c0 6.672 5.418 12.09 12.09 12.09h308.76c6.672 0 12.09-5.418 12.09-12.09v-.93z"/><path stroke="#121330" d="M143.05 372.295V224.89c0-59.539 48.341-107.88 107.88-107.88 0 0 0 0 0 0 59.539 0 107.88 48.341 107.88 107.88V370.9"/></g><g fill="none" stroke-linecap="round" stroke-linejoin="round" stroke-width="11.718" style="display:block"><path stroke="#07A889" d="M249.535 200.71"/><path stroke="#121330" d="M329.98 297.43c0-17.451-14.169-31.62-31.62-31.62h-96.72c-17.451 0-31.62 14.169-31.62 31.62v42.78c0 17.451 14.169 31.62 31.62 31.62h96.72c17.451 0 31.62-14.169 31.62-31.62v-42.78zm-130.433 2.325H300.22"/><path stroke="#07A889" d="M250 250"/><path stroke="#121330" d="m170.9 154.018.025 24.741c.014 13.655 14.194 24.741 31.645 24.741h97.65c17.451 0 31.609-10.982 31.595-24.508l-.024-24.509"/><path stroke="#07A889" d="M210.475 192.34v42.78m79.98-42.78v42.78"/></g><path fill="none" stroke="#07A889" stroke-linecap="round" stroke-linejoin="round" stroke-width="12.6" d="M54 54v16.5" style="display:block" transform="matrix(.93 0 0 .93 250 250)"/><g class="com" style="display:none"><path/><path/><path/><path/><path/><path/><path/><path/><path/><path/><path/><path/></g></g></svg>