<svg xmlns="http://www.w3.org/2000/svg" width="500" height="500" style="width:100%;height:100%;transform:translate3d(0,0,0);content-visibility:visible" viewBox="0 0 500 500"><defs><clipPath id="d"><path d="M0 0h500v500H0z"/></clipPath><clipPath id="c"><path d="M0 0h500v500H0z"/></clipPath><filter id="a" width="100%" height="100%" x="0%" y="0%" filterUnits="objectBoundingBox"><feComponentTransfer in="SourceGraphic"><feFuncA tableValues="1.0 0.0" type="table"/></feComponentTransfer></filter><mask id="e" mask-type="alpha"><g filter="url(#a)"><path fill="#fff" d="M0 0h500v500H0z" opacity="0"/><use xmlns:ns1="http://www.w3.org/1999/xlink" ns1:href="#b"/></g></mask><g id="b" clip-path="url(#c)" style="display:block"><g style="display:block"><path fill="#FFF" d="M236.633 192.992h-72.792v-57.743h72.792v57.743z"/><path fill-opacity="0" stroke="red" stroke-linecap="round" stroke-linejoin="round" stroke-width="0" d="M236.633 192.992h-72.792v-57.743h72.792v57.743z"/></g><g style="display:block"><path fill="#FFF" d="M336.883 192.992h-72.792v-57.743h72.792v57.743z"/><path fill-opacity="0" stroke="red" stroke-linecap="round" stroke-linejoin="round" stroke-width="0" d="M336.883 192.992h-72.792v-57.743h72.792v57.743z"/></g><g style="display:block"><path fill="#FFF" d="M122.296 223.165 89.857 330.517h320.238l-32.248-106.721-46.495-.114-171.847-.425-37.209-.092z"/><path fill-opacity="0" stroke="#F00202" stroke-linecap="round" stroke-linejoin="round" stroke-width="0" d="M122.296 223.165 89.857 330.517h320.238l-32.248-106.721-46.495-.114-171.847-.425-37.209-.092z"/></g></g></defs><g clip-path="url(#d)"><g mask="url(#e)" style="display:block"><path fill="none" stroke="#121330" stroke-linecap="round" stroke-linejoin="round" stroke-width="12.6" d="M364.347 179.121H135.605v-54.782c0-18.778 15.222-34 34-34h160.742c18.778 0 34 15.222 34 34v54.782zm0 0H135.605L89.857 330.517h320.238l-45.748-151.396z"/></g><path fill="none" stroke="#121330" stroke-linecap="round" stroke-linejoin="round" stroke-width="12.6" d="M-756.143-223.359h320.238m0-53.374v80.06m-320.238-80.06v80.06" style="display:block" transform="translate(846 607.25)"/><path fill="none" stroke="#07A889" stroke-linecap="round" stroke-linejoin="round" stroke-width="12.6" d="M-609.367-409.258h-72.792v-57.743h72.792v57.743z" style="display:block" transform="translate(846 602.25)"/><path fill="none" stroke="#07A889" stroke-linecap="round" stroke-linejoin="round" stroke-width="12.6" d="M-609.367-409.258h-72.792v-57.743h72.792v57.743z" style="display:block" transform="translate(946.25 602.25)"/><path fill="none" stroke="#07A889" stroke-linecap="round" stroke-linejoin="round" stroke-width="12.6" d="m-723.704-384.085-32.439 107.352h320.238l-32.248-106.721-46.495-.114-171.847-.425-37.209-.092z" style="display:block" transform="translate(846 607.25)"/><g class="com" style="display:none"><path/><path/><path/><path/><path/><path/><path/><path/><path/><path/><path/><path/></g></g></svg>