<svg xmlns="http://www.w3.org/2000/svg" width="500" height="500" style="width:100%;height:100%;transform:translate3d(0,0,0);content-visibility:visible" viewBox="0 0 500 500"><defs><clipPath id="a"><path d="M0 0h500v500H0z"/></clipPath></defs><g clip-path="url(#a)"><g fill="none" stroke-linecap="round" stroke-linejoin="round" stroke-width="12" style="display:block"><path stroke="#07A889" d="m313.391 354.425 14.149 55.694H172.46l14.148-55.694M250 410.119V379.42m-41.901 30.699v-22.612m83.801 22.612v-22.612"/><path stroke="#121330" d="M263.923 298.732h-27.846V103.224c0-7.369 5.974-13.343 13.343-13.343h1.16c7.369 0 13.343 5.974 13.343 13.343v195.508zm0 0 18.642 18.641a31.43 31.43 0 0 0 22.224 9.206s0 0 0 0c8.189 0 14.828 6.638 14.828 14.827v13.02H180.383v-13.019c0-8.189 6.639-14.828 14.828-14.828 0 0 0 0 0 0a31.43 31.43 0 0 0 22.224-9.206l18.642-18.641m0 0"/></g><path fill="none" stroke="#07A889" stroke-linecap="round" stroke-linejoin="round" stroke-width="12" d="M10.39-10.39 29.388 0 10.39 10.39 0 29.388-10.39 10.39-29.388 0l18.998-10.39L0-29.388 10.39-10.39z" style="display:block" transform="translate(146.254 209.97)"/><path fill="none" stroke="#07A889" stroke-linecap="round" stroke-linejoin="round" stroke-width="12" d="M12.818-12.818 36.255 0 12.818 12.818 0 36.255l-12.818-23.437L-36.255 0l23.437-12.818L0-36.255l12.818 23.437z" style="display:block" transform="translate(346.403 152.371)"/><path style="display:none"/></g></svg>