<svg xmlns="http://www.w3.org/2000/svg" width="500" height="500" style="width:100%;height:100%;transform:translate3d(0,0,0);content-visibility:visible" viewBox="0 0 500 500"><defs><clipPath id="o"><path d="M0 0h500v500H0z"/></clipPath><clipPath id="B"><path d="M0 0h500v500H0z"/></clipPath><clipPath id="D"><path d="M0 0h409v9725H0z"/></clipPath><clipPath id="F"><path d="M0 0h409v9725H0z"/></clipPath><clipPath id="p"><path d="M0 0h500v500H0z"/></clipPath><clipPath id="q"><path d="M0 0h500v500H0z"/></clipPath><clipPath id="s"><path d="M0 0h500v500H0z"/></clipPath><clipPath id="u"><path d="M0 0h500v500H0z"/></clipPath><clipPath id="w"><path d="M0 0h500v500H0z"/></clipPath><clipPath id="y"><path d="M0 0h500v500H0z"/></clipPath><mask id="E" mask-type="alpha"><use xmlns:ns1="http://www.w3.org/1999/xlink" ns1:href="#a"/></mask><mask id="C" mask-type="alpha"><use xmlns:ns2="http://www.w3.org/1999/xlink" ns2:href="#b"/></mask><mask id="A" mask-type="alpha"><g filter="url(#c)"><path fill="#fff" d="M0 0h500v500H0z" opacity="0"/><use xmlns:ns3="http://www.w3.org/1999/xlink" ns3:href="#d"/></g></mask><mask id="z" mask-type="alpha"><g filter="url(#e)"><path fill="#fff" d="M0 0h500v500H0z" opacity="0"/><use xmlns:ns4="http://www.w3.org/1999/xlink" ns4:href="#f"/></g></mask><mask id="x" mask-type="alpha"><g filter="url(#g)"><path fill="#fff" d="M0 0h500v500H0z" opacity="0"/><use xmlns:ns5="http://www.w3.org/1999/xlink" ns5:href="#h"/></g></mask><mask id="v" mask-type="alpha"><g filter="url(#i)"><path fill="#fff" d="M0 0h500v500H0z" opacity="0"/><use xmlns:ns6="http://www.w3.org/1999/xlink" ns6:href="#j"/></g></mask><mask id="t" mask-type="alpha"><g filter="url(#k)"><path fill="#fff" d="M0 0h500v500H0z" opacity="0"/><use xmlns:ns7="http://www.w3.org/1999/xlink" ns7:href="#l"/></g></mask><mask id="r" mask-type="alpha"><g filter="url(#m)"><path fill="#fff" d="M0 0h500v500H0z" opacity="0"/><use xmlns:ns8="http://www.w3.org/1999/xlink" ns8:href="#n"/></g></mask><path id="a" fill="#121432" d="M45.625-33.375v66.75h-91.25v-66.75h91.25z" style="display:block" transform="matrix(3.5 0 0 3.5 248.687 292.438)"/><path id="l" style="display:none"/><path id="j" style="display:none"/><path id="f" style="display:none"/><path id="d" style="display:none"/><path id="n" fill="red" d="M411 411.16H89V174.49h322v236.67z" style="display:block"/><path id="h" style="display:none"/><filter id="c" width="100%" height="100%" x="0%" y="0%" filterUnits="objectBoundingBox"><feComponentTransfer in="SourceGraphic"><feFuncA tableValues="1.0 0.0" type="table"/></feComponentTransfer></filter><filter id="e" width="100%" height="100%" x="0%" y="0%" filterUnits="objectBoundingBox"><feComponentTransfer in="SourceGraphic"><feFuncA tableValues="1.0 0.0" type="table"/></feComponentTransfer></filter><filter id="g" width="100%" height="100%" x="0%" y="0%" filterUnits="objectBoundingBox"><feComponentTransfer in="SourceGraphic"><feFuncA tableValues="1.0 0.0" type="table"/></feComponentTransfer></filter><filter id="i" width="100%" height="100%" x="0%" y="0%" filterUnits="objectBoundingBox"><feComponentTransfer in="SourceGraphic"><feFuncA tableValues="1.0 0.0" type="table"/></feComponentTransfer></filter><filter id="k" width="100%" height="100%" x="0%" y="0%" filterUnits="objectBoundingBox"><feComponentTransfer in="SourceGraphic"><feFuncA tableValues="1.0 0.0" type="table"/></feComponentTransfer></filter><filter id="m" width="100%" height="100%" x="0%" y="0%" filterUnits="objectBoundingBox"><feComponentTransfer in="SourceGraphic"><feFuncA tableValues="1.0 0.0" type="table"/></feComponentTransfer></filter><g id="b" style="display:block"><path fill="#121432" d="M408.375 175.625V409.25H89V175.625h319.375z"/><path fill-opacity="0" stroke="#121330" stroke-width="13.65" d="M408.375 175.625V409.25H89V175.625h319.375z"/></g></defs><g clip-path="url(#o)"><g fill="none" clip-path="url(#p)" opacity="0" style="display:block"><g clip-path="url(#q)" mask="url(#r)" style="display:block"><g clip-path="url(#s)" mask="url(#t)" style="display:block"><g clip-path="url(#u)" mask="url(#v)" style="display:block"><g clip-path="url(#w)" mask="url(#x)" style="display:block"><g clip-path="url(#y)" mask="url(#z)" style="display:block"><path stroke="#121330" stroke-linecap="round" stroke-linejoin="round" stroke-width="12.397" d="M411 174.491H89v-47.134h322v47.134zm-246.103-47.134h-43.698V88.839h43.698v38.518zm213.904 0h-43.698V88.839h43.698v38.518z" style="display:block"/><g mask="url(#A)" style="display:none"><path/><path/></g><g style="display:none"><path/><path/></g></g><g style="display:none"><path/><path/></g></g><g style="display:none"><path/><path/></g></g><path stroke="#121330" stroke-linecap="round" stroke-linejoin="round" stroke-width="12.397" d="M411 174.491H89v-47.134h322v47.134zm-246.103-47.134h-43.698V88.839h43.698v38.518zm213.904 0h-43.698V88.839h43.698v38.518z" style="display:block"/><g style="display:none"><path/><path/></g></g><g style="display:none"><path/><path/></g></g><g stroke-linecap="round" stroke-linejoin="round" stroke-width="12.397" opacity="1" style="display:block"><path stroke="#07A889" d="m207.406 261.084 51.612-48.964v158.852" opacity="1"/><path stroke="#121330" d="M411 411.161H89v-236.67h322v236.67z" opacity="1"/></g></g><g clip-path="url(#B)" style="display:block"><g mask="url(#C)" style="display:block"><g fill="none" stroke="#07A889" stroke-linecap="round" stroke-linejoin="round" stroke-width="12" clip-path="url(#D)" transform="translate(45.25 -9259.825)"><path d="M-308.288 5220.314h6.973c25.522 0 46.211-20.689 46.211-46.211v-72.756c0-25.522-20.689-46.213-46.211-46.213h-6.973c-25.522 0-46.212 20.691-46.212 46.213v72.756c0 25.522 20.69 46.211 46.212 46.211z" style="display:block" transform="translate(569.721 1602.656)"/><path d="M-308.288 5220.314h6.973c25.522 0 46.211-20.689 46.211-46.211v-72.756c0-25.522-20.689-46.213-46.211-46.213h-6.973c-25.522 0-46.212 20.691-46.212 46.213v72.756c0 25.522 20.69 46.211 46.212 46.211z" style="display:block" transform="translate(575.259 -1515.724)"/><path d="M-308.288 5220.314h6.973c25.522 0 46.211-20.689 46.211-46.211v-72.756c0-25.522-20.689-46.213-46.211-46.213h-6.973c-25.522 0-46.212 20.691-46.212 46.213v72.756c0 25.522 20.69 46.211 46.212 46.211z" style="display:block" transform="translate(575.259 -4626.555)"/><g style="display:block"><path d="m317.259 789.662-.333 23.894c-.623 44.588-32.143 82.756-75.81 91.797 0 0 0 0 0 0"/><path d="M317.269 788.67c0-26.876-20.958-48.663-46.812-48.663s-46.813 21.786-46.813 48.663c0 26.877 20.959 48.664 46.813 48.664 25.854 0 46.812-21.788 46.812-48.664z"/></g><g style="display:block"><path d="m236.148 7017.31-.333 23.893c-.623 44.588-32.143 82.756-75.81 91.797 0 0 0 0 0 0"/><path d="M236.158 7016.317c0-26.876-20.958-48.663-46.812-48.663s-46.813 21.786-46.813 48.663c0 26.877 20.959 48.664 46.813 48.664 25.854 0 46.812-21.788 46.812-48.664z"/></g><g style="display:block"><path d="m311.72 3911.568-.332 23.894c-.623 44.588-32.143 82.756-75.81 91.797 0 0 0 0 0 0"/><path d="M311.731 3910.576c0-26.876-20.958-48.663-46.812-48.663s-46.813 21.786-46.813 48.663c0 26.877 20.959 48.664 46.813 48.664 25.854 0 46.812-21.788 46.812-48.664z"/></g><g style="display:block"><path d="M228.474 7325.913c0 21.61-17.518 39.129-39.128 39.129s-39.13-17.52-39.13-39.129c0-21.61 17.52-39.129 39.13-39.129 21.61 0 39.128 17.518 39.128 39.13z"/><path d="M211.377 7358.23c16.253 8.084 27.41 24.879 27.41 44.291 0 27.326-22.115 49.443-49.441 49.443-27.326 0-49.443-22.117-49.443-49.443 0-19.412 11.158-36.207 27.411-44.291"/></g><g style="display:block"><path d="M304.047 4519.388c0 21.611-17.518 39.13-39.128 39.13s-39.13-17.52-39.13-39.13c0-21.61 17.52-39.129 39.13-39.129 21.61 0 39.128 17.518 39.128 39.13z"/><path d="M286.95 4551.705c16.253 8.084 27.41 24.879 27.41 44.291 0 27.326-22.115 49.443-49.441 49.443-27.326 0-49.443-22.117-49.443-49.443 0-19.412 11.158-36.207 27.411-44.29"/></g><g style="display:block"><path d="M309.586 1089.33c0 21.61-17.518 39.129-39.128 39.129s-39.13-17.52-39.13-39.129c0-21.61 17.52-39.129 39.13-39.129 21.61 0 39.128 17.518 39.128 39.13z"/><path d="M292.489 1121.647c16.253 8.084 27.41 24.879 27.41 44.291 0 27.326-22.115 49.443-49.441 49.443-27.326 0-49.443-22.117-49.443-49.443 0-19.412 11.158-36.207 27.411-44.291"/></g><path d="M1512.76 5964.154h78.15l-48.354 165.346" style="display:block" transform="translate(-1286.915 -1792.241)"/><path d="M1512.76 5964.154h78.15l-48.354 165.346" style="display:block" transform="translate(-1362.488 1635.173)"/><path d="M1512.76 5964.154h78.15l-48.354 165.346" style="display:block" transform="translate(-1281.377 -4596.147)"/><g style="display:block"><path d="m142.72 8017.31.331-23.806c.62-44.422 32.024-82.446 75.528-91.454v-.001"/><path d="M142.71 8018.296c0 26.776 20.88 48.482 46.637 48.482s46.637-21.706 46.637-48.482-20.88-48.482-46.637-48.482-46.638 21.706-46.638 48.482z"/></g><g style="display:block"><path d="m218.292 4909.52.332-23.805c.62-44.422 32.024-82.446 75.527-91.454v-.001"/><path d="M218.282 4910.507c0 26.776 20.881 48.482 46.638 48.482 25.757 0 46.637-21.706 46.637-48.482s-20.88-48.482-46.637-48.482-46.638 21.706-46.638 48.482z"/></g><g style="display:block"><path d="m223.83 1793.912.332-23.805c.62-44.422 32.024-82.446 75.527-91.454v-.001"/><path d="M223.82 1794.899c0 26.776 20.881 48.482 46.638 48.482 25.757 0 46.637-21.706 46.637-48.482s-20.88-48.482-46.637-48.482-46.638 21.706-46.638 48.482z"/></g><g style="display:block"><path d="m146.333 8297.22 4.155-82.68h78.07"/><path d="M146.333 8362.662c9.014 10.136 22.161 16.532 36.782 16.532 27.208 0 49.243-22.056 49.243-49.243 0-27.208-22.035-49.243-49.243-49.243-14.62 0-27.768 6.376-36.782 16.511"/></g><g style="display:block"><path d="m221.906 5185.285 4.155-82.68h78.07"/><path d="M221.906 5250.728c9.014 10.136 22.16 16.532 36.782 16.532 27.208 0 49.243-22.056 49.243-49.243 0-27.208-22.035-49.243-49.243-49.243-14.621 0-27.768 6.376-36.782 16.511"/></g><g style="display:block"><path d="m227.444 2073.687 4.155-82.68h78.07"/><path d="M227.444 2139.13c9.014 10.136 22.161 16.532 36.782 16.532 27.208 0 49.243-22.056 49.243-49.243 0-27.208-22.035-49.243-49.243-49.243-14.621 0-27.768 6.376-36.782 16.511"/></g><path d="M3434.325 5159.43h-105.564l82.115-107.936v165.852" style="display:block" transform="translate(-3192.197 3478.5)"/><path d="M3434.325 5159.43h-105.564l82.115-107.936v165.852" style="display:block" transform="translate(-3116.624 360.766)"/><path d="M3434.325 5159.43h-105.564l82.115-107.936v165.852" style="display:block" transform="translate(-3111.086 -2755.487)"/><g style="display:block"><path d="M187.892 8919.488c27.609 0 49.999 18.945 49.999 42.199 0 23.233-22.378 42.072-49.987 42.072-21.73 0-40.22-11.669-47.104-27.965"/><path d="M145.372 8864.82c6.38-15.08 22.504-25.77 41.402-25.77 24.509 0 44.359 17.994 44.359 40.217 0 22.221-19.85 40.235-44.36 40.235m.001 0h-9.948"/></g><g style="display:block"><path d="M263.465 5800.698c27.609 0 49.999 18.944 49.999 42.198 0 23.234-22.378 42.073-49.987 42.073-21.73 0-40.22-11.67-47.104-27.965"/><path d="M220.945 5746.03c6.38-15.081 22.504-25.771 41.402-25.771 24.509 0 44.359 17.995 44.359 40.217 0 22.222-19.85 40.236-44.36 40.236m.001 0h-9.948"/></g><g style="display:block"><path d="M269.004 2695.488c27.609 0 49.999 18.944 49.999 42.198 0 23.234-22.378 42.073-49.987 42.073-21.73 0-40.22-11.669-47.104-27.965"/><path d="M226.484 2640.82c6.38-15.081 22.504-25.77 41.402-25.77 24.509 0 44.359 17.994 44.359 40.216s-19.85 40.236-44.359 40.236m0 0h-9.948"/></g><g style="display:block"><path d="M137.546 509.488c27.609 0 49.999 18.944 49.999 42.198 0 23.234-22.378 42.073-49.987 42.073-21.73 0-40.22-11.67-47.104-27.965"/><path d="M95.026 454.82c6.38-15.081 22.504-25.771 41.402-25.771 24.509 0 44.359 17.995 44.359 40.217 0 22.222-19.85 40.236-44.359 40.236m0 0h-9.948"/></g><g style="display:block"><path d="M137.546 200.488c27.609 0 49.999 18.944 49.999 42.198 0 23.234-22.378 42.073-49.987 42.073-21.73 0-40.22-11.67-47.104-27.965"/><path d="M95.026 145.82c6.38-15.081 22.504-25.771 41.402-25.771 24.509 0 44.359 17.995 44.359 40.217 0 22.222-19.85 40.236-44.359 40.236m0 0h-9.948"/></g><path d="M1605.865 5216.88h-99.284l82.369-99.086c5.313-6.944 8.492-15.626 8.492-25.06 0-22.779-18.449-41.228-41.228-41.228-22.758 0-41.208 18.45-41.208 41.228" style="display:block" transform="translate(-1366.877 4102.5)"/><path d="M1605.865 5216.88h-99.284l82.369-99.086c5.313-6.944 8.492-15.626 8.492-25.06 0-22.779-18.449-41.228-41.228-41.228-22.758 0-41.208 18.45-41.208 41.228" style="display:block" transform="translate(-1291.304 983.753)"/><path d="M1605.865 5216.88h-99.284l82.369-99.086c5.313-6.944 8.492-15.626 8.492-25.06 0-22.779-18.449-41.228-41.228-41.228-22.758 0-41.208 18.45-41.208 41.228" style="display:block" transform="translate(-1423.5 -1511.5)"/><path d="M1605.865 5216.88h-99.284l82.369-99.086c5.313-6.944 8.492-15.626 8.492-25.06 0-22.779-18.449-41.228-41.228-41.228-22.758 0-41.208 18.45-41.208 41.228" style="display:block" transform="translate(-1423.5 -2755.5)"/><path d="M1605.865 5216.88h-99.284l82.369-99.086c5.313-6.944 8.492-15.626 8.492-25.06 0-22.779-18.449-41.228-41.228-41.228-22.758 0-41.208 18.45-41.208 41.228" style="display:block" transform="translate(-1423.5 -2129.5)"/><path d="M1605.865 5216.88h-99.284l82.369-99.086c5.313-6.944 8.492-15.626 8.492-25.06 0-22.779-18.449-41.228-41.228-41.228-22.758 0-41.208 18.45-41.208 41.228" style="display:block" transform="translate(-1285.766 -2129.5)"/><path d="M1605.865 5216.88h-99.284l82.369-99.086c5.313-6.944 8.492-15.626 8.492-25.06 0-22.779-18.449-41.228-41.228-41.228-22.758 0-41.208 18.45-41.208 41.228" style="display:block" transform="translate(-1423.5 -3373.5)"/><path d="M1605.865 5216.88h-99.284l82.369-99.086c5.313-6.944 8.492-15.626 8.492-25.06 0-22.779-18.449-41.228-41.228-41.228-22.758 0-41.208 18.45-41.208 41.228" style="display:block" transform="translate(-1423.5 -4001.5)"/><path d="M1605.865 5216.88h-99.284l82.369-99.086c5.313-6.944 8.492-15.626 8.492-25.06 0-22.779-18.449-41.228-41.228-41.228-22.758 0-41.208 18.45-41.208 41.228" style="display:block" transform="translate(-1423.5 -1821.5)"/><path d="M1605.865 5216.88h-99.284l82.369-99.086c5.313-6.944 8.492-15.626 8.492-25.06 0-22.779-18.449-41.228-41.228-41.228-22.758 0-41.208 18.45-41.208 41.228" style="display:block" transform="translate(-1423.5 -3065.5)"/><path d="M1605.865 5216.88h-99.284l82.369-99.086c5.313-6.944 8.492-15.626 8.492-25.06 0-22.779-18.449-41.228-41.228-41.228-22.758 0-41.208 18.45-41.208 41.228" style="display:block" transform="translate(-1423.5 -2439.5)"/><path d="M1605.865 5216.88h-99.284l82.369-99.086c5.313-6.944 8.492-15.626 8.492-25.06 0-22.779-18.449-41.228-41.228-41.228-22.758 0-41.208 18.45-41.208 41.228" style="display:block" transform="translate(-1423.5 -3683.5)"/><path d="M1605.865 5216.88h-99.284l82.369-99.086c5.313-6.944 8.492-15.626 8.492-25.06 0-22.779-18.449-41.228-41.228-41.228-22.758 0-41.208 18.45-41.208 41.228" style="display:block" transform="translate(-1423.5 -4311.5)"/><path d="m566.629 5103.828 52.069-52.07v165" style="display:block" transform="translate(-403.317 4414.5)"/><path d="m566.629 5103.828 52.069-52.07v165" style="display:block" transform="translate(-467.5 1606.21)"/><path d="m566.629 5103.828 52.069-52.07v165" style="display:block" transform="translate(-467.5 1292.5)"/><path d="m566.629 5103.828 52.069-52.07v165" style="display:block" transform="translate(-467.5 983.5)"/><path d="m566.629 5103.828 52.069-52.07v165" style="display:block" transform="translate(-467.5 668.5)"/><path d="m566.629 5103.828 52.069-52.07v165" style="display:block" transform="translate(-467.5 -571.5)"/><path d="m566.629 5103.828 52.069-52.07v165" style="display:block" transform="translate(-467.5 50.5)"/><path d="m566.629 5103.828 52.069-52.07v165" style="display:block" transform="translate(-467.5 -1189.5)"/><path d="m566.629 5103.828 52.069-52.07v165" style="display:block" transform="translate(-322.206 -1819.5)"/><path d="m566.629 5103.828 52.069-52.07v165" style="display:block" transform="translate(-335.5 -4931.71)"/><path d="m566.629 5103.828 52.069-52.07v165" style="display:block" transform="translate(-467.5 360.5)"/><path d="m566.629 5103.828 52.069-52.07v165" style="display:block" transform="translate(-467.5 -879.5)"/><path d="m566.629 5103.828 52.069-52.07v165" style="display:block" transform="translate(-467.5 -257.5)"/><path d="m566.629 5103.828 52.069-52.07v165" style="display:block" transform="translate(-327.744 1292.5)"/></g></g><g mask="url(#E)" style="display:block"><g fill="none" stroke="#07A889" stroke-linecap="round" stroke-linejoin="round" stroke-width="12" clip-path="url(#F)" transform="translate(45.75 -18983.316)"><path d="M-308.288 5220.314h6.973c25.522 0 46.211-20.689 46.211-46.211v-72.756c0-25.522-20.689-46.213-46.211-46.213h-6.973c-25.522 0-46.212 20.691-46.212 46.213v72.756c0 25.522 20.69 46.211 46.212 46.211z" style="display:block" transform="translate(569.721 1602.656)"/><path d="M-308.288 5220.314h6.973c25.522 0 46.211-20.689 46.211-46.211v-72.756c0-25.522-20.689-46.213-46.211-46.213h-6.973c-25.522 0-46.212 20.691-46.212 46.213v72.756c0 25.522 20.69 46.211 46.212 46.211z" style="display:block" transform="translate(575.259 -1515.724)"/><path d="M-308.288 5220.314h6.973c25.522 0 46.211-20.689 46.211-46.211v-72.756c0-25.522-20.689-46.213-46.211-46.213h-6.973c-25.522 0-46.212 20.691-46.212 46.213v72.756c0 25.522 20.69 46.211 46.212 46.211z" style="display:block" transform="translate(575.259 -4626.555)"/><g style="display:block"><path d="m317.259 789.662-.333 23.894c-.623 44.588-32.143 82.756-75.81 91.797 0 0 0 0 0 0"/><path d="M317.269 788.67c0-26.876-20.958-48.663-46.812-48.663s-46.813 21.786-46.813 48.663c0 26.877 20.959 48.664 46.813 48.664 25.854 0 46.812-21.788 46.812-48.664z"/></g><g style="display:block"><path d="m236.148 7017.31-.333 23.893c-.623 44.588-32.143 82.756-75.81 91.797 0 0 0 0 0 0"/><path d="M236.158 7016.317c0-26.876-20.958-48.663-46.812-48.663s-46.813 21.786-46.813 48.663c0 26.877 20.959 48.664 46.813 48.664 25.854 0 46.812-21.788 46.812-48.664z"/></g><g style="display:block"><path d="m311.72 3911.568-.332 23.894c-.623 44.588-32.143 82.756-75.81 91.797 0 0 0 0 0 0"/><path d="M311.731 3910.576c0-26.876-20.958-48.663-46.812-48.663s-46.813 21.786-46.813 48.663c0 26.877 20.959 48.664 46.813 48.664 25.854 0 46.812-21.788 46.812-48.664z"/></g><g style="display:block"><path d="M228.474 7325.913c0 21.61-17.518 39.129-39.128 39.129s-39.13-17.52-39.13-39.129c0-21.61 17.52-39.129 39.13-39.129 21.61 0 39.128 17.518 39.128 39.13z"/><path d="M211.377 7358.23c16.253 8.084 27.41 24.879 27.41 44.291 0 27.326-22.115 49.443-49.441 49.443-27.326 0-49.443-22.117-49.443-49.443 0-19.412 11.158-36.207 27.411-44.291"/></g><g style="display:block"><path d="M304.047 4519.388c0 21.611-17.518 39.13-39.128 39.13s-39.13-17.52-39.13-39.13c0-21.61 17.52-39.129 39.13-39.129 21.61 0 39.128 17.518 39.128 39.13z"/><path d="M286.95 4551.705c16.253 8.084 27.41 24.879 27.41 44.291 0 27.326-22.115 49.443-49.441 49.443-27.326 0-49.443-22.117-49.443-49.443 0-19.412 11.158-36.207 27.411-44.29"/></g><g style="display:block"><path d="M309.586 1089.33c0 21.61-17.518 39.129-39.128 39.129s-39.13-17.52-39.13-39.129c0-21.61 17.52-39.129 39.13-39.129 21.61 0 39.128 17.518 39.128 39.13z"/><path d="M292.489 1121.647c16.253 8.084 27.41 24.879 27.41 44.291 0 27.326-22.115 49.443-49.441 49.443-27.326 0-49.443-22.117-49.443-49.443 0-19.412 11.158-36.207 27.411-44.291"/></g><path d="M1512.76 5964.154h78.15l-48.354 165.346" style="display:block" transform="translate(-1286.915 -1792.241)"/><path d="M1512.76 5964.154h78.15l-48.354 165.346" style="display:block" transform="translate(-1362.488 1635.173)"/><path d="M1512.76 5964.154h78.15l-48.354 165.346" style="display:block" transform="translate(-1281.377 -4596.147)"/><g style="display:block"><path d="m142.72 8017.31.331-23.806c.62-44.422 32.024-82.446 75.528-91.454v-.001"/><path d="M142.71 8018.296c0 26.776 20.88 48.482 46.637 48.482s46.637-21.706 46.637-48.482-20.88-48.482-46.637-48.482-46.638 21.706-46.638 48.482z"/></g><g style="display:block"><path d="m218.292 4909.52.332-23.805c.62-44.422 32.024-82.446 75.527-91.454v-.001"/><path d="M218.282 4910.507c0 26.776 20.881 48.482 46.638 48.482 25.757 0 46.637-21.706 46.637-48.482s-20.88-48.482-46.637-48.482-46.638 21.706-46.638 48.482z"/></g><g style="display:block"><path d="m223.83 1793.912.332-23.805c.62-44.422 32.024-82.446 75.527-91.454v-.001"/><path d="M223.82 1794.899c0 26.776 20.881 48.482 46.638 48.482 25.757 0 46.637-21.706 46.637-48.482s-20.88-48.482-46.637-48.482-46.638 21.706-46.638 48.482z"/></g><g style="display:block"><path d="m146.333 8297.22 4.155-82.68h78.07"/><path d="M146.333 8362.662c9.014 10.136 22.161 16.532 36.782 16.532 27.208 0 49.243-22.056 49.243-49.243 0-27.208-22.035-49.243-49.243-49.243-14.62 0-27.768 6.376-36.782 16.511"/></g><g style="display:block"><path d="m221.906 5185.285 4.155-82.68h78.07"/><path d="M221.906 5250.728c9.014 10.136 22.16 16.532 36.782 16.532 27.208 0 49.243-22.056 49.243-49.243 0-27.208-22.035-49.243-49.243-49.243-14.621 0-27.768 6.376-36.782 16.511"/></g><g style="display:block"><path d="m227.444 2073.687 4.155-82.68h78.07"/><path d="M227.444 2139.13c9.014 10.136 22.161 16.532 36.782 16.532 27.208 0 49.243-22.056 49.243-49.243 0-27.208-22.035-49.243-49.243-49.243-14.621 0-27.768 6.376-36.782 16.511"/></g><path d="M3434.325 5159.43h-105.564l82.115-107.936v165.852" style="display:block" transform="translate(-3192.197 3478.5)"/><path d="M3434.325 5159.43h-105.564l82.115-107.936v165.852" style="display:block" transform="translate(-3116.624 360.766)"/><path d="M3434.325 5159.43h-105.564l82.115-107.936v165.852" style="display:block" transform="translate(-3111.086 -2755.487)"/><g style="display:block"><path d="M187.892 8919.488c27.609 0 49.999 18.945 49.999 42.199 0 23.233-22.378 42.072-49.987 42.072-21.73 0-40.22-11.669-47.104-27.965"/><path d="M145.372 8864.82c6.38-15.08 22.504-25.77 41.402-25.77 24.509 0 44.359 17.994 44.359 40.217 0 22.221-19.85 40.235-44.36 40.235m.001 0h-9.948"/></g><g style="display:block"><path d="M263.465 5800.698c27.609 0 49.999 18.944 49.999 42.198 0 23.234-22.378 42.073-49.987 42.073-21.73 0-40.22-11.67-47.104-27.965"/><path d="M220.945 5746.03c6.38-15.081 22.504-25.771 41.402-25.771 24.509 0 44.359 17.995 44.359 40.217 0 22.222-19.85 40.236-44.36 40.236m.001 0h-9.948"/></g><g style="display:block"><path d="M269.004 2695.488c27.609 0 49.999 18.944 49.999 42.198 0 23.234-22.378 42.073-49.987 42.073-21.73 0-40.22-11.669-47.104-27.965"/><path d="M226.484 2640.82c6.38-15.081 22.504-25.77 41.402-25.77 24.509 0 44.359 17.994 44.359 40.216s-19.85 40.236-44.359 40.236m0 0h-9.948"/></g><g style="display:block"><path d="M137.546 509.488c27.609 0 49.999 18.944 49.999 42.198 0 23.234-22.378 42.073-49.987 42.073-21.73 0-40.22-11.67-47.104-27.965"/><path d="M95.026 454.82c6.38-15.081 22.504-25.771 41.402-25.771 24.509 0 44.359 17.995 44.359 40.217 0 22.222-19.85 40.236-44.359 40.236m0 0h-9.948"/></g><g style="display:block"><path d="M137.546 200.488c27.609 0 49.999 18.944 49.999 42.198 0 23.234-22.378 42.073-49.987 42.073-21.73 0-40.22-11.67-47.104-27.965"/><path d="M95.026 145.82c6.38-15.081 22.504-25.771 41.402-25.771 24.509 0 44.359 17.995 44.359 40.217 0 22.222-19.85 40.236-44.359 40.236m0 0h-9.948"/></g><path d="M1605.865 5216.88h-99.284l82.369-99.086c5.313-6.944 8.492-15.626 8.492-25.06 0-22.779-18.449-41.228-41.228-41.228-22.758 0-41.208 18.45-41.208 41.228" style="display:block" transform="translate(-1366.877 4102.5)"/><path d="M1605.865 5216.88h-99.284l82.369-99.086c5.313-6.944 8.492-15.626 8.492-25.06 0-22.779-18.449-41.228-41.228-41.228-22.758 0-41.208 18.45-41.208 41.228" style="display:block" transform="translate(-1291.304 983.753)"/><path d="M1605.865 5216.88h-99.284l82.369-99.086c5.313-6.944 8.492-15.626 8.492-25.06 0-22.779-18.449-41.228-41.228-41.228-22.758 0-41.208 18.45-41.208 41.228" style="display:block" transform="translate(-1423.5 -1511.5)"/><path d="M1605.865 5216.88h-99.284l82.369-99.086c5.313-6.944 8.492-15.626 8.492-25.06 0-22.779-18.449-41.228-41.228-41.228-22.758 0-41.208 18.45-41.208 41.228" style="display:block" transform="translate(-1423.5 -2755.5)"/><path d="M1605.865 5216.88h-99.284l82.369-99.086c5.313-6.944 8.492-15.626 8.492-25.06 0-22.779-18.449-41.228-41.228-41.228-22.758 0-41.208 18.45-41.208 41.228" style="display:block" transform="translate(-1423.5 -2129.5)"/><path d="M1605.865 5216.88h-99.284l82.369-99.086c5.313-6.944 8.492-15.626 8.492-25.06 0-22.779-18.449-41.228-41.228-41.228-22.758 0-41.208 18.45-41.208 41.228" style="display:block" transform="translate(-1285.766 -2129.5)"/><path d="M1605.865 5216.88h-99.284l82.369-99.086c5.313-6.944 8.492-15.626 8.492-25.06 0-22.779-18.449-41.228-41.228-41.228-22.758 0-41.208 18.45-41.208 41.228" style="display:block" transform="translate(-1423.5 -3373.5)"/><path d="M1605.865 5216.88h-99.284l82.369-99.086c5.313-6.944 8.492-15.626 8.492-25.06 0-22.779-18.449-41.228-41.228-41.228-22.758 0-41.208 18.45-41.208 41.228" style="display:block" transform="translate(-1423.5 -4001.5)"/><path d="M1605.865 5216.88h-99.284l82.369-99.086c5.313-6.944 8.492-15.626 8.492-25.06 0-22.779-18.449-41.228-41.228-41.228-22.758 0-41.208 18.45-41.208 41.228" style="display:block" transform="translate(-1423.5 -1821.5)"/><path d="M1605.865 5216.88h-99.284l82.369-99.086c5.313-6.944 8.492-15.626 8.492-25.06 0-22.779-18.449-41.228-41.228-41.228-22.758 0-41.208 18.45-41.208 41.228" style="display:block" transform="translate(-1423.5 -3065.5)"/><path d="M1605.865 5216.88h-99.284l82.369-99.086c5.313-6.944 8.492-15.626 8.492-25.06 0-22.779-18.449-41.228-41.228-41.228-22.758 0-41.208 18.45-41.208 41.228" style="display:block" transform="translate(-1423.5 -2439.5)"/><path d="M1605.865 5216.88h-99.284l82.369-99.086c5.313-6.944 8.492-15.626 8.492-25.06 0-22.779-18.449-41.228-41.228-41.228-22.758 0-41.208 18.45-41.208 41.228" style="display:block" transform="translate(-1423.5 -3683.5)"/><path d="M1605.865 5216.88h-99.284l82.369-99.086c5.313-6.944 8.492-15.626 8.492-25.06 0-22.779-18.449-41.228-41.228-41.228-22.758 0-41.208 18.45-41.208 41.228" style="display:block" transform="translate(-1423.5 -4311.5)"/><path d="m566.629 5103.828 52.069-52.07v165" style="display:block" transform="translate(-403.317 4414.5)"/><path d="m566.629 5103.828 52.069-52.07v165" style="display:block" transform="translate(-467.5 1606.21)"/><path d="m566.629 5103.828 52.069-52.07v165" style="display:block" transform="translate(-467.5 1292.5)"/><path d="m566.629 5103.828 52.069-52.07v165" style="display:block" transform="translate(-467.5 983.5)"/><path d="m566.629 5103.828 52.069-52.07v165" style="display:block" transform="translate(-467.5 668.5)"/><path d="m566.629 5103.828 52.069-52.07v165" style="display:block" transform="translate(-467.5 -571.5)"/><path d="m566.629 5103.828 52.069-52.07v165" style="display:block" transform="translate(-467.5 50.5)"/><path d="m566.629 5103.828 52.069-52.07v165" style="display:block" transform="translate(-467.5 -1189.5)"/><path d="m566.629 5103.828 52.069-52.07v165" style="display:block" transform="translate(-322.206 -1819.5)"/><path d="m566.629 5103.828 52.069-52.07v165" style="display:block" transform="translate(-335.5 -4931.71)"/><path d="m566.629 5103.828 52.069-52.07v165" style="display:block" transform="translate(-467.5 360.5)"/><path d="m566.629 5103.828 52.069-52.07v165" style="display:block" transform="translate(-467.5 -879.5)"/><path d="m566.629 5103.828 52.069-52.07v165" style="display:block" transform="translate(-467.5 -257.5)"/><path d="m566.629 5103.828 52.069-52.07v165" style="display:block" transform="translate(-327.744 1292.5)"/></g></g><path fill="none" stroke="#121330" stroke-linecap="round" stroke-linejoin="round" stroke-width="3.9" d="M50 50H-50v-88.138H50V50z" style="display:block" transform="matrix(3.22 0 0 3.22 250 250)"/><path fill="none" stroke="#121330" stroke-linecap="round" stroke-linejoin="round" stroke-width="3.9" d="M-26.429-38.138H-40V-50.1h13.571v11.962z" style="display:block" transform="matrix(3.22 0 0 3.22 249.999 250)"/><path fill="none" stroke="#121330" stroke-linecap="round" stroke-linejoin="round" stroke-width="3.9" d="M40-38.138H26.429V-50.1H40v11.962z" style="display:block" transform="matrix(3.22 0 0 3.22 250.001 250)"/><path fill="none" stroke="#121330" stroke-linecap="round" stroke-linejoin="round" stroke-width="3.9" d="M50-23.5H-50" style="display:block" transform="matrix(3.22 0 0 3.22 250 250)"/></g><path style="display:none"/></g></svg>