<svg xmlns="http://www.w3.org/2000/svg" width="500" height="500" style="width:100%;height:100%;transform:translate3d(0,0,0);content-visibility:visible" viewBox="0 0 500 500"><defs><clipPath id="a"><path d="M0 0h500v500H0z"/></clipPath></defs><g clip-path="url(#a)"><g fill="none" style="display:none"><path/><path/><path/><path/></g><g fill="none" style="display:block"><path stroke="#121330" stroke-linecap="round" stroke-linejoin="round" stroke-width="12.402" d="M88.93 265.81V164.94h322.14v212.14s0 0 0 0H88.93V265.81"/><path stroke="#07A889" stroke-linecap="round" stroke-linejoin="round" stroke-width="12.402" d="M330.107 271.01c0 44.243-35.864 80.107-80.107 80.107s-80.107-35.864-80.107-80.107S205.757 190.9 250 190.9s80.107 35.867 80.107 80.11z"/><path stroke="#07A889" stroke-linecap="round" stroke-linejoin="round" stroke-width="12.402" d="M304.487 271.01c0 30.091-24.396 54.487-54.487 54.487s-54.487-24.396-54.487-54.487S219.91 216.523 250 216.523s54.487 24.396 54.487 54.487z"/><path d="M385.962 198.757c0 9.056-7.341 16.397-16.397 16.397-9.055 0-16.4-7.341-16.4-16.397 0-9.055 7.345-16.397 16.4-16.397 9.056 0 16.397 7.342 16.397 16.397z"/><path stroke="#07A889" stroke-linecap="round" stroke-linejoin="round" stroke-width="12.402" d="M385.962 198.757c0 9.056-7.341 16.397-16.397 16.397-9.055 0-16.4-7.341-16.4-16.397 0-9.055 7.345-16.397 16.4-16.397 9.056 0 16.397 7.342 16.397 16.397z"/><path stroke="#121330" stroke-linecap="round" stroke-linejoin="round" stroke-width="12.402" d="M156.228 138.292h-33.65v26.647h33.65v-26.647zm138.524-15.373h-89.504l-16.397 42.02H311.15l-16.397-42.02z"/></g><g opacity="0" style="display:block"><g opacity="1"><path fill="#07A889" d="M228.006 73.942c-98.657-5.17-182.891 72.05-188.154 172.467-5.262 100.417 70.439 186.02 169.095 191.19 98.656 5.17 182.89-72.05 188.153-172.467 5.263-100.418-70.438-186.02-169.094-191.19z"/><path fill="none" stroke="#07A889" stroke-linecap="round" stroke-linejoin="round" stroke-width="3.85" d="M0-22.75c-8.837 0-16 10.186-16 22.75s7.163 22.75 16 22.75S16 12.564 16 0 8.837-22.75 0-22.75z" transform="matrix(11.164 .58508 -.41887 7.99247 218.476 255.77)"/></g></g><g opacity="0" style="display:block"><g opacity="1"><path fill="#07A889" d="M299.256 144.89c-28.957-1.517-53.757 22.607-55.396 53.88-1.639 31.274 20.504 57.858 49.46 59.375 28.957 1.518 53.757-22.606 55.396-53.88 1.64-31.273-20.503-57.857-49.46-59.374z"/><path fill="none" stroke="#07A889" stroke-linecap="round" stroke-linejoin="round" stroke-width="3.85" d="M0-22.75c-8.837 0-16 10.186-16 22.75s7.163 22.75 16 22.75S16 12.564 16 0 8.837-22.75 0-22.75z" transform="matrix(3.27675 .17173 -.13045 2.48911 296.288 201.518)"/></g></g><g class="com" style="display:none"><path/><path/><path/><path/><path/><path/><path/><path/><path/><path/><path/><path/></g></g></svg>