<svg xmlns="http://www.w3.org/2000/svg" width="500" height="500" style="width:100%;height:100%;transform:translate3d(0,0,0);content-visibility:visible" viewBox="0 0 500 500"><defs><clipPath id="a"><path d="M0 0h500v500H0z"/></clipPath></defs><g clip-path="url(#a)"><path fill="none" stroke="#121330" stroke-linecap="round" stroke-linejoin="round" stroke-width="12.527" d="M170.401 386.518h-53.065v-26.221H170.4v26.22zm212.264 0h-53.066v-26.221h53.066v26.22z" style="display:block"/><g fill="none" stroke="#07A889" stroke-linecap="round" stroke-linejoin="round" stroke-width="12.527" style="display:block"><path d="m130.603 252.895 25.862-113.068a22.306 22.306 0 0 1 21.745-17.332h143.58a22.306 22.306 0 0 1 21.745 17.332l25.862 113.068M263.266 149.027h-26.532"/><path d="M269.924 252.895c0-18.022 14.61-32.632 32.632-32.632 18.021 0 32.632 14.61 32.632 32.632"/></g><g fill="none" stroke-linecap="round" stroke-linejoin="round" stroke-width="12.527" style="display:block"><path stroke="#07A889" d="M180.343 306.237h-39.798c-7.327 0-13.267-5.941-13.267-13.268 0 0 0 0 0 0 0-7.326 5.94-13.266 13.267-13.266h39.798v26.534zm179.112-1.989h-39.798v-26.533h39.798c7.327 0 13.267 5.94 13.267 13.266 0 0 0 0 0 0 0 7.327-5.94 13.267-13.267 13.267z"/><path stroke="#121330" d="M291.4 336.746h-82.8v-26.532h82.8v26.532z"/></g><path fill="none" stroke="#121330" stroke-linecap="round" stroke-linejoin="round" stroke-width="12.6" d="M149.697 111.443h-299.394c-5.537 0-9.824-4.849-9.145-10.344l9.133-73.933c1.675-13.562 13.196-23.747 26.861-23.747h245.696c13.665 0 25.186 10.185 26.861 23.747l9.133 73.933c.679 5.495-3.608 10.344-9.145 10.344z" style="display:block" transform="translate(250 249.495) scale(.99424)"/><g class="com" style="display:none"><path/><path/><path/><path/><path/><path/><path/><path/><path/><path/><path/><path/></g></g></svg>