<svg xmlns="http://www.w3.org/2000/svg" width="500" height="500" style="width:100%;height:100%;transform:translate3d(0,0,0);content-visibility:visible" viewBox="0 0 500 500"><defs><clipPath id="c"><path d="M0 0h500v500H0z"/></clipPath><filter id="a" width="100%" height="100%" x="0%" y="0%" filterUnits="objectBoundingBox"><feComponentTransfer in="SourceGraphic"><feFuncA tableValues="1.0 0.0" type="table"/></feComponentTransfer></filter><mask id="d" mask-type="alpha"><g filter="url(#a)"><path fill="#fff" d="M0 0h500v500H0z" opacity="0"/><use xmlns:ns1="http://www.w3.org/1999/xlink" ns1:href="#b"/></g></mask><g id="b" style="display:block"><path fill="#FFF" d="M357 29.5v189H143v-189h214z"/><path fill-opacity="0" stroke="#08C189" stroke-width="0" d="M357 29.5v189H143v-189h214z"/></g></defs><g clip-path="url(#c)"><g fill="none" stroke-linecap="round" stroke-linejoin="round" stroke-width="12.04" mask="url(#d)" style="display:block"><path stroke="#07A889" d="M283.5 326.071c.35-1.43.54-2.94.54-4.48 0-10.34-8.38-18.73-18.73-18.73-10.34 0-18.73 8.39-18.73 18.73 0 1.54.19 3.05.54 4.48"/><path stroke="#121330" d="M185.671 326.071h128.658c5.923 0 10.972 4.428 11.92 10.455l7.354 46.735H166.397l7.354-46.735c.948-6.027 5.997-10.455 11.92-10.455zm29.574-70.416h69.51c6.714 0 12.498 5.206 13.828 12.447l10.65 57.969H190.767l10.65-57.969c1.33-7.241 7.114-12.447 13.828-12.447zm40.5 20.721h-11.49"/><path stroke="#121330" d="M215.396 383.257v26.204h-36.024v-26.204m141.256 0v26.204h-36.024v-26.204"/><path stroke="#07A889" d="M303.752 354.623h-15.71m-76.084 0h-15.71"/></g><g fill="none" stroke-linecap="round" stroke-linejoin="round" style="display:block"><path stroke="#07A889" stroke-width="12.6" d="M143.254 56h213.492" opacity="0"/><path stroke="#07A889" stroke-width="12.04" d="M143.254 87.281h213.492m-213.492 31.281h213.492m-213.492 31.281h213.492m-213.492 31.62h213.492m-213.492 31.619h213.492" opacity="0"/><path stroke="#121330" stroke-width="12.04" d="M143.254 410.463V219.387h213.492v191.076"/></g><g fill="none" stroke-linecap="round" stroke-linejoin="round" stroke-width="12.04" style="display:block"><path stroke="#07A889" d="M109.735 219.387H62.98l.052-32.583 186.87-123.266 187.117 122.404v33.445h-46.354"/><path stroke="#121330" d="m357.5 410.425 33.165.038V200.45L250 108.433 110.502 200.45v210.013l31.998-.038"/><path stroke="#07A889" d="M290.03 190.053h-80.06v-26.687h80.06v26.687z"/></g><g class="com" style="display:none"><path/><path/><path/><path/><path/><path/><path/><path/><path/><path/><path/><path/></g></g></svg>