<svg xmlns="http://www.w3.org/2000/svg" width="500" height="500" style="width:100%;height:100%;transform:translate3d(0,0,0);content-visibility:visible" viewBox="0 0 500 500"><defs><clipPath id="a"><path d="M0 0h500v500H0z"/></clipPath></defs><g clip-path="url(#a)"><g fill="none" stroke-linecap="round" stroke-linejoin="round" stroke-width="12.04" style="display:block"><path stroke="#121330" d="M118.106 325.043c0 22.981 18.63 41.611 41.611 41.611 22.981 0 41.611-18.63 41.611-41.611 0-22.981-18.63-41.611-41.611-41.611-22.981 0-41.611 18.63-41.611 41.611z"/><path stroke="#07A889" d="M159.658 325.043h.118"/></g><g fill="none" stroke-linecap="round" stroke-linejoin="round" stroke-width="12.04" style="display:block"><path stroke="#121330" d="M314.36 325.043c0 22.981 18.63 41.611 41.611 41.611 22.981 0 41.611-18.63 41.611-41.611 0-22.981-18.63-41.611-41.611-41.611-22.981 0-41.611 18.63-41.611 41.611z"/><path stroke="#07A889" d="M355.912 325.043h.118"/></g><g fill="none" stroke-linecap="round" stroke-linejoin="round" stroke-width="12.04" style="display:block"><path stroke="#07A889" d="M103.049 199.705H59.193v84.236h34.092m298.233-45.773v28.188h32.378"/><path stroke="#121330" d="M131.58 294.4h-39.5m336.07 0h-44.04m-56.28 0H187.86m-69.75 30.681h-13.18c-8.73 0-15.51-7.6-14.52-16.27l16.67-143.88c1.07-10 9.5-17.58 19.56-17.58h158.25c10.06 0 18.51 7.58 19.58 17.58l8.05 73.24h91.5c9.18 0 16.98 7.61 18.32 17.91l10.47 69h-35.23m-196.25 0h113.03m-1.845-86.913H98.783m150.177.003v-90.82m-86.54 90.817v-90.82"/><path stroke="#07A889" d="M224.426 262.724h24.58"/></g><g class="com" style="display:none"><path/><path/><path/><path/><path/><path/><path/><path/><path/><path/><path/><path/></g></g></svg>