<svg xmlns="http://www.w3.org/2000/svg" width="500" height="500" style="width:100%;height:100%;transform:translate3d(0,0,0);content-visibility:visible" viewBox="0 0 500 500"><defs><clipPath id="f"><path d="M0 0h500v500H0z"/></clipPath><clipPath id="e"><path d="M0 0h500v500H0z"/></clipPath><clipPath id="g"><path d="M0 0h500v500H0z"/></clipPath><mask id="j" mask-type="alpha"><use xmlns:ns1="http://www.w3.org/1999/xlink" ns1:href="#a"/></mask><mask id="i" mask-type="alpha"><use xmlns:ns2="http://www.w3.org/1999/xlink" ns2:href="#b"/></mask><mask id="h" mask-type="alpha"><g filter="url(#c)"><path fill="#fff" d="M0 0h500v500H0z" opacity="0"/><use xmlns:ns3="http://www.w3.org/1999/xlink" ns3:href="#d"/></g></mask><path id="a" fill="red" d="m9.897 85.425 20.052 11.662 11.534-20.126a97.045 97.045 0 0 0 7.115-81.107l-33.44-92.941-69.487 18.619 17.51 97.209A97.048 97.048 0 0 0 9.897 85.425z" style="display:block" transform="translate(328.521 213.654)"/><path id="b" fill="red" d="M44.877-104.312 24.825-92.649l-11.533-20.126a97.045 97.045 0 0 1-7.116-81.107l33.44-92.942 69.487 18.619-17.51 97.21a97.046 97.046 0 0 1-46.716 66.683z" style="display:block" transform="translate(116.189 403.391)"/><filter id="c" width="100%" height="100%" x="0%" y="0%" filterUnits="objectBoundingBox"><feComponentTransfer in="SourceGraphic"><feFuncA tableValues="1.0 0.0" type="table"/></feComponentTransfer></filter><g id="d" fill="red" clip-path="url(#e)" style="display:block"><path d="m303.375 123.564 13.712 7.499-13.504 7.386a32.456 32.456 0 0 0-14.218 15.597l-8.312 19.229-8.312-19.229a32.456 32.456 0 0 0-14.218-15.597l-13.504-7.386 13.712-7.499a32.45 32.45 0 0 0 14.046-15.208l8.276-18.475 8.276 18.475a32.45 32.45 0 0 0 14.046 15.208z" style="display:block"/><path d="m14.352-5.153 8.816 4.822-8.682 4.749a20.867 20.867 0 0 0-9.141 10.028L0 26.809l-5.345-12.363a20.867 20.867 0 0 0-9.141-10.028l-8.682-4.749 8.816-4.822a20.864 20.864 0 0 0 9.031-9.778L0-26.809l5.321 11.878a20.864 20.864 0 0 0 9.031 9.778z" style="display:block" transform="translate(223.292 76.515)"/></g></defs><g clip-path="url(#f)"><g clip-path="url(#g)" mask="url(#h)" style="display:block"><g mask="url(#i)" style="display:block"><path fill="none" stroke="#07A889" stroke-linecap="round" stroke-linejoin="round" stroke-width="11.97" d="M235.591 246.277c14.283 3.827 12.73 9.623 27.013 13.45 14.285 3.828 15.838-1.968 30.123 1.86 14.285 3.828 12.732 9.623 27.017 13.451m-198.492-59.472c14.283 3.827 12.73 9.622 27.013 13.449 14.285 3.828 15.838-1.968 30.123 1.86m.149.126c14.283 3.827 12.73 9.623 27.013 13.45 14.285 3.828 15.837-1.969 30.122 1.859"/></g><path fill="none" stroke="#121330" stroke-linecap="round" stroke-linejoin="round" stroke-width="11.97" d="M44.877-104.312 24.825-92.649l-11.533-20.126a97.045 97.045 0 0 1-7.116-81.107l33.44-92.942 69.487 18.619-17.51 97.21a97.046 97.046 0 0 1-46.716 66.683zM24.844-92.717-.018.068m-26.616-7.205L26.634 7.137" style="display:block" transform="translate(116.189 403.391)"/><g mask="url(#j)" style="display:block"><path fill="none" stroke="#07A889" stroke-linecap="round" stroke-linejoin="round" stroke-width="11.97" d="M407.9 206.218c14.214-4.076 15.868 1.692 30.082-2.384 14.216-4.076 12.562-9.844 26.778-13.92 14.216-4.076 15.87 1.691 30.086-2.385m-200.771 51.254c14.214-4.076 15.867 1.69 30.081-2.385 14.216-4.076 12.562-9.844 26.778-13.92m.193.031c14.214-4.076 15.868 1.692 30.082-2.384 14.216-4.076 12.56-9.844 26.777-13.92"/></g><path fill="none" stroke="#121330" stroke-linecap="round" stroke-linejoin="round" stroke-width="11.97" d="m-44.877-104.312 20.052 11.663 11.533-20.126a97.045 97.045 0 0 0 7.116-81.107l-33.44-92.942-69.487 18.619 17.51 97.21a97.046 97.046 0 0 0 46.716 66.683zm20.033 11.595L.018.068m26.616-7.205L-26.634 7.137" style="display:block" transform="translate(383.295 403.391)"/></g><path fill="none" stroke="#07A889" stroke-linecap="round" stroke-linejoin="round" stroke-width="11.97" d="M22.322-8.014 36.034-.515 22.53 6.871A32.456 32.456 0 0 0 8.312 22.468L0 41.697l-8.312-19.229A32.456 32.456 0 0 0-22.53 6.871L-36.034-.515l13.712-7.499A32.45 32.45 0 0 0-8.276-23.222L0-41.697l8.276 18.475A32.45 32.45 0 0 0 22.322-8.014z" style="display:block" transform="translate(281.053 131.578)"/><path fill="none" stroke="#07A889" stroke-linecap="round" stroke-linejoin="round" stroke-width="11.97" d="m14.352-5.153 8.816 4.822-8.682 4.749a20.867 20.867 0 0 0-9.141 10.028L0 26.809l-5.345-12.363a20.867 20.867 0 0 0-9.141-10.028l-8.682-4.749 8.816-4.822a20.864 20.864 0 0 0 9.031-9.778L0-26.809l5.321 11.878a20.864 20.864 0 0 0 9.031 9.778z" style="display:block" transform="translate(223.292 76.515)"/><g class="com" style="display:none"><path/><path/><path/><path/><path/><path/><path/><path/><path/><path/><path/><path/></g></g></svg>