<svg xmlns="http://www.w3.org/2000/svg" width="500" height="500" style="width:100%;height:100%;transform:translate3d(0,0,0);content-visibility:visible" viewBox="0 0 500 500"><defs><clipPath id="a"><path d="M0 0h500v500H0z"/></clipPath></defs><g clip-path="url(#a)"><g fill="none" stroke-linecap="round" stroke-linejoin="round" stroke-width="12" style="display:block"><path stroke="#07A889" d="M323.851 345.301h53.17"/><path stroke="#121330" d="M389.328 183.284h-3.352a8.947 8.947 0 0 0-8.948 8.947l-.003 189.732c0 14.683-11.902 26.585-26.585 26.585 0 0 0 0 0 0-14.682 0-26.585-11.902-26.585-26.584l-.001-189.732a8.948 8.948 0 0 0-8.948-8.948h-3.362"/></g><g fill="none" stroke-linecap="round" stroke-linejoin="round" stroke-width="12" style="display:block"><path stroke="#07A889" d="M240.343 294.843h-87.486"/><path stroke="#121330" d="M221.381 183.839v73.215l58.747 117.08c8.222 16.367-3.675 35.643-22.002 35.643H135.09c-18.312 0-30.209-19.276-22.002-35.643l58.747-117.08v-73.215"/></g><path fill="none" stroke="#07A889" stroke-linecap="round" stroke-linejoin="round" stroke-width="12" d="M177.263 134.243c0-7.916-6.417-14.333-14.333-14.333s-14.333 6.417-14.333 14.333 6.417 14.333 14.333 14.333 14.333-6.417 14.333-14.333zm0 237c0-7.916-6.417-14.333-14.333-14.333s-14.333 6.417-14.333 14.333 6.417 14.333 14.333 14.333 14.333-6.417 14.333-14.333zm53.737-31.5c0-7.219-5.851-13.07-13.07-13.07s-13.07 5.851-13.07 13.07 5.851 13.07 13.07 13.07 13.07-5.851 13.07-13.07zm47.407-243c0-15.175-12.302-27.477-27.477-27.477s-27.477 12.302-27.477 27.477 12.302 27.477 27.477 27.477 27.477-12.302 27.477-27.477zm-27.477 0" style="display:block"/><g fill="none" style="display:none"><path/><path/></g><g fill="none" style="display:none"><path/><path/></g><g fill="none" style="display:none"><path/><path/></g><g fill="none" style="display:none"><path/><path/></g><path style="display:none"/></g></svg>