<svg xmlns="http://www.w3.org/2000/svg" width="500" height="500" style="width:100%;height:100%;transform:translate3d(0,0,0);content-visibility:visible" viewBox="0 0 500 500"><defs><clipPath id="a"><path d="M0 0h500v500H0z"/></clipPath><clipPath id="d"><path d="M0 0h500v500H0z"/></clipPath><clipPath id="c"><path d="M0 0h500v500H0z"/></clipPath><clipPath id="b"><path d="M0 0h500v500H0z"/></clipPath></defs><g clip-path="url(#a)"><g fill="none" stroke-linecap="round" stroke-linejoin="round" stroke-width="3.36" clip-path="url(#b)" opacity="0" style="display:block"><path stroke="#121330" d="M35.537 36.105c-19.526 19.526-51.184 19.526-70.71 0-19.526-19.526-19.526-51.184 0-70.71 19.526-19.526 51.184-19.526 70.71 0 19.526 19.526 19.526 51.184 0 70.71z" opacity="1" style="display:block" transform="translate(250 250) scale(3.36996)"/><path stroke="#07A889" d="M.182-.21v-34.361M.182.75l17.869-17.869" opacity="1" style="display:block" transform="translate(250 250) scale(3.36996)"/></g><g fill="none" stroke-linecap="round" stroke-linejoin="round" stroke-width="3.36" clip-path="url(#c)" opacity="0" style="display:block"><path stroke="#121330" d="M35.537 36.105c-19.526 19.526-51.184 19.526-70.71 0-19.526-19.526-19.526-51.184 0-70.71 19.526-19.526 51.184-19.526 70.71 0 19.526 19.526 19.526 51.184 0 70.71z" opacity="1" style="display:block" transform="translate(250 250) scale(3.36996)"/><path stroke="#07A889" d="M.182-.21v-34.361M.182.75l17.869-17.869" opacity="1" style="display:block" transform="translate(250 250) scale(3.36996)"/></g><g fill="none" stroke-linecap="round" stroke-linejoin="round" stroke-width="3.36" clip-path="url(#d)" style="display:block"><path stroke="#121330" d="M35.537 36.105c-19.526 19.526-51.184 19.526-70.71 0-19.526-19.526-19.526-51.184 0-70.71 19.526-19.526 51.184-19.526 70.71 0 19.526 19.526 19.526 51.184 0 70.71z" style="display:block" transform="translate(250 250) scale(3.36996)"/><path stroke="#07A889" d="M.182-.21v-34.361M.182.75l17.869-17.869" style="display:block" transform="translate(250 250) scale(3.36996)"/></g><g class="com" style="display:none"><path/><path/><path/><path/><path/><path/><path/><path/><path/><path/><path/><path/></g></g></svg>