<svg xmlns="http://www.w3.org/2000/svg" width="500" height="500" style="width:100%;height:100%;transform:translate3d(0,0,0);content-visibility:visible" viewBox="0 0 500 500"><defs><clipPath id="a"><path d="M0 0h500v500H0z"/></clipPath></defs><g clip-path="url(#a)"><g fill="none" stroke="#07A889" stroke-linecap="round" stroke-linejoin="round" stroke-width="12.6" style="display:block"><path d="M175.027 180.919c-9.08 7.52-20.73 12.05-33.45 12.05-28.99 0-52.48-23.5-52.48-52.49 0-28.98 23.49-52.48 52.48-52.48 28.49 0 51.69 22.72 52.46 51.03"/><path stroke-dasharray="1 30" d="M157.317 159.519a24.594 24.594 0 0 1-15.75 5.67c-13.64 0-24.7-11.06-24.7-24.71 0-13.64 11.06-24.7 24.7-24.7 13.15 0 23.91 10.28 24.66 23.25"/></g><path fill="none" stroke="#07A889" stroke-linecap="round" stroke-linejoin="round" stroke-width="12.6" d="M89.536-146.528a6.802 6.802 0 1 1-13.605 0 6.802 6.802 0 0 1 13.605 0zM.33-49.943l77.898-91.49" style="display:block" transform="translate(250 250)"/><path fill="none" stroke="#121330" stroke-linecap="round" stroke-linejoin="round" stroke-width="12.6" d="M40.072 159.333h-81.718m42.641 0L.994 24.809-108.877-110.97h220.743L.994 24.809" style="display:block" transform="translate(250 250)"/><g class="com" style="display:none"><path/><path/><path/><path/><path/><path/><path/><path/><path/><path/><path/><path/></g></g></svg>