<svg xmlns="http://www.w3.org/2000/svg" width="500" height="500" style="width:100%;height:100%;transform:translate3d(0,0,0);content-visibility:visible" viewBox="0 0 500 500"><defs><clipPath id="a"><path d="M0 0h500v500H0z"/></clipPath><clipPath id="f"><path d="M0 0h500v500H0z"/></clipPath><clipPath id="i"><path d="M0 0h500v500H0z"/></clipPath><clipPath id="h"><path d="M0 0h500v500H0z"/></clipPath><clipPath id="g"><path d="M0 0h500v500H0z"/></clipPath><clipPath id="b"><path d="M0 0h500v500H0z"/></clipPath><clipPath id="e"><path d="M0 0h500v500H0z"/></clipPath><clipPath id="d"><path d="M0 0h500v500H0z"/></clipPath><clipPath id="c"><path d="M0 0h500v500H0z"/></clipPath></defs><g clip-path="url(#a)"><g clip-path="url(#b)" opacity="0" style="display:block"><g clip-path="url(#c)" opacity="1" style="display:block"><path fill="none" stroke="#07A889" stroke-linecap="round" stroke-linejoin="round" stroke-width="12" d="M279.511 222.755c-7.629-13.052-24.355-21.021-39.209-16.204-8.143 2.641-14.987 9.85-15.892 18.364-3.433 32.332 56.598 15.665 55.793 48.69-.138 5.671-3.2 11.048-7.572 14.662-4.372 3.614-9.94 5.578-15.567 6.293-14.109 1.792-28.486-4.356-37.275-15.442M250 316.716v-21.914m0-89.651v-21.867" opacity="1" style="display:block"/></g><g fill="none" clip-path="url(#d)" style="display:none"><path/><path/><path/></g><g fill="none" clip-path="url(#e)" style="display:none"><path/><path/><path/></g><path fill="none" stroke="#07A889" stroke-width=".7" d="M4-4.13a7.63 7.63 0 1 1 0 15.26A7.63 7.63 0 0 1 4-4.13z" opacity="1" style="display:block" transform="translate(178.485 187.29) scale(17.60993)"/><path fill="none" stroke="#121330" stroke-width="12.327" d="M248.925 433.83c-102.12 0-184.904-82.785-184.904-184.905S146.805 64.021 248.925 64.021M80.028 173.501h-.634m-14.58 50.066h1.267m-.317 50.716h-.634m54.503 106.47h-1.268m130.807 52.6h-.247m.282-369.174-.88.317" opacity="1" style="display:block"/><path fill="none" stroke="#121330" stroke-width=".7" d="M4-7C9.799-7 14.5-2.299 14.5 3.5S9.799 14 4 14-6.5 9.299-6.5 3.5-1.799-7 4-7z" opacity="1" style="display:block" transform="translate(178.485 187.29) scale(17.60993)"/><g fill="none" style="display:none"><path/><path/></g><path fill="none" style="display:none"/><path fill="none" style="display:none"/></g><g clip-path="url(#f)" style="display:block"><g clip-path="url(#g)" style="display:block"><path fill="none" stroke="#07A889" stroke-linecap="round" stroke-linejoin="round" stroke-width="12" d="M279.511 222.755c-7.629-13.052-24.355-21.021-39.209-16.204-8.143 2.641-14.987 9.85-15.892 18.364-3.433 32.332 56.598 15.665 55.793 48.69-.138 5.671-3.2 11.048-7.572 14.662-4.372 3.614-9.94 5.578-15.567 6.293-14.109 1.792-28.486-4.356-37.275-15.442M250 316.716v-21.914m0-89.651v-21.867" style="display:block"/></g><g fill="none" clip-path="url(#h)" style="display:none"><path/><path/><path/></g><g fill="none" clip-path="url(#i)" style="display:none"><path/><path/><path/></g><path fill="none" stroke="#07A889" stroke-width=".7" d="M4-4.13a7.63 7.63 0 1 1 0 15.26A7.63 7.63 0 0 1 4-4.13z" style="display:block" transform="translate(178.485 187.29) scale(17.60993)"/><path fill="none" stroke="#121330" stroke-width="12.327" d="M248.925 433.83c-102.12 0-184.904-82.785-184.904-184.905S146.805 64.021 248.925 64.021M80.028 173.501h-.634m-14.58 50.066h1.267m-.317 50.716h-.634m54.503 106.47h-1.268m130.807 52.6h-.247m.282-369.174-.88.317" style="display:block"/><path fill="none" stroke="#121330" stroke-width=".7" d="M4-7C9.799-7 14.5-2.299 14.5 3.5S9.799 14 4 14-6.5 9.299-6.5 3.5-1.799-7 4-7z" style="display:block" transform="translate(178.485 187.29) scale(17.60993)"/><g fill="none" style="display:none"><path/><path/></g><path fill="none" style="display:none"/><path fill="none" style="display:none"/></g><path style="display:none"/></g></svg>