<svg xmlns="http://www.w3.org/2000/svg" width="500" height="500" style="width:100%;height:100%;transform:translate3d(0,0,0);content-visibility:visible" viewBox="0 0 500 500"><defs><clipPath id="a"><path d="M0 0h500v500H0z"/></clipPath><clipPath id="c"><path d="M0 0h500v500H0z"/></clipPath><clipPath id="b"><path d="M0 0h500v500H0z"/></clipPath></defs><g clip-path="url(#a)"><g fill="none" stroke-linecap="round" stroke-linejoin="round" stroke-width="11.97" clip-path="url(#b)" opacity="0" style="display:block"><g opacity="1" style="display:block"><path stroke="#07A889" d="M143.254 270.659s0 0 0 0m26.686 0s0 0 0 0m26.687 0s0 0 0 0" opacity="1"/><path stroke="#121330" d="M196.627 184.766h106.746L383.333 250H116.567l80.06-65.234zm106.746 0V89.881H196.627v94.885M369.76 290.03H130.24c-7.551 0-13.673-6.121-13.673-13.672V250h266.866v26.358c0 7.551-6.122 13.672-13.673 13.672z" opacity="1"/></g><path stroke="#07A889" d="M256.24 316.812c0 15.585-11.48 15.585-11.48 31.169 0 15.587 11.48 15.587 11.48 31.174v.002c0 15.585-11.48 15.585-11.48 31.169 0 .467.01.92.03 1.359m62.45-94.873c0 15.585-11.48 15.585-11.48 31.169 0 15.587 11.48 15.587 11.48 31.174v.002c0 15.585-11.48 15.585-11.48 31.169 0 .467.01.92.03 1.359m-91.55-94.873c0 15.585-11.48 15.585-11.48 31.169 0 15.587 11.48 15.587 11.48 31.174v.002c0 15.585-11.48 15.585-11.48 31.169 0 .467.01.92.03 1.359" opacity="1" style="display:block"/></g><g fill="none" stroke-linecap="round" stroke-linejoin="round" stroke-width="11.97" clip-path="url(#c)" style="display:block"><g style="display:block"><path stroke="#07A889" d="M143.254 270.659s0 0 0 0m26.686 0s0 0 0 0m26.687 0s0 0 0 0"/><path stroke="#121330" d="M196.627 184.766h106.746L383.333 250H116.567l80.06-65.234zm106.746 0V89.881H196.627v94.885M369.76 290.03H130.24c-7.551 0-13.673-6.121-13.673-13.672V250h266.866v26.358c0 7.551-6.122 13.672-13.673 13.672z"/></g><path stroke="#07A889" d="M256.24 316.812c0 15.585-11.48 15.585-11.48 31.169 0 15.587 11.48 15.587 11.48 31.174v.002c0 15.585-11.48 15.585-11.48 31.169 0 .467.01.92.03 1.359m62.45-94.873c0 15.585-11.48 15.585-11.48 31.169 0 15.587 11.48 15.587 11.48 31.174v.002c0 15.585-11.48 15.585-11.48 31.169 0 .467.01.92.03 1.359m-91.55-94.873c0 15.585-11.48 15.585-11.48 31.169 0 15.587 11.48 15.587 11.48 31.174v.002c0 15.585-11.48 15.585-11.48 31.169 0 .467.01.92.03 1.359" style="display:block"/></g><g class="com" style="display:none"><path/><path/><path/><path/><path/><path/><path/><path/><path/><path/><path/><path/></g></g></svg>