<svg xmlns="http://www.w3.org/2000/svg" width="500" height="500" style="width:100%;height:100%;transform:translate3d(0,0,0);content-visibility:visible" viewBox="0 0 500 500"><defs><clipPath id="c"><path d="M0 0h500v500H0z"/></clipPath><filter id="a" width="100%" height="100%" x="0%" y="0%" filterUnits="objectBoundingBox"><feComponentTransfer in="SourceGraphic"><feFuncA tableValues="1.0 0.0" type="table"/></feComponentTransfer></filter><path id="b" fill="#FFF" d="M-43.328 12.867h86.656v-25.734h-86.656v25.734z" style="display:block" transform="translate(193.329 145.834)"/><mask id="d" mask-type="alpha"><g filter="url(#a)"><path fill="#fff" d="M0 0h500v500H0z" opacity="0"/><use xmlns:ns1="http://www.w3.org/1999/xlink" ns1:href="#b"/></g></mask></defs><g clip-path="url(#c)"><path fill="none" stroke="#121330" stroke-linecap="round" stroke-linejoin="round" stroke-width="12.04" d="m358.87 237.088-68.114 68.114m46.678-7.743c0-7.351 5.96-13.311 13.311-13.311s13.311 5.96 13.311 13.311-5.96 13.311-13.311 13.311-13.311-5.96-13.311-13.311zm-53.243-53.021c0-7.351 5.96-13.311 13.311-13.311s13.311 5.96 13.311 13.311-5.96 13.311-13.311 13.311-13.311-5.96-13.311-13.311z" style="display:block"/><g mask="url(#d)" style="display:block"><path fill="none" stroke="#121330" stroke-dasharray="12 40" stroke-linecap="round" stroke-linejoin="round" stroke-width="12.04" d="M392.942 356.746H107.058c-9.448 0-17.177-7.729-17.177-17.177V160.431c0-9.448 7.729-17.177 17.177-17.177h285.884c9.448 0 17.177 7.729 17.177 17.177v179.138c0 9.448-7.729 17.177-17.177 17.177z"/></g><g fill="none" stroke="#07A889" stroke-linecap="round" stroke-linejoin="round" stroke-width="12.04" style="display:block"><path d="m160.107 126.566 31.168 16.981 44.625 23.192m-68.271-38.35c-9.066 0-16.416-7.35-16.416-16.416s7.35-16.416 16.416-16.416 16.416 7.35 16.416 16.416-7.35 16.416-16.416 16.416z"/><path d="m160.091 159.953 31.066-16.414 44.743-23.767m-68.279 71.18c-9.066 0-16.416-7.35-16.416-16.416s7.35-16.416 16.416-16.416 16.416 7.35 16.416 16.416-7.35 16.416-16.416 16.416z"/></g><g class="com" style="display:none"><path/><path/><path/><path/><path/><path/><path/><path/><path/><path/><path/><path/></g></g></svg>