<svg xmlns="http://www.w3.org/2000/svg" width="500" height="500" style="width:100%;height:100%;transform:translate3d(0,0,0);content-visibility:visible" viewBox="0 0 500 500"><defs><clipPath id="a"><path d="M0 0h500v500H0z"/></clipPath><clipPath id="b"><path d="M0 0h500v500H0z"/></clipPath></defs><g clip-path="url(#a)"><g fill="none" clip-path="url(#b)" style="display:block" transform="translate(0 10)"><g stroke="#07A889" stroke-linecap="round" stroke-linejoin="round" stroke-width="12.04" style="display:block"><path d="M152.677 150.347h194.647l51.253 76.077H101.424m0 0 51.253-76.077m31.387 76.076 33.507-76.076m98.366 76.076-33.436-76.076M250 377.609l148.577-151.186H101.424L250 377.609zm0 0 65.937-151.186m-131.873 0L250 377.609"/><path d="m398.593 226.425-51.28-76.089M250 377.609l148.593-151.184" opacity="0"/></g><g style="display:none"><path/><path/></g><g style="display:none"><path/><path/></g><g style="display:none"><path/><path/></g><g style="display:none"><path/><path/></g><g style="display:none"><path/><path/></g></g><path fill="none" stroke="#121330" stroke-linecap="round" stroke-linejoin="round" stroke-width="12.04" d="M0 0" style="display:block" transform="rotate(60 80.273 439.433)"/><path fill="none" style="display:none"/><path fill="none" style="display:none"/><path fill="none" style="display:none"/><path fill="none" style="display:none"/><g class="com" style="display:none"><path/><path/><path/><path/><path/><path/><path/><path/><path/><path/><path/><path/></g></g></svg>