<svg xmlns="http://www.w3.org/2000/svg" width="500" height="500" style="width:100%;height:100%;transform:translate3d(0,0,0);content-visibility:visible" viewBox="0 0 500 500"><defs><clipPath id="a"><path d="M0 0h500v500H0z"/></clipPath></defs><g clip-path="url(#a)"><path fill="none" stroke="#07A889" stroke-linecap="round" stroke-linejoin="round" stroke-width="33.04" d="M-105.004-104.007s0 0 0 0m52.502 53.002s0 0 0 0M0 0s0 0 0 0" style="display:block" transform="translate(334.969 334.47)"/><path fill="none" style="display:none"/><path fill="none" stroke="#07A889" stroke-linecap="round" stroke-linejoin="round" stroke-width="33.04" d="M-81.921-80.305s0 0 0 0m54.632 48.327s0 0 0 0" style="display:block" transform="scale(.41 1) rotate(68 -74.576 406.115)"/><path fill="none" style="display:none"/><path fill="none" style="display:none"/><path fill="none" style="display:none"/><path fill="none" style="display:none"/><path fill="none" style="display:none"/><path fill="none" style="display:none"/><path fill="none" stroke="#07A889" stroke-linecap="round" stroke-linejoin="round" stroke-width="33.04" d="M-52.502-51.005s0 0 0 0" style="display:block" transform="matrix(.94343 .28247 -.29817 .4937 286.195 188.019)"/><path fill="none" style="display:none"/><path fill="none" stroke="#121330" stroke-linecap="round" stroke-linejoin="round" stroke-width="12.04" d="M100.966 100.966h-201.932l-63.938-63.611" style="display:block" transform="translate(282.466 282.466)"/><path fill="none" stroke="#121330" stroke-linecap="round" stroke-linejoin="round" stroke-width="12.04" d="M-166.279 35.987H35.654l65.312 64.979h-201.932l-65.313-64.979z" style="display:block" transform="translate(282.466 79.466)"/><path fill="none" stroke="#121330" stroke-linecap="round" stroke-linejoin="round" stroke-width="12.04" d="M-101.466 100.966v-201.932m65.567 265.932.135-201.432" style="display:block" transform="translate(217.533 217.534)"/><path fill="none" style="display:none"/><path fill="none" stroke="#121330" stroke-linecap="round" stroke-linejoin="round" stroke-width="12.04" d="m166.601 165.534-.365-201.933" style="display:block" transform="translate(217.533 217.534)"/><g class="com" style="display:none"><path/><path/><path/><path/><path/><path/><path/><path/><path/><path/><path/><path/></g></g></svg>