<svg xmlns="http://www.w3.org/2000/svg" width="500" height="500" style="width:100%;height:100%;transform:translate3d(0,0,0);content-visibility:visible" viewBox="0 0 500 500"><defs><clipPath id="a"><path d="M0 0h500v500H0z"/></clipPath></defs><g clip-path="url(#a)"><path fill="none" stroke="#121330" stroke-linecap="round" stroke-linejoin="round" stroke-width="12.04" d="M103.036 103.789 78.64 114.436a28.816 28.816 0 0 1-32.087-6.222L20.561 81.738A28.811 28.811 0 0 0 0 73.111s0 0 0 0a28.811 28.811 0 0 0-20.561 8.627l-25.992 26.476a28.816 28.816 0 0 1-32.087 6.222l-24.396-10.647a28.813 28.813 0 0 1-17.169-29.02l3.669-40.302c1.433-15.739 15.276-27.386 31.028-26.106l66.863 5.433a230.296 230.296 0 0 0 37.29 0l66.863-5.433c15.752-1.28 29.595 10.367 31.028 26.106l3.669 40.302a28.813 28.813 0 0 1-17.169 29.02zM72.763 117l3.606 21.512c1.758 10.484-5.31 20.37-15.776 22.173-11.78 2.039-26.26 3.353-41.528 3.942a495.72 495.72 0 0 1-38.13 0c-15.268-.589-29.748-1.903-41.528-3.942-10.466-1.803-17.534-11.689-15.776-22.173L-72.763 117m53.698 47.627 6.769-88.756m24.592 0 6.769 88.756M81.169 8.714C103.3 58.138 91.662 108.753 91.662 108.753M-81.399 8.714c-22.131 49.424-10.494 100.039-10.494 100.039m20.489-99.248 1.686-7.04c1.685-7.032 7.81-11.97 14.851-11.97H54.867c7.041 0 13.166 4.938 14.851 11.97l1.686 7.04" style="display:block" transform="translate(209.735 164.556)"/><path fill="none" stroke="#07A889" stroke-linecap="round" stroke-linejoin="round" stroke-width="12.04" d="M-56.599 296.276h-8.623c-8.514 0-15.416-6.903-15.416-15.417v-48.501h39.455v48.501c0 8.514-6.902 15.417-15.416 15.417zm15.409-63.86 17.52-19.29a68.419 68.419 0 0 0 17.77-46.01v-123.1c0-12.79-3.36-25.36-9.76-36.44l-23.8-41.22 30.08-17.37 28.46 49.3a72.787 72.787 0 0 1 9.76 36.43v144.33c0 16.77-6.15 32.95-17.29 45.47l-53.116 59.772m67.241-84.667-35.004-11.116m-9.012 18.298L.423 235.115m-6.32-68 34.741-7.767M15.132-8.526-15.132 8.526" style="display:block" transform="translate(380.65 141.058)"/><g class="com" style="display:none"><path/><path/><path/><path/><path/><path/><path/><path/><path/><path/><path/><path/></g></g></svg>