<svg xmlns="http://www.w3.org/2000/svg" width="500" height="500" style="width:100%;height:100%;transform:translate3d(0,0,0);content-visibility:visible" viewBox="0 0 500 500"><defs><clipPath id="i"><path d="M0 0h500v500H0z"/></clipPath><clipPath id="p"><path d="M0 0h500v500H0z"/></clipPath><clipPath id="q"><path d="M0 0h500v500H0z"/></clipPath><clipPath id="j"><path d="M0 0h500v500H0z"/></clipPath><clipPath id="o"><path d="M0 0h500v500H0z"/></clipPath><clipPath id="l"><path d="M0 0h500v500H0z"/></clipPath><mask id="s" mask-type="alpha"><g filter="url(#a)"><path fill="#fff" d="M0 0h500v500H0z" opacity="0"/><use xmlns:ns1="http://www.w3.org/1999/xlink" ns1:href="#b"/></g></mask><mask id="r" mask-type="alpha"><g filter="url(#c)"><path fill="#fff" d="M0 0h500v500H0z" opacity="0"/><use xmlns:ns2="http://www.w3.org/1999/xlink" ns2:href="#d"/></g></mask><mask id="n" mask-type="alpha"><g filter="url(#e)"><path fill="#fff" d="M0 0h500v500H0z" opacity="0"/><use xmlns:ns3="http://www.w3.org/1999/xlink" ns3:href="#f"/></g></mask><mask id="m"><path fill="#fff" d="M0 0h500v500H0z"/><path/></mask><mask id="k" mask-type="alpha"><g filter="url(#g)"><path fill="#fff" d="M0 0h500v500H0z" opacity="0"/><use xmlns:ns4="http://www.w3.org/1999/xlink" ns4:href="#h"/></g></mask><filter id="a" width="100%" height="100%" x="0%" y="0%" filterUnits="objectBoundingBox"><feComponentTransfer in="SourceGraphic"><feFuncA tableValues="1.0 0.0" type="table"/></feComponentTransfer></filter><filter id="c" width="100%" height="100%" x="0%" y="0%" filterUnits="objectBoundingBox"><feComponentTransfer in="SourceGraphic"><feFuncA tableValues="1.0 0.0" type="table"/></feComponentTransfer></filter><filter id="e" width="100%" height="100%" x="0%" y="0%" filterUnits="objectBoundingBox"><feComponentTransfer in="SourceGraphic"><feFuncA tableValues="1.0 0.0" type="table"/></feComponentTransfer></filter><filter id="g" width="100%" height="100%" x="0%" y="0%" filterUnits="objectBoundingBox"><feComponentTransfer in="SourceGraphic"><feFuncA tableValues="1.0 0.0" type="table"/></feComponentTransfer></filter><path id="b" fill="red" d="M19.925-166.791v94.167h93.492l-.002-.764-93.397-93.401-.093-.002z" style="display:block" transform="translate(270.013 270.015)"/><path id="d" fill="#FFF" d="m113.415-73.388.002 240.179h-226.834v-333.582l133.435.002" style="display:block" transform="translate(270.013 270.015)"/><path id="h" style="display:none"/><g id="f" style="display:none"><path/><path fill-opacity="0"/></g></defs><g clip-path="url(#i)"><g clip-path="url(#j)" opacity="0" style="display:block"><path fill="none" stroke="#121330" stroke-linecap="round" stroke-linejoin="round" stroke-width="12" d="M-80.682 166.791h-39.407v-333.582h240.178v105.875" opacity="1" style="display:block" transform="translate(236.657 229.985)"/><g mask="url(#k)" style="display:none"><g fill="none" clip-path="url(#l)" mask="url(#m)"><path style="display:none"/><path style="display:none"/><path style="display:none"/><path style="display:none"/><path style="display:none"/></g></g><g fill="none" stroke-linecap="round" stroke-linejoin="round" stroke-width="12" mask="url(#n)" style="display:block"><path stroke="#121330" d="m383.429 196.627.002 240.179H156.597V103.224l133.435.002"/><path stroke="#121330" d="M290.028 103.229v93.398h93.404m0 0-93.404-93.398"/><path stroke="#07A889" d="M196.627 303.373h146.776m-146.776 40.03h146.776m-146.776 40.03h146.776"/></g><path fill="none" style="display:none"/><g fill="none" clip-path="url(#o)" style="display:none"><path style="display:none"/><path style="display:none"/><path style="display:none"/><path style="display:none"/></g><g fill="none" style="display:none"><path/><path/><path/><path/><path/><path/></g><path fill="none" style="display:none"/></g><g clip-path="url(#p)" style="display:block"><g clip-path="url(#q)" mask="url(#r)" style="display:block"><path fill="none" stroke="#121330" stroke-linecap="round" stroke-linejoin="round" stroke-width="12" d="M120.089-166.791v333.582h-240.178v-333.582h240.178z" style="display:block" transform="translate(236.657 229.985)"/></g><g fill="none" style="display:none"><path/><path/><path/></g><g mask="url(#s)" style="display:block"><path fill="none" stroke="#07A889" stroke-linecap="round" stroke-linejoin="round" stroke-width="12" d="M196.626 303.373h146.776m-146.776 40.03h146.776m-146.776 40.03h146.776"/></g><g fill="none" stroke="#121330" stroke-linecap="round" stroke-linejoin="round" stroke-width="12" style="display:block"><path d="M156.596 103.224v333.582H383.43l-.002-240.179-93.397-93.401-133.435-.002z"/><path d="M290.027 103.229v93.398h93.404"/><path d="M290.027 103.229s1.468 2.373 46.32 47.483c45.832 46.095 47.084 45.915 47.084 45.915" opacity="0"/></g></g><path style="display:none"/></g></svg>