<svg xmlns="http://www.w3.org/2000/svg" width="500" height="500" style="width:100%;height:100%;transform:translate3d(0,0,0);content-visibility:visible" viewBox="0 0 500 500"><defs><filter id="a" width="100%" height="100%" x="0%" y="0%" filterUnits="objectBoundingBox"><feComponentTransfer in="SourceGraphic"><feFuncA tableValues="1.0 0.0" type="table"/></feComponentTransfer></filter><filter id="c" width="100%" height="100%" x="0%" y="0%" filterUnits="objectBoundingBox"><feComponentTransfer in="SourceGraphic"><feFuncA tableValues="1.0 0.0" type="table"/></feComponentTransfer></filter><filter id="e" width="100%" height="100%" x="0%" y="0%" filterUnits="objectBoundingBox"><feComponentTransfer in="SourceGraphic"><feFuncA tableValues="1.0 0.0" type="table"/></feComponentTransfer></filter><mask id="j" mask-type="alpha"><g filter="url(#a)"><path fill="#fff" d="M0 0h500v500H0z" opacity="0"/><use xmlns:ns1="http://www.w3.org/1999/xlink" ns1:href="#b"/></g></mask><mask id="i" mask-type="alpha"><g filter="url(#c)"><path fill="#fff" d="M0 0h500v500H0z" opacity="0"/><use xmlns:ns2="http://www.w3.org/1999/xlink" ns2:href="#d"/></g></mask><mask id="h" mask-type="alpha"><g filter="url(#e)"><path fill="#fff" d="M0 0h500v500H0z" opacity="0"/><use xmlns:ns3="http://www.w3.org/1999/xlink" ns3:href="#f"/></g></mask><g id="b" style="display:none"><path/><path fill-opacity="0" stroke-linecap="round" stroke-linejoin="round"/></g><g id="f" style="display:none"><path/><path fill-opacity="0" stroke-linecap="round" stroke-linejoin="round"/></g><g id="d" style="display:none"><path/><path fill-opacity="0" stroke-linecap="round" stroke-linejoin="round"/></g><clipPath id="g"><path d="M0 0h500v500H0z"/></clipPath></defs><g clip-path="url(#g)"><g mask="url(#h)" style="display:block"><path fill="none" stroke="#121330" stroke-linecap="round" stroke-linejoin="round" stroke-width="12" d="M251.192 280.248H140.705c-42.113 0-76.253-34.14-76.253-76.253 0 0 0 0 0 0 0-42.113 34.14-76.253 76.253-76.253h219.848c42.113 0 76.253 34.14 76.253 76.253 0 0 0 0 0 0 0 32.24-20.009 59.808-48.286 70.961"/></g><g mask="url(#i)" style="display:block"><path fill="none" stroke="#121330" stroke-linecap="round" stroke-linejoin="round" stroke-width="12" d="M393.16 183.583h-27.215v40.824h27.215m-10.591-20.413h-16.623m-61.307 20.413-17.369-40.824-18.562 40.824m31.657-10.045h-27.09m-154.118-30.779h-11.06v40.824h11.06c11.273 0 20.412-9.139 20.412-20.412 0 0 0 0 0 0 0-11.273-9.139-20.412-20.412-20.412zm130.538 0v40.824l-26.581-40.824v40.824m124.94-40.824h-36.408m18.204 0v40.824"/></g><path fill="none" stroke="#07A889" stroke-linecap="round" stroke-linejoin="round" stroke-width="12" d="M11.794-14.369c3.121-5.659 9.434-9.067 15.709-6.393 0 0 8.482 2.87 7.845 12.911-.637 10.041-13.459 24.111-23.554 29.54m0-36.058c-3.121-5.659-9.434-9.067-15.709-6.393 0 0-8.482 2.87-7.845 12.911.637 10.041 13.459 24.111 23.554 29.54" style="display:block" transform="translate(168.675 203.995)"/><path fill="none" style="display:none"/><g mask="url(#j)" style="display:block"><path fill="none" stroke="#121330" stroke-linecap="round" stroke-linejoin="round" stroke-width="12" d="M367.525 320.83h-.01m-19.952 14.471-6.342-34.34c-1.052-5.697 2.714-11.169 8.411-12.221 0 0 0 0 0 0 6.39-1.18 12.526 3.043 13.706 9.433l6.11 33.086m0 0-3.146-17.041c-1.116-6.044 3.22-9.992 9.264-11.108 0 0 0 0 0 0 6.044-1.116 11.848 2.878 12.964 8.922l2.804 15.185 5.751 31.153c4.09 22.16.12 38.15.12 38.15l4.94 26.76-49.6 9.16-28.07 5.19-4.94-26.76a67.727 67.727 0 0 1-34.86-33.1l-14.98-31.13a7.91 7.91 0 0 1 3.34-10.37c9.84-5.37 22.16-1.57 27.27 8.41l5.83 11.39-2.34-12.69-1.93-10.43-4.404-23.851-5.377-29.115-2.28-12.344c-1.052-5.697 2.714-11.169 8.411-12.221 0 0 0 0 0 0 6.39-1.18 12.526 3.043 13.706 9.433l2.344 12.691 2.777 15.041 8.635 46.758m0 0-7.002-37.918c-1.116-6.044 2.878-11.848 8.922-12.964 0 0 0 0 0 0 6.043-1.116 11.847 2.878 12.963 8.922l7.003 37.919"/></g><path style="display:none"/></g></svg>