<svg xmlns="http://www.w3.org/2000/svg" width="500" height="500" style="width:100%;height:100%;transform:translate3d(0,0,0);content-visibility:visible" viewBox="0 0 500 500"><defs><clipPath id="g"><path d="M0 0h500v500H0z"/></clipPath><clipPath id="h"><path d="M0 0h500v500H0z"/></clipPath><clipPath id="j"><path d="M0 0h500v500H0z"/></clipPath><filter id="a" width="100%" height="100%" x="0%" y="0%" filterUnits="objectBoundingBox"><feComponentTransfer in="SourceGraphic"><feFuncA tableValues="1.0 0.0" type="table"/></feComponentTransfer></filter><filter id="c" width="100%" height="100%" x="0%" y="0%" filterUnits="objectBoundingBox"><feComponentTransfer in="SourceGraphic"><feFuncA tableValues="1.0 0.0" type="table"/></feComponentTransfer></filter><filter id="e" width="100%" height="100%" x="0%" y="0%" filterUnits="objectBoundingBox"><feComponentTransfer in="SourceGraphic"><feFuncA tableValues="1.0 0.0" type="table"/></feComponentTransfer></filter><mask id="l" mask-type="alpha"><g filter="url(#a)"><path fill="#fff" d="M0 0h500v500H0z" opacity="0"/><use xmlns:ns1="http://www.w3.org/1999/xlink" ns1:href="#b"/></g></mask><mask id="k" mask-type="alpha"><g filter="url(#c)"><path fill="#fff" d="M0 0h500v500H0z" opacity="0"/><use xmlns:ns2="http://www.w3.org/1999/xlink" ns2:href="#d"/></g></mask><mask id="i" mask-type="alpha"><g filter="url(#e)"><path fill="#fff" d="M0 0h500v500H0z" opacity="0"/><use xmlns:ns3="http://www.w3.org/1999/xlink" ns3:href="#f"/></g></mask><g id="f" style="display:block"><path fill="#FFF" d="M162.58 410.137a92.788 92.788 0 0 1-.055-3.039c0-48.31 39.16-87.481 87.481-87.481 48.31 0 87.481 39.171 87.481 87.481 0 1.02-.022 2.03-.055 3.039"/><path fill-opacity="0" stroke="#07A889" stroke-linecap="round" stroke-linejoin="round" stroke-width="12.04" d="M162.58 410.137a92.788 92.788 0 0 1-.055-3.039c0-48.31 39.16-87.481 87.481-87.481 48.31 0 87.481 39.171 87.481 87.481 0 1.02-.022 2.03-.055 3.039"/></g><g id="b" style="display:block"><path fill="#FFF" d="M280.086 268.884h6.78c40.73 0 73.74 33.01 73.74 73.74v67.51"/><path fill-opacity="0" stroke="#121330" stroke-linecap="round" stroke-linejoin="round" stroke-width="0" d="M280.086 268.884h6.78c40.73 0 73.74 33.01 73.74 73.74v67.51"/><path fill="#FFF" d="M139.396 410.134v-67.51c0-40.73 33.01-73.74 73.73-73.74h6.79"/><path fill-opacity="0" stroke="#121330" stroke-linecap="round" stroke-linejoin="round" stroke-width="0" d="M139.396 410.134v-67.51c0-40.73 33.01-73.74 73.73-73.74h6.79"/><path fill="#FFF" d="M280.099 251.784v16.827c0 16.551-13.548 30.091-30.099 30.091-16.551 0-30.091-13.54-30.091-30.091v-16.818"/><path fill-opacity="0" stroke="#121330" stroke-linecap="round" stroke-linejoin="round" stroke-width="0" d="M280.099 251.784v16.827c0 16.551-13.548 30.091-30.099 30.091-16.551 0-30.091-13.54-30.091-30.091v-16.818"/><path fill="#FFF" d="m195.836 174.534.01.22 1.23 35.29c.5 14.26 6.59 27.04 16.13 36.25 2.08 2.01 4.32 3.85 6.7 5.5a52.814 52.814 0 0 0 30.09 9.37c11.16 0 21.54-3.46 30.1-9.37 13.32-9.21 22.23-24.38 22.83-41.75l1.12-32.24"/><path fill-opacity="0" stroke="#121330" stroke-linecap="round" stroke-linejoin="round" stroke-width="0" d="m195.836 174.534.01.22 1.23 35.29c.5 14.26 6.59 27.04 16.13 36.25 2.08 2.01 4.32 3.85 6.7 5.5a52.814 52.814 0 0 0 30.09 9.37c11.16 0 21.54-3.46 30.1-9.37 13.32-9.21 22.23-24.38 22.83-41.75l1.12-32.24"/><path fill="#FFF" d="M195.85 174.757c34.72-1.448 62.438-23.045 75.365-53.394 29.129 20.754 27.565 38.932 32.833 56.443 12.775-17.454 10.271-52.192 1.33-65.896-7.442-11.406-21.026-15.103-21.026-15.103-19.361-4.694-39.163 2.259-48.983 6.665a12.57 12.57 0 0 1-12.456-1.217l-14.107-10.066c-5.271-3.934-12.748-2.712-16.493 2.694-4.792 6.918-9.525 17.276-11.388 29.687-4.384 29.207 15.02 50.088 15.02 50.088"/><path fill-opacity="0" stroke="#121330" stroke-linecap="round" stroke-linejoin="round" stroke-width="0" d="M195.85 174.757c34.72-1.448 62.438-23.045 75.365-53.394 29.129 20.754 27.565 38.932 32.833 56.443 12.775-17.454 10.271-52.192 1.33-65.896-7.442-11.406-21.026-15.103-21.026-15.103-19.361-4.694-39.163 2.259-48.983 6.665a12.57 12.57 0 0 1-12.456-1.217l-14.107-10.066c-5.271-3.934-12.748-2.712-16.493 2.694-4.792 6.918-9.525 17.276-11.388 29.687-4.384 29.207 15.02 50.088 15.02 50.088"/></g><path id="d" fill="#FFF" d="M-160.152-111.485c114.06 151.438 320.304 188.49 320.304 188.49v34.48c-.817-.168-213.303-46.989-320.304-174.09" style="display:block" transform="translate(250 298.88)"/></defs><g clip-path="url(#g)"><g clip-path="url(#h)" mask="url(#i)" style="display:block"><g clip-path="url(#j)" mask="url(#k)" style="display:block"><g mask="url(#l)" style="display:block"><path fill="none" stroke="#07A889" stroke-linecap="round" stroke-linejoin="round" stroke-width="12.04" d="M309.085 209.97h-118.17c-14.108 0-25.65-11.542-25.65-25.65v-41.336c0-14.108 11.542-25.65 25.65-25.65h118.17c14.108 0 25.65 11.542 25.65 25.65v41.336c0 14.108-11.542 25.65-25.65 25.65zM139.391 408.486V294.1c0-33.789 22.454-51.922 49.899-51.922h121.42c27.445 0 49.899 18.133 49.899 51.922v116.002"/></g><g fill="none" stroke="#121330" stroke-linecap="round" stroke-linejoin="round" stroke-width="12.04" style="display:block"><path d="M280.086 268.884h6.78c40.73 0 73.74 33.01 73.74 73.74v67.51m-221.21 0v-67.51c0-40.73 33.01-73.74 73.73-73.74h6.79"/><path d="M280.099 251.784v16.827c0 16.551-13.548 30.091-30.099 30.091-16.551 0-30.091-13.54-30.091-30.091v-16.818"/><path d="m195.836 174.534.01.22 1.23 35.29c.5 14.26 6.59 27.04 16.13 36.25 2.08 2.01 4.32 3.85 6.7 5.5a52.814 52.814 0 0 0 30.09 9.37c11.16 0 21.54-3.46 30.1-9.37 13.32-9.21 22.23-24.38 22.83-41.75l1.12-32.24"/><path d="M195.85 174.757c34.72-1.448 62.438-23.045 75.365-53.394 29.129 20.754 27.565 38.932 32.833 56.443 12.775-17.454 10.271-52.192 1.33-65.896-7.442-11.406-21.026-15.103-21.026-15.103-19.361-4.694-39.163 2.259-48.983 6.665a12.57 12.57 0 0 1-12.456-1.217l-14.107-10.066c-5.271-3.934-12.748-2.712-16.493 2.694-4.792 6.918-9.525 17.276-11.388 29.687-4.384 29.207 15.02 50.088 15.02 50.088"/></g></g><path fill="none" stroke="#121330" stroke-linecap="round" stroke-linejoin="round" stroke-width="12.04" d="M160.152 111.485c-.817-.168-213.303-46.989-320.304-174.09m0-48.88C-53.457 30.175 133.902 71.743 157.653 76.521" style="display:block" transform="translate(250 298.88)"/></g><g fill="none" stroke="#07A889" stroke-linecap="round" stroke-linejoin="round" stroke-width="12.04" style="display:block"><path d="M162.58 410.137a92.788 92.788 0 0 1-.055-3.039c0-48.31 39.16-87.481 87.481-87.481 48.31 0 87.481 39.171 87.481 87.481 0 1.02-.022 2.03-.055 3.039"/><path d="M308.258 410.137c.054-.955.076-1.91.076-2.876 0-27.047-18.408-49.808-43.393-56.396a58.384 58.384 0 0 0-14.935-1.932c-5.166 0-10.169.673-14.945 1.932-24.974 6.599-43.393 29.359-43.393 56.396 0 .966.022 1.921.076 2.876m46.136 0-5.82-58.272m35.88 0-5.82 58.272"/></g><g class="com" style="display:none"><path/><path/><path/><path/><path/><path/><path/><path/><path/><path/><path/><path/></g></g></svg>