<svg xmlns="http://www.w3.org/2000/svg" width="500" height="500" style="width:100%;height:100%;transform:translate3d(0,0,0);content-visibility:visible" viewBox="0 0 500 500"><defs><clipPath id="a"><path d="M0 0h500v500H0z"/></clipPath><clipPath id="d"><path d="M0 0h500v500H0z"/></clipPath><clipPath id="c"><path d="M0 0h500v500H0z"/></clipPath><clipPath id="b"><path d="M0 0h500v500H0z"/></clipPath></defs><g clip-path="url(#a)"><g clip-path="url(#b)" opacity="0" style="display:block"><path fill="none" stroke="#07A889" stroke-linecap="round" stroke-linejoin="round" stroke-width="3.08" d="M5.482-52.049c24.879 2.595 44.599 22.651 46.671 47.68M3.899-37.02C21.594-35.175 35.62-20.909 37.094-3.107M2.316-21.991c10.511 1.096 18.843 9.57 19.719 20.145" opacity="1" style="display:block" transform="matrix(4 0 0 4 197.5 314.5)"/><g opacity="1" style="display:block"><path fill="none" stroke="#07A889" stroke-linecap="round" stroke-linejoin="round" stroke-width="12.32" d="M200.432 286.652c13.312 1.388 23.864 12.12 24.972 25.512" opacity="0"/></g><path fill="none" style="display:none"/><path fill="none" style="display:none"/><path fill="none" style="display:none"/><path fill="none" style="display:none"/><path fill="none" style="display:none"/><path fill="none" style="display:none"/><path fill="none" style="display:none"/><path fill="none" style="display:none"/><path fill="none" stroke="#121330" stroke-linecap="round" stroke-linejoin="round" stroke-width="12.32" d="M-83.093-130.155c-3.549-4.887-21.679 12.256-40.46 38.257 0 0 0 0 0 0-18.781 26.001-2.345 78.798 36.68 117.823l60.811 60.811c39.025 39.025 91.663 55.303 117.469 36.327 0 0 0 0 0 0 25.806-18.976 43.427-36.813 39.324-39.805 0 0 0 0 0 0l-27.705-20.2s0 0 0 0L76.52 43.73s0 0 0 0c-3.442-2.51-12.891 2.106-21.086 10.301 0 0 0 0 0 0-8.195 8.195-17.86 11.839-21.567 8.132 0 0 0 0 0 0l-47.376-47.377s0 0 0 0L-62.3-34.004s0 0 0 0c-4.488-4.488-1.477-14.786 6.718-22.981 0 0 0 0 0 0 8.195-8.195 12.577-17.979 9.778-21.833 0 0 0 0 0 0l-17.965-24.733s0 0 0 0l-19.324-26.604s0 0 0 0z" opacity="1" style="display:block" transform="rotate(5 -3331.565 2531.99)"/></g><g fill="none" stroke-linecap="round" stroke-linejoin="round" stroke-width="12.32" clip-path="url(#c)" style="display:block"><path stroke="#07A889" d="M220.501 280.501" opacity="0" style="display:block"/><path stroke="#121330" d="M-83.093-130.155c-3.549-4.887-21.679 12.256-40.46 38.257 0 0 0 0 0 0-18.781 26.001-2.345 78.798 36.68 117.823l60.811 60.811c39.025 39.025 91.663 55.303 117.469 36.327 0 0 0 0 0 0 25.806-18.976 43.427-36.813 39.324-39.805 0 0 0 0 0 0l-27.705-20.2s0 0 0 0L76.52 43.73s0 0 0 0c-3.442-2.51-12.891 2.106-21.086 10.301 0 0 0 0 0 0-8.195 8.195-17.86 11.839-21.567 8.132 0 0 0 0 0 0l-47.376-47.377s0 0 0 0L-62.3-34.004s0 0 0 0c-4.488-4.488-1.477-14.786 6.718-22.981 0 0 0 0 0 0 8.195-8.195 12.577-17.979 9.778-21.833 0 0 0 0 0 0l-17.965-24.733s0 0 0 0l-19.324-26.604s0 0 0 0z" style="display:block" transform="translate(253.001 250.001)"/></g><g clip-path="url(#d)" opacity="0" style="display:block"><path fill="none" style="display:none"/></g><path style="display:none"/></g></svg>