<?xml version="1.0" encoding="utf-8"?>
<!-- Generator: Adobe Illustrator 28.1.0, SVG Export Plug-In . SVG Version: 6.00 Build 0)  -->
<svg version="1.1" id="Layer_1" xmlns="http://www.w3.org/2000/svg"
    xmlns:xlink="http://www.w3.org/1999/xlink" x="0px" y="0px"
    viewBox="0 0 500 500" style="enable-background:new 0 0 500 500;" xml:space="preserve">
<g>
	<g>
		<g>
			<path fill="none" stroke="#000" stroke-miterlimit="10"  d="M154.6,139.7H92.9 M154.6,212.1H92.9 M154.6,286.7H92.9 M154.6,360.6H92.9"/>
			<path fill="none" stroke="#000" stroke-width="13.09" d="M154.6,139.7H92.9 M154.6,212.1H92.9 M154.6,286.7H92.9 M154.6,360.6H92.9"/>
			<path fill="none" stroke="#000" stroke-miterlimit="10"  d="M407.1,139.7h-61.7 M407.1,212.1h-61.7 M407.1,286.7h-61.7 M407.1,360.6h-61.7"/>
			<path fill="none" stroke="#000" stroke-width="13.09" d="M407.1,139.7h-61.7 M407.1,212.1h-61.7 M407.1,286.7h-61.7 M407.1,360.6h-61.7"/>
			<path fill="none" stroke="#000" stroke-miterlimit="10"  d="M345.6,139.9l-190.8,0.3v220.2l190.9-0.3L345.6,139.9L345.6,139.9z"/>
			<path fill="none" stroke="#000" stroke-width="13.09" d="M345.6,139.9l-190.8,0.3v220.2l190.9-0.3L345.6,139.9L345.6,139.9z"/>
			<path fill="none" stroke="#000" stroke-width="13.09" d="M233.2,207.9v86l43-44.1L233.2,207.9L233.2,207.9z"/>
			<path fill="none" stroke="#000" stroke-miterlimit="10"  d="M154.6,139H92.9"/>
			<path fill="none" stroke="#000" stroke-width="13.09" d="M154.6,139H92.9"/>
			<path fill="none" stroke="#000" stroke-miterlimit="10"  d="M407.1,139h-61.7"/>
			<path fill="none" stroke="#000" stroke-width="13.09" d="M407.1,139h-61.7"/>
			<path fill="none" stroke="#000" stroke-miterlimit="10"  d="M154.7,138.9l190.9-0.3"/>
			<path fill="none" stroke="#000" stroke-width="13.09" d="M154.7,138.9l190.9-0.3"/>
		</g>
		<g>
			<path fill="none" stroke="#000" stroke-miterlimit="10"  d="M408.5,139.8L91,139.9v220.2l317.6-0.1L408.5,139.8L408.5,139.8z"/>
			<path fill="none" stroke="#000" stroke-width="13.09" d="M408.5,139.8L91,139.9v220.2l317.6-0.1L408.5,139.8L408.5,139.8z"/>
		</g>
	</g>
</g>
</svg>