<svg xmlns="http://www.w3.org/2000/svg" width="500" height="500" style="width:100%;height:100%;transform:translate3d(0,0,0);content-visibility:visible" viewBox="0 0 500 500"><defs><clipPath id="b"><path d="M0 0h500v500H0z"/></clipPath><clipPath id="c"><path d="M0 0h500v500H0z"/></clipPath><path id="a" fill="red" d="M0 85.946c-34.342 0-62.44-28.097-62.44-62.439v-47.014c0-3.652.395-5.982 1.004-9.466 15.673.411 88.096-.59 123.171.111.175 4.049.705 6.177.705 9.355v47.014c0 34.342-28.098 62.439-62.44 62.439z" style="display:block" transform="translate(320.59 175.312)"/><mask id="d" mask-type="alpha"><use xmlns:ns1="http://www.w3.org/1999/xlink" ns1:href="#a"/></mask></defs><g clip-path="url(#b)"><g fill="none" stroke="#07A889" stroke-linecap="round" stroke-linejoin="round" stroke-width="12" clip-path="url(#c)" mask="url(#d)" style="display:block"><g style="display:block"><path d="M343.204 188.805c5.891-10.232 17.132-17.362 29.768-17.362 3.505 0 14.872 0 23.804 14.853"/><path d="M388.097 190.855a25.537 25.537 0 0 1 16.046-5.638c14.165 0 25.648 11.483 25.648 25.648s-11.483 25.648-25.648 25.648h-63.911c-10.645 0-19.271-8.625-19.271-19.27 0-7.222 3.974-13.518 9.865-16.821-1.046-7.075 5.432-13.269 12.379-11.617 5.643 1.349 9.773 6.984 8.268 12.783"/></g><path d="M456.348 224.026a7.766 7.766 0 1 1 4.859 13.825h-32.13c-4.742 0-8.578-3.842-8.585-8.584-.017-11.204 7.729-20.059 17.129-20.894 9.821-.873 18.27 2.324 21.382 14.224" style="display:block"/><g style="display:block"><path d="M687.146 188.805c5.891-10.232 17.132-17.362 29.768-17.362 3.505 0 14.872 0 23.804 14.853"/><path d="M732.039 190.855a25.537 25.537 0 0 1 16.046-5.638c14.165 0 25.648 11.483 25.648 25.648s-11.483 25.648-25.648 25.648h-63.911c-10.645 0-19.271-8.625-19.271-19.27 0-7.222 3.974-13.518 9.865-16.821-1.046-7.075 5.432-13.269 12.379-11.617 5.643 1.349 9.773 6.984 8.268 12.783"/></g></g><g fill="none" stroke-linecap="round" stroke-linejoin="round" stroke-width="12" style="display:block"><path stroke="#07A889" d="M89.881 410.119h320.238m-175.924-62.763-9.4 52.822c-1.026 5.767-5.76 9.942-11.275 9.942h-48.412c-5.515 0-10.249-4.175-11.275-9.942l-9.4-52.822"/><path stroke="#121330" d="m158.79 261.26 3.64 31.81h66.68c18.58 0 33.78 16.17 33.78 35.94v3.08c0 8.4-6.46 15.27-14.35 15.27H132.19c-7.89 0-14.34-6.87-14.34-15.27v-.57l-8.09-70.61m-3.24-28.28L93.03 114.97c-1.52-13.26 8.16-24.96 20.71-25.02l13.3-.07c17.55-.09 32.39 13.78 34.58 32.31l2.15 18.25c.85 7.14-.29 14.38-3.26 20.84l-6.02 13.09c-2.96 6.41-4.1 13.61-3.28 20.7l4.08 35.65"/><path stroke="#07A889" d="M221.678 261.259H112.393c-5.509 0-9.975-4.466-9.975-9.975v-10.586c0-5.509 4.466-9.975 9.975-9.975h97.285c9.941 0 18 8.059 18 18v6.536a6 6 0 0 1-6 6z"/></g><path fill="none" stroke="#121330" stroke-linecap="round" stroke-linejoin="round" stroke-width="12" d="M0 85.946s0 0 0 0c-34.342 0-62.44-28.097-62.44-62.439v-47.014c0-34.342 28.098-62.439 62.44-62.439 0 0 0 0 0 0 34.342 0 62.44 28.097 62.44 62.439v47.014c0 34.342-28.098 62.439-62.44 62.439z" style="display:block" transform="translate(320.59 175.312)"/><g fill="none" stroke-linecap="round" stroke-linejoin="round" stroke-width="12" style="display:block"><path stroke="#121330" d="M382.69 142.244H258.488"/><path stroke="#07A889" d="M309.73 122.141h21.72"/></g><path style="display:none"/></g></svg>