<svg xmlns="http://www.w3.org/2000/svg" width="500" height="500" style="width:100%;height:100%;transform:translate3d(0,0,0);content-visibility:visible" viewBox="0 0 500 500"><defs><clipPath id="e"><path d="M0 0h500v500H0z"/></clipPath><clipPath id="f"><path d="M0 0h500v500H0z"/></clipPath><filter id="a" width="100%" height="100%" x="0%" y="0%" filterUnits="objectBoundingBox"><feComponentTransfer in="SourceGraphic"><feFuncA tableValues="1.0 0.0" type="table"/></feComponentTransfer></filter><filter id="c" width="100%" height="100%" x="0%" y="0%" filterUnits="objectBoundingBox"><feComponentTransfer in="SourceGraphic"><feFuncA tableValues="1.0 0.0" type="table"/></feComponentTransfer></filter><mask id="h" mask-type="alpha"><g filter="url(#a)"><path fill="#fff" d="M0 0h500v500H0z" opacity="0"/><use xmlns:ns1="http://www.w3.org/1999/xlink" ns1:href="#b"/></g></mask><mask id="g" mask-type="alpha"><g filter="url(#c)"><path fill="#fff" d="M0 0h500v500H0z" opacity="0"/><use xmlns:ns2="http://www.w3.org/1999/xlink" ns2:href="#d"/></g></mask><g id="d" style="display:block"><path fill="red" d="M117.01 343.412a77.835 77.835 0 0 1-.01-.91c-.261-50.318 47.941-257 133.146-257 85.205 0 133.115 206.682 132.854 257-.001.283-.005.587-.01.91H117.01zM266.458 65.086c0 11.278-7.237 20.421-16.166 20.421s-16.167-9.143-16.167-20.421c0-11.278 7.238-20.421 16.167-20.421 8.929 0 16.166 9.143 16.166 20.421z"/><path fill-opacity="0" stroke="#121331" stroke-linecap="round" stroke-linejoin="round" stroke-width="0" d="M117.01 343.412a77.835 77.835 0 0 1-.01-.91c-.261-50.318 47.941-257 133.146-257 85.205 0 133.115 206.682 132.854 257-.001.283-.005.587-.01.91H117.01z"/><path fill-opacity="0" stroke="#121331" stroke-linecap="round" stroke-linejoin="round" stroke-width="0" d="M266.458 65.086c0 11.278-7.237 20.421-16.166 20.421s-16.167-9.143-16.167-20.421c0-11.278 7.238-20.421 16.167-20.421 8.929 0 16.166 9.143 16.166 20.421z"/></g><g id="b" style="display:block"><path fill="red" d="m175.993 343.437-45.493-39h239l-45.493 39"/><path fill-opacity="0" stroke="#121330" stroke-linecap="round" stroke-linejoin="round" stroke-width="12.6" d="m175.993 343.437-45.493-39h239l-45.493 39"/></g></defs><g clip-path="url(#e)"><g clip-path="url(#f)" mask="url(#g)" style="display:block"><g mask="url(#h)" style="display:block"><path fill="none" stroke="#07A889" stroke-linecap="round" stroke-linejoin="round" stroke-width="12.6" d="M310.75 324.999h-121.5l25.605-93h70.29l25.605 93z"/></g><path fill="none" stroke="#07A889" stroke-linecap="round" stroke-linejoin="round" stroke-width="12.6" d="M3.141-147.571c.018.394.027.803.027 1.229v-.434c0 10.777-6 10.777-6 21.554 0 10.778 6 10.778 6 21.556s-6 10.779-6 21.557" style="display:block" transform="translate(250 312.5)"/><path fill="none" stroke="#07A889" stroke-linecap="round" stroke-linejoin="round" stroke-width="12.6" d="M3.141-147.571c.018.394.027.803.027 1.229v-.434c0 10.777-6 10.777-6 21.554 0 10.778 6 10.778 6 21.556s-6 10.779-6 21.557" style="display:block" transform="matrix(-1 0 0 1 205 312.5)"/><path fill="none" stroke="#07A889" stroke-linecap="round" stroke-linejoin="round" stroke-width="12.6" d="M3.141-147.571c.018.394.027.803.027 1.229v-.434c0 10.777-6 10.777-6 21.554 0 10.778 6 10.778 6 21.556s-6 10.779-6 21.557" style="display:block" transform="matrix(-1 0 0 1 295 312.5)"/><path fill="none" stroke="#121330" stroke-linecap="round" stroke-linejoin="round" stroke-width="12.6" d="m-74.007 93.437-45.493-39h239l-45.493 39" style="display:block" transform="translate(250 250)"/><path fill="none" stroke="#121330" stroke-linecap="round" stroke-linejoin="round" stroke-width="12.6" d="M147.333 126.25h-296.666c-6.6 0-12-5.4-12-12v-8.875c0-6.6 5.4-12 12-12h296.666c6.6 0 12 5.4 12 12v8.875c0 6.6-5.4 12-12 12z" style="display:block" transform="translate(250 250)"/></g><g fill="none" stroke="#121330" stroke-linecap="round" stroke-linejoin="round" stroke-width="12.6" style="display:block"><path d="M117.01 343.412a77.835 77.835 0 0 1-.01-.91c-.261-50.318 47.795-133 133-133s133.261 82.682 133 133c-.001.283-.005.587-.01.91H117.01z"/><path d="M266.312 189.086c0 11.278-7.237 20.421-16.166 20.421s-16.167-9.143-16.167-20.421c0-11.278 7.238-20.421 16.167-20.421 8.929 0 16.166 9.143 16.166 20.421z"/></g><g class="com" style="display:none"><path/><path/><path/><path/><path/><path/><path/><path/><path/><path/><path/><path/></g></g></svg>