<svg xmlns="http://www.w3.org/2000/svg" width="500" height="500" style="width:100%;height:100%;transform:translate3d(0,0,0);content-visibility:visible" viewBox="0 0 500 500"><defs><clipPath id="d"><path d="M0 0h500v500H0z"/></clipPath><clipPath id="c"><path d="M0 0h500v500H0z"/></clipPath><clipPath id="e"><path d="M0 0h500v500H0z"/></clipPath><clipPath id="h"><path d="M0 0h500v500H0z"/></clipPath><clipPath id="g"><path d="M0 0h500v500H0z"/></clipPath><filter id="a" width="100%" height="100%" x="0%" y="0%" filterUnits="objectBoundingBox"><feComponentTransfer in="SourceGraphic"><feFuncA tableValues="1.0 0.0" type="table"/></feComponentTransfer></filter><mask id="f" mask-type="alpha"><g filter="url(#a)"><path fill="#fff" d="M0 0h500v500H0z" opacity="0"/><use xmlns:ns1="http://www.w3.org/1999/xlink" ns1:href="#b"/></g></mask><g id="b" clip-path="url(#c)" style="display:block"><g style="display:block"><path fill-opacity="0" stroke="#169B7E" stroke-linecap="round" stroke-linejoin="round" stroke-width="0" d="m208.901 183.284-18.296-43-19.552 43"/><path fill="red" d="m208.901 183.284-18.296-43-19.552 43"/><path fill-opacity="0" stroke="#169B7E" stroke-linecap="round" stroke-linejoin="round" stroke-width="0" d="M204.398 172.703h-28.534"/><path fill="red" d="M204.398 172.703h-28.534"/><path fill-opacity="0" stroke="#121331" stroke-linecap="round" stroke-linejoin="round" stroke-width="0" d="m167.314 209.991 23.352 26.352 23.358-26.352h29.104a6.895 6.895 0 0 0 6.894-6.894v-79.632a6.898 6.898 0 0 0-6.898-6.898H136.83a6.898 6.898 0 0 0-6.898 6.898v79.632a6.895 6.895 0 0 0 6.894 6.894h30.488z"/><path fill="red" d="m167.314 209.991 23.352 26.352 23.358-26.352h29.104a6.895 6.895 0 0 0 6.894-6.894v-79.632a6.898 6.898 0 0 0-6.898-6.898H136.83a6.898 6.898 0 0 0-6.898 6.898v79.632a6.895 6.895 0 0 0 6.894 6.894h30.488z"/></g><g style="display:none"><path fill-opacity="0" stroke-linecap="round" stroke-linejoin="round"/><path/><path fill-opacity="0" stroke-linecap="round" stroke-linejoin="round"/><path/><path fill-opacity="0" stroke-linecap="round" stroke-linejoin="round"/><path/></g><g style="display:none"><path fill-opacity="0" stroke-linecap="round" stroke-linejoin="round"/><path/><path fill-opacity="0" stroke-linecap="round" stroke-linejoin="round"/><path/><path fill-opacity="0" stroke-linecap="round" stroke-linejoin="round"/><path/></g><g style="display:block"><path fill-opacity="0" stroke="#121331" stroke-linecap="round" stroke-linejoin="round" stroke-width="0" d="m274.039 343.424 23.352 26.352 23.358-26.352h29.104a6.895 6.895 0 0 0 6.894-6.894v-79.632a6.898 6.898 0 0 0-6.898-6.898H243.555a6.898 6.898 0 0 0-6.898 6.898v79.632a6.895 6.895 0 0 0 6.894 6.894h30.488z"/><path fill="red" d="m274.039 343.424 23.352 26.352 23.358-26.352h29.104a6.895 6.895 0 0 0 6.894-6.894v-79.632a6.898 6.898 0 0 0-6.898-6.898H243.555a6.898 6.898 0 0 0-6.898 6.898v79.632a6.895 6.895 0 0 0 6.894 6.894h30.488z"/><path fill-opacity="0" stroke="#13132B" stroke-linecap="round" stroke-linejoin="round" stroke-width="0" d="M269.343 290.03h55.716"/><path fill="red" d="M269.343 290.03h55.716"/><path fill-opacity="0" stroke="#13132B" stroke-linecap="round" stroke-linejoin="round" stroke-width="0" d="M296.702 269.724v20.306"/><path fill="red" d="M296.702 269.724v20.306"/><path fill-opacity="0" stroke="#13132B" stroke-linecap="round" stroke-linejoin="round" stroke-width="0" d="m270.344 316.717.39.082c16.995 3.566 32.968-9.403 32.968-26.769 0 0 0 0 0 0"/><path fill="red" d="m270.344 316.717.39.082c16.995 3.566 32.968-9.403 32.968-26.769"/><path fill-opacity="0" stroke="#13132B" stroke-linecap="round" stroke-linejoin="round" stroke-width="0" d="M296.7 308.3c6.24 6.94 15.92 10.6 25.97 8.5l.39-.08"/><path fill="red" d="M296.7 308.3c6.24 6.94 15.92 10.6 25.97 8.5l.39-.08"/></g><g style="display:none"><path fill-opacity="0" stroke-linecap="round" stroke-linejoin="round"/><path/><path fill-opacity="0" stroke-linecap="round" stroke-linejoin="round"/><path/><path fill-opacity="0" stroke-linecap="round" stroke-linejoin="round"/><path/><path fill-opacity="0" stroke-linecap="round" stroke-linejoin="round"/><path/><path fill-opacity="0" stroke-linecap="round" stroke-linejoin="round"/><path/></g><g style="display:none"><path fill-opacity="0" stroke-linecap="round" stroke-linejoin="round"/><path/><path fill-opacity="0" stroke-linecap="round" stroke-linejoin="round"/><path/><path fill-opacity="0" stroke-linecap="round" stroke-linejoin="round"/><path/><path fill-opacity="0" stroke-linecap="round" stroke-linejoin="round"/><path/><path fill-opacity="0" stroke-linecap="round" stroke-linejoin="round"/><path/></g></g></defs><g clip-path="url(#d)"><g fill="none" clip-path="url(#e)" mask="url(#f)" style="display:block"><g clip-path="url(#g)" style="display:block"><path stroke="#07A889" stroke-linecap="round" stroke-linejoin="round" stroke-width="12" d="m-301.277-.008 165.616-.008M30.277 0l-165.991-.004" style="display:block" transform="translate(385.772 249.999)"/><path stroke="#07A889" stroke-linecap="round" stroke-linejoin="round" stroke-width="12" d="M107.351-12.138C78.425 3.006 40.965 12.138.017 12.138c-40.948 0-78.409-9.132-107.368-24.276" style="display:block" transform="translate(250.005 135.481)"/><path stroke="#07A889" stroke-linecap="round" stroke-linejoin="round" stroke-width="12" d="M-107.351 12.138C-78.425-3.006-40.965-12.138-.017-12.138c40.948 0 78.409 9.132 107.368 24.276" style="display:block" transform="translate(250.005 364.523)"/><path stroke="#07A889" stroke-linecap="round" stroke-linejoin="round" stroke-width="12" d="M-52.859 166.05c-56.333 0-101.998-74.344-101.998-166.05 0-91.706 45.665-166.05 101.998-166.05" style="display:block" transform="translate(302.857 249.999)"/><path stroke="#07A889" stroke-linecap="round" stroke-linejoin="round" stroke-width="12" d="M-52.859 166.05c.001 0 .002-74.344.002-166.05 0-91.706-.001-166.05-.002-166.05" style="display:block" transform="translate(302.857 249.999)"/><path stroke="#07A889" stroke-linecap="round" stroke-linejoin="round" stroke-width="12" d="M-52.859 166.05C5.528 166.05 52.859 91.706 52.859 0c0-91.706-47.331-166.05-105.718-166.05" style="display:block" transform="translate(302.857 249.999)"/><path style="display:none"/><path style="display:none"/><path style="display:none"/><path style="display:none"/><path stroke="#121330" stroke-linecap="round" stroke-linejoin="round" stroke-width="12" d="M166.05 0c0 91.706-74.344 166.05-166.05 166.05-91.706 0-166.05-74.344-166.05-166.05 0-91.706 74.344-166.05 166.05-166.05 91.706 0 166.05 74.344 166.05 166.05z" style="display:block" transform="translate(250.002 250.001)"/></g><g clip-path="url(#h)" style="display:none"><path style="display:none"/><path style="display:none"/><path style="display:none"/><path style="display:none"/><path style="display:none"/><path style="display:none"/><path style="display:none"/><path style="display:none"/><path style="display:none"/><path style="display:none"/><path style="display:none"/></g></g><g fill="none" stroke-linecap="round" stroke-linejoin="round" stroke-width="12" style="display:block"><path stroke="#07A889" d="m208.901 183.284-18.296-43-19.552 43m33.345-10.581h-28.534"/><path stroke="#121330" d="m167.314 209.991 23.352 26.352 23.358-26.352h29.104a6.895 6.895 0 0 0 6.894-6.894v-79.632a6.898 6.898 0 0 0-6.898-6.898H136.83a6.898 6.898 0 0 0-6.898 6.898v79.632a6.895 6.895 0 0 0 6.894 6.894h30.488z"/></g><g fill="none" style="display:none"><path/><path/><path/></g><g fill="none" style="display:none"><path/><path/><path/></g><g fill="none" stroke="#121330" stroke-linecap="round" stroke-linejoin="round" stroke-width="12" style="display:block"><path d="m274.039 343.424 23.352 26.352 23.358-26.352h29.104a6.895 6.895 0 0 0 6.894-6.894v-79.632a6.898 6.898 0 0 0-6.898-6.898H243.555a6.898 6.898 0 0 0-6.898 6.898v79.632a6.895 6.895 0 0 0 6.894 6.894h30.488zm-4.696-53.394h55.716m-28.357-20.306v20.306"/><path d="m270.344 316.717.39.082c16.995 3.566 32.968-9.403 32.968-26.769 0 0 0 0 0 0"/><path d="M296.7 308.3c6.24 6.94 15.92 10.6 25.97 8.5l.39-.08"/></g><g fill="none" style="display:none"><path/><path/><path/><path/><path/></g><g fill="none" style="display:none"><path/><path/><path/><path/><path/></g><path style="display:none"/></g></svg>