<svg xmlns="http://www.w3.org/2000/svg" width="500" height="500" style="width:100%;height:100%;transform:translate3d(0,0,0);content-visibility:visible" viewBox="0 0 500 500"><defs><clipPath id="c"><path d="M0 0h500v500H0z"/></clipPath><filter id="a" width="100%" height="100%" x="0%" y="0%" filterUnits="objectBoundingBox"><feComponentTransfer in="SourceGraphic"><feFuncA tableValues="1.0 0.0" type="table"/></feComponentTransfer></filter><path id="b" fill="red" d="M73.353 93.468h-285.884c-9.448 0-17.177-7.729-17.177-17.177v-179.137c0-9.448 7.729-17.178 17.177-17.178H73.353c9.448 0 17.177 7.73 17.177 17.178V76.291c0 9.448-7.729 17.177-17.177 17.177z" style="display:block" transform="translate(319.589 263.278)"/><mask id="d" mask-type="alpha"><g filter="url(#a)"><path fill="#fff" d="M0 0h500v500H0z" opacity="0"/><use xmlns:ns1="http://www.w3.org/1999/xlink" ns1:href="#b"/></g></mask></defs><g clip-path="url(#c)"><g fill="none" mask="url(#d)" style="display:none"><path/><path/><path/><path/></g><g fill="none" stroke-linecap="round" stroke-linejoin="round" stroke-width="12.04" style="display:block"><path stroke="#07A889" d="M193 247.504v108.992m0-212.492v70.492M135.119 232H89.881m320.238 0H252.381m-46.356-9.619c35.056-18.403 45.137-18.716 47.733-15.439 2.743 3.443-3.692 9.759-4.051 24.553-.368 15.273 6.15 22.039 3.167 25.703-2.771 3.397-13.063 3.259-48.865-15.742m-22.877-19.075c-35.056-18.403-45.137-18.716-47.733-15.439-2.743 3.443 3.682 9.759 4.05 24.553.368 15.273-6.149 22.039-3.166 25.703 2.771 3.397 13.054 3.259 48.865-15.742m-4.548-10.753c0 8.272 6.705 14.977 14.977 14.977s14.977-6.705 14.977-14.977-6.705-14.977-14.977-14.977-14.977 6.705-14.977 14.977z"/><path stroke="#121330" d="M392.942 356.746H107.058c-9.448 0-17.177-7.729-17.177-17.177V160.432c0-9.448 7.729-17.178 17.177-17.178h285.884c9.448 0 17.177 7.73 17.177 17.178v179.137c0 9.448-7.729 17.177-17.177 17.177zM248 316.716h63.5m27.5 0h31.09"/></g><g class="com" style="display:none"><path/><path/><path/><path/><path/><path/><path/><path/><path/><path/><path/><path/></g></g></svg>