<svg xmlns="http://www.w3.org/2000/svg" width="500" height="500" style="width:100%;height:100%;transform:translate3d(0,0,0);content-visibility:visible" viewBox="0 0 500 500"><defs><clipPath id="c"><path d="M0 0h500v500H0z"/></clipPath><filter id="a" width="100%" height="100%" x="0%" y="0%" filterUnits="objectBoundingBox"><feComponentTransfer in="SourceGraphic"><feFuncA tableValues="1.0 0.0" type="table"/></feComponentTransfer></filter><mask id="d" mask-type="alpha"><g filter="url(#a)"><path fill="#fff" d="M0 0h500v500H0z" opacity="0"/><use xmlns:ns1="http://www.w3.org/1999/xlink" ns1:href="#b"/></g></mask><g id="b" style="display:block"><path fill="#121331" d="M72.25 381.512S73.6 416.5 77.2 419.2c3.6 2.7 83.7 93.6 83.7 93.6l251.1-63 9.9-67.95-171.225 53.325L72.25 381.512z"/><path fill-opacity="0" stroke="#08A88A" stroke-width="0" d="M72.25 381.512S73.6 416.5 77.2 419.2c3.6 2.7 83.7 93.6 83.7 93.6l251.1-63 9.9-67.95-171.225 53.325L72.25 381.512z"/></g></defs><g clip-path="url(#c)"><path fill="none" stroke="#121330" stroke-linecap="round" stroke-linejoin="round" stroke-width="14" d="m-172.938-104.938.5 50L11.5-8l183-48 .5-49m.034 0L11-152.5-173.034-105 11-57.5 195.034-105z" style="display:block" transform="matrix(.9 0 0 .9 239.65 255.85)"/><path fill="none" stroke="#121330" stroke-linecap="round" stroke-linejoin="round" stroke-width="14" d="M170.124-48.5 12-9.5l-159.938-36.938.419 89.14.464 98.86L11.91 189.5l158.233-49-.01-97.004-.009-91.996zM11.75-10.188l.074 76.007.121 123.369" style="display:block" transform="matrix(.9 0 0 .9 239.65 255.85)"/><g mask="url(#d)" style="display:block"><path fill="none" stroke="#07A889" stroke-linecap="round" stroke-linejoin="round" stroke-width="12.6" d="m171.032 418.75.236-106.17.185-83.055-13.376-3.825.123-42.3 91.8-29.974m78.83 265.324-.313-111.596-.22-78.529 13.38-4.275.123-40.95-91.8-29.876"/></g><path fill="none" stroke="#07A889" stroke-linecap="round" stroke-width="14" d="M1.479-105.144C-236-138.013-48.646-304.002 3.944-102.679" style="display:block" transform="matrix(.9 0 0 .9 249.1 246.4)"/><path fill="none" stroke="#07A889" stroke-linecap="round" stroke-width="14" d="M4.416-105.144c234.526-32.869 49.502-198.858-2.434 2.465" style="display:block" transform="matrix(.9 0 0 .9 248.75 246.4)"/><g class="com" style="display:none"><path/><path/><path/><path/><path/><path/><path/><path/><path/><path/><path/><path/></g></g></svg>