<svg xmlns="http://www.w3.org/2000/svg" width="500" height="500" style="width:100%;height:100%;transform:translate3d(0,0,0);content-visibility:visible" viewBox="0 0 500 500"><defs><clipPath id="b"><path d="M0 0h500v500H0z"/></clipPath><path id="a" fill="red" d="m187 85.938-19.414 91.054c-10.715 50.253 25.921 91.055 81.758 91.055 55.837 0 92.227-40.802 81.21-91.055l-19.96-91.054" style="display:block"/><mask id="c" mask-type="alpha"><use xmlns:ns1="http://www.w3.org/1999/xlink" ns1:href="#a"/></mask></defs><g clip-path="url(#b)"><g mask="url(#c)" style="display:block"><path fill="none" stroke="#07A889" stroke-width="12.25" d="M374.578 195.313H127.39c0 35 .547 136.718.547 136.718h245s1.641-100.078 1.641-136.719z"/></g><path fill="none" stroke="#121330" stroke-linecap="round" stroke-linejoin="round" stroke-width="2.8" d="M-8.75 37.219H9.5M-13.5-38H14M0 4v33.219M-14-37.5l-4.438 20.813C-20.886-5.201-12.512 4.125.25 4.125c0 0 0 0 0 0 12.763 0 21.08-9.326 18.563-20.813L14.25-37.5" style="display:block" transform="translate(248.25 250) scale(4.375)"/><g class="com" style="display:none"><path/><path/><path/><path/><path/><path/><path/><path/><path/><path/><path/><path/></g></g></svg>