<svg xmlns="http://www.w3.org/2000/svg" width="500" height="500" style="width:100%;height:100%;transform:translate3d(0,0,0);content-visibility:visible" viewBox="0 0 500 500"><defs><clipPath id="e"><path d="M0 0h500v500H0z"/></clipPath><clipPath id="f"><path d="M0 0h500v500H0z"/></clipPath><filter id="a" width="100%" height="100%" x="0%" y="0%" filterUnits="objectBoundingBox"><feComponentTransfer in="SourceGraphic"><feFuncA tableValues="1.0 0.0" type="table"/></feComponentTransfer></filter><filter id="c" width="100%" height="100%" x="0%" y="0%" filterUnits="objectBoundingBox"><feComponentTransfer in="SourceGraphic"><feFuncA tableValues="1.0 0.0" type="table"/></feComponentTransfer></filter><path id="b" fill="red" d="M217.06-.119-175.06 0l.06 113.881 394-.119L217.06-.119z" style="display:block" transform="translate(250 410.119)"/><path id="d" fill="red" d="M51.137 12.784s-29.25 29.966-29.25 92.996L1.55 151.16l-23.025-45.499.025-1S-24.975 34.16-50.975 13.66c-.5-19-.5-26.5-.5-26.5M51.137 12.784H-51.137v-25.568H51.137v25.568z" style="display:block" transform="translate(249.975 304.34)"/><mask id="h" mask-type="alpha"><g filter="url(#a)"><path fill="#fff" d="M0 0h500v500H0z" opacity="0"/><use xmlns:ns1="http://www.w3.org/1999/xlink" ns1:href="#b"/></g></mask><mask id="g" mask-type="alpha"><g filter="url(#c)"><path fill="#fff" d="M0 0h500v500H0z" opacity="0"/><use xmlns:ns2="http://www.w3.org/1999/xlink" ns2:href="#d"/></g></mask></defs><g clip-path="url(#e)"><g fill="none" stroke="#121330" stroke-linecap="round" stroke-linejoin="round" stroke-width="12.04" clip-path="url(#f)" mask="url(#g)" style="display:block"><path d="M-120.75-51.134c0 59.662 48.365 108.027 108.027 108.027S95.304 8.528 95.304-51.134 46.939-159.161-12.723-159.161-120.75-110.796-120.75-51.134zM58.596-11.479c-5.297-5.297-13.885-5.297-19.182 0-5.297 5.297-5.297 13.885 0 19.182M59.513-55.89c-5.297-5.297-13.886-5.297-19.183 0-5.297 5.297-5.297 13.885 0 19.182M11.578-7.605c-5.297-5.297-13.886-5.297-19.183 0-5.297 5.297-5.297 13.886 0 19.183" style="display:block" transform="translate(262.129 249.042)"/><path d="M-120.75-51.134c0 59.662 48.365 108.027 108.027 108.027S95.304 8.528 95.304-51.134 46.939-159.161-12.723-159.161-120.75-110.796-120.75-51.134zM58.596-11.479c-5.297-5.297-13.885-5.297-19.182 0-5.297 5.297-5.297 13.885 0 19.182M59.513-55.89c-5.297-5.297-13.886-5.297-19.183 0-5.297 5.297-5.297 13.885 0 19.182M11.578-7.605c-5.297-5.297-13.886-5.297-19.183 0-5.297 5.297-5.297 13.886 0 19.183" style="display:block" transform="translate(262.129 -71.958)"/></g><g mask="url(#h)" style="display:block"><path fill="none" stroke="#07A889" stroke-linecap="round" stroke-linejoin="round" stroke-width="12.04" d="M228.088 410.12c0-63.922-29.25-92.996-29.25-92.996m102.274 0s-29.25 29.966-29.25 92.996l-20.337 45.38L228.5 410m72.612-92.876H198.838v-25.568h102.274v25.568z"/></g><path fill="none" stroke="#121330" stroke-linecap="round" stroke-linejoin="round" stroke-width="12.04" d="M-80.06 0H80.06" style="display:block" transform="translate(250 410.119)"/><g class="com" style="display:none"><path/><path/><path/><path/><path/><path/><path/><path/><path/><path/><path/><path/></g></g></svg>