<svg xmlns="http://www.w3.org/2000/svg" width="500" height="500" style="width:100%;height:100%;transform:translate3d(0,0,0);content-visibility:visible" viewBox="0 0 500 500"><defs><filter id="a" width="100%" height="100%" x="0%" y="0%" filterUnits="objectBoundingBox"><feComponentTransfer in="SourceGraphic"><feFuncA tableValues="1.0 0.0" type="table"/></feComponentTransfer></filter><filter id="c" width="100%" height="100%" x="0%" y="0%" filterUnits="objectBoundingBox"><feComponentTransfer in="SourceGraphic"><feFuncA tableValues="1.0 0.0" type="table"/></feComponentTransfer></filter><filter id="e" width="100%" height="100%" x="0%" y="0%" filterUnits="objectBoundingBox"><feComponentTransfer in="SourceGraphic"><feFuncA tableValues="1.0 0.0" type="table"/></feComponentTransfer></filter><path id="b" fill="#FFF" d="M76.452 1.529a29.81 29.81 0 0 0-16.301-3.39c3.258-13.055-2.633-27.132-15.058-33.71-10.128-5.362-21.935-4.33-30.811 1.666C11.797-40.503 6.994-46.258.273-49.816c-12.965-6.864-28.682-3.251-37.476 7.847a29.812 29.812 0 0 0-11.516-10.808c-14.624-7.742-32.754-2.164-40.496 12.46C-96.752-26.081-91.66-8.524-77.893-.461c-8.716 1.594-16.644 7.012-21.111 15.45-7.742 14.624-2.163 32.754 12.461 40.496a30.153 30.153 0 0 0 3.221 1.463 29.815 29.815 0 0 0-9.258 10.496c-4.257 8.041-4.479 17.141-1.391 24.993-11.414-.742-22.741 5.112-28.439 15.876-7.742 14.624-2.163 32.754 12.461 40.496 11.982 6.343 26.315 3.739 35.362-5.452a29.813 29.813 0 0 0 12.747 13.028c14.624 7.742 32.754 2.163 40.496-12.461a29.806 29.806 0 0 0 3.418-15.958c12.763 2.713 26.286-3.185 32.694-15.289a29.817 29.817 0 0 0 3.469-14.814c13.251 3.657 27.724-2.217 34.422-14.869 4.516-8.53 4.492-18.25.792-26.409 13.527 4.269 28.588-1.576 35.462-14.56 7.742-14.624 2.163-32.754-12.461-40.496z" style="display:block" transform="translate(250 250)"/><path id="d" fill="#FFF" d="M76.452 1.529a29.81 29.81 0 0 0-16.301-3.39c3.258-13.055-2.633-27.132-15.058-33.71-10.128-5.362-21.935-4.33-30.811 1.666C11.797-40.503 6.994-46.258.273-49.816c-12.965-6.864-28.682-3.251-37.476 7.847a29.812 29.812 0 0 0-11.516-10.808c-14.624-7.742-32.754-2.164-40.496 12.46C-96.752-26.081-91.66-8.524-77.893-.461c-8.716 1.594-16.644 7.012-21.111 15.45-7.742 14.624-2.163 32.754 12.461 40.496a30.153 30.153 0 0 0 3.221 1.463 29.815 29.815 0 0 0-9.258 10.496c-4.257 8.041-4.479 17.141-1.391 24.993-11.414-.742-22.741 5.112-28.439 15.876-7.742 14.624-2.163 32.754 12.461 40.496 11.982 6.343 26.315 3.739 35.362-5.452a29.813 29.813 0 0 0 12.747 13.028c14.624 7.742 32.754 2.163 40.496-12.461a29.806 29.806 0 0 0 3.418-15.958c12.763 2.713 26.286-3.185 32.694-15.289a29.817 29.817 0 0 0 3.469-14.814c13.251 3.657 27.724-2.217 34.422-14.869 4.516-8.53 4.492-18.25.792-26.409 13.527 4.269 28.588-1.576 35.462-14.56 7.742-14.624 2.163-32.754-12.461-40.496z" style="display:block" transform="translate(250 250)"/><path id="f" fill="#FFF" d="M76.452 1.529a29.81 29.81 0 0 0-16.301-3.39c3.258-13.055-2.633-27.132-15.058-33.71-10.128-5.362-21.935-4.33-30.811 1.666C11.797-40.503 6.994-46.258.273-49.816c-12.965-6.864-28.682-3.251-37.476 7.847a29.812 29.812 0 0 0-11.516-10.808c-14.624-7.742-32.754-2.164-40.496 12.46C-96.752-26.081-91.66-8.524-77.893-.461c-8.716 1.594-16.644 7.012-21.111 15.45-7.742 14.624-2.163 32.754 12.461 40.496a30.153 30.153 0 0 0 3.221 1.463 29.815 29.815 0 0 0-9.258 10.496c-4.257 8.041-4.479 17.141-1.391 24.993-11.414-.742-22.741 5.112-28.439 15.876-7.742 14.624-2.163 32.754 12.461 40.496 11.982 6.343 26.315 3.739 35.362-5.452a29.813 29.813 0 0 0 12.747 13.028c14.624 7.742 32.754 2.163 40.496-12.461a29.806 29.806 0 0 0 3.418-15.958c12.763 2.713 26.286-3.185 32.694-15.289a29.817 29.817 0 0 0 3.469-14.814c13.251 3.657 27.724-2.217 34.422-14.869 4.516-8.53 4.492-18.25.792-26.409 13.527 4.269 28.588-1.576 35.462-14.56 7.742-14.624 2.163-32.754-12.461-40.496z" style="display:block" transform="translate(250 250)"/><mask id="j" mask-type="alpha"><g filter="url(#a)"><path fill="#fff" d="M0 0h500v500H0z" opacity="0"/><use xmlns:ns1="http://www.w3.org/1999/xlink" ns1:href="#b"/></g></mask><mask id="i" mask-type="alpha"><g filter="url(#c)"><path fill="#fff" d="M0 0h500v500H0z" opacity="0"/><use xmlns:ns2="http://www.w3.org/1999/xlink" ns2:href="#d"/></g></mask><mask id="h" mask-type="alpha"><g filter="url(#e)"><path fill="#fff" d="M0 0h500v500H0z" opacity="0"/><use xmlns:ns3="http://www.w3.org/1999/xlink" ns3:href="#f"/></g></mask><clipPath id="g"><path d="M0 0h500v500H0z"/></clipPath></defs><g clip-path="url(#g)"><g mask="url(#h)" style="display:block"><path fill="none" stroke="#07A889" stroke-linecap="round" stroke-linejoin="round" stroke-width="12.6" d="M326.051 274.909a323.374 323.374 0 0 1 49.825-36.852 323.645 323.645 0 0 1 23.6-12.863l-64.561.083c10.606-18.262 21.211-36.523 31.815-54.785-23.2 1.654-43.079 12.051-59.436 26.727-7.662 6.875-14.446 14.76-21.249 22.604-4.605 5.31-13.129 11.571-11.193 21.191 3.907 19.41 48.411 33.063 51.199 33.895z"/></g><g mask="url(#i)" style="display:block"><path fill="none" stroke="#07A889" stroke-linecap="round" stroke-linejoin="round" stroke-width="12.6" d="M173.674 209.662a323.413 323.413 0 0 0-3.556-61.872 324.042 324.042 0 0 0-5.214-26.366l41.243 49.67 21.749-59.502c13.572 18.888 18.301 40.817 17.487 62.778-.381 10.287-2.101 20.547-3.777 30.793-1.135 6.937-.493 17.494-9.125 22.161-17.417 9.416-56.384-16.052-58.807-17.662z"/></g><g mask="url(#j)" style="display:block"><path fill="none" stroke="#07A889" stroke-linecap="round" stroke-linejoin="round" stroke-width="12.6" d="M315.256 74.934c-3.422 6.178-15.996 30.514-6.223 53.798 3.573 8.513 8.654 17.886 18.611 19.65 7.521 1.332 16.899-1.605 20.995-8.337 6.566-10.79-1.871-24.204-12.954-27.542-23.769-7.159-43.017 33.739-51.391 50.21-8.4 16.522-19.629 45.195-19.602 85.817"/></g><g fill="none" stroke="#121330" stroke-linecap="round" stroke-linejoin="round" stroke-width="12.6" style="display:block"><path d="M157.13 342.42c-11.41-.73-22.73 5.13-28.43 15.89-7.74 14.63-2.16 32.76 12.46 40.5 11.98 6.34 26.32 3.74 35.36-5.45m32.98-42.76c-.41-.1-.83-.17-1.24-.24"/><path d="M233.18 377.97c.36 5.35-.72 10.86-3.42 15.95-7.74 14.63-25.87 20.21-40.49 12.46a29.714 29.714 0 0 1-12.75-13.02c-4.2-8.36-4.42-18.57.29-27.47.93-1.76 2.01-3.38 3.22-4.87h.01m-6.83-111.48c-13.77-8.06-18.86-25.62-11.32-39.86 7.75-14.62 25.88-20.2 40.5-12.46 4.91 2.6 8.81 6.38 11.52 10.81m72.04 82.27c1.82.55 3.62 1.28 5.36 2.2 14.62 7.74 20.2 25.87 12.46 40.49-6.69 12.65-21.17 18.54-34.42 14.88"/><path d="M311.26 248.13c5.46-.42 11.1.65 16.3 3.4 14.62 7.74 20.2 25.87 12.46 40.5-6.87 12.97-21.92 18.83-35.44 14.57m-18.31-16.19c-.08-.16-.15-.32-.22-.48.01-.01 0-.01 0-.01m-76.62 58.9c-.37.53-.76 1.04-1.17 1.54-6.18 7.62-15.66 11.62-25.2 11.01-1.01-.07-2.01-.18-3.02-.35h-.01c-3.08-.52-6.12-1.54-9.04-3.08a29.826 29.826 0 0 1-13.86-15.52c-3.08-7.85-2.85-16.94 1.4-24.98 2.29-4.32 5.49-7.86 9.24-10.49"/><path d="M206.98 288.58c-.52 1.5-1.15 2.99-1.92 4.44-7.74 14.63-25.87 20.21-40.5 12.47-14.62-7.75-20.2-25.88-12.46-40.5 7.52-14.19 24.81-19.86 39.19-13.11m20.05 86.27c-1.31 3.48-1.93 7.1-1.91 10.67 0 .59.03 1.19.07 1.78.65 9.87 6.18 19.21 15.46 24.3.14.09.28.16.42.24 2.52 1.33 5.14 2.27 7.8 2.83 12.76 2.72 26.29-3.19 32.7-15.29 2.5-4.73 3.61-9.82 3.47-14.81 0 0 .01 0 0-.01-.28-10.45-6.04-20.44-15.93-25.68-1.33-.7-2.69-1.29-4.06-1.78"/><path d="M191.59 305.99c-1.58 12.05 4.32 24.36 15.7 30.38 1.33.7 2.68 1.3 4.05 1.78 13.77 4.88 29.4-.94 36.44-14.24a28.84 28.84 0 0 0 1.58-3.51c1.11-2.93 1.72-5.96 1.87-8.97m14.16-95.33c8.88-6 20.68-7.03 30.81-1.67 14.63 7.74 20.2 25.87 12.46 40.49-4.92 9.3-14.03 14.94-23.77 15.83"/><path d="M208.26 233.75a29.81 29.81 0 0 1 2.63-21.1c7.74-14.63 25.87-20.21 40.49-12.47 14.62 7.75 20.2 25.88 12.46 40.5-2.68 5.06-6.6 9.03-11.19 11.75"/><path d="M248.54 253.35c-2.15-7.62-7.29-14.38-14.84-18.38-14.62-7.74-32.75-2.16-40.49 12.46-7.74 14.63-2.16 32.76 12.46 40.5 7.24 3.83 15.35 4.4 22.63 2.22"/><path d="M230.667 268.033c-7.742 14.624-2.163 32.754 12.461 40.496 14.624 7.742 32.754 2.163 40.496-12.461 7.742-14.624 2.163-32.754-12.461-40.496-14.624-7.742-32.754-2.163-40.496 12.461z"/></g><g class="com" style="display:none"><path/><path/><path/><path/><path/><path/><path/><path/><path/><path/><path/><path/></g></g></svg>