<svg xmlns="http://www.w3.org/2000/svg" width="500" height="500" style="width:100%;height:100%;transform:translate3d(0,0,0);content-visibility:visible" viewBox="0 0 500 500"><defs><clipPath id="a"><path d="M0 0h500v500H0z"/></clipPath></defs><g clip-path="url(#a)"><path fill="none" stroke="#07A889" stroke-linecap="round" stroke-linejoin="round" stroke-width="12.04" d="M-13.483 42.819c14.164 14.164 37.13 14.164 51.294 0 14.164-14.164 14.164-37.13 0-51.294-14.164-14.164-37.13-14.164-51.294 0-14.164 14.164-14.164 37.13 0 51.294zm12.741 8.26C1.365 37.8 33.283 14.069 48.359 14.776m-72.471 2.299c14.404.346 43.423-20.726 48.224-34.154" style="display:block" transform="translate(328.423 326.629)"/><path fill="none" style="display:none"/><g fill="none" stroke-linecap="round" stroke-linejoin="round" stroke-width="12.04" style="display:block"><path stroke="#07A889" d="m182.699 66.348-11.053 41.305-12.113 45.27-12.116 45.282-12.114 45.27-2.756 9.769M233.961 66.226l-14.508 54.22-12.113 45.269-12.117 45.282-12.112 45.27-8.098 30.198m-12.06 123.304-39.037-10.445M278.313 91.932l-11.053 41.305-12.113 45.27-12.116 45.282-12.114 45.27-2.88 10.769m61.687-92.069-34.577-9.251-47.807-12.793-47.807-12.791-34.576-9.253m170.19-2.972-27.887-7.462-47.807-12.791-47.807-12.793-27.886-7.46m130.023 131.824-30.752-8.228-47.808-12.792-47.806-12.792-30.752-8.229m122.696 81.367-8.444-2.284-47.806-12.792-47.808-12.792-8.193-2.253"/><path stroke="#121330" d="m155.99 435.794-39.037-10.445 24.372-91.087 39.037 10.445-24.372 91.087zm-34.213-281.06c-16.345 61.082 7.382 120.494 52.994 132.7 45.612 12.205 95.838-27.42 112.183-88.504C303.3 137.847 300.08 83.922 233.96 66.23c-66.12-17.693-95.838 27.42-112.183 88.503zm19.548 179.528c5.59-45.893-15.678-93.371-15.678-93.371m54.715 103.816c18.076-42.552 60.213-73.064 60.213-73.064"/></g><g class="com" style="display:none"><path/><path/><path/><path/><path/><path/><path/><path/><path/><path/><path/><path/></g></g></svg>