<svg xmlns="http://www.w3.org/2000/svg" width="500" height="500" style="width:100%;height:100%;transform:translate3d(0,0,0);content-visibility:visible" viewBox="0 0 500 500"><defs><clipPath id="b"><path d="M0 0h500v500H0z"/></clipPath><clipPath id="c"><path d="M0 0h500v500H0z"/></clipPath><path id="a" fill="red" d="M250 161.6c19.2-34.81 58.04-55.78 96.64-39.33 0 0 52.18 17.66 48.26 79.43-3.91 61.78-82.8 148.33-144.9 181.73m0-221.83c-19.2-34.81-58.04-55.78-96.64-39.33 0 0-52.18 17.66-48.26 79.43 3.91 61.78 82.8 148.33 144.9 181.73" style="display:block"/><mask id="d" mask-type="alpha"><use xmlns:ns1="http://www.w3.org/1999/xlink" ns1:href="#a"/></mask></defs><g clip-path="url(#b)"><g fill="none" clip-path="url(#c)" mask="url(#d)" style="display:block"><path stroke="#07A889" stroke-linecap="round" stroke-linejoin="round" stroke-width="12" d="m-146.3.186 60.09-.191 14.42 28.83 28.82-57.65 14.42 28.82h57.41l14.42 28.83 28.82-57.65L86.52-.005l58.78-.061" style="display:block" transform="translate(250 243.318)"/><path style="display:none"/></g><path fill="none" stroke="#121330" stroke-linecap="round" stroke-linejoin="round" stroke-width="12" d="M72.558-88.4c19.201-34.813 58.038-55.777 96.644-39.328 0 0 52.18 17.653 48.261 79.428-3.919 61.775-82.802 148.332-144.905 181.733m0-221.833c-19.201-34.813-58.038-55.777-96.644-39.328 0 0-52.18 17.653-48.261 79.428 3.919 61.775 82.802 148.332 144.905 181.733" style="display:block" transform="translate(177.442 250)"/><path style="display:none"/></g></svg>