<svg xmlns="http://www.w3.org/2000/svg" width="500" height="500" style="width:100%;height:100%;transform:translate3d(0,0,0);content-visibility:visible" viewBox="0 0 500 500"><defs><clipPath id="c"><path d="M0 0h500v500H0z"/></clipPath><filter id="a" width="100%" height="100%" x="0%" y="0%" filterUnits="objectBoundingBox"><feComponentTransfer in="SourceGraphic"><feFuncA tableValues="1.0 0.0" type="table"/></feComponentTransfer></filter><path id="b" fill="red" d="m324.08 230.41-10.76 66.78a84.434 84.434 0 0 1-29.52 46.41L250 370.09l-33.8-26.49a84.434 84.434 0 0 1-29.52-46.41l-10.76-66.78s62.67-13.23 74.08-25.96c11.41 12.73 74.08 25.96 74.08 25.96z" style="display:block"/><mask id="d" mask-type="alpha"><g filter="url(#a)"><path fill="#fff" d="M0 0h500v500H0z" opacity="0"/><use xmlns:ns1="http://www.w3.org/1999/xlink" ns1:href="#b"/></g></mask></defs><g clip-path="url(#c)"><g mask="url(#d)" style="display:block"><path fill="none" stroke="#121330" stroke-linecap="round" stroke-linejoin="round" stroke-width="11.97" d="M306.537 142.722v-37.724h46.811v81.758m29.314 27.586v195.777H117.286v-195.73m292.176 25.169L250.031 89.564 90.538 239.558"/></g><g fill="none" stroke-linecap="round" stroke-linejoin="round" stroke-width="11.97" style="display:block"><path stroke="#121330" d="m221.996 294.173 15.452 15.178 46.985-46.689"/><path stroke="#07A889" d="m324.08 230.406-10.759 66.785a84.398 84.398 0 0 1-29.525 46.409L250 370.09l-33.796-26.49a84.398 84.398 0 0 1-29.525-46.409l-10.759-66.785s62.667-13.228 74.08-25.954c11.414 12.726 74.08 25.954 74.08 25.954z"/></g><g class="com" style="display:none"><path/><path/><path/><path/><path/><path/><path/><path/><path/><path/><path/><path/></g></g></svg>