<svg xmlns="http://www.w3.org/2000/svg" width="500" height="500" style="width:100%;height:100%;transform:translate3d(0,0,0);content-visibility:visible" viewBox="0 0 500 500"><defs><clipPath id="a"><path d="M0 0h500v500H0z"/></clipPath></defs><g clip-path="url(#a)"><g fill="none" stroke-linecap="round" stroke-linejoin="round" stroke-width="12.04" style="display:block"><path stroke="#121330" d="M272 155.423h107.78c16.76 0 30.34 13.58 30.34 30.34v149.28c0 16.76-13.58 30.34-30.34 30.34H120.22c-16.76 0-30.34-13.58-30.34-30.34v-149.28c0-16.76 13.58-30.34 30.34-30.34H228"/><path stroke="#07A889" d="M270 191.03h-40v-80.06h40v80.06z"/><path stroke="#121330" d="M155.278 279.346h24.913c13.759 0 24.914 11.155 24.914 24.914v8.334a4.504 4.504 0 0 1-3.985 4.473l-8.718 1.008a25.587 25.587 0 0 0-6.926 1.81s0 0 0 0a46.233 46.233 0 0 1-35.577.036l-.06-.025a26.807 26.807 0 0 0-7.225-1.878l-8.263-.953a4.501 4.501 0 0 1-3.986-4.472v-8.333c0-13.759 11.154-24.914 24.913-24.914zm11.874-75.277h1.165c10.126 0 18.234 8.395 17.882 18.514l-.583 16.744c-.335 9.634-8.241 17.27-17.881 17.27 0 0 0 0 0 0-9.64 0-17.547-7.636-17.882-17.27l-.582-16.744c-.352-10.119 7.755-18.514 17.881-18.514zM252 315.462h111.747M252 277.354h111.747"/><path stroke="#07A889" d="M252 239.245h63.333m31.44 0h16.974"/></g><g class="com" style="display:none"><path/><path/><path/><path/><path/><path/><path/><path/><path/><path/><path/><path/></g></g></svg>