<svg xmlns="http://www.w3.org/2000/svg" width="500" height="500" style="width:100%;height:100%;transform:translate3d(0,0,0);content-visibility:visible" viewBox="0 0 500 500"><defs><filter id="a" width="100%" height="100%" x="0%" y="0%" filterUnits="objectBoundingBox"><feComponentTransfer in="SourceGraphic"><feFuncA tableValues="1.0 0.0" type="table"/></feComponentTransfer></filter><filter id="c" width="100%" height="100%" x="0%" y="0%" filterUnits="objectBoundingBox"><feComponentTransfer in="SourceGraphic"><feFuncA tableValues="1.0 0.0" type="table"/></feComponentTransfer></filter><filter id="e" width="100%" height="100%" x="0%" y="0%" filterUnits="objectBoundingBox"><feComponentTransfer in="SourceGraphic"><feFuncA tableValues="1.0 0.0" type="table"/></feComponentTransfer></filter><filter id="g" width="100%" height="100%" x="0%" y="0%" filterUnits="objectBoundingBox"><feComponentTransfer in="SourceGraphic"><feFuncA tableValues="1.0 0.0" type="table"/></feComponentTransfer></filter><mask id="m" mask-type="alpha"><g filter="url(#a)"><path fill="#fff" d="M0 0h500v500H0z" opacity="0"/><use xmlns:ns1="http://www.w3.org/1999/xlink" ns1:href="#b"/></g></mask><mask id="l" mask-type="alpha"><g filter="url(#c)"><path fill="#fff" d="M0 0h500v500H0z" opacity="0"/><use xmlns:ns2="http://www.w3.org/1999/xlink" ns2:href="#d"/></g></mask><mask id="k" mask-type="alpha"><g filter="url(#e)"><path fill="#fff" d="M0 0h500v500H0z" opacity="0"/><use xmlns:ns3="http://www.w3.org/1999/xlink" ns3:href="#f"/></g></mask><mask id="j" mask-type="alpha"><g filter="url(#g)"><path fill="#fff" d="M0 0h500v500H0z" opacity="0"/><use xmlns:ns4="http://www.w3.org/1999/xlink" ns4:href="#h"/></g></mask><path id="b" style="display:none"/><path id="h" style="display:none"/><g id="d" style="display:block"><path fill-opacity="0" stroke="#121331" stroke-linecap="round" stroke-linejoin="round" stroke-width="0" d="M381.893 383.433H118.127V119.667h263.766v263.766z"/><path fill="red" d="M381.893 383.433H118.127V119.667h263.766v263.766z"/></g><g id="f" style="display:block"><path fill-opacity="0" stroke="#121331" stroke-linecap="round" stroke-linejoin="round" stroke-width="0" d="M381.893 383.433H118.127V119.667h263.766v263.766z"/><path fill="red" d="M381.893 383.433H118.127V119.667h263.766v263.766z"/></g><clipPath id="i"><path d="M0 0h500v500H0z"/></clipPath></defs><g clip-path="url(#i)"><g fill="none" mask="url(#j)" style="display:none"><path/><path/></g><g fill="none" mask="url(#k)" style="display:block"><path stroke="#121330" stroke-width="2" d="M37 250"/><path stroke="#07A889" stroke-linecap="round" stroke-linejoin="round" stroke-width="12.04" d="M223.454 152.351C181 152.351 120 152.1 63.895 152.1v198.398c57.105 0 95.105.251 159.559.251V152.351z"/></g><g fill="none" mask="url(#l)" style="display:block"><path stroke="#121330" stroke-width="2" d="M250.5 250.126"/><path stroke="#07A889" stroke-linecap="round" stroke-linejoin="round" stroke-width="12.04" d="m436.954 152.477-159.559-.251v198.398l159.559.251V152.477z"/></g><g fill="none" mask="url(#m)" style="display:none"><path/><path/></g><g fill="none" stroke-linecap="round" stroke-linejoin="round" stroke-width="12.04" style="display:block"><path stroke="#121330" d="M304.06 336.89S240 228 224.89 199.76C193 252 118.85 383.43 118.85 383.43m158.339.003S317 315 329.515 292.801C345 321 381.842 383.433 381.842 383.433"/><path stroke="#121330" d="M381.893 383.433H118.127V119.667h263.766v263.766z"/><path stroke="#07A889" d="M284.021 187.741c0 16.456 13.341 29.797 29.797 29.797 16.456 0 29.797-13.341 29.797-29.797 0-16.456-13.341-29.797-29.797-29.797-16.456 0-29.797 13.341-29.797 29.797z"/></g><g fill="none" style="display:none"><path/><path/><path/><path/></g><g class="com" style="display:none"><path/><path/><path/><path/><path/><path/><path/><path/><path/><path/><path/><path/></g></g></svg>