<svg xmlns="http://www.w3.org/2000/svg" width="500" height="500" style="width:100%;height:100%;transform:translate3d(0,0,0);content-visibility:visible" viewBox="0 0 500 500"><defs><clipPath id="a"><path d="M0 0h500v500H0z"/></clipPath></defs><g clip-path="url(#a)"><path fill="none" stroke="#07A889" stroke-linecap="round" stroke-linejoin="round" stroke-width="24.01" d="M7.984 42.477C7.409 61.602-8 61.972-8 81.823v-.005c0 20.228 16 20.228 16 40.456S-8 142.502-8 162.73" style="display:block" transform="matrix(-.5 0 0 -.5 289.54 170.76)"/><path fill="none" stroke="#07A889" stroke-linecap="round" stroke-linejoin="round" stroke-width="24.01" d="M7.984 42.477C7.409 61.602-8 61.972-8 81.823v-.005c0 20.228 16 20.228 16 40.456S-8 142.502-8 162.73" style="display:block" transform="matrix(-.5 0 0 -.5 250.356 170.76)"/><path fill="none" stroke="#07A889" stroke-linecap="round" stroke-linejoin="round" stroke-width="24.01" d="M7.984 42.477C7.409 61.602-8 61.972-8 81.823v-.005c0 20.228 16 20.228 16 40.456S-8 142.502-8 162.73" style="display:block" transform="matrix(-.5 0 0 -.5 210.708 170.76)"/><g fill="none" stroke-linecap="round" stroke-linejoin="round" stroke-width="12.04" style="display:block"><path stroke="#121330" d="m170.969 255.459 14.23 147.224M250 264.017v145.352m78.693-153.91-14.23 147.224"/><path stroke="#07A889" d="M137.67 243.5c17.303-17.335 61.068-29.634 112.33-29.634s95.027 12.299 112.33 29.634m3.44 107.28h-.01c-11.39 7.84-28.04 14.41-48.12 18.99-19.79 4.52-42.93 7.12-67.64 7.12-24.86 0-48.12-2.63-67.99-7.2-19.92-4.58-36.45-11.12-47.77-18.91h-.01"/><path stroke="#121330" d="M383.005 219.837v.01c0 1.158-.14 2.315-.398 3.452-5.301 22.776-62.645 40.718-132.607 40.718-69.962 0-127.306-17.942-132.607-40.718a15.606 15.606 0 0 1-.398-3.452v-.01c.012-24.4 59.56-44.171 133.005-44.171s132.993 19.771 133.005 44.171zm-.398 3.462-19.631 148.56c0 20.725-50.578 37.53-112.976 37.53-62.398 0-112.976-16.805-112.976-37.53l-19.631-148.56"/></g><path fill="none" stroke="#07A889" stroke-linecap="round" stroke-linejoin="round" stroke-width="12.04" d="M11.463 5.732C11.463-.599 6.331-5.732 0-5.732c-6.331 0-11.463 5.133-11.463 11.464" style="display:block" transform="translate(275.141 237.296)"/><path fill="none" style="display:none"/><path fill="none" style="display:none"/><path fill="none" style="display:none"/><path fill="none" style="display:none"/><path fill="none" stroke="#07A889" stroke-linecap="round" stroke-linejoin="round" stroke-width="12.04" d="M11.463 5.732C11.463-.599 6.331-5.732 0-5.732c-6.331 0-11.463 5.133-11.463 11.464" style="display:block" transform="translate(222.641 240.296)"/><path fill="none" style="display:none"/><path fill="none" style="display:none"/><path fill="none" style="display:none"/><path fill="none" style="display:none"/><g class="com" style="display:none"><path/><path/><path/><path/><path/><path/><path/><path/><path/><path/><path/><path/></g></g></svg>