<svg xmlns="http://www.w3.org/2000/svg" width="500" height="500" style="width:100%;height:100%;transform:translate3d(0,0,0);content-visibility:visible" viewBox="0 0 500 500"><defs><clipPath id="a"><path d="M0 0h500v500H0z"/></clipPath><clipPath id="e"><path d="M0 0h500v500H0z"/></clipPath><clipPath id="d"><path d="M0 0h500v500H0z"/></clipPath><clipPath id="c"><path d="M0 0h500v500H0z"/></clipPath><clipPath id="b"><path d="M0 0h500v500H0z"/></clipPath></defs><g clip-path="url(#a)"><g fill="none" stroke-linecap="round" stroke-linejoin="round" clip-path="url(#b)" opacity="0" style="display:block"><path stroke="#07A889" stroke-width="2.94" d="M-14.433 16.828h-12.936l-11.055 21.22h76.682l-11.056-21.22H15.317s0 0 0 0h-1.092" opacity="1" style="display:block" transform="matrix(4.24 0 0 4.24 250 248.187)"/><g stroke-width="12.466" opacity="1" style="display:block"><path stroke="#07A889" d="M294.634 181.242c0 24.626-19.966 44.592-44.592 44.592-24.626 0-44.592-19.966-44.592-44.592 0-24.626 19.966-44.592 44.592-44.592 24.626 0 44.592 19.966 44.592 44.592z" opacity="1"/><path stroke="#121330" d="M168.028 228.37c-3.133-5.462-5.915-11.14-7.912-17.113-3.15-9.434-4.85-19.526-4.85-30.02 0-54.407 45.86-98.109 101.064-94.556 46.801 3.015 84.855 40.785 88.226 87.565.878 12.21-.568 23.973-3.926 34.89-2.086 6.793-5.126 13.25-8.662 19.411L250.05 371.232l-82.023-142.863z" opacity="1"/></g></g><g fill="none" stroke-linecap="round" stroke-linejoin="round" clip-path="url(#c)" opacity="0" style="display:block"><path stroke="#07A889" stroke-width="2.94" d="M-14.433 16.828h-12.936l-11.055 21.22h76.682l-11.056-21.22H15.317s0 0 0 0h-1.092" opacity="1" style="display:block" transform="matrix(4.24 0 0 4.24 250 248.187)"/><g stroke-width="12.466" opacity="1" style="display:block"><path stroke="#07A889" d="M294.634 181.242c0 24.626-19.966 44.592-44.592 44.592-24.626 0-44.592-19.966-44.592-44.592 0-24.626 19.966-44.592 44.592-44.592 24.626 0 44.592 19.966 44.592 44.592z" opacity="1"/><path stroke="#121330" d="M168.028 228.37c-3.133-5.462-5.915-11.14-7.912-17.113-3.15-9.434-4.85-19.526-4.85-30.02 0-54.407 45.86-98.109 101.064-94.556 46.801 3.015 84.855 40.785 88.226 87.565.878 12.21-.568 23.973-3.926 34.89-2.086 6.793-5.126 13.25-8.662 19.411L250.05 371.232l-82.023-142.863z" opacity="1"/></g></g><g fill="none" stroke-linecap="round" stroke-linejoin="round" clip-path="url(#d)" opacity="0" style="display:block"><path stroke="#07A889" stroke-width="2.94" d="M-14.433 16.828h-12.936l-11.055 21.22h76.682l-11.056-21.22H15.317s0 0 0 0h-1.092" opacity="1" style="display:block" transform="matrix(4.24 0 0 4.24 250 248.187)"/><g stroke-width="12.466" opacity="1" style="display:block"><path stroke="#07A889" d="M294.634 181.242c0 24.626-19.966 44.592-44.592 44.592-24.626 0-44.592-19.966-44.592-44.592 0-24.626 19.966-44.592 44.592-44.592 24.626 0 44.592 19.966 44.592 44.592z" opacity="1"/><path stroke="#121330" d="M168.028 228.37c-3.133-5.462-5.915-11.14-7.912-17.113-3.15-9.434-4.85-19.526-4.85-30.02 0-54.407 45.86-98.109 101.064-94.556 46.801 3.015 84.855 40.785 88.226 87.565.878 12.21-.568 23.973-3.926 34.89-2.086 6.793-5.126 13.25-8.662 19.411L250.05 371.232l-82.023-142.863z" opacity="1"/></g></g><g fill="none" stroke-linecap="round" stroke-linejoin="round" stroke-width="2.94" clip-path="url(#e)" style="display:block"><path stroke="#07A889" d="M-14.433 16.828h-12.936l-11.055 21.22h76.682l-11.056-21.22H15.317s0 0 0 0h-1.092" style="display:block" transform="matrix(4.24 0 0 4.24 250 248.187)"/><path stroke="#121330" d="M-19.333-4.674c-.739-1.288-1.395-2.627-1.866-4.036a22.31 22.31 0 0 1-1.144-7.08c0-12.832 10.816-23.139 23.836-22.301 11.038.711 20.013 9.619 20.808 20.652a22.446 22.446 0 0 1-.926 8.229c-.492 1.602-1.209 3.125-2.043 4.578L.012 29.02-19.333-4.674z" style="display:block" transform="matrix(4.24 0 0 4.24 250 248.187)"/><path stroke="#07A889" d="M10.527-15.789C10.527-9.981 5.818-5.272.01-5.272s-10.517-4.709-10.517-10.517S-5.798-26.306.01-26.306s10.517 4.709 10.517 10.517z" style="display:block" transform="matrix(4.24 0 0 4.24 250 248.187)"/></g><g class="com" style="display:none"><path/><path/><path/><path/><path/><path/><path/><path/><path/><path/><path/><path/></g></g></svg>