<svg xmlns="http://www.w3.org/2000/svg" width="500" height="500" style="width:100%;height:100%;transform:translate3d(0,0,0);content-visibility:visible" viewBox="0 0 500 500"><defs><clipPath id="a"><path d="M0 0h500v500H0z"/></clipPath></defs><g clip-path="url(#a)"><path fill="none" stroke="#07A889" stroke-linecap="round" stroke-linejoin="round" stroke-width="3.5" d="m-21.406-8.472.008-17.294c0-8.957 7.261-16.218 16.218-16.218H5.101c8.957 0 16.218 7.261 16.218 16.218l-.008 17.294" style="display:block" transform="matrix(3.6 0 0 3.6 250 268)"/><path fill="none" stroke="#121330" stroke-linecap="round" stroke-linejoin="round" stroke-width="3.5" d="m16.111 35.014-32.294-.06c-6.741 0-12.256-5.514-12.256-12.255l-.033-30.857 56.805.059.034 30.857c0 6.741-5.515 12.256-12.256 12.256z" style="display:block" transform="matrix(3.6 0 0 3.6 250 268)"/><path fill="none" stroke="#07A889" stroke-linecap="round" stroke-linejoin="round" stroke-width="3.5" d="M8.436 21.817H-8.436V4.944H8.436v16.873z" style="display:block" transform="rotate(90 -11.408 304.76) scale(3.24)"/><g class="com" style="display:none"><path/><path/><path/><path/><path/><path/><path/><path/><path/><path/><path/><path/></g></g></svg>