<svg xmlns="http://www.w3.org/2000/svg" width="500" height="500" style="width:100%;height:100%;transform:translate3d(0,0,0);content-visibility:visible" viewBox="0 0 500 500"><defs><clipPath id="c"><path d="M0 0h500v500H0z"/></clipPath><filter id="a" width="100%" height="100%" x="0%" y="0%" filterUnits="objectBoundingBox"><feComponentTransfer in="SourceGraphic"><feFuncA tableValues="1.0 0.0" type="table"/></feComponentTransfer></filter><path id="b" fill="red" d="M-1.94-157h3.88c33.734 0 60.747 27.969 59.574 61.682l-1.94 55.781C58.458-7.442 32.115 18 0 18c-32.115 0-58.458-25.442-59.574-57.537l-1.94-55.781C-62.687-129.031-35.674-157-1.94-157z" style="display:block" transform="translate(250 269)"/><mask id="d" mask-type="alpha"><g filter="url(#a)"><path fill="#fff" d="M0 0h500v500H0z" opacity="0"/><use xmlns:ns1="http://www.w3.org/1999/xlink" ns1:href="#b"/></g></mask></defs><g clip-path="url(#c)"><g fill="none" stroke-linecap="round" stroke-linejoin="round" stroke-width="12.04" style="display:block"><path stroke="#07A889" d="M220.899 381.763v.098m-.101 32.902v.098"/><path stroke="#121330" d="M190.961 431.024v-70.799m76.788-42.478-4.26 31.63-26.68 4-4.26-35.63M263.34 349.4l-72.382 10.824"/></g><g mask="url(#d)" style="display:block"><path fill="none" stroke="#121330" stroke-linecap="round" stroke-linejoin="round" stroke-width="12.04" d="M283.87 271.845v18.94c0 18.63-15.25 27.557-33.88 27.557-18.63 0-33.87-8.927-33.87-27.557v-18.93"/></g><path fill="none" stroke="#121330" stroke-linecap="round" stroke-linejoin="round" stroke-width="12.04" d="M33.88 26.69h7.62c45.84 0 83 37.16 83 83v27.76c0 7.62-5.71 14.03-13.28 14.9l-29.04 3.36a85.26 85.26 0 0 0-23.07 6.03c-18.91 7.91-39 11.88-59.11 11.92h-.3c-20.1 0-40.2-3.93-59.12-11.8l-.2-.08c-7.69-3.2-15.79-5.3-24.07-6.26l-27.53-3.17c-7.57-.87-13.28-7.28-13.28-14.9v-27.76c0-45.84 37.16-83 83-83h7.63m94.521-93.725-1.077 27.498C58.458-7.442 32.115 18 0 18c0 0 0 0 0 0-32.115 0-58.458-25.442-59.574-57.537l-.823-27.498" style="display:block" transform="translate(250 269)"/><g fill="none" stroke-linecap="round" stroke-linejoin="round" stroke-width="12.04" style="display:block"><path stroke="#07A889" d="m187.803 182.229 1.141 19.473s34.144-.494 60.911-18.976c26.606 18.482 60.759 19.026 60.759 19.026l1.24-19.795"/><path stroke="#121330" d="M289.447 120.861c-6.112 3.011-19.964 8.904-38.898 9.065-19.754.168-34.222-5.995-40.341-8.994"/><path stroke="#121330" d="M250 56.3c-26.83 0-50.96 10.03-62.95 27.75l.004-.002s-28.719-1.51-28.719 25.361c0 26.502 25.96 26.454 25.96 26.454l.005-.003v46.13h131.256v-46.13l.005.003s25.96.048 25.96-26.454c0-26.871-28.719-25.361-28.719-25.361l.004.002C300.816 66.33 276.83 56.3 250 56.3z"/></g><g class="com" style="display:none"><path/><path/><path/><path/><path/><path/><path/><path/><path/><path/><path/><path/></g></g></svg>