<svg xmlns="http://www.w3.org/2000/svg" width="500" height="500" style="width:100%;height:100%;transform:translate3d(0,0,0);content-visibility:visible" viewBox="0 0 500 500"><defs><clipPath id="d"><path d="M0 0h500v500H0z"/></clipPath><clipPath id="c"><path d="M0 0h500v500H0z"/></clipPath><clipPath id="e"><path d="M0 0h500v500H0z"/></clipPath><filter id="a" width="100%" height="100%" x="0%" y="0%" filterUnits="objectBoundingBox"><feComponentTransfer in="SourceGraphic"><feFuncA tableValues="1.0 0.0" type="table"/></feComponentTransfer></filter><mask id="f" mask-type="alpha"><g filter="url(#a)"><path fill="#fff" d="M0 0h500v500H0z" opacity="0"/><use xmlns:ns1="http://www.w3.org/1999/xlink" ns1:href="#b"/></g></mask><g id="b" clip-path="url(#c)" style="display:block"><g fill="red" style="display:block"><path d="m304.3 129.002.35 61.79v27.104c0 30.088-24.397 54.485-54.484 54.485h-1.33c-30.087 0-54.485-24.397-54.485-54.485l.35-67.725"/><path d="M304.65 190.791s2.329-35.25-33.81-54.096c0 0-11.03 40.96-79.96 55.235 0 0-23.633-69.592 5.88-86.492 3.306-1.893 8.731-1.7 11.94.354 4.503 2.883 9.02 7.582 11.869 10.007 2.161 1.841 4.931 2.822 7.768 2.683 3.91-.191 9.324-1.312 14.67-4.18 42.766-16.997 68.374 2.565 67.852 27.935-.485 23.61 2.216 43.233-6.209 48.554z"/></g><g style="display:block"><path fill-opacity="0" stroke="#000" stroke-linecap="round" stroke-linejoin="round" stroke-width="0" d="M219.625 263.9v17.57c0 15.548 12.61 28.157 28.157 28.157H250c15.547 0 28.157-12.609 28.157-28.156v-16.823"/><path fill="red" d="M219.625 263.9v17.57c0 15.548 12.61 28.157 28.157 28.157H250c15.547 0 28.157-12.609 28.157-28.156v-16.823"/><path fill-opacity="0" stroke="#000" stroke-linecap="round" stroke-linejoin="round" stroke-width="0" d="m280.374 281.47 7.981.444c38.698 0 70.06 31.363 70.06 70.06v28.046c0 7.528-6.107 13.634-13.635 13.634h-17.293c-34.253 2.66-33.815 14.966-62.448 14.966h-30.078c-28.633 0-28.195-12.305-62.448-14.966H155.22c-7.528 0-13.635-6.106-13.635-13.634v-28.046c0-38.697 31.362-70.06 70.06-70.06l7.981-.443"/><path fill="red" d="m280.374 281.47 7.981.444c38.698 0 70.06 31.363 70.06 70.06v28.046c0 7.528-6.107 13.634-13.635 13.634h-17.293c-34.253 2.66-33.815 14.966-62.448 14.966h-30.078c-28.633 0-28.195-12.305-62.448-14.966H155.22c-7.528 0-13.635-6.106-13.635-13.634v-28.046c0-38.697 31.362-70.06 70.06-70.06l7.981-.443"/></g></g></defs><g clip-path="url(#d)"><g fill="none" stroke="#07A889" stroke-linecap="round" stroke-linejoin="round" clip-path="url(#e)" mask="url(#f)" style="display:block"><path stroke-width="12.9" d="M88.25 102.369C90.423 53.761 102.996-100.46.491-100.46c0 0 0 0 0 0h-.982s0 0 0 0c-102.505 0-92 156.943-87.546 204.551" style="display:block" transform="matrix(-.75 0 0 .75 150.77 209.051)"/><g stroke-width="9.675" style="display:block"><path d="M198.702 195.783v25.439c0 25.604-20.76 46.366-46.365 46.366h-1.132c-25.605 0-46.365-20.762-46.365-46.366V198.48m-10.57 1.689"/><path d="M102.13 160.997c-2.986 10.911-.247 38.13-.247 38.13.999-.205 1.99-.426 2.956-.646 56.019-12.68 65.091-46.357 65.091-46.357 16.7 9.142 28.772 30.601 28.772 43.661.054 1.509 0 2.375 0 2.375 2.902-4.705 3.318-17.199 2.72-36.765m-2.72 36.762"/></g><g stroke-width="12.15" style="display:block"><path d="m176.38 261.772-.007 14.558 6.949.373c32.61 0 59.04 26.43 59.04 59.04v23.634c0 6.344-5.147 11.49-11.491 11.49h-14.573c-28.865 2.241-28.496 12.61-52.624 12.61h-25.348c-24.128 0-23.759-10.369-52.624-12.61H71.129c-6.344 0-11.49-5.146-11.49-11.49v-23.634c0-32.61 26.429-59.04 59.039-59.04l6.872-.373.008-.047-.008-14.207"/><path d="M193.48 277.786c-.967 17.572-19.492 31.59-42.195 31.59-22.912 0-41.557-14.273-42.217-32.063"/></g><path stroke-width="12.9" d="M88.25 102.369C90.423 53.761 102.996-100.46.491-100.46c0 0 0 0 0 0h-.982s0 0 0 0c-102.505 0-92 156.943-87.546 204.551" style="display:block" transform="matrix(.75 0 0 .75 350.229 209.051)"/><g stroke-width="9.675" style="display:block"><path d="M397.16 195.783v25.439c0 25.604-20.76 46.366-46.365 46.366h-1.132c-25.604 0-46.365-20.762-46.365-46.366V198.48m-10.571 1.689"/><path d="M300.589 160.997c-2.987 10.911-.248 38.13-.248 38.13.999-.205 1.99-.426 2.956-.646 56.019-12.68 65.091-46.357 65.091-46.357 16.7 9.142 28.772 30.601 28.772 43.661.054 1.509 0 2.375 0 2.375 2.902-4.705 3.318-17.199 2.72-36.765m-2.72 36.762"/></g><g stroke-width="12.15" style="display:block"><path d="m325.62 261.772.007 14.558-6.949.373c-32.61 0-59.04 26.43-59.04 59.04v23.634c0 6.344 5.147 11.49 11.491 11.49h14.573c28.865 2.241 28.496 12.61 52.624 12.61h25.348c24.128 0 23.759-10.369 52.624-12.61h14.573c6.344 0 11.49-5.146 11.49-11.49v-23.634c0-32.61-26.429-59.04-59.039-59.04l-6.872-.373-.008-.047.008-14.207"/><path d="M308.52 277.786c.967 17.572 19.492 31.59 42.195 31.59 22.912 0 41.557-14.273 42.217-32.063"/></g></g><g fill="none" stroke="#121330" stroke-linecap="round" stroke-linejoin="round" stroke-width="12.015" style="display:block"><path d="M304.65 188.002v29.894c0 30.088-24.397 54.485-54.484 54.485h-1.33c-30.087 0-54.485-24.397-54.485-54.485v-26.725"/><path d="M304.65 190.791s2.329-35.25-33.81-54.096c0 0-11.03 40.96-79.96 55.235 0 0-23.633-69.592 5.88-86.492 3.306-1.893 8.731-1.7 11.94.354 4.503 2.883 9.02 7.582 11.869 10.007 2.161 1.841 4.931 2.822 7.768 2.683 3.91-.191 9.324-1.312 14.67-4.18 42.766-16.997 68.374 2.565 67.852 27.935-.485 23.61 2.216 43.233-6.209 48.554z"/></g><g style="display:block"><path fill="none" stroke="#121330" stroke-linecap="round" stroke-linejoin="round" stroke-width="12.015" d="M219.625 263.9v17.57c0 15.548 12.61 28.157 28.157 28.157H250c15.547 0 28.157-12.609 28.157-28.156v-16.823m.886 92.084s0 0 0 0c0-9.015.922-16.324 2.059-16.324h.217c.486.015 2.118 1.193 5.346 4.527 5.784-5.653 11.567-5.653 17.348 0 3.228-3.334 4.86-4.512 5.346-4.527h.218c1.136 0 2.058 7.309 2.058 16.324 0 0 0 0 0 0v-.989 1.995c0 7.96-6.451 14.411-14.41 14.411h-3.77c-7.96 0-14.41-6.451-14.41-14.41v-1.996"/><path fill="#121330" d="M279.043 356.732c0-9.015.922-16.324 2.059-16.324h.217c.486.015 2.118 1.193 5.346 4.527 5.784-5.653 11.567-5.653 17.348 0 3.228-3.334 4.86-4.512 5.346-4.527h.218c1.136 0 2.058 7.309 2.058 16.324v-.989 1.995c0 7.96-6.451 14.411-14.41 14.411h-3.77c-7.96 0-14.41-6.451-14.41-14.41v-1.996"/><path fill="none" stroke="#121330" stroke-linecap="round" stroke-linejoin="round" stroke-width="12.015" d="m280.374 281.47 7.981.444c38.698 0 70.06 31.363 70.06 70.06v28.046c0 7.528-6.107 13.634-13.635 13.634h-17.293c-34.253 2.66-33.815 14.966-62.448 14.966h-30.078c-28.633 0-28.195-12.305-62.448-14.966H155.22c-7.528 0-13.635-6.106-13.635-13.634v-28.046c0-38.697 31.362-70.06 70.06-70.06l7.981-.443"/></g><path style="display:none"/></g></svg>