<svg xmlns="http://www.w3.org/2000/svg" width="500" height="500" style="width:100%;height:100%;transform:translate3d(0,0,0);content-visibility:visible" viewBox="0 0 500 500"><defs><filter id="a" width="100%" height="100%" x="0%" y="0%" filterUnits="objectBoundingBox"><feComponentTransfer in="SourceGraphic"><feFuncA tableValues="1.0 0.0" type="table"/></feComponentTransfer></filter><filter id="c" width="100%" height="100%" x="0%" y="0%" filterUnits="objectBoundingBox"><feComponentTransfer in="SourceGraphic"><feFuncA tableValues="1.0 0.0" type="table"/></feComponentTransfer></filter><mask id="g" mask-type="alpha"><g filter="url(#a)"><path fill="#fff" d="M0 0h500v500H0z" opacity="0"/><use xmlns:ns1="http://www.w3.org/1999/xlink" ns1:href="#b"/></g></mask><mask id="f" mask-type="alpha"><g filter="url(#c)"><path fill="#fff" d="M0 0h500v500H0z" opacity="0"/><use xmlns:ns2="http://www.w3.org/1999/xlink" ns2:href="#d"/></g></mask><clipPath id="e"><path d="M0 0h500v500H0z"/></clipPath><path id="b" fill="red" d="M-1.94-157h3.88c33.734 0 60.747 27.969 59.574 61.682l-1.94 55.781C58.458-7.442 32.115 18 0 18c-32.115 0-58.458-25.442-59.574-57.537l-1.94-55.781C-62.687-129.031-35.674-157-1.94-157z" style="display:block" transform="translate(250 250)"/><g id="d" style="display:block"><path fill-opacity="0" stroke="#08A88A" stroke-linecap="round" stroke-linejoin="round" stroke-width="0" d="M189.05 170.74c39.08-1.63 70.28-25.94 84.83-60.1 32.787 23.36 31.026 43.821 36.956 63.531 14.38-19.646 11.561-58.746 1.497-74.171-8.376-12.838-23.666-17-23.666-17-21.792-5.284-44.082 2.543-55.135 7.502-4.592 2.06-9.924 1.553-14.02-1.37l-15.879-11.331c-5.933-4.428-14.349-3.052-18.564 3.033-5.394 7.786-10.722 19.446-12.819 33.416-4.935 32.876 16.907 56.378 16.907 56.378"/><path fill="red" d="M189.05 170.74c39.08-1.63 70.28-25.94 84.83-60.1 32.787 23.36 31.026 43.821 36.956 63.531 14.38-19.646 11.561-58.746 1.497-74.171-8.376-12.838-23.666-17-23.666-17-21.792-5.284-44.082 2.543-55.135 7.502-4.592 2.06-9.924 1.553-14.02-1.37l-15.879-11.331c-5.933-4.428-14.349-3.052-18.564 3.033-5.394 7.786-10.722 19.446-12.819 33.416-4.935 32.876 16.907 56.378 16.907 56.378"/></g></defs><g clip-path="url(#e)"><g mask="url(#f)" style="display:block"><path fill="none" stroke="#121330" stroke-linecap="round" stroke-linejoin="round" stroke-width="12.04" d="M174.476 234.18s0 0 0 0c8.787 0 15.976-7.19 15.976-15.977v-30.906c0-8.787-7.189-15.977-15.976-15.977 0 0 0 0 0 0-8.787 0-15.976 7.19-15.976 15.977v30.906c0 8.787 7.189 15.977 15.976 15.977zm151.25.046s0 0 0 0c8.787 0 15.976-7.189 15.976-15.976v-30.907c0-8.787-7.189-15.976-15.976-15.976 0 0 0 0 0 0-8.787 0-15.976 7.189-15.976 15.976v30.907c0 8.787 7.189 15.976 15.976 15.976zm-167.271-46.881.023-35.153c0-25.178 10.291-48.058 26.885-64.652C201.942 70.946 224.822 60.655 250 60.655c50.34 0 91.522 41.197 91.522 91.537l.023 35.403"/></g><path fill="none" stroke="#07A889" stroke-linecap="round" stroke-linejoin="round" stroke-width="12.04" d="M0 21.375s0 0 0 0c11.805 0 21.375-9.57 21.375-21.375v-21.375h-42.75V0c0 11.805 9.57 21.375 21.375 21.375z" style="display:block" transform="translate(302.495 357.089)"/><g mask="url(#g)" style="display:block"><path fill="none" stroke="#121330" stroke-linecap="round" stroke-linejoin="round" stroke-width="12.04" d="M283.87 257.845v18.94c0 18.63-15.25 33.87-33.88 33.87-18.63 0-33.87-15.24-33.87-33.87v-18.93"/></g><path fill="none" stroke="#121330" stroke-linecap="round" stroke-linejoin="round" stroke-width="12.04" d="M33.88 26.69h7.62c45.84 0 83 37.16 83 83v27.76c0 7.62-5.71 14.03-13.28 14.9l-29.04 3.36a85.26 85.26 0 0 0-23.07 6.03c-18.91 7.91-39 11.88-59.11 11.92h-.3c-20.1 0-40.2-3.93-59.12-11.8l-.2-.08c-7.69-3.2-15.79-5.3-24.07-6.26l-27.53-3.17c-7.57-.87-13.28-7.28-13.28-14.9v-27.76c0-45.84 37.16-83 83-83h7.63M60.898-76.632l-1.324 37.095C58.458-7.442 32.115 18 0 18c0 0 0 0 0 0-32.115 0-58.458-25.442-59.574-57.537l-1.07-40.125" style="display:block" transform="translate(250 250)"/><path fill="none" stroke="#07A889" stroke-linecap="round" stroke-linejoin="round" stroke-width="12.04" d="M-57.091 46.053c39.08-1.63 70.28-25.94 84.83-60.1 32.787 23.36 31.026 43.821 36.956 63.531 14.38-19.646 11.561-58.746 1.497-74.171-8.376-12.838-23.666-17-23.666-17-21.792-5.284-44.082 2.543-55.135 7.502-4.592 2.06-9.924 1.553-14.02-1.37l-15.879-11.331c-5.933-4.428-14.349-3.052-18.564 3.033-5.394 7.786-10.722 19.446-12.819 33.416-4.935 32.876 16.907 56.378 16.907 56.378" style="display:block" transform="translate(246.141 124.687)"/><path fill="none" stroke="#07A889" stroke-linecap="round" stroke-linejoin="round" stroke-width="12.04" d="M-3.757 5.64h7.514c3.102 0 5.639-2.538 5.639-5.64 0 0 0 0 0 0 0-3.102-2.537-5.64-5.639-5.64h-7.514c-3.102 0-5.639 2.538-5.639 5.64 0 0 0 0 0 0 0 3.102 2.537 5.64 5.639 5.64z" style="display:block" transform="translate(260.505 230.681)"/><path fill="none" stroke="#07A889" stroke-linecap="round" stroke-linejoin="round" stroke-width="12.04" d="m-36.185 16.69 15.539-2.263A45.281 45.281 0 0 0-2.687 7.7c13.66-8.78 38.872-24.39 38.872-24.39" style="display:block" transform="translate(305.495 213.991)"/><g class="com" style="display:none"><path/><path/><path/><path/><path/><path/><path/><path/><path/><path/><path/><path/></g></g></svg>