<svg xmlns="http://www.w3.org/2000/svg" width="500" height="500" style="width:100%;height:100%;transform:translate3d(0,0,0);content-visibility:visible" viewBox="0 0 500 500"><defs><clipPath id="a"><path d="M0 0h500v500H0z"/></clipPath></defs><g clip-path="url(#a)"><g style="display:block"><path fill="none" stroke="#07A889" stroke-dasharray="33 28" stroke-linecap="round" stroke-linejoin="round" stroke-width="12.6" d="M126 165c2.355 106.583 31.483 139.967 63.144 141.373C211.25 307.354 236 295 251 248c12.355-38.712 34-52 63.088-49.414C354.43 202.173 377.999 225.726 376 323"/><path fill="#07A889" d="M124 152c-7.18 0-13 1.82-13 9s5.82 17 13 17 13-2.82 13-10-5.82-16-13-16zm252 162c-7.18 0-13 2.57-13 9.75S368.82 340 376 340s13-2.57 13-9.75S383.18 314 376 314z"/><path fill="none" stroke="#07A889" stroke-linecap="round" stroke-linejoin="round" stroke-width="12.6" d="M124 152c-7.18 0-13 1.82-13 9s5.82 17 13 17 13-2.82 13-10-5.82-16-13-16zm252 162c-7.18 0-13 2.57-13 9.75S368.82 340 376 340s13-2.57 13-9.75S383.18 314 376 314z"/></g><g fill="none" stroke="#121330" stroke-linecap="round" stroke-linejoin="round" stroke-width="12.6" style="display:block"><path d="M188 131 71.5 91.5l.5 278L188.5 409l-.5-278zm241 0L312.5 91.5l.5 278L429.5 409l-.5-278z"/><path d="m188.5 130.5 124-39.5.5 278-124 39.5-.5-278z"/></g><g class="com" style="display:none"><path/><path fill="none"/><path/><path fill="none"/><path/><path fill="none"/><path/><path fill="none"/><path/><path fill="none"/><path/><path fill="none"/><path/><path fill="none"/><path/><path fill="none"/><path/><path fill="none"/><path/><path fill="none"/><path/><path fill="none"/><path/></g></g></svg>