<svg xmlns="http://www.w3.org/2000/svg" width="13" height="13" viewBox="0 0 13 13" fill="none">
    <path d="M4.73602 1.57926C4.73602 0.707227 4.0291 0.000308168 3.15707 0.000308206C2.28504 0.000308244 1.57812 0.707227 1.57812 1.57926C1.57812 2.45128 2.28504 3.1582 3.15707 3.1582C4.0291 3.1582 4.73602 2.45128 4.73602 1.57926Z" fill="white"/>
    <path d="M11.0524 6.31558C11.0524 5.44355 10.3455 4.73664 9.47348 4.73664C8.60145 4.73664 7.89453 5.44356 7.89453 6.31558C7.89453 7.18761 8.60145 7.89453 9.47348 7.89453C10.3455 7.89453 11.0524 7.18761 11.0524 6.31558Z" fill="white"/>
    <path d="M7.89227 11.0529C7.89227 10.1809 7.18535 9.47394 6.31332 9.47394C5.44129 9.47394 4.73437 10.1809 4.73437 11.0529C4.73437 11.9249 5.44129 12.6318 6.31332 12.6318C7.18535 12.6318 7.89227 11.9249 7.89227 11.0529Z" fill="white"/>
    <path d="M12.3415 1.79492L3.80469 1.79492" stroke="white" stroke-width="0.5" stroke-miterlimit="10"/>
    <path d="M1.79433 1.79492L0.289062 1.79492" stroke="white" stroke-width="0.5" stroke-miterlimit="10"/>
    <path d="M12.3412 6.31641L10.8359 6.31641" stroke="white" stroke-width="0.5" stroke-miterlimit="10"/>
    <path d="M8.82591 6.31641L0.289062 6.31641" stroke="white" stroke-width="0.5" stroke-miterlimit="10"/>
    <path d="M12.3414 10.8369L7.32031 10.8369" stroke="white" stroke-width="0.5" stroke-miterlimit="10"/>
    <path d="M5.31012 10.8369L0.289062 10.8369" stroke="white" stroke-width="0.5" stroke-miterlimit="10"/>
  </svg>