<svg xmlns="http://www.w3.org/2000/svg" width="500" height="500" style="width:100%;height:100%;transform:translate3d(0,0,0);content-visibility:visible" viewBox="0 0 500 500"><defs><clipPath id="c"><path d="M0 0h500v500H0z"/></clipPath><clipPath id="e"><path d="M0 0h500v500H0z"/></clipPath><filter id="a" width="100%" height="100%" x="0%" y="0%" filterUnits="objectBoundingBox"><feComponentTransfer in="SourceGraphic"><feFuncA tableValues="1.0 0.0" type="table"/></feComponentTransfer></filter><mask id="d" mask-type="alpha"><g filter="url(#a)"><path fill="#fff" d="M0 0h500v500H0z" opacity="0"/><use xmlns:ns1="http://www.w3.org/1999/xlink" ns1:href="#b"/></g></mask><g id="b" style="display:block"><path fill="red" d="m286.938 244.74-81.872 21.314m85.097-107.85-129.745 34.695M279.48 209.73c7.353-13.136 9.84-29.018 5.77-44.732-8.379-32.376-41.43-51.832-73.806-43.453-32.377 8.39-51.832 41.43-43.453 73.807 4.048 15.621 13.826 28.233 26.51 36.166m131.9 198.667-65.561 18.089-66.354-216.783 84.954-21.995 46.96 220.689zm-64.093-114.207 6.186 24.128m46.756 93.588-2.557 29.095-22.366 5.994-16.762-23.92"/><path fill-opacity="0" stroke="#08A88A" stroke-linecap="round" stroke-linejoin="round" stroke-width="0" d="m286.938 244.74-81.872 21.314"/><path fill-opacity="0" stroke="#121331" stroke-linecap="round" stroke-linejoin="round" stroke-width="0" d="M290.163 158.203 160.418 192.9m119.062 16.83c7.353-13.135 9.84-29.017 5.77-44.73-8.379-32.377-41.43-51.833-73.806-43.454-32.377 8.39-51.832 41.43-43.453 73.807 4.048 15.621 13.826 28.233 26.51 36.166"/><path fill-opacity="0" stroke="#121331" stroke-linecap="round" stroke-linejoin="round" stroke-width="0" d="m326.4 430.186-65.56 18.089-66.354-216.783 84.954-21.995 46.96 220.689z"/><path fill-opacity="0" stroke="#08A88A" stroke-linecap="round" stroke-linejoin="round" stroke-width="0" d="m262.308 315.979 6.186 24.128"/><path fill-opacity="0" stroke="#121331" stroke-linecap="round" stroke-linejoin="round" stroke-width="0" d="m315.25 433.695-2.557 29.095-22.366 5.994-16.762-23.92"/></g></defs><g clip-path="url(#c)"><g mask="url(#d)" style="display:block"><g fill="none" clip-path="url(#e)" transform="translate(0 32)"><path stroke="#07A889" stroke-linecap="round" stroke-linejoin="round" stroke-width="12.04" d="M-5.583-7.685A9.456 9.456 0 0 1 0-9.5s0 0 0 0c2.086 0 4.015.674 5.583 1.815" style="display:block" transform="rotate(90 -93 75.5)"/><path style="display:none"/><path style="display:none"/><path style="display:none"/><path style="display:none"/><path style="display:none"/><path style="display:none"/></g></g><g fill="none" stroke-linecap="round" stroke-linejoin="round" stroke-width="12.04" style="display:block"><path stroke="#07A889" d="m286.938 244.74-81.872 21.314"/><path stroke="#121330" d="M290.163 158.203 160.418 192.9m119.062 16.83c7.353-13.135 9.84-29.017 5.77-44.73-8.379-32.377-41.43-51.833-73.806-43.454-32.377 8.39-51.832 41.43-43.453 73.807 4.048 15.621 13.826 28.233 26.51 36.166"/><path stroke="#121330" d="m326.4 430.186-65.56 18.089-66.354-216.783 84.954-21.995 46.96 220.689z"/><path stroke="#07A889" d="m262.308 315.979 6.186 24.128"/><path stroke="#121330" d="m315.25 433.695-2.557 29.095-22.366 5.994-16.762-23.92"/></g><g class="com" style="display:none"><path/><path/><path/><path/><path/><path/><path/><path/><path/><path/><path/><path/></g></g></svg>