<svg xmlns="http://www.w3.org/2000/svg" width="500" height="500" style="width:100%;height:100%;transform:translate3d(0,0,0);content-visibility:visible" viewBox="0 0 500 500"><defs><clipPath id="f"><path d="M0 0h500v500H0z"/></clipPath><clipPath id="h"><path d="M0 0h500v500H0z"/></clipPath><clipPath id="e"><path d="M0 0h500v500H0z"/></clipPath><filter id="a" width="100%" height="100%" x="0%" y="0%" filterUnits="objectBoundingBox"><feComponentTransfer in="SourceGraphic"><feFuncA tableValues="1.0 0.0" type="table"/></feComponentTransfer></filter><filter id="c" width="100%" height="100%" x="0%" y="0%" filterUnits="objectBoundingBox"><feComponentTransfer in="SourceGraphic"><feFuncA tableValues="1.0 0.0" type="table"/></feComponentTransfer></filter><mask id="i" mask-type="alpha"><g filter="url(#a)"><path fill="#fff" d="M0 0h500v500H0z" opacity="0"/><use xmlns:ns1="http://www.w3.org/1999/xlink" ns1:href="#b"/></g></mask><mask id="g" mask-type="alpha"><g filter="url(#c)"><path fill="#fff" d="M0 0h500v500H0z" opacity="0"/><use xmlns:ns2="http://www.w3.org/1999/xlink" ns2:href="#d"/></g></mask><g id="b" style="display:block"><path fill-opacity="0" stroke="#07A889" stroke-linecap="round" stroke-linejoin="round" stroke-width="12.04" d="M213.321 190.567v-66.004"/><path fill="red" d="M213.321 190.567v-66.004"/><path fill-opacity="0" stroke="#07A889" stroke-linecap="round" stroke-linejoin="round" stroke-width="12.04" d="m213.321 136.574-56.938 53.992"/><path fill="red" d="m213.321 136.574-56.938 53.992"/><path fill-opacity="0" stroke="#121330" stroke-linecap="round" stroke-linejoin="round" stroke-width="12.04" d="M335.965 190.563h-85.07v-66h37.482a33.674 33.674 0 0 1 31.646 22.165l15.942 43.835z"/><path fill="red" d="M335.965 190.563h-85.07v-66h37.482a33.674 33.674 0 0 1 31.646 22.165l15.942 43.835z"/><path fill-opacity="0" stroke="#121330" stroke-linecap="round" stroke-linejoin="round" stroke-width="12.04" d="m393.963 270.567-8.07-23.34a18.204 18.204 0 0 0-17.2-12.25h-35.9c-7.76 0-14.66 4.92-17.19 12.25l-8.08 23.34h-101.92l-8.07-23.34a18.204 18.204 0 0 0-17.2-12.25h-35.9c-7.76 0-14.66 4.92-17.19 12.25l-8.08 23.34h-17.49c-6.76 0-12.23-5.48-12.23-12.23v-67.77h277.68c23.5 0 42.56 19.05 42.56 42.56v37.44h-15.72z"/><path fill="red" d="m393.963 270.567-8.07-23.34a18.204 18.204 0 0 0-17.2-12.25h-35.9c-7.76 0-14.66 4.92-17.19 12.25l-8.08 23.34h-101.92l-8.07-23.34a18.204 18.204 0 0 0-17.2-12.25h-35.9c-7.76 0-14.66 4.92-17.19 12.25l-8.08 23.34h-17.49c-6.76 0-12.23-5.48-12.23-12.23v-67.77h277.68c23.5 0 42.56 19.05 42.56 42.56v37.44h-15.72z"/><path fill-opacity="0" stroke="#121330" stroke-linecap="round" stroke-linejoin="round" stroke-width="12.04" d="M250.896 190.563v80.004"/><path fill="red" d="M250.896 190.563v80.004"/><path fill-opacity="0" stroke="#07A889" stroke-linecap="round" stroke-linejoin="round" stroke-width="12.04" d="M277.063 217.634h13.798"/><path fill="red" d="M277.063 217.634h13.798"/></g><g id="d" clip-path="url(#e)" style="display:block"><g style="display:block"><path fill-opacity="0" stroke="#07A889" stroke-linecap="round" stroke-linejoin="round" stroke-width="0" d="M213.321 190.567v-66.004"/><path fill="red" d="M213.321 190.567v-66.004"/><path fill-opacity="0" stroke="#07A889" stroke-linecap="round" stroke-linejoin="round" stroke-width="0" d="m213.321 136.574-56.938 53.992"/><path fill="red" d="m213.321 136.574-56.938 53.992"/><path fill-opacity="0" stroke="#121330" stroke-linecap="round" stroke-linejoin="round" stroke-width="0" d="M335.965 190.563h-85.07v-66h37.482a33.674 33.674 0 0 1 31.646 22.165l15.942 43.835z"/><path fill="red" d="M335.965 190.563h-85.07v-66h37.482a33.674 33.674 0 0 1 31.646 22.165l15.942 43.835z"/><path fill-opacity="0" stroke="#121330" stroke-linecap="round" stroke-linejoin="round" stroke-width="0" d="m393.963 270.567-8.07-23.34a18.204 18.204 0 0 0-17.2-12.25h-35.9c-7.76 0-14.66 4.92-17.19 12.25l-8.08 23.34h-101.92l-8.07-23.34a18.204 18.204 0 0 0-17.2-12.25h-35.9c-7.76 0-14.66 4.92-17.19 12.25l-8.08 23.34h-17.49c-6.76 0-12.23-5.48-12.23-12.23v-67.77h277.68c23.5 0 42.56 19.05 42.56 42.56v37.44h-15.72z"/><path fill="red" d="m393.963 270.567-8.07-23.34a18.204 18.204 0 0 0-17.2-12.25h-35.9c-7.76 0-14.66 4.92-17.19 12.25l-8.08 23.34h-101.92l-8.07-23.34a18.204 18.204 0 0 0-17.2-12.25h-35.9c-7.76 0-14.66 4.92-17.19 12.25l-8.08 23.34h-17.49c-6.76 0-12.23-5.48-12.23-12.23v-67.77h277.68c23.5 0 42.56 19.05 42.56 42.56v37.44h-15.72z"/><path fill-opacity="0" stroke="#121330" stroke-linecap="round" stroke-linejoin="round" stroke-width="0" d="M250.896 190.563v80.004"/><path fill="red" d="M250.896 190.563v80.004"/><path fill-opacity="0" stroke="#07A889" stroke-linecap="round" stroke-linejoin="round" stroke-width="0" d="M277.063 217.634h13.798"/><path fill="red" d="M277.063 217.634h13.798"/></g><g style="display:block"><path fill-opacity="0" stroke="#121330" stroke-linecap="round" stroke-linejoin="round" stroke-width="0" d="M294.514 337.417c0-32.044 25.978-58.022 58.022-58.022s58.022 25.978 58.022 58.022-25.978 58.022-58.022 58.022-58.022-25.978-58.022-58.022z"/><path fill="red" d="M294.514 337.417c0-32.044 25.978-58.022 58.022-58.022s58.022 25.978 58.022 58.022-25.978 58.022-58.022 58.022-58.022-25.978-58.022-58.022z"/><path fill-opacity="0" stroke="#07A889" stroke-linecap="round" stroke-linejoin="round" stroke-width="0" d="M332.786 337.417c0 10.908 8.842 19.75 19.75 19.75s19.75-8.842 19.75-19.75-8.842-19.75-19.75-19.75-19.75 8.842-19.75 19.75z"/><path fill="red" d="M332.786 337.417c0 10.908 8.842 19.75 19.75 19.75s19.75-8.842 19.75-19.75-8.842-19.75-19.75-19.75-19.75 8.842-19.75 19.75z"/></g><g style="display:block"><path fill-opacity="0" stroke="#121330" stroke-linecap="round" stroke-linejoin="round" stroke-width="0" d="M102.514 337.417c0-32.044 25.978-58.022 58.022-58.022s58.022 25.978 58.022 58.022-25.978 58.022-58.022 58.022-58.022-25.978-58.022-58.022z"/><path fill="red" d="M102.514 337.417c0-32.044 25.978-58.022 58.022-58.022s58.022 25.978 58.022 58.022-25.978 58.022-58.022 58.022-58.022-25.978-58.022-58.022z"/><path fill-opacity="0" stroke="#07A889" stroke-linecap="round" stroke-linejoin="round" stroke-width="0" d="M140.786 337.417c0 10.908 8.842 19.75 19.75 19.75s19.75-8.842 19.75-19.75-8.842-19.75-19.75-19.75-19.75 8.842-19.75 19.75z"/><path fill="red" d="M140.786 337.417c0 10.908 8.842 19.75 19.75 19.75s19.75-8.842 19.75-19.75-8.842-19.75-19.75-19.75-19.75 8.842-19.75 19.75z"/></g></g></defs><g clip-path="url(#f)"><g mask="url(#g)" style="display:block"><path fill="none" stroke="#07A889" stroke-linecap="round" stroke-linejoin="round" stroke-width="12.04" d="m255.941 239.515-77.875 77h157.125l-79.25-77z"/></g><g fill="none" stroke-linecap="round" stroke-linejoin="round" stroke-width="12.04" style="display:block"><path stroke="#07A889" d="M213.321 190.567v-66.004m0 12.011-56.938 53.992"/><path stroke="#121330" d="M335.965 190.563h-85.07v-66h37.482a33.674 33.674 0 0 1 31.646 22.165l15.942 43.835zm57.998 80.004-8.07-23.34a18.204 18.204 0 0 0-17.2-12.25h-35.9c-7.76 0-14.66 4.92-17.19 12.25l-8.08 23.34h-101.92l-8.07-23.34a18.204 18.204 0 0 0-17.2-12.25h-35.9c-7.76 0-14.66 4.92-17.19 12.25l-8.08 23.34h-17.49c-6.76 0-12.23-5.48-12.23-12.23v-67.77h277.68c23.5 0 42.56 19.05 42.56 42.56v37.44h-15.72zm-143.067-80.004v80.004"/><path stroke="#07A889" d="M277.063 217.634h13.798"/></g><g fill="none" stroke-linecap="round" stroke-linejoin="round" stroke-width="12.04" clip-path="url(#h)" mask="url(#i)" style="display:block"><g style="display:block"><path stroke="#121330" d="M294.514 337.417c0-32.044 25.978-58.022 58.022-58.022s58.022 25.978 58.022 58.022-25.978 58.022-58.022 58.022-58.022-25.978-58.022-58.022z"/><path stroke="#07A889" d="M332.786 337.417c0 10.908 8.842 19.75 19.75 19.75s19.75-8.842 19.75-19.75-8.842-19.75-19.75-19.75-19.75 8.842-19.75 19.75z"/></g><g style="display:block"><path stroke="#121330" d="M102.514 337.417c0-32.044 25.978-58.022 58.022-58.022s58.022 25.978 58.022 58.022-25.978 58.022-58.022 58.022-58.022-25.978-58.022-58.022z"/><path stroke="#07A889" d="M140.786 337.417c0 10.908 8.842 19.75 19.75 19.75s19.75-8.842 19.75-19.75-8.842-19.75-19.75-19.75-19.75 8.842-19.75 19.75z"/></g></g><path fill="none" stroke="#121330" stroke-linecap="round" stroke-linejoin="round" stroke-width="12.04" d="M-216 146h189c69.899 0 111.842-64.609 193-82 126-27 128.07 82 188 82h100c21.769 0 29.999-28 77-28 47 0 52 28 104 28s50 27 95 27h127c37.315 0 52.415-27 103.415-27H1235" style="display:block" transform="translate(734 250)"/><g class="com" style="display:none"><path/><path/><path/><path/><path/><path/><path/><path/><path/><path/><path/><path/></g></g></svg>