<svg xmlns="http://www.w3.org/2000/svg" width="500" height="500" style="width:100%;height:100%;transform:translate3d(0,0,0);content-visibility:visible" viewBox="0 0 500 500"><defs><clipPath id="c"><path d="M0 0h500v500H0z"/></clipPath><filter id="a" width="100%" height="100%" x="0%" y="0%" filterUnits="objectBoundingBox"><feComponentTransfer in="SourceGraphic"><feFuncA tableValues="1.0 0.0" type="table"/></feComponentTransfer></filter><path id="b" fill-opacity="0" stroke="#07A889" stroke-linecap="round" stroke-linejoin="round" stroke-width="19.6" d="m140.107 140.557-284.214-282.114" style="display:block" transform="translate(260.772 248)"/><mask id="d" mask-type="alpha"><g filter="url(#a)"><path fill="#fff" d="M0 0h500v500H0z" opacity="0"/><use xmlns:ns1="http://www.w3.org/1999/xlink" ns1:href="#b"/></g></mask></defs><g clip-path="url(#c)"><path fill="none" style="display:none"/><g fill="none" stroke="#121330" stroke-linecap="round" stroke-linejoin="round" mask="url(#d)" style="display:block"><path stroke-width="19.04" d="M257.547 330.946h-15.654"/><path stroke-width="12.04" d="M339.405 230.604c.248 41.295-31.458 108.262-43.358 134.086a28.519 28.519 0 0 1-17.305 15.281c-16.866 5.31-39.29 5.29-56.137-.039a28.655 28.655 0 0 1-17.191-15.051c-12.072-25.595-44.581-92.581-44.772-134.01 0 0-16.389-105.55 10.906-113.916 19.292-5.883 50.465 57.014 54.705 65.782 15.452-1.7 31.994-1.7 47.465 0 4.241-8.768 35.412-71.665 54.685-65.782 27.314 8.366 11.002 113.649 11.002 113.649zm-89.388 100.342v49.574"/></g><path fill="none" stroke="#07A889" stroke-linecap="round" stroke-linejoin="round" stroke-width="12.04" d="m140.107 140.557-284.214-282.114" style="display:block" transform="translate(250.772 250)"/><g class="com" style="display:none"><path/><path/><path/><path/><path/><path/><path/><path/><path/><path/><path/><path/></g></g></svg>