<svg xmlns="http://www.w3.org/2000/svg" width="500" height="500" style="width:100%;height:100%;transform:translate3d(0,0,0);content-visibility:visible" viewBox="0 0 500 500"><defs><clipPath id="a"><path d="M0 0h500v500H0z"/></clipPath></defs><g clip-path="url(#a)"><path fill="none" stroke="#07A889" stroke-linecap="round" stroke-linejoin="round" stroke-width="12.6" d="M186.764 11.974h-.03c-22.661 0-43.929-8.708-62.244-23.948-18.315 15.24-39.584 23.948-62.245 23.948-22.661 0-43.93-8.647-62.245-23.948-18.315 15.24-39.542 23.948-62.245 23.948-22.661 0-43.929-8.708-62.244-23.948-18.315 15.24-39.583 23.948-62.245 23.948 0 0 0 0 0 0" style="display:block" transform="translate(250 250)"/><path fill="none" stroke="#121330" stroke-linecap="round" stroke-linejoin="round" stroke-width="12.6" d="M62.251 11.974h-.006c-22.661 0-43.93-8.647-62.245-23.948-18.315 15.24-39.542 23.948-62.245 23.948-22.661 0-43.929-8.708-62.244-23.948-18.315 15.24-39.583 23.948-62.245 23.948s-43.93-8.647-62.245-23.948h-.042c-18.315 15.24-39.541 23.948-62.245 23.948" style="display:block" transform="translate(375 300)"/><path fill="none" stroke="#121330" stroke-linecap="round" stroke-linejoin="round" stroke-width="12.6" d="M62.251 11.974h-.006c-22.661 0-43.93-8.647-62.245-23.948-18.315 15.24-39.542 23.948-62.245 23.948-22.661 0-43.929-8.708-62.244-23.948-18.315 15.24-39.583 23.948-62.245 23.948s-43.93-8.647-62.245-23.948h-.042c-18.315 15.24-39.541 23.948-62.245 23.948" style="display:block" transform="translate(375 200)"/><g class="com" style="display:none"><path/><path/><path/><path/><path/><path/><path/><path/><path/><path/><path/><path/></g></g></svg>