<svg xmlns="http://www.w3.org/2000/svg" width="500" height="500" style="width:100%;height:100%;transform:translate3d(0,0,0);content-visibility:visible" viewBox="0 0 500 500"><defs><clipPath id="a"><path d="M0 0h500v500H0z"/></clipPath></defs><g clip-path="url(#a)"><path fill="none" stroke="#121330" stroke-linecap="round" stroke-linejoin="round" stroke-width="12.6" d="M109.109 130.262c0 75.942-69.674 13.936-101.565 13.936-33.341 0-101.565 59.64-101.565-13.936 0-56.093 45.472-137.038 101.565-137.038 56.093 0 101.565 80.945 101.565 137.038z" style="display:block" transform="translate(250 250)"/><path fill="none" stroke="#07A889" stroke-linecap="round" stroke-linejoin="round" stroke-width="12.6" d="M32.645-109.234c-.736 32.507-16.023 58.526-34.144 58.116-18.121-.41-32.216-27.095-31.48-59.602.666-29.44 13.268-53.558 29.101-57.543a18.835 18.835 0 0 1 5.043-.573c1.708.039 3.381.31 5.009.799 15.638 4.694 27.137 29.36 26.471 58.803z" style="display:block" transform="rotate(-22 920.476 -299.894)"/><path fill="none" stroke="#07A889" stroke-linecap="round" stroke-linejoin="round" stroke-width="12.6" d="M32.645-109.234c-.736 32.507-16.023 58.526-34.144 58.116-18.121-.41-32.216-27.095-31.48-59.602.666-29.44 13.268-53.558 29.101-57.543a18.835 18.835 0 0 1 5.043-.573c1.708.039 3.381.31 5.009.799 15.638 4.694 27.137 29.36 26.471 58.803z" style="display:block" transform="rotate(-14 1131.887 -810.844)"/><path fill="none" stroke="#07A889" stroke-linecap="round" stroke-linejoin="round" stroke-width="12.6" d="M32.645-109.234c-.736 32.507-16.023 58.526-34.144 58.116-18.121-.41-32.216-27.095-31.48-59.602.666-29.44 13.268-53.558 29.101-57.543a18.835 18.835 0 0 1 5.043-.573c1.708.039 3.381.31 5.009.799 15.638 4.694 27.137 29.36 26.471 58.803z" style="display:block" transform="rotate(6 -2208.844 2934.948)"/><path fill="none" stroke="#07A889" stroke-linecap="round" stroke-linejoin="round" stroke-width="12.6" d="M32.645-109.234c-.736 32.507-16.023 58.526-34.144 58.116-18.121-.41-32.216-27.095-31.48-59.602.666-29.44 13.268-53.558 29.101-57.543a18.835 18.835 0 0 1 5.043-.573c1.708.039 3.381.31 5.009.799 15.638 4.694 27.137 29.36 26.471 58.803z" style="display:block" transform="rotate(20 -738.219 1102.501)"/><g class="com" style="display:none"><path/><path/><path/><path/><path/><path/><path/><path/><path/><path/><path/><path/></g></g></svg>