<svg xmlns="http://www.w3.org/2000/svg" width="500" height="500" style="width:100%;height:100%;transform:translate3d(0,0,0);content-visibility:visible" viewBox="0 0 500 500"><defs><clipPath id="a"><path d="M0 0h500v500H0z"/></clipPath></defs><g clip-path="url(#a)"><path fill="none" stroke="#121330" stroke-linecap="round" stroke-linejoin="round" stroke-width="12.04" d="m106.096 86.873.03-40.22s10.08-22.17 10.1-55.47c.01-11.93.02-23.34.03-33.06v-.02m-31.75-29.43h-.28m-103.13-2.19-16.04-79.19c-1.7-8.39 3.72-16.57 12.11-18.27 1.17-.24 2.33-.35 3.48-.35 8.1 0 15.35 5.69 17.02 13.93l14.9 73.51m6.86-2.26v-.01l8.79-84.48c.89-9.04 8.93-15.65 17.97-14.77 8.49.84 14.84 7.98 14.84 16.34 0 .54-.03 1.08-.08 1.63l-5.25 67.73m-4.098 52.799.03-42.344c.006-8.562 6.952-15.498 15.514-15.492 0 0 0 0 0 0 9.602.007 17.381 7.796 17.374 17.398l-.029 40.461c-.006 9.145-7.472 16.528-16.616 16.432 0 0 0 0 0 0-9.019-.094-16.279-7.436-16.273-16.455zm49.36 16.37c-9.077.143-16.528-7.147-16.583-16.225l-.212-34.919c.006-9.082 7.374-16.438 16.456-16.432 0 0 0 0 0 0 9.082.006 16.439 7.373 16.433 16.455l-.024 34.808c-.006 8.912-7.159 16.173-16.07 16.313 0 0 0 0 0 0zM52.452 7.626C39.31-37.457 2.451-38.14 2.451-38.14l14.963-7.369c12.873-6.339 19.053-21.239 14.443-34.828 0 0 0 0 0 0a9.493 9.493 0 0 0-11.963-5.966l-42.406 13.979a43.587 43.587 0 0 0-26.996 25.648s0 0 0 0a43.588 43.588 0 0 0 5.934 42.113l32.509 42.797.001-.001.44 48.55" style="display:block" transform="translate(210.464 274.863)"/><path fill="none" stroke="#07A889" stroke-linecap="round" stroke-linejoin="round" stroke-width="12.04" d="M-57.33 23.944H78.275v-47.888h-156.55l20.945 47.888z" style="display:block" transform="translate(250 386.176)"/><g class="com" style="display:none"><path/><path/><path/><path/><path/><path/><path/><path/><path/><path/><path/><path/></g></g></svg>