<svg xmlns="http://www.w3.org/2000/svg" width="500" height="500" style="width:100%;height:100%;transform:translate3d(0,0,0);content-visibility:visible" viewBox="0 0 500 500"><defs><filter id="a" width="100%" height="100%" x="0%" y="0%" filterUnits="objectBoundingBox"><feComponentTransfer in="SourceGraphic"><feFuncA tableValues="1.0 0.0" type="table"/></feComponentTransfer></filter><filter id="c" width="100%" height="100%" x="0%" y="0%" filterUnits="objectBoundingBox"><feComponentTransfer in="SourceGraphic"><feFuncA tableValues="1.0 0.0" type="table"/></feComponentTransfer></filter><mask id="g" mask-type="alpha"><g filter="url(#a)"><path fill="#fff" d="M0 0h500v500H0z" opacity="0"/><use xmlns:ns1="http://www.w3.org/1999/xlink" ns1:href="#b"/></g></mask><mask id="f" mask-type="alpha"><g filter="url(#c)"><path fill="#fff" d="M0 0h500v500H0z" opacity="0"/><use xmlns:ns2="http://www.w3.org/1999/xlink" ns2:href="#d"/></g></mask><g id="b" style="display:none"><path/><path fill-opacity="0" stroke-linecap="round" stroke-linejoin="round"/></g><g id="d" style="display:block"><path fill="#121331" d="M89.881 249.334c0-14.779 11.614-26.948 26.377-27.637l242.966-11.895c21.877-1.021 52.238 16.441 52.238 38.342 0 21.76-30.136 39.169-51.881 38.357l-243.065-9.52c-14.868-.555-26.635-12.769-26.635-27.647z"/><path fill-opacity="0" stroke="#121331" stroke-linecap="round" stroke-linejoin="round" stroke-width="0" d="M89.881 249.334s0 0 0 0c0-14.779 11.614-26.948 26.377-27.637l242.966-11.895c21.877-1.021 52.238 16.441 52.238 38.342 0 0 0 0 0 0 0 21.76-30.136 39.169-51.881 38.357l-243.065-9.52c-14.868-.555-26.635-12.769-26.635-27.647z"/></g><clipPath id="e"><path d="M0 0h500v500H0z"/></clipPath></defs><g clip-path="url(#e)"><path fill="none" stroke="#07A889" stroke-linecap="round" stroke-linejoin="round" stroke-width="12.6" d="M-15.293-123.527c7.421-7.421 19.453-7.421 26.874 0" style="display:block" transform="rotate(90 0 250)"/><path fill="none" stroke="#121330" stroke-linecap="round" stroke-linejoin="round" stroke-width="12.6" d="m-31.855 94.48-30.772 11.785a27.738 27.738 0 0 0-17.818 25.904v10.949l50.59-9" style="display:block" transform="rotate(90 0 250)"/><path fill="none" style="display:none"/><g fill="none" stroke-linecap="round" stroke-linejoin="round" stroke-width="12.6" mask="url(#f)" style="display:block"><path stroke="#07A889" d="M231.122 114.525h12.654m-8.152 53.373h12.654"/><path stroke="#121330" d="M330.06 209.387 287.233 83.895a33.594 33.594 0 0 0-31.793-22.743h-18.783L250 153.145v62.193"/></g><g mask="url(#g)" style="display:block"><path fill="none" stroke="#121330" stroke-linecap="round" stroke-linejoin="round" stroke-width="12.6" d="m149.277 220.08 209.947-10.278c21.877-1.021 52.238 16.441 52.238 38.342 0 0 0 0 0 0 0 21.76-30.136 39.169-51.881 38.357l-243.065-9.52c-14.868-.555-26.635-12.769-26.635-27.647 0 0 0 0 0 0s0 0 0 0c0-14.779 11.614-26.948 26.377-27.637l33.019-1.617"/></g><g fill="none" stroke-linecap="round" stroke-linejoin="round" stroke-width="12.6" style="display:block"><path stroke="#121330" d="m155.52 280.035-11.785 30.773a27.738 27.738 0 0 1-25.904 17.818h-10.949l9-50.591"/><path stroke="#07A889" d="m169.94 247.958-31.087-.043-22.286.043-.067-.083"/></g><path fill="none" stroke="#07A889" stroke-linecap="round" stroke-linejoin="round" stroke-width="12.6" d="M231.122 381.39h12.654m-8.152-53.373h12.654" style="display:block"/><g fill="none" style="display:none"><path/><path/></g><g fill="none" style="display:none"><path/><path/></g><path fill="none" stroke="#121330" stroke-linecap="round" stroke-linejoin="round" stroke-width="12.6" d="M36.529-80.06 162.02-37.233A33.594 33.594 0 0 1 184.763-5.44v18.783L92.77 0H32.327" style="display:block" transform="rotate(90 0 250)"/><g class="com" style="display:none"><path/><path/><path/><path/><path/><path/><path/><path/><path/><path/><path/><path/></g></g></svg>