<svg xmlns="http://www.w3.org/2000/svg" width="500" height="500" style="width:100%;height:100%;transform:translate3d(0,0,0);content-visibility:visible" viewBox="0 0 500 500"><defs><clipPath id="a"><path d="M0 0h500v500H0z"/></clipPath></defs><g clip-path="url(#a)"><path fill="none" stroke="#07A889" stroke-linecap="round" stroke-linejoin="round" stroke-width="12.04" d="M39.28 10.828 17.003-35.477a49.099 49.099 0 0 0-44.244-27.812h-37.278L-3.622 63.289" style="display:block" transform="translate(239.935 181.944)"/><path fill="none" stroke="#07A889" stroke-linecap="round" stroke-linejoin="round" stroke-width="12.04" d="M0-32.333v64.666" style="display:block" transform="translate(436.806 269.364)"/><g fill="none" stroke-linecap="round" stroke-linejoin="round" stroke-width="12.04" style="display:block"><path stroke="#07A889" d="M410.119 269.364h26.686"/><path stroke="#121330" d="m292.49 313.13 52.18 4.2c34.87 2.75 65.45-16.05 65.45-41.98v-18.03c0-3.43-.8-6.53-2.91-8.72-3.05-3.18-7.73-3.27-9.62-3.28-9.2-.06-135.05-.16-307.71 0v34.86l17.46 18.39 121.77 9.7"/><path stroke="#121330" d="M110.497 184.029H76.88l13.001 61.286H147.5l-37.003-61.286zm161.298 14.889h49.812c7.602 0 16.165 5.198 19.568 12.573l15.571 33.743h-120.09l15.571-33.743c3.403-7.375 11.966-12.573 19.568-12.573z"/><path stroke="#07A889" d="M147.5 274.059H63.194"/><path stroke="#121330" d="M310.7 198.92v46.32"/></g><path fill="none" stroke="#07A889" stroke-linecap="round" stroke-linejoin="round" stroke-width="12.04" d="M-28.359 64.52h-30.769L-4.322-64.52h63.45l-42.03 98.96a49.386 49.386 0 0 1-45.457 30.08z" style="display:block" transform="translate(245.326 347.144)"/><g class="com" style="display:none"><path/><path/><path/><path/><path/><path/><path/><path/><path/><path/><path/><path/></g></g></svg>