<svg xmlns="http://www.w3.org/2000/svg" width="500" height="500" style="width:100%;height:100%;transform:translate3d(0,0,0);content-visibility:visible" viewBox="0 0 500 500"><defs><clipPath id="a"><path d="M0 0h500v500H0z"/></clipPath></defs><g clip-path="url(#a)"><path fill="none" stroke="#121330" stroke-linecap="round" stroke-linejoin="round" stroke-width="12.6" d="m436.806 339.591-86.467 47.031H149.661l-86.467-47.031h373.612zM350.17 416H149.83v-29.378h200.34V416z" style="display:block"/><path fill="none" stroke="#07A889" stroke-linecap="round" stroke-linejoin="round" stroke-width="12.6" d="M5.251-135.828c-.269 18.152-10.507 18.397-10.507 37.032 0 18.885 10.512 18.885 10.512 37.77S-5.256-42.141-5.256-23.256" style="display:block" transform="translate(250 250)"/><path fill="none" stroke="#07A889" stroke-linecap="round" stroke-linejoin="round" stroke-width="12.6" d="M5.251-135.828c-.269 18.152-10.507 18.397-10.507 37.032 0 18.885 10.512 18.885 10.512 37.77S-5.256-42.141-5.256-23.256" style="display:block" transform="translate(173 301)"/><path fill="none" stroke="#07A889" stroke-linecap="round" stroke-linejoin="round" stroke-width="12.6" d="M5.251-135.828c-.269 18.152-10.507 18.397-10.507 37.032 0 18.885 10.512 18.885 10.512 37.77S-5.256-42.141-5.256-23.256" style="display:block" transform="translate(326 301)"/><g class="com" style="display:none"><path/><path/><path/><path/><path/><path/><path/><path/><path/><path/><path/><path/></g></g></svg>