<svg xmlns="http://www.w3.org/2000/svg" width="500" height="500" style="width:100%;height:100%;transform:translate3d(0,0,0);content-visibility:visible" viewBox="0 0 500 500"><defs><clipPath id="c"><path d="M0 0h500v500H0z"/></clipPath><filter id="a" width="100%" height="100%" x="0%" y="0%" filterUnits="objectBoundingBox"><feComponentTransfer in="SourceGraphic"><feFuncA tableValues="1.0 0.0" type="table"/></feComponentTransfer></filter><path id="b" style="display:none"/><mask id="d" mask-type="alpha"><g filter="url(#a)"><path fill="#fff" d="M0 0h500v500H0z" opacity="0"/><use xmlns:ns1="http://www.w3.org/1999/xlink" ns1:href="#b"/></g></mask></defs><g clip-path="url(#c)"><g mask="url(#d)" style="display:block"><path fill="none" stroke="#07A889" stroke-linecap="round" stroke-linejoin="round" stroke-width="12" d="M182.337 167.198V91.64c0-7.805 6.326-14.131 14.131-14.131 0 0 0 0 0 0 7.805 0 14.132 6.326 14.132 14.131v75.558m80.293 1.681V93.321c0-7.805 6.326-14.132 14.131-14.132h.001c7.805 0 14.131 6.327 14.131 14.132v75.558"/></g><path fill="none" stroke="#121330" stroke-linecap="round" stroke-linejoin="round" stroke-width="12" d="M194.822 35.083v67.319c0 35.848-29.061 64.908-64.909 64.908l-70.342-.155c-35.848 0-64.908-29.06-64.908-64.908V34.928m125.309 138.645s0 0 0 0c0 8.471-6.867 15.338-15.338 15.338H84.85c-8.471 0-15.338-6.867-15.338-15.338 0 0 0 0 0 0m25.23 15.338L94.484 247M214.8.274c5.05 2.51 8.521 7.722 8.521 13.744 0 0 0 0 0 0 0 8.471-6.867 15.339-15.338 15.339 0 0 0 0 0 0l-226.002-.339c-8.471 0-15.338-6.867-15.338-15.338 0 0 0 0 0 0 0-8.471 6.867-15.338 15.338-15.338l226.002.338c2.449 0 4.764.574 6.817 1.594" style="display:block" transform="translate(156 172)"/><path fill="none" style="display:none"/><path style="display:none"/></g></svg>