<svg xmlns="http://www.w3.org/2000/svg" width="500" height="500" style="width:100%;height:100%;transform:translate3d(0,0,0);content-visibility:visible" viewBox="0 0 500 500"><defs><clipPath id="a"><path d="M0 0h500v500H0z"/></clipPath></defs><g clip-path="url(#a)"><path fill="none" stroke="#121330" stroke-width="2.8" d="M0-43.5c24.008 0 43.5 19.492 43.5 43.5S24.008 43.5 0 43.5-43.5 24.008-43.5 0-24.008-43.5 0-43.5z" style="display:block" transform="matrix(4.3 0 0 4.3 250 250)"/><path fill="none" stroke="#07A889" stroke-linecap="round" stroke-linejoin="round" stroke-width="2.8" d="m3.625 3.125.01-17.993" style="display:block" transform="translate(230.28 232.365) scale(4.859)"/><path fill="none" stroke="#07A889" stroke-linecap="round" stroke-linejoin="round" stroke-width="2.8" d="m3.635 3.733-.01-17.108" style="display:block" transform="translate(230.28 321.65) scale(4.859)"/><path fill="none" stroke="#07A889" stroke-linecap="round" stroke-linejoin="round" stroke-width="2.8" d="M3.625 3.125v-16.5" style="display:block" transform="rotate(90 16.573 251.062) scale(4.859)"/><path fill="none" stroke="#07A889" stroke-linecap="round" stroke-linejoin="round" stroke-width="2.8" d="M3.625 3.125v-16.5" style="display:block" transform="rotate(90 -28.071 206.417) scale(4.859)"/><g class="com" style="display:none"><path/><path/><path/><path/><path/><path/><path/><path/><path/><path/><path/><path/></g></g></svg>