<svg xmlns="http://www.w3.org/2000/svg" width="500" height="500" style="width:100%;height:100%;transform:translate3d(0,0,0);content-visibility:visible" viewBox="0 0 500 500"><defs><clipPath id="e"><path d="M0 0h500v500H0z"/></clipPath><clipPath id="f"><path d="M0 0h500v500H0z"/></clipPath><filter id="a" width="100%" height="100%" x="0%" y="0%" filterUnits="objectBoundingBox"><feComponentTransfer in="SourceGraphic"><feFuncA tableValues="1.0 0.0" type="table"/></feComponentTransfer></filter><filter id="c" width="100%" height="100%" x="0%" y="0%" filterUnits="objectBoundingBox"><feComponentTransfer in="SourceGraphic"><feFuncA tableValues="1.0 0.0" type="table"/></feComponentTransfer></filter><path id="d" fill="#FFF" d="M367.832 245.466c-13.884 9.315-21.972 14.123-36.23 19.182l-6.655-9.989-12.165 16.275c-20.647 5.569-40.533 6.561-57.517 2.94 5.821-32.191 30.696-67.707 68.973-93.386 12.451-8.353 25.327-15 38.136-19.931l6.618 12.694 15.03-19.431c18.945-4.494 37.101-5.084 52.783-1.74-5.821 32.191-30.696 67.707-68.973 93.386z" style="display:block"/><path id="b" fill="red" d="M371.49 167.5H155.38c21.42 0 38.8-17.38 38.8-38.81 0-21.43-17.38-38.81-38.8-38.81h216.11c21.43 0 38.81 17.38 38.81 38.81 0 21.43-17.38 38.81-38.81 38.81zm-256.33 165h213.09c-21.43 0-38.81 17.38-38.81 38.81 0 21.43 17.38 38.81 38.81 38.81H115.16c-21.43 0-38.81-17.38-38.81-38.81 0-21.43 17.38-38.81 38.81-38.81z" style="display:block"/><mask id="h" mask-type="alpha"><g filter="url(#a)"><path fill="#fff" d="M0 0h500v500H0z" opacity="0"/><use xmlns:ns1="http://www.w3.org/1999/xlink" ns1:href="#b"/></g></mask><mask id="g" mask-type="alpha"><g filter="url(#c)"><path fill="#fff" d="M0 0h500v500H0z" opacity="0"/><use xmlns:ns2="http://www.w3.org/1999/xlink" ns2:href="#d"/></g></mask></defs><g clip-path="url(#e)"><g clip-path="url(#f)" mask="url(#g)" style="display:block"><g mask="url(#h)" style="display:block"><path fill="none" stroke="#121330" stroke-linecap="round" stroke-linejoin="round" stroke-width="12" d="M249.794 209.97h40.236m-120.089 0h53.47M169.94 250h120.09m-120.09 40.022 67.31-.006m-120.684 42.479V128.691c0-21.43 17.38-38.81 38.81-38.81m214.476 59.089.238 222.335c0 21.43-17.38 38.81-38.81 38.81"/></g><path fill="none" stroke="#121330" stroke-linecap="round" stroke-linejoin="round" stroke-width="12" d="M371.495 167.501h-216.12c21.43 0 38.81-17.38 38.81-38.81 0-21.43-17.38-38.81-38.81-38.81h216.12c21.43 0 38.81 17.38 38.81 38.81 0 21.43-17.38 38.81-38.81 38.81zM115.16 332.496h213.089c-21.43 0-38.81 17.38-38.81 38.81 0 21.43 17.38 38.81 38.81 38.81H115.16c-21.43 0-38.81-17.38-38.81-38.81 0-21.43 17.38-38.81 38.81-38.81z" style="display:block"/></g><g fill="none" stroke="#07A889" stroke-linecap="round" stroke-linejoin="round" stroke-width="12" style="display:block"><path d="M367.832 245.466c-13.884 9.315-21.972 14.123-36.23 19.182l-6.655-9.989-12.165 16.275c-20.647 5.569-40.533 6.561-57.517 2.94 5.821-32.191 30.696-67.707 68.973-93.386 12.451-8.353 25.327-15 38.136-19.931l6.618 12.694 15.03-19.431c18.945-4.494 37.101-5.084 52.783-1.74-5.821 32.191-30.696 67.707-68.973 93.386z"/><path d="M237.251 290.016s45.374-45.275 117.756-83.184"/></g><path style="display:none"/></g></svg>