<svg xmlns="http://www.w3.org/2000/svg" width="500" height="500" style="width:100%;height:100%;transform:translate3d(0,0,0);content-visibility:visible" viewBox="0 0 500 500"><defs><clipPath id="a"><path d="M0 0h500v500H0z"/></clipPath></defs><g clip-path="url(#a)"><path fill="none" stroke="#07A889" stroke-linecap="round" stroke-linejoin="round" stroke-width="12.6" d="M-376.532 305.371a29.94 29.94 0 0 1-.056-1.828c0 16.07-13.027 29.098-29.097 29.098s-29.098-13.028-29.098-29.098c0 16.07-13.027 29.098-29.097 29.098s-29.098-13.028-29.098-29.098c0 16.07-13.027 29.098-29.097 29.098s-29.097-13.028-29.097-29.098c0 16.07-13.028 29.098-29.098 29.098s-29.097-13.028-29.097-29.098" style="display:block" transform="translate(799.5 45)"/><path fill="none" stroke="#07A889" stroke-linecap="round" stroke-linejoin="round" stroke-width="12.6" d="M-434.783 303.543s0 0 0 0c0 16.07-13.027 29.098-29.097 29.098s-29.098-13.028-29.098-29.098c0 16.07-13.027 29.098-29.097 29.098s-29.097-13.028-29.097-29.098c0 16.07-13.028 29.098-29.098 29.098s-29.097-13.028-29.097-29.098" style="display:block" transform="translate(858 -61.5)"/><path fill="none" stroke="#07A889" stroke-linecap="round" stroke-linejoin="round" stroke-width="12.6" d="M-318.167 307.191a29.477 29.477 0 0 1-.226-3.648c0 16.07-13.027 29.098-29.097 29.098s-29.098-13.028-29.098-29.098c0 16.07-13.027 29.098-29.097 29.098s-29.098-13.028-29.098-29.098c0 16.07-13.027 29.098-29.097 29.098s-29.098-13.028-29.098-29.098c0 16.07-13.027 29.098-29.097 29.098a29.02 29.02 0 0 1-10.714-2.036" style="display:block" transform="translate(741.5 -8)"/><g fill="none" stroke="#121330" stroke-linecap="round" stroke-linejoin="round" stroke-width="12.6" style="display:block"><path d="M76.441 202.014h78.789v173.462"/><path d="M128.543 202.014v-33.359c0-25.792 20.91-46.701 46.702-46.701 0 0 0 0 0 0 25.792 0 46.701 20.909 46.701 46.701v81.862a46.703 46.703 0 0 1-12.33 31.617l-54.386 59.123"/></g><g class="com" style="display:none"><path/><path/><path/><path/><path/><path/><path/><path/><path/><path/><path/><path/></g></g></svg>