<svg xmlns="http://www.w3.org/2000/svg" width="500" height="500" style="width:100%;height:100%;transform:translate3d(0,0,0);content-visibility:visible" viewBox="0 0 500 500"><defs><clipPath id="a"><path d="M0 0h500v500H0z"/></clipPath></defs><g clip-path="url(#a)"><path fill="none" stroke="#121330" stroke-linecap="round" stroke-linejoin="round" stroke-width="12.6" d="M0-165c-91.127 0-165 73.873-165 165S-91.127 165 0 165h165V0c0-91.127-73.873-165-165-165z" style="display:block" transform="translate(250 250)"/><g style="display:block"><path fill="none" stroke="#07A889" stroke-linecap="round" stroke-linejoin="round" stroke-width="12.6" d="M223.501 181.668s9.168-14.022 30.667-14.022c18.346 0 36.589 15.479 36.589 37.818 0 25.962-24.836 37.027-36.588 49.325-11.411 11.942-9.679 29.289-9.359 31.798"/><path fill="#07A889" d="M257.129 329.032c0 6.333-5.133 11.466-11.466 11.466-6.333 0-11.466-5.133-11.466-11.466 0-6.333 5.133-11.466 11.466-11.466 6.333 0 11.466 5.133 11.466 11.466z"/></g><g class="com" style="display:none"><path/><path/><path/><path/><path/><path/><path/><path/><path/><path/><path/><path/></g></g></svg>