<svg xmlns="http://www.w3.org/2000/svg" width="500" height="500" style="width:100%;height:100%;transform:translate3d(0,0,0);content-visibility:visible" viewBox="0 0 500 500"><defs><clipPath id="b"><path d="M0 0h500v500H0z"/></clipPath><path id="a" fill="red" d="M-119.75 26.633c6.85-7.76 8.77-4.37 20.48-14.05 6.13-5.06 11.33-13.82 20.09-19.01 7.33-4.35 17.3-4.9 26.35-8.39 8.11-3.13 15.81-9.57 25.22-11.34 8.57-1.62 18.03 1.42 27.61 1.42 9.58 0 19.04-3.04 27.61-1.42 9.41 1.77 17.1 8.21 25.22 11.34 9.05 3.49 19.01 4.04 26.35 8.38 8.76 5.2 13.96 13.96 20.09 19.02 11.72 9.68 13.63 6.29 20.48 14.05" style="display:block" transform="translate(250 303.426)"/><mask id="c" mask-type="alpha"><use xmlns:ns1="http://www.w3.org/1999/xlink" ns1:href="#a"/></mask></defs><g clip-path="url(#b)"><path fill="none" stroke="#121330" stroke-linecap="round" stroke-linejoin="round" stroke-width="11.97" d="M130.25 330.059c6.85-7.76 8.77-4.37 20.48-14.05 6.13-5.06 11.33-13.82 20.09-19.01 7.33-4.35 17.3-4.9 26.35-8.39 8.11-3.13 15.81-9.57 25.22-11.34 8.57-1.62 18.03 1.42 27.61 1.42 9.58 0 19.04-3.04 27.61-1.42 9.41 1.77 17.1 8.21 25.22 11.34 9.05 3.49 19.01 4.04 26.35 8.38 8.76 5.2 13.96 13.96 20.09 19.02 11.72 9.68 13.63 6.29 20.48 14.05m67.056.001-80.06 40.03H143.254l-80.06-40.03h373.612zm-80.06 40.03L335.688 410H164.312l-21.058-39.91" style="display:block"/><g mask="url(#c)" style="display:block"><path fill="none" stroke="#121330" stroke-linecap="round" stroke-linejoin="round" stroke-width="11.97" d="m236.445 298.57-13.343 13.343m41.585-13.343 13.343 13.343m44.816-17.212-13.343 13.344m-132.876-13.344 13.344 13.344M47.945 298.57l-13.343 13.343m41.585-13.343 13.343 13.343m44.816-17.212-13.343 13.344m-132.876-13.344 13.344 13.344"/></g><path fill="none" stroke="#07A889" stroke-linecap="round" stroke-linejoin="round" stroke-width="11.97" d="M12.143 12.142C3.405 20.88-9.093 23.541-20.125 20.131c-3.418-11.04-.759-23.539 7.979-32.277s21.237-11.397 32.277-7.979c3.41 11.032.75 23.529-7.988 32.267z" style="display:block" transform="translate(282.263 228.546)"/><path fill="none" stroke="#07A889" stroke-linecap="round" stroke-linejoin="round" stroke-width="11.97" d="M-9.193 9.193c6.616 6.616 16.078 8.63 24.43 6.048 2.588-8.359.574-17.821-6.042-24.437s-16.077-8.629-24.436-6.041c-2.582 8.352-.568 17.814 6.048 24.43z" style="display:block" transform="translate(222.499 233.785)"/><path fill="none" stroke="#07A889" stroke-linecap="round" stroke-linejoin="round" stroke-width="11.97" d="M3.141-147.571c.018.394.027.803.027 1.229v-.434c0 10.777-6 10.777-6 21.554 0 10.778 6 10.778 6 21.556s-6 10.779-6 21.557" style="display:block" transform="translate(249.725 240)"/><path fill="none" stroke="#07A889" stroke-linecap="round" stroke-linejoin="round" stroke-width="11.97" d="M3.141-147.571c.018.394.027.803.027 1.229v-.434c0 10.777-6 10.777-6 21.554 0 10.778 6 10.778 6 21.556s-6 10.779-6 21.557" style="display:block" transform="translate(299.725 258)"/><path fill="none" stroke="#07A889" stroke-linecap="round" stroke-linejoin="round" stroke-width="11.97" d="M3.141-147.571c.018.394.027.803.027 1.229v-.434c0 10.777-6 10.777-6 21.554 0 10.778 6 10.778 6 21.556s-6 10.779-6 21.557" style="display:block" transform="translate(198.725 258)"/><g class="com" style="display:none"><path/><path/><path/><path/><path/><path/><path/><path/><path/><path/><path/><path/></g></g></svg>