<svg xmlns="http://www.w3.org/2000/svg" width="500" height="500" style="width:100%;height:100%;transform:translate3d(0,0,0);content-visibility:visible" viewBox="0 0 500 500"><defs><clipPath id="a"><path d="M0 0h500v500H0z"/></clipPath></defs><g clip-path="url(#a)"><path fill="none" stroke="#121330" stroke-width="2.8" d="M24.5 5.86V18c0 13.522-10.978 24.5-24.5 24.5S-24.5 31.522-24.5 18v-36c0-13.522 10.978-24.5 24.5-24.5S24.5-31.522 24.5-18V5.86" style="display:block" transform="matrix(4.5 0 0 4.5 250 250)"/><g style="display:block"><path fill="#07A889" d="M250 151c9.934 0 18 8.066 18 18s-8.066 18-18 18-18-8.066-18-18 8.066-18 18-18z"/><path fill="none" stroke="#07A889" stroke-width="12.6" d="M250 151c9.934 0 18 8.066 18 18s-8.066 18-18 18-18-8.066-18-18 8.066-18 18-18z"/></g><path style="display:none"/></g></svg>