<svg xmlns="http://www.w3.org/2000/svg" width="500" height="500" style="width:100%;height:100%;transform:translate3d(0,0,0);content-visibility:visible" viewBox="0 0 500 500"><defs><clipPath id="d"><path d="M0 0h500v500H0z"/></clipPath><clipPath id="g"><path d="M0 0h500v500H0z"/></clipPath><clipPath id="c"><path d="M0 0h500v500H0z"/></clipPath><clipPath id="e"><path d="M0 0h500v500H0z"/></clipPath><filter id="a" width="100%" height="100%" x="0%" y="0%" filterUnits="objectBoundingBox"><feComponentTransfer in="SourceGraphic"><feFuncA tableValues="1.0 0.0" type="table"/></feComponentTransfer></filter><mask id="f" mask-type="alpha"><g filter="url(#a)"><path fill="#fff" d="M0 0h500v500H0z" opacity="0"/><use xmlns:ns1="http://www.w3.org/1999/xlink" ns1:href="#b"/></g></mask><g id="b" clip-path="url(#c)" style="display:block"><g style="display:block"><path fill-opacity="0" stroke="#08A88A" stroke-width="0" d="M148.48 174.148c13.4 0 24.28 10.88 24.28 24.281 0 13.401-10.88 24.282-24.28 24.282-13.401 0-24.282-10.88-24.282-24.282 0-13.4 10.88-24.28 24.281-24.28z"/><path fill="#08A88A" d="M148.48 174.148c13.4 0 24.28 10.88 24.28 24.281 0 13.401-10.88 24.282-24.28 24.282-13.401 0-24.282-10.88-24.282-24.282 0-13.4 10.88-24.28 24.281-24.28z"/></g><g style="display:block"><path fill-opacity="0" stroke="#08A88A" stroke-width="0" d="M248.38 276.823c13.4 0 24.28 10.88 24.28 24.281 0 13.401-10.88 24.282-24.28 24.282-13.401 0-24.282-10.88-24.282-24.282 0-13.4 10.88-24.28 24.281-24.28z"/><path fill="#08A88A" d="M248.38 276.823c13.4 0 24.28 10.88 24.28 24.281 0 13.401-10.88 24.282-24.28 24.282-13.401 0-24.282-10.88-24.282-24.282 0-13.4 10.88-24.28 24.281-24.28z"/></g><g style="display:block"><path fill-opacity="0" stroke="#08A88A" stroke-width="0" d="M348.28 249.998c13.4 0 24.28 10.88 24.28 24.281 0 13.401-10.88 24.282-24.28 24.282-13.401 0-24.282-10.88-24.282-24.282 0-13.4 10.88-24.28 24.281-24.28z"/><path fill="#08A88A" d="M348.28 249.998c13.4 0 24.28 10.88 24.28 24.281 0 13.401-10.88 24.282-24.28 24.282-13.401 0-24.282-10.88-24.282-24.282 0-13.4 10.88-24.28 24.281-24.28z"/></g></g></defs><g clip-path="url(#d)"><g fill="none" stroke="#121330" stroke-linecap="round" stroke-linejoin="round" stroke-width="3.5" clip-path="url(#e)" mask="url(#f)" style="display:block"><path d="M-27.516-35.25V35.5" style="display:block" transform="matrix(3.7 0 0 3.7 250 250)"/><path d="M-27.516-35.25V35.5" style="display:block" transform="matrix(3.7 0 0 3.7 349.9 250)"/><path d="M-27.516-35.25V35.5" style="display:block" transform="matrix(3.7 0 0 3.7 449.8 250)"/></g><g fill="none" stroke="#07A889" stroke-width="3.5" clip-path="url(#g)" style="display:block"><path d="M0-6.563A6.566 6.566 0 0 1 6.563 0 6.566 6.566 0 0 1 0 6.563 6.566 6.566 0 0 1-6.563 0 6.566 6.566 0 0 1 0-6.563z" style="display:block" transform="matrix(3.7 0 0 3.7 148.48 198.43)"/><path d="M0-6.563A6.566 6.566 0 0 1 6.563 0 6.566 6.566 0 0 1 0 6.563 6.566 6.566 0 0 1-6.563 0 6.566 6.566 0 0 1 0-6.563z" style="display:block" transform="matrix(3.7 0 0 3.7 248.38 301.104)"/><path d="M0-6.563A6.566 6.566 0 0 1 6.563 0 6.566 6.566 0 0 1 0 6.563 6.566 6.566 0 0 1-6.563 0 6.566 6.566 0 0 1 0-6.563z" style="display:block" transform="matrix(3.7 0 0 3.7 348.28 274.28)"/></g><g class="com" style="display:none"><path/><path/><path/><path/><path/><path/><path/><path/><path/><path/><path/><path/></g></g></svg>