<svg xmlns="http://www.w3.org/2000/svg" width="500" height="500" style="width:100%;height:100%;transform:translate3d(0,0,0);content-visibility:visible" viewBox="0 0 500 500"><defs><clipPath id="a"><path d="M0 0h500v500H0z"/></clipPath><clipPath id="d"><path d="M0 0h500v500H0z"/></clipPath><clipPath id="c"><path d="M0 0h500v500H0z"/></clipPath><clipPath id="b"><path d="M0 0h500v500H0z"/></clipPath></defs><g clip-path="url(#a)"><g clip-path="url(#b)" opacity="0" style="display:block"><path fill="none" style="display:none"/><path fill="none" style="display:none"/><path fill="none" style="display:none"/><path fill="none" style="display:none"/><path fill="none" style="display:none"/><path fill="none" style="display:none"/><g opacity=".5" style="display:block"><path fill="none" stroke="#07A889" stroke-linecap="round" stroke-linejoin="round" stroke-width="12.76" d="M74.44 75.882c-33.841 33.841-33.841 88.711 0 122.552" opacity="1"/></g><path fill="none" stroke="#07A889" stroke-linecap="round" stroke-linejoin="round" stroke-width="3.43" d="M37.388-37.789c3.96 3.96 3.96 10.381 0 14.341" opacity="1" style="display:block" transform="matrix(-3.72 0 0 3.72 255.58 249.999)"/><path fill="none" style="display:none"/><path fill="none" style="display:none"/><path fill="none" style="display:none"/><path fill="none" style="display:none"/><path fill="none" style="display:none"/><path fill="none" style="display:none"/><g opacity=".5" style="display:block"><path fill="none" stroke="#07A889" stroke-linecap="round" stroke-linejoin="round" stroke-width="12.76" d="M427.832 75.882c33.841 33.841 33.841 88.711 0 122.552" opacity="1"/></g><path fill="none" stroke="#07A889" stroke-linecap="round" stroke-linejoin="round" stroke-width="3.43" d="M37.388-37.789c3.96 3.96 3.96 10.381 0 14.341" opacity="1" style="display:block" transform="matrix(3.72 0 0 3.72 246.693 249.999)"/><path fill="none" stroke="#121330" stroke-linecap="round" stroke-linejoin="round" stroke-width="3.43" d="M24.55 49.91h-49.1a3.55 3.55 0 0 1-3.55-3.55v-92.81A3.55 3.55 0 0 1-24.55-50h49.1a3.55 3.55 0 0 1 3.55 3.55v92.81a3.55 3.55 0 0 1-3.55 3.55z" opacity="1" style="display:block" transform="matrix(3.72 0 0 3.72 251.86 250)"/><path fill="none" stroke="#07A889" stroke-linecap="round" stroke-linejoin="round" stroke-width="3.43" d="M-13.062 45.281h26.124" opacity="1" style="display:block" transform="matrix(3.72 0 0 3.72 251.86 245.35)"/><g opacity="1" style="display:block"><path fill="#121330" d="M191.566 64h4.208c5.702 0 10.65 6.26 11.933 11.818v-2.325c.897 3.88 4.349 8.95 8.33 8.95h71.647a8.547 8.547 0 0 0 8.329-6.625v-2.325a12.248 12.248 0 0 1 11.933-9.494h4.985"/><path fill="none" d="M191.566 64h4.208c5.702 0 10.65 6.26 11.933 11.818v-2.325c.897 3.88 4.349 8.95 8.33 8.95h71.647a8.547 8.547 0 0 0 8.329-6.625v-2.325a12.248 12.248 0 0 1 11.933-9.494h4.985" opacity="1"/></g></g><g clip-path="url(#c)" opacity="0" style="display:block"><path fill="none" style="display:none"/><path fill="none" style="display:none"/><path fill="none" style="display:none"/><path fill="none" style="display:none"/><path fill="none" style="display:none"/><path fill="none" style="display:none"/><path fill="none" stroke="#121330" stroke-linecap="round" stroke-linejoin="round" stroke-width="3.43" d="M24.55 49.91h-49.1a3.55 3.55 0 0 1-3.55-3.55v-92.81A3.55 3.55 0 0 1-24.55-50h49.1a3.55 3.55 0 0 1 3.55 3.55v92.81a3.55 3.55 0 0 1-3.55 3.55z" opacity="1" style="display:block" transform="matrix(3.72 0 0 3.72 251.86 250)"/><path fill="none" stroke="#07A889" stroke-linecap="round" stroke-linejoin="round" stroke-width="3.43" d="M-13.062 45.281h26.124" opacity="1" style="display:block" transform="matrix(3.72 0 0 3.72 251.86 245.35)"/><g opacity="1" style="display:block"><path fill="#121330" d="M191.566 64h4.208c5.702 0 10.65 6.26 11.933 11.818v-2.325c.897 3.88 4.349 8.95 8.33 8.95h71.647a8.547 8.547 0 0 0 8.329-6.625v-2.325a12.248 12.248 0 0 1 11.933-9.494h4.985"/><path fill="none" d="M191.566 64h4.208c5.702 0 10.65 6.26 11.933 11.818v-2.325c.897 3.88 4.349 8.95 8.33 8.95h71.647a8.547 8.547 0 0 0 8.329-6.625v-2.325a12.248 12.248 0 0 1 11.933-9.494h4.985" opacity="1"/></g></g><g clip-path="url(#d)" style="display:block"><path fill="none" style="display:none"/><path fill="none" style="display:none"/><path fill="none" style="display:none"/><path fill="none" style="display:none"/><path fill="none" stroke="#121330" stroke-linecap="round" stroke-linejoin="round" stroke-width="3.43" d="M24.55 49.91h-49.1a3.55 3.55 0 0 1-3.55-3.55v-92.81A3.55 3.55 0 0 1-24.55-50h49.1a3.55 3.55 0 0 1 3.55 3.55v92.81a3.55 3.55 0 0 1-3.55 3.55z" style="display:block" transform="matrix(3.72 0 0 3.72 251.86 250)"/><path fill="none" stroke="#07A889" stroke-linecap="round" stroke-linejoin="round" stroke-width="3.43" d="M-13.062 45.281h26.124" style="display:block" transform="matrix(3.72 0 0 3.72 251.86 245.35)"/><g style="display:block"><path fill="#121330" d="M191.566 64h4.208c5.702 0 10.65 6.26 11.933 11.818v-2.325c.897 3.88 4.349 8.95 8.33 8.95h71.647a8.547 8.547 0 0 0 8.329-6.625v-2.325a12.248 12.248 0 0 1 11.933-9.494h4.985"/><path fill="none" d="M191.566 64h4.208c5.702 0 10.65 6.26 11.933 11.818v-2.325c.897 3.88 4.349 8.95 8.33 8.95h71.647a8.547 8.547 0 0 0 8.329-6.625v-2.325a12.248 12.248 0 0 1 11.933-9.494h4.985"/></g></g><g class="com" style="display:none"><path/><path/><path/><path/><path/><path/><path/><path/><path/><path/><path/><path/></g></g></svg>