<svg xmlns="http://www.w3.org/2000/svg" width="500" height="500" style="width:100%;height:100%;transform:translate3d(0,0,0);content-visibility:visible" viewBox="0 0 500 500"><defs><filter id="a" width="100%" height="100%" x="0%" y="0%" filterUnits="objectBoundingBox"><feComponentTransfer in="SourceGraphic"><feFuncA tableValues="1.0 0.0" type="table"/></feComponentTransfer></filter><filter id="c" width="100%" height="100%" x="0%" y="0%" filterUnits="objectBoundingBox"><feComponentTransfer in="SourceGraphic"><feFuncA tableValues="1.0 0.0" type="table"/></feComponentTransfer></filter><filter id="e" width="100%" height="100%" x="0%" y="0%" filterUnits="objectBoundingBox"><feComponentTransfer in="SourceGraphic"><feFuncA tableValues="1.0 0.0" type="table"/></feComponentTransfer></filter><mask id="k" mask-type="alpha"><g filter="url(#a)"><path fill="#fff" d="M0 0h500v500H0z" opacity="0"/><use xmlns:ns1="http://www.w3.org/1999/xlink" ns1:href="#b"/></g></mask><mask id="j" mask-type="alpha"><g filter="url(#c)"><path fill="#fff" d="M0 0h500v500H0z" opacity="0"/><use xmlns:ns2="http://www.w3.org/1999/xlink" ns2:href="#d"/></g></mask><mask id="i" mask-type="alpha"><g filter="url(#e)"><path fill="#fff" d="M0 0h500v500H0z" opacity="0"/><use xmlns:ns3="http://www.w3.org/1999/xlink" ns3:href="#f"/></g></mask><g id="b" style="display:block"><path fill="red" d="m164.39 328.18-43.74 29.57m221.63-29.57 43.74 29.57m19.19-134.53c19.91 0 34.86 18.2 30.98 37.74l-8.21 41.37c-2.88 14.44-15.55 24.85-30.27 24.85H102.29c-14.72 0-27.39-10.41-30.27-24.85l-8.21-41.37c-3.88-19.54 11.07-37.74 30.98-37.74l19.94 49.48c3.65 9.05 13.35 14.15 22.85 11.91 53.14-12.49 177.01-12.8 225.03-.93 9.54 2.36 19.35-2.76 23.02-11.88l19.58-48.58z"/><path fill-opacity="0" stroke="#07A889" stroke-linecap="round" stroke-linejoin="round" stroke-width="0" d="m164.388 328.178-43.743 29.568m221.631-29.568 43.744 29.568"/><path fill-opacity="0" stroke="#121330" stroke-linecap="round" stroke-linejoin="round" stroke-width="0" d="M405.205 223.217s0 0 0 0c19.916 0 34.862 18.204 30.986 37.739l-8.209 41.371c-2.877 14.447-15.548 24.852-30.273 24.852H102.291c-14.725 0-27.396-10.405-30.273-24.852l-8.209-41.371c-3.876-19.535 11.07-37.739 30.986-37.739 0 0 0 0 0 0l19.932 49.48c3.649 9.058 13.351 14.149 22.857 11.914 53.134-12.49 177.006-12.8 225.021-.932 9.543 2.359 19.355-2.758 23.028-11.876l19.572-48.586z"/></g><g id="d" style="display:block"><path fill="red" d="m164.39 328.18-43.74 29.57m221.63-29.57 43.74 29.57m19.19-134.53c19.91 0 34.86 18.2 30.98 37.74l-8.21 41.37c-2.88 14.44-15.55 24.85-30.27 24.85H102.29c-14.72 0-27.39-10.41-30.27-24.85l-8.21-41.37c-3.88-19.54 11.07-37.74 30.98-37.74l19.94 49.48c3.65 9.05 13.35 14.15 22.85 11.91 53.14-12.49 177.01-12.8 225.03-.93 9.54 2.36 19.35-2.76 23.02-11.88l19.58-48.58z"/><path fill-opacity="0" stroke="#07A889" stroke-linecap="round" stroke-linejoin="round" stroke-width="0" d="m164.388 328.178-43.743 29.568m221.631-29.568 43.744 29.568"/><path fill-opacity="0" stroke="#121330" stroke-linecap="round" stroke-linejoin="round" stroke-width="0" d="M405.205 223.217s0 0 0 0c19.916 0 34.862 18.204 30.986 37.739l-8.209 41.371c-2.877 14.447-15.548 24.852-30.273 24.852H102.291c-14.725 0-27.396-10.405-30.273-24.852l-8.209-41.371c-3.876-19.535 11.07-37.739 30.986-37.739 0 0 0 0 0 0l19.932 49.48c3.649 9.058 13.351 14.149 22.857 11.914 53.134-12.49 177.006-12.8 225.021-.932 9.543 2.359 19.355-2.758 23.028-11.876l19.572-48.586z"/></g><g id="f" clip-path="url(#g)" style="display:block"><g style="display:block"><path fill-opacity="0" stroke="#07A889" stroke-linecap="round" stroke-linejoin="round" stroke-width="0" d="m404.91 272.434-40.798 21.17a8.331 8.331 0 0 1-11.232-3.558l-21.17-40.798a8.331 8.331 0 0 1 3.558-11.232l40.798-21.17a8.331 8.331 0 0 1 11.232 3.558l21.17 40.798a8.331 8.331 0 0 1-3.558 11.232z"/><path fill="red" d="m404.91 272.434-40.798 21.17a8.331 8.331 0 0 1-11.232-3.558l-21.17-40.798a8.331 8.331 0 0 1 3.558-11.232l40.798-21.17a8.331 8.331 0 0 1 11.232 3.558l21.17 40.798a8.331 8.331 0 0 1-3.558 11.232z"/></g><g style="display:block"><path fill-opacity="0" stroke="#07A889" stroke-linecap="round" stroke-linejoin="round" stroke-width="0" d="m104.461 272.434 40.798 21.17a8.331 8.331 0 0 0 11.232-3.558l21.17-40.798a8.331 8.331 0 0 0-3.558-11.232l-40.798-21.17a8.331 8.331 0 0 0-11.232 3.558l-21.17 40.798a8.331 8.331 0 0 0 3.558 11.232z"/><path fill="red" d="m104.461 272.434 40.798 21.17a8.331 8.331 0 0 0 11.232-3.558l21.17-40.798a8.331 8.331 0 0 0-3.558-11.232l-40.798-21.17a8.331 8.331 0 0 0-11.232 3.558l-21.17 40.798a8.331 8.331 0 0 0 3.558 11.232z"/></g></g><clipPath id="h"><path d="M0 0h500v500H0z"/></clipPath><clipPath id="g"><path d="M0 0h500v500H0z"/></clipPath></defs><g clip-path="url(#h)"><g mask="url(#i)" style="display:block"><path fill="none" stroke="#121330" stroke-linecap="round" stroke-linejoin="round" stroke-width="12.04" d="M94.796 223.217s0 0 0 0v-9.646c0-19.79 16.043-35.834 35.833-35.834h238.732c19.796 0 35.844 16.049 35.844 35.845v9.635s0 0 0 0m-210.68 1.384s0 0 0 0m55.475 0s0 0 0 0m55.476 0s0 0 0 0"/></g><g mask="url(#j)" style="display:block"><path fill="none" stroke="#07A889" stroke-linecap="round" stroke-linejoin="round" stroke-width="12.04" d="m404.91 272.434-40.798 21.17a8.331 8.331 0 0 1-11.232-3.558l-21.17-40.798a8.331 8.331 0 0 1 3.558-11.232l40.798-21.17a8.331 8.331 0 0 1 11.232 3.558l21.17 40.798a8.331 8.331 0 0 1-3.558 11.232z"/></g><g mask="url(#k)" style="display:block"><path fill="none" stroke="#07A889" stroke-linecap="round" stroke-linejoin="round" stroke-width="12.04" d="m104.461 272.434 40.798 21.17a8.331 8.331 0 0 0 11.232-3.558l21.17-40.798a8.331 8.331 0 0 0-3.558-11.232l-40.798-21.17a8.331 8.331 0 0 0-11.232 3.558l-21.17 40.798a8.331 8.331 0 0 0 3.558 11.232z"/></g><g fill="none" stroke-linecap="round" stroke-linejoin="round" stroke-width="12.04" style="display:block"><path stroke="#07A889" d="m164.388 328.178-43.743 29.568m221.631-29.568 43.744 29.568"/><path stroke="#121330" d="M405.205 223.217s0 0 0 0c19.916 0 34.862 18.204 30.986 37.739l-8.209 41.371c-2.877 14.447-15.548 24.852-30.273 24.852H102.291c-14.725 0-27.396-10.405-30.273-24.852l-8.209-41.371c-3.876-19.535 11.07-37.739 30.986-37.739 0 0 0 0 0 0l19.932 49.48c3.649 9.058 13.351 14.149 22.857 11.914 53.134-12.49 177.006-12.8 225.021-.932 9.543 2.359 19.355-2.758 23.028-11.876l19.572-48.586z"/></g><g class="com" style="display:none"><path/><path/><path/><path/><path/><path/><path/><path/><path/><path/><path/><path/></g></g></svg>