<svg xmlns="http://www.w3.org/2000/svg" width="500" height="500" style="width:100%;height:100%;transform:translate3d(0,0,0);content-visibility:visible" viewBox="0 0 500 500"><defs><clipPath id="h"><path d="M0 0h500v500H0z"/></clipPath><clipPath id="g"><path d="M0 0h500v500H0z"/></clipPath><clipPath id="i"><path d="M0 0h500v500H0z"/></clipPath><filter id="a" width="100%" height="100%" x="0%" y="0%" filterUnits="objectBoundingBox"><feComponentTransfer in="SourceGraphic"><feFuncA tableValues="1.0 0.0" type="table"/></feComponentTransfer></filter><filter id="c" width="100%" height="100%" x="0%" y="0%" filterUnits="objectBoundingBox"><feComponentTransfer in="SourceGraphic"><feFuncA tableValues="1.0 0.0" type="table"/></feComponentTransfer></filter><filter id="e" width="100%" height="100%" x="0%" y="0%" filterUnits="objectBoundingBox"><feComponentTransfer in="SourceGraphic"><feFuncA tableValues="1.0 0.0" type="table"/></feComponentTransfer></filter><mask id="l" mask-type="alpha"><g filter="url(#a)"><path fill="#fff" d="M0 0h500v500H0z" opacity="0"/><use xmlns:ns1="http://www.w3.org/1999/xlink" ns1:href="#b"/></g></mask><mask id="k" mask-type="alpha"><g filter="url(#c)"><path fill="#fff" d="M0 0h500v500H0z" opacity="0"/><use xmlns:ns2="http://www.w3.org/1999/xlink" ns2:href="#d"/></g></mask><mask id="j" mask-type="alpha"><g filter="url(#e)"><path fill="#fff" d="M0 0h500v500H0z" opacity="0"/><use xmlns:ns3="http://www.w3.org/1999/xlink" ns3:href="#f"/></g></mask><path id="b" fill="#FFF" d="M59.672 0c0 45.441-23.818 85.334-59.672 107.864C-35.854 85.334-59.672 45.441-59.672 0c0-45.458 23.818-85.35 59.672-107.864C35.854-85.35 59.672-45.458 59.672 0z" style="display:block" transform="translate(250 226.431)"/><path id="d" fill="#FFF" d="M59.672 0c0 45.441-23.818 85.334-59.672 107.864C-35.854 85.334-59.672 45.441-59.672 0c0-45.458 23.818-85.35 59.672-107.864C35.854-85.35 59.672-45.458 59.672 0z" style="display:block" transform="translate(250 226.431)"/><g id="f" clip-path="url(#g)" style="display:block"><g style="display:block"><path fill="#FFF" d="M358.985 307.993c-30.819 27.287-72.177 35.089-108.988 24.301-6.25-37.846 6.504-77.956 37.323-105.243 30.83-27.297 72.189-35.098 108.989-24.301 6.261 37.837-6.494 77.946-37.324 105.243z"/><path fill-opacity="0" stroke="#08A88A" stroke-linecap="round" stroke-linejoin="round" stroke-width="0" d="M358.985 307.993c-30.819 27.287-72.177 35.089-108.988 24.301-6.25-37.846 6.504-77.956 37.323-105.243 30.83-27.297 72.189-35.098 108.989-24.301 6.261 37.837-6.494 77.946-37.324 105.243z"/></g><g style="display:block"><path fill="#FFF" d="M141.011 307.994c30.819 27.287 72.177 35.089 108.988 24.301 6.25-37.846-6.504-77.956-37.323-105.243-30.83-27.297-72.189-35.098-108.989-24.301-6.261 37.837 6.494 77.946 37.324 105.243z"/><path fill-opacity="0" stroke="#08A88A" stroke-linecap="round" stroke-linejoin="round" stroke-width="0" d="M141.011 307.994c30.819 27.287 72.177 35.089 108.988 24.301 6.25-37.846-6.504-77.956-37.323-105.243-30.83-27.297-72.189-35.098-108.989-24.301-6.261 37.837 6.494 77.946 37.324 105.243z"/></g><g style="display:block"><path fill="#FFF" d="M309.672 226.431c0 45.441-23.818 85.334-59.672 107.864-35.854-22.53-59.672-62.423-59.672-107.864 0-45.458 23.818-85.35 59.672-107.864 35.854 22.514 59.672 62.406 59.672 107.864z"/><path fill-opacity="0" stroke="#121331" stroke-linecap="round" stroke-linejoin="round" stroke-width="0" d="M309.672 226.431c0 45.441-23.818 85.334-59.672 107.864-35.854-22.53-59.672-62.423-59.672-107.864 0-45.458 23.818-85.35 59.672-107.864 35.854 22.514 59.672 62.406 59.672 107.864z"/></g></g></defs><g clip-path="url(#h)"><g fill="none" stroke="#121330" stroke-linecap="round" stroke-linejoin="round" stroke-width="11.97" clip-path="url(#i)" mask="url(#j)" style="display:block"><path d="M-2.472 46.143C-40.438 44.11-72.781 23.907-90.12-4.827c20.308-26.717 54.625-43.349 92.591-41.316C40.45-44.109 72.795-23.906 90.12 4.827 69.825 31.545 35.507 48.177-2.472 46.143z" style="display:block" transform="translate(340.122 337.122)"/><path d="M2.472 46.143C40.438 44.11 72.781 23.907 90.12-4.827 69.812-31.544 35.495-48.176-2.471-46.143-40.45-44.109-72.795-23.906-90.12 4.827c20.295 26.718 54.613 43.35 92.592 41.316z" style="display:block" transform="translate(159.878 337.121)"/></g><g mask="url(#k)" style="display:block"><path fill="none" stroke="#07A889" stroke-linecap="round" stroke-linejoin="round" stroke-width="11.97" d="M358.985 307.993c-30.819 27.287-72.177 35.089-108.988 24.301-6.25-37.846 6.504-77.956 37.323-105.243 30.83-27.297 72.189-35.098 108.989-24.301 6.261 37.837-6.494 77.946-37.324 105.243z"/></g><g mask="url(#l)" style="display:block"><path fill="none" stroke="#07A889" stroke-linecap="round" stroke-linejoin="round" stroke-width="11.97" d="M141.011 307.994c30.819 27.287 72.177 35.089 108.988 24.301 6.25-37.846-6.504-77.956-37.323-105.243-30.83-27.297-72.189-35.098-108.989-24.301-6.261 37.837 6.494 77.946 37.324 105.243z"/></g><path fill="none" stroke="#121330" stroke-linecap="round" stroke-linejoin="round" stroke-width="11.97" d="M59.672 0c0 45.441-23.818 85.334-59.672 107.864C-35.854 85.334-59.672 45.441-59.672 0c0-45.458 23.818-85.35 59.672-107.864C35.854-85.35 59.672-45.458 59.672 0z" style="display:block" transform="translate(250 226.431)"/><g class="com" style="display:none"><path/><path/><path/><path/><path/><path/><path/><path/><path/><path/><path/><path/></g></g></svg>