<svg xmlns="http://www.w3.org/2000/svg" viewBox="0 0 56 56">
    <path d="M11.97 52.3c.96.72 2.18.46 3.63-.6L28 42.62l12.42 9.1c1.46 1.05 2.65 1.3 3.63.58.97-.72 1.18-1.92.6-3.63l-4.9-14.58 12.5-9c1.46-1.03 2.05-2.1 1.67-3.28-.37-1.12-1.47-1.69-3.28-1.66l-15.35.09-4.66-14.65c-.57-1.73-1.41-2.6-2.63-2.6-1.2 0-2.04.87-2.6 2.6l-4.67 14.65-15.35-.1c-1.8-.02-2.9.55-3.28 1.67-.4 1.17.21 2.25 1.67 3.28l12.51 9-4.9 14.58c-.58 1.71-.37 2.9.59 3.63ZM28 38.57V8.68c.07 0 .12.04.14.18l4.08 13.57c.28.96.91 1.36 1.87 1.34l14.18-.26c.14 0 .2 0 .21.07.03.07-.02.12-.11.19L36.7 31.83c-.82.56-1.01 1.3-.68 2.2l4.66 13.41c.02.14.05.17 0 .21-.05.07-.12.03-.21-.04L29.2 39a1.82 1.82 0 0 0-1.2-.43Z"/>
  </svg>