<svg xmlns="http://www.w3.org/2000/svg" width="500" height="500" style="width:100%;height:100%;transform:translate3d(0,0,0);content-visibility:visible" viewBox="0 0 500 500"><defs><clipPath id="a"><path d="M0 0h500v500H0z"/></clipPath></defs><g clip-path="url(#a)"><g fill="none" stroke-linecap="round" stroke-linejoin="round" stroke-width="12.04" style="display:block"><path stroke="#121330" d="M165.63 157.59h170.58m0 209.87H165.63m203.01-209.87h18.53c12.68 0 22.95 10.28 22.95 22.95v163.97c0 12.67-10.27 22.95-22.95 22.95h-18.53m-235.45 0h-20.36c-12.68 0-22.95-10.28-22.95-22.95V180.54c0-12.67 10.27-22.95 22.95-22.95h20.36m80.199.008v-14.41c0-10.305 8.359-18.664 18.675-18.664h38.01c10.305 0 18.664 8.359 18.664 18.664v14.41"/><path stroke="#07A889" d="M133.193 375.476h32.437v-225.9h-32.437v225.9zm203.013 0h32.437v-225.9h-32.437v225.9zM288.738 239.5h-75.349v-36.217h75.349V239.5z"/></g><g class="com" style="display:none"><path/><path/><path/><path/><path/><path/><path/><path/><path/><path/><path/><path/></g></g></svg>