<svg xmlns="http://www.w3.org/2000/svg" width="500" height="500" style="width:100%;height:100%;transform:translate3d(0,0,0);content-visibility:visible" viewBox="0 0 500 500"><defs><clipPath id="a"><path d="M0 0h500v500H0z"/></clipPath></defs><g clip-path="url(#a)"><path fill="none" stroke="#07A889" stroke-linecap="round" stroke-linejoin="round" stroke-width="12.04" d="M50.098-83.914H-50.098c-6.496 0-11.763-5.267-11.763-11.763v-11.558H61.861v11.558c0 6.496-5.267 11.763-11.763 11.763zm62.507 0H73.624c-6.496 0-11.763-5.267-11.763-11.763v-11.558h62.506v11.558c0 6.496-5.266 11.763-11.762 11.763zm-186.229 0h-38.981c-6.496 0-11.762-5.267-11.762-11.763v-11.558h62.506v11.558c0 6.496-5.267 11.763-11.763 11.763zm-50.743-23.321s71.264-40.793 106.789-40.793h35.156c26.674 0 106.789 40.793 106.789 40.793M0-148.028v-11.197m61.861 51.99S41.241-127.476 0-148.028m-61.861 40.725S-41.241-127.544 0-148.096m0 64.182V83.914" style="display:block" transform="translate(213.633 261.329)"/><g fill="none" stroke="#121330" stroke-linecap="round" stroke-linejoin="round" stroke-width="12.04" style="display:block"><path d="m130.567 375.051-20.686 34.382m123.899-62.647v-15.55c0-7.49 6.07-13.56 13.56-13.56h39.16c8.68 0 16.73 4.55 21.21 11.99l10.3 17.12m37.69 62.65-20.69-34.39m-101.226.005v34.382"/><path d="m424.15 323.598-89.118 51.453H130.568s0 0 0 0c0-15.612 12.655-28.268 28.267-28.268h169.16l58.753-33.922c13.259-7.655 30.222-2.785 37.402 10.737 0 0 0 0 0 0z"/></g><g class="com" style="display:none"><path/><path/><path/><path/><path/><path/><path/><path/><path/><path/><path/><path/></g></g></svg>