<svg xmlns="http://www.w3.org/2000/svg" width="500" height="500" style="width:100%;height:100%;transform:translate3d(0,0,0);content-visibility:visible" viewBox="0 0 500 500"><defs><clipPath id="a"><path d="M0 0h500v500H0z"/></clipPath></defs><g clip-path="url(#a)"><path fill="none" style="display:none"/><path fill="none" stroke="#07A889" stroke-linecap="round" stroke-linejoin="round" stroke-width="12.04" d="M-18.456 0h37.255" style="display:block" transform="translate(387.268 253.274)"/><path fill="none" stroke="#07A889" stroke-linecap="round" stroke-linejoin="round" stroke-width="12.04" d="M-18.456 0h37.255" style="display:block" transform="rotate(-45 362.113 -340.837)"/><path fill="none" stroke="#07A889" stroke-linecap="round" stroke-linejoin="round" stroke-width="12.04" d="M-18.456 0h37.255" style="display:block" transform="rotate(-90 183.021 -66.997)"/><path fill="none" stroke="#07A889" stroke-linecap="round" stroke-linejoin="round" stroke-width="12.04" d="M-18.456 0h37.255" style="display:block" transform="rotate(-135 108.839 46.431)"/><path fill="none" stroke="#07A889" stroke-linecap="round" stroke-linejoin="round" stroke-width="12.04" d="M-18.456 0h37.255" style="display:block" transform="rotate(180 56.384 126.637)"/><path fill="none" stroke="#121330" stroke-linecap="round" stroke-linejoin="round" stroke-width="12.04" d="M124.564 9h-.02C93.408 9 93.408-9 62.272-9S31.136 9 0 9C-31.133 9-31.134-9-62.267-9-93.399-9-93.399 9-124.531 9c-31.134 0-31.133-18-62.267-18-31.128 0-31.135 17.992-62.25 18" style="display:block" transform="translate(311.806 335.952)"/><path fill="none" stroke="#121330" stroke-linecap="round" stroke-linejoin="round" stroke-width="12.04" d="M0 9s0 0 0 0C-31.133 9-31.134-9-62.267-9-93.399-9-93.399 9-124.531 9c-31.134 0-31.133-18-62.267-18-31.135 0-31.135 18-62.27 18-31.136 0-31.136-18-62.272-18s-31.136 18-62.272 18" style="display:block" transform="translate(436.806 385.952)"/><g fill="none" stroke-linecap="round" stroke-linejoin="round" stroke-width="12.04" style="display:block"><path stroke="#07A889" d="M324.371 291.948c16.432-31.583 11.392-71.432-15.118-97.931-32.721-32.732-85.785-32.732-118.506 0-26.51 26.499-31.55 66.348-15.118 97.931"/><path stroke="#121330" d="M432.306 291.95H68.334"/></g><g class="com" style="display:none"><path/><path/><path/><path/><path/><path/><path/><path/><path/><path/><path/><path/></g></g></svg>