<svg xmlns="http://www.w3.org/2000/svg" width="500" height="500" style="width:100%;height:100%;transform:translate3d(0,0,0);content-visibility:visible" viewBox="0 0 500 500"><defs><clipPath id="c"><path d="M0 0h500v500H0z"/></clipPath><clipPath id="d"><path d="M0 0h500v500H0z"/></clipPath><filter id="a" width="100%" height="100%" x="0%" y="0%" filterUnits="objectBoundingBox"><feComponentTransfer in="SourceGraphic"><feFuncA tableValues="1.0 0.0" type="table"/></feComponentTransfer></filter><path id="b" fill="red" d="M283.18 87.43c-102.91 44.6-124.61 212.38-107.86 317.15M283.58 87.53 254 115l-62 175-17 115 53.59 3.3c63.48-84.92 120.55-234.39 54.99-320.77z" style="display:block"/><mask id="e" mask-type="alpha"><g filter="url(#a)"><path fill="#fff" d="M0 0h500v500H0z" opacity="0"/><use xmlns:ns1="http://www.w3.org/1999/xlink" ns1:href="#b"/></g></mask></defs><g clip-path="url(#c)"><g fill="none" stroke="#07A889" stroke-linecap="round" stroke-linejoin="round" stroke-width="12.04" clip-path="url(#d)" mask="url(#e)" style="display:block"><path d="M277.887-11.957c-.546 14.141-12.182 25.436-26.456 25.436-14.622 0-26.476-11.853-26.476-26.476v-.068c0 14.623-11.854 26.476-26.476 26.476v.068c-14.622 0-26.476-11.853-26.476-26.476v-.068c0 14.623-11.853 26.476-26.475 26.476-14.622 0-26.476-11.853-26.476-26.476 0 14.623-11.854 26.476-26.476 26.476S66.1 1.558 66.1-13.065c0 14.623-11.854 26.476-26.476 26.476S13.148 1.558 13.148-13.065v.062a26.78 26.78 0 0 1-.203 3.298" style="display:block" transform="matrix(1.18 0 0 1.18 75.81 267.787)"/><path d="M200.242 13.353c-.583.039-1.171.058-1.763.058v.068c-14.622 0-26.476-11.853-26.476-26.476v-.068c0 14.623-11.853 26.476-26.475 26.476-14.622 0-26.476-11.853-26.476-26.476 0 14.623-11.854 26.476-26.476 26.476S66.1 1.558 66.1-13.065c0 14.623-11.854 26.476-26.476 26.476S13.148 1.558 13.148-13.065v.062c0 14.623-11.854 26.476-26.476 26.476S-39.803 1.62-39.803-13.003l-.01.006c0 14.623-11.854 26.476-26.476 26.476-.187 0-.374-.002-.56-.006" style="display:block" transform="matrix(1.18 0 0 1.18 169.004 328.557)"/></g><g fill="none" stroke-linecap="round" stroke-linejoin="round" stroke-width="12.04" style="display:block"><path stroke="#07A889" d="m294.441 276.118-89.526-102.776m70.32 151.411-88.046-101.076"/><path stroke="#121330" d="m282.031 91.007-21.922 78.813m23.075-82.389c-102.913 44.603-124.609 212.375-107.863 317.148M283.58 87.534c65.56 86.38 8.49 235.85-54.99 320.77m-81.353-4.915c13.976 0 13.976 4.976 27.952 4.976s13.976-4.976 27.952-4.976c13.978 0 13.979 4.976 27.957 4.976 13.978 0 13.979-4.976 27.957-4.976"/></g><g class="com" style="display:none"><path/><path/><path/><path/><path/><path/><path/><path/><path/><path/><path/><path/></g></g></svg>