<svg xmlns="http://www.w3.org/2000/svg" width="500" height="500" style="width:100%;height:100%;transform:translate3d(0,0,0);content-visibility:visible" viewBox="0 0 500 500"><defs><clipPath id="a"><path d="M0 0h500v500H0z"/></clipPath></defs><g clip-path="url(#a)"><path fill="none" stroke="#121330" stroke-linecap="round" stroke-linejoin="round" stroke-width="12.04" d="M138.987 329.731c0 15.158 12.289 27.447 27.447 27.447s27.447-12.289 27.447-27.447-12.289-27.447-27.447-27.447-27.447 12.289-27.447 27.447zm27.452 0h-.01m139.427.044c0 15.158 12.289 27.447 27.447 27.447s27.447-12.289 27.447-27.447-12.289-27.447-27.447-27.447-27.447 12.289-27.447 27.447zm27.452 0h-.01" style="display:block"/><g fill="none" stroke-linecap="round" stroke-linejoin="round" stroke-width="12.04" style="display:block"><path stroke="#07A889" d="M393.251 302.328h14.368v-28.736h-14.368c-7.935 0-14.368 6.433-14.368 14.368 0 0 0 0 0 0 0 7.935 6.433 14.368 14.368 14.368zM258.5 141.092h-73v31.5h73v-31.5z"/><path stroke="#121330" d="M270.646 172.592h-98.383c-8.183 0-15.217 4.411-16.771 10.518l-19.815 65h197.904l-47.692-68.394c-2.907-4.369-8.801-7.124-15.243-7.124z"/><path stroke="#07A889" d="M92.38 296.83h22.83"/><path stroke="#121330" d="M272.824 248.113v-75.414m-103.679.094v75.116m135.735 81.283H193.87m-54.87 0H92.38v-58.78c0-12.32 9.99-22.3 22.3-22.3h270.64c12.32 0 22.3 9.98 22.3 22.3v58.78h-45.89"/><path stroke="#07A889" d="M206.836 269.789h-18.044m9.022-.001v20.232m104.143-20.232v20.232m-61.16.23-9.957-20.462-10.641 20.462m59.526-20.53-18.104 20.53m0-20.53 18.104 20.53"/></g><g class="com" style="display:none"><path/><path/><path/><path/><path/><path/><path/><path/><path/><path/><path/><path/></g></g></svg>