<svg xmlns="http://www.w3.org/2000/svg" width="500" height="500" style="width:100%;height:100%;transform:translate3d(0,0,0);content-visibility:visible" viewBox="0 0 500 500"><defs><clipPath id="e"><path d="M0 0h500v500H0z"/></clipPath><clipPath id="j"><path d="M0 0h500v500H0z"/></clipPath><clipPath id="i"><path d="M0 0h500v500H0z"/></clipPath><clipPath id="g"><path d="M0 0h500v500H0z"/></clipPath><filter id="a" width="100%" height="100%" x="0%" y="0%" filterUnits="objectBoundingBox"><feComponentTransfer in="SourceGraphic"><feFuncA tableValues="1.0 0.0" type="table"/></feComponentTransfer></filter><filter id="c" width="100%" height="100%" x="0%" y="0%" filterUnits="objectBoundingBox"><feComponentTransfer in="SourceGraphic"><feFuncA tableValues="1.0 0.0" type="table"/></feComponentTransfer></filter><path id="b" fill="red" d="M244.53 378.612H115.826l.4-12.543c0-46.978 38.09-85.067 85.068-85.067h97.276c46.978 0 85.067 38.089 85.067 85.067l-.4 12.543H244.529m19.679-134a61.925 61.925 0 0 1-14.91 1.815c-34.004 0-61.571-27.573-61.571-61.578 0-34.006 27.56-61.579 61.572-61.579 34.011 0 61.578 27.573 61.578 61.579 0 28.865-19.867 53.095-46.67 59.763" style="display:block"/><path id="d" fill="red" d="M244.53 378.612H115.826l.4-12.543c0-46.978 38.09-85.067 85.068-85.067h97.276c46.978 0 85.067 38.089 85.067 85.067l-.4 12.543H244.529m19.679-134a61.925 61.925 0 0 1-14.91 1.815c-34.004 0-61.571-27.573-61.571-61.578 0-34.006 27.56-61.579 61.572-61.579 34.011 0 61.578 27.573 61.578 61.579 0 28.865-19.867 53.095-46.67 59.763" style="display:block"/><mask id="h" mask-type="alpha"><g filter="url(#a)"><path fill="#fff" d="M0 0h500v500H0z" opacity="0"/><use xmlns:ns1="http://www.w3.org/1999/xlink" ns1:href="#b"/></g></mask><mask id="f" mask-type="alpha"><g filter="url(#c)"><path fill="#fff" d="M0 0h500v500H0z" opacity="0"/><use xmlns:ns2="http://www.w3.org/1999/xlink" ns2:href="#d"/></g></mask></defs><g clip-path="url(#e)"><g mask="url(#f)" style="display:block"><g fill="none" stroke="#07A889" stroke-linecap="round" stroke-linejoin="round" stroke-width="2.1" clip-path="url(#g)" transform="matrix(.9 0 0 .9 91 28)"><path d="M8.677 31.836h-21.21l.066-2.067c0-7.742 6.277-14.019 14.019-14.019h16.031c7.742 0 14.019 6.277 14.019 14.019l-.066 2.067s0 0 0 0H8.677" style="display:block" transform="translate(191.878 185.43) scale(6.068)"/><path d="M15.673-9.749a10.107 10.107 0 0 1 2.373 6.522s0 0 0 0c0 5.604-4.544 10.148-10.148 10.148S-2.25 2.377-2.25-3.227 2.293-13.375 7.898-13.375c3.121 0 5.913 1.409 7.775 3.626" style="display:block" transform="translate(202.012 205.152) scale(6.068)"/></g></g><g mask="url(#h)" style="display:block"><g fill="none" stroke="#07A889" stroke-linecap="round" stroke-linejoin="round" stroke-width="2.1" clip-path="url(#i)" transform="matrix(.9 0 0 .9 -40 28)"><path d="M8.677 31.836h-21.21l.066-2.067c0-7.742 6.277-14.019 14.019-14.019h16.031c7.742 0 14.019 6.277 14.019 14.019l-.066 2.067s0 0 0 0H8.677" style="display:block" transform="translate(191.878 185.43) scale(6.068)"/><path d="M15.673-9.749a10.107 10.107 0 0 1 2.373 6.522s0 0 0 0c0 5.604-4.544 10.148-10.148 10.148S-2.25 2.377-2.25-3.227 2.293-13.375 7.898-13.375c3.121 0 5.913 1.409 7.775 3.626" style="display:block" transform="translate(202.012 205.152) scale(6.068)"/></g></g><g fill="none" stroke="#121330" stroke-linecap="round" stroke-linejoin="round" stroke-width="2.1" clip-path="url(#j)" style="display:block" transform="translate(-1)"><path d="M8.677 31.836h-21.21l.066-2.067c0-7.742 6.277-14.019 14.019-14.019h16.031c7.742 0 14.019 6.277 14.019 14.019l-.066 2.067s0 0 0 0H8.677" style="display:block" transform="translate(191.878 185.43) scale(6.068)"/><path d="M15.673-9.749a10.107 10.107 0 0 1 2.373 6.522s0 0 0 0c0 5.604-4.544 10.148-10.148 10.148S-2.25 2.377-2.25-3.227 2.293-13.375 7.898-13.375c3.121 0 5.913 1.409 7.775 3.626" style="display:block" transform="translate(202.012 205.152) scale(6.068)"/></g><g class="com" style="display:none"><path/><path/><path/><path/><path/><path/><path/><path/><path/><path/><path/><path/></g></g></svg>