<svg xmlns="http://www.w3.org/2000/svg" width="500" height="500" style="width:100%;height:100%;transform:translate3d(0,0,0);content-visibility:visible" viewBox="0 0 500 500"><defs><clipPath id="i"><path d="M0 0h500v500H0z"/></clipPath><clipPath id="n"><path d="M0 0h500v500H0z"/></clipPath><clipPath id="p"><path d="M0 0h500v500H0z"/></clipPath><clipPath id="j"><path d="M0 0h500v500H0z"/></clipPath><clipPath id="l"><path d="M0 0h500v500H0z"/></clipPath><filter id="a" width="100%" height="100%" x="0%" y="0%" filterUnits="objectBoundingBox"><feComponentTransfer in="SourceGraphic"><feFuncA tableValues="1.0 0.0" type="table"/></feComponentTransfer></filter><filter id="c" width="100%" height="100%" x="0%" y="0%" filterUnits="objectBoundingBox"><feComponentTransfer in="SourceGraphic"><feFuncA tableValues="1.0 0.0" type="table"/></feComponentTransfer></filter><filter id="e" width="100%" height="100%" x="0%" y="0%" filterUnits="objectBoundingBox"><feComponentTransfer in="SourceGraphic"><feFuncA tableValues="1.0 0.0" type="table"/></feComponentTransfer></filter><filter id="g" width="100%" height="100%" x="0%" y="0%" filterUnits="objectBoundingBox"><feComponentTransfer in="SourceGraphic"><feFuncA tableValues="1.0 0.0" type="table"/></feComponentTransfer></filter><path id="b" fill="#FFF" d="M56.374 0c0 31.134-25.24 56.374-56.374 56.374-31.134 0-56.374-25.24-56.374-56.374 0-31.134 25.24-56.374 56.374-56.374 31.134 0 56.374 25.24 56.374 56.374z" style="display:block" transform="translate(353.062 353.746)"/><path id="d" fill="#FFF" d="M56.374 0c0 31.134-25.24 56.374-56.374 56.374-31.134 0-56.374-25.24-56.374-56.374 0-31.134 25.24-56.374 56.374-56.374 31.134 0 56.374 25.24 56.374 56.374z" style="display:block" transform="translate(353.062 353.746)"/><path id="f" fill="#FFF" d="M56.374 0c0 31.134-25.24 56.374-56.374 56.374-31.134 0-56.374-25.24-56.374-56.374 0-31.134 25.24-56.374 56.374-56.374 31.134 0 56.374 25.24 56.374 56.374z" style="display:block" transform="translate(353.062 353.746)"/><path id="h" fill="#FFF" d="M56.374 0c0 31.134-25.24 56.374-56.374 56.374-31.134 0-56.374-25.24-56.374-56.374 0-31.134 25.24-56.374 56.374-56.374 31.134 0 56.374 25.24 56.374 56.374z" style="display:block" transform="translate(353.062 353.746)"/><mask id="q" mask-type="alpha"><g filter="url(#a)"><path fill="#fff" d="M0 0h500v500H0z" opacity="0"/><use xmlns:ns1="http://www.w3.org/1999/xlink" ns1:href="#b"/></g></mask><mask id="o" mask-type="alpha"><g filter="url(#c)"><path fill="#fff" d="M0 0h500v500H0z" opacity="0"/><use xmlns:ns2="http://www.w3.org/1999/xlink" ns2:href="#d"/></g></mask><mask id="m" mask-type="alpha"><g filter="url(#e)"><path fill="#fff" d="M0 0h500v500H0z" opacity="0"/><use xmlns:ns3="http://www.w3.org/1999/xlink" ns3:href="#f"/></g></mask><mask id="k" mask-type="alpha"><g filter="url(#g)"><path fill="#fff" d="M0 0h500v500H0z" opacity="0"/><use xmlns:ns4="http://www.w3.org/1999/xlink" ns4:href="#h"/></g></mask></defs><g clip-path="url(#i)"><g clip-path="url(#j)" opacity="0" style="display:block"><g mask="url(#k)" style="display:block"><g fill="none" clip-path="url(#l)" transform="translate(50.87 37.375) scale(.7965)"><path style="display:none"/><path style="display:none"/><path style="display:none"/><path style="display:none"/><path style="display:none"/><path style="display:none"/><path style="display:none"/><path stroke="#07A889" stroke-linecap="round" stroke-linejoin="round" stroke-width="4.2" d="M126.667 50c-17.029 0-30.834-22.386-30.834-50s13.805-50 30.834-50m0 100c.083-8.75.166-22.386.166-50s-.083-34.25-.166-50" style="display:block" transform="matrix(3.69 0 0 3.69 -217.487 249.998)"/><path stroke="#07A889" stroke-linecap="round" stroke-linejoin="round" stroke-width="4.2" d="M126.667 50C144.248 50 158.5 27.614 158.5 0s-14.252-50-31.833-50m-50 50h100" style="display:block" transform="matrix(3.69 0 0 3.69 -217.487 249.998)"/><path stroke="#07A889" stroke-linecap="round" stroke-linejoin="round" stroke-width="4.2" d="M158.993-38.138c-8.71 4.56-19.99 7.31-32.32 7.31-12.33 0-23.61-2.75-32.33-7.31" style="display:block" transform="matrix(3.69 0 0 3.69 -217.484 249.996)"/><path stroke="#07A889" stroke-linecap="round" stroke-linejoin="round" stroke-width="4.2" d="M94.343 38.14c8.71-4.56 19.99-7.31 32.32-7.31 12.33 0 23.61 2.75 32.33 7.31" style="display:block" transform="matrix(3.69 0 0 3.69 -217.484 249.997)"/></g></g><g mask="url(#m)" style="display:block"><path fill="none" stroke="#121330" stroke-linecap="round" stroke-linejoin="round" stroke-width="11.756" d="M396.884 236.5c0 81.16-65.795 146.954-146.955 146.954-81.16 0-146.954-65.794-146.954-146.954 0-81.16 65.794-146.954 146.954-146.954 81.16 0 146.955 65.794 146.955 146.954z"/></g><path fill="none" stroke="#121330" stroke-linecap="round" stroke-linejoin="round" stroke-width="12" d="M409.436 353.746c0 31.134-25.24 56.374-56.374 56.374-31.134 0-56.374-25.24-56.374-56.374 0-31.134 25.24-56.374 56.374-56.374 31.134 0 56.374 25.24 56.374 56.374zm-56.379-.118v-37.256m.01 37.374-13.172 13.172" opacity="1" style="display:block"/></g><g clip-path="url(#n)" style="display:block"><g mask="url(#o)" style="display:block"><g fill="none" clip-path="url(#p)" transform="translate(50.87 37.375) scale(.7965)"><path style="display:none"/><path style="display:none"/><path style="display:none"/><path style="display:none"/><path style="display:none"/><path style="display:none"/><path style="display:none"/><path stroke="#07A889" stroke-linecap="round" stroke-linejoin="round" stroke-width="4.2" d="M126.667 50c-17.029 0-30.834-22.386-30.834-50s13.805-50 30.834-50m0 100c.083-8.75.166-22.386.166-50s-.083-34.25-.166-50" style="display:block" transform="matrix(3.69 0 0 3.69 -217.487 249.998)"/><path stroke="#07A889" stroke-linecap="round" stroke-linejoin="round" stroke-width="4.2" d="M126.667 50C144.248 50 158.5 27.614 158.5 0s-14.252-50-31.833-50m-50 50h100" style="display:block" transform="matrix(3.69 0 0 3.69 -217.487 249.998)"/><path stroke="#07A889" stroke-linecap="round" stroke-linejoin="round" stroke-width="4.2" d="M158.993-38.138c-8.71 4.56-19.99 7.31-32.32 7.31-12.33 0-23.61-2.75-32.33-7.31" style="display:block" transform="matrix(3.69 0 0 3.69 -217.484 249.996)"/><path stroke="#07A889" stroke-linecap="round" stroke-linejoin="round" stroke-width="4.2" d="M94.343 38.14c8.71-4.56 19.99-7.31 32.32-7.31 12.33 0 23.61 2.75 32.33 7.31" style="display:block" transform="matrix(3.69 0 0 3.69 -217.484 249.997)"/></g></g><g mask="url(#q)" style="display:block"><path fill="none" stroke="#121330" stroke-linecap="round" stroke-linejoin="round" stroke-width="11.756" d="M396.884 236.5c0 81.16-65.795 146.954-146.955 146.954-81.16 0-146.954-65.794-146.954-146.954 0-81.16 65.794-146.954 146.954-146.954 81.16 0 146.955 65.794 146.955 146.954z"/></g><path fill="none" stroke="#121330" stroke-linecap="round" stroke-linejoin="round" stroke-width="12" d="M409.436 353.746c0 31.134-25.24 56.374-56.374 56.374-31.134 0-56.374-25.24-56.374-56.374 0-31.134 25.24-56.374 56.374-56.374 31.134 0 56.374 25.24 56.374 56.374zm-56.379-.118v-37.256m.01 37.374-13.172 13.172" style="display:block"/></g><path style="display:none"/></g></svg>