<svg xmlns="http://www.w3.org/2000/svg" width="500" height="500" style="width:100%;height:100%;transform:translate3d(0,0,0);content-visibility:visible" viewBox="0 0 500 500"><defs><clipPath id="c"><path d="M0 0h500v500H0z"/></clipPath><filter id="a" width="100%" height="100%" x="0%" y="0%" filterUnits="objectBoundingBox"><feComponentTransfer in="SourceGraphic"><feFuncA tableValues="1.0 0.0" type="table"/></feComponentTransfer></filter><path id="b" fill="#FFF" d="M325.66 116.77v-.2H170.73c-9.24 0-16.73 7.48-16.73 16.73v276.72h156.59V134.27c0-9.77 7.93-17.7 17.71-17.7l-2.64.2z" style="display:block"/><mask id="d" mask-type="alpha"><g filter="url(#a)"><path fill="#fff" d="M0 0h500v500H0z" opacity="0"/><use xmlns:ns1="http://www.w3.org/1999/xlink" ns1:href="#b"/></g></mask></defs><g clip-path="url(#c)"><path fill="none" stroke="#121330" stroke-linecap="round" stroke-linejoin="round" stroke-width="12.04" d="M0-126.274s0 0 0 0c9.778 0 17.705 7.927 17.705 17.705v234.843h-35.41" style="display:block" transform="translate(328.296 242.842)"/><g fill="none" stroke-linecap="round" stroke-linejoin="round" stroke-width="12.04" mask="url(#d)" style="display:block"><path stroke="#07A889" d="M111.688 146.172c0 13.694-11.1 24.794-24.794 24.794S62.1 159.866 62.1 146.172s11.1-24.794 24.794-24.794 24.794 11.1 24.794 24.794zm325.225 0c0 13.694-11.1 24.794-24.794 24.794s-24.794-11.1-24.794-24.794 11.1-24.794 24.794-24.794 24.794 11.1 24.794 24.794z"/><path stroke="#121330" d="M412.119 146.172H86.895"/></g><g fill="none" stroke-linecap="round" stroke-linejoin="round" stroke-width="12.04" style="display:block"><path stroke="#07A889" d="M310.591 352.646H153.999m156.592-28.686H153.999"/><path stroke="#121330" d="M325.66 116.766v-.196H170.726c-9.233 0-16.728 7.483-16.728 16.727V410.02H310.59s0 0 0 0V134.273c0-9.778 7.928-17.705 17.706-17.705 0 0 0 0 0 0l-2.636.198z"/></g><g class="com" style="display:none"><path/><path/><path/><path/><path/><path/><path/><path/><path/><path/><path/><path/></g></g></svg>