<svg xmlns="http://www.w3.org/2000/svg" width="500" height="500" style="width:100%;height:100%;transform:translate3d(0,0,0);content-visibility:visible" viewBox="0 0 500 500"><defs><clipPath id="a"><path d="M0 0h500v500H0z"/></clipPath></defs><g clip-path="url(#a)"><path fill="none" stroke="#121330" stroke-linecap="round" stroke-linejoin="round" stroke-width="4.2" d="M35.537 36.105c-19.526 19.526-51.184 19.526-70.71 0-19.526-19.526-19.526-51.184 0-70.71 19.526-19.526 51.184-19.526 70.71 0 19.526 19.526 19.526 51.184 0 70.71z" style="display:block" transform="translate(250.179 250.745) scale(2.9808)"/><path fill="none" stroke="#07A889" stroke-linecap="round" stroke-linejoin="round" stroke-width="4.2" d="M.182-.21v-34.361M.182.75l17.869-17.869" style="display:block" transform="translate(250.179 250.745) scale(2.9808)"/><path fill="none" stroke="#121330" stroke-linecap="round" stroke-linejoin="round" stroke-width="2.8" d="M-20.792-27.203v-15.269h42.903v15.644m-.056 55.092v15.269h-42.902V27.889M37.081-4.49h3.149l.011 8.937H37.01" style="display:block" transform="translate(247.119 250) scale(4.31999)"/><g class="com" style="display:none"><path/><path/><path/><path/><path/><path/><path/><path/><path/><path/><path/><path/></g></g></svg>