<svg xmlns="http://www.w3.org/2000/svg" width="500" height="500" style="width:100%;height:100%;transform:translate3d(0,0,0);content-visibility:visible" viewBox="0 0 500 500"><defs><clipPath id="a"><path d="M0 0h500v500H0z"/></clipPath><clipPath id="d"><path d="M0 0h500v500H0z"/></clipPath><clipPath id="c"><path d="M0 0h500v500H0z"/></clipPath><clipPath id="b"><path d="M0 0h500v500H0z"/></clipPath></defs><g clip-path="url(#a)"><g fill="none" clip-path="url(#b)" opacity="0" style="display:block"><path stroke="#121330" stroke-linecap="round" stroke-linejoin="round" stroke-width="3.5" d="M-50.179-10.713c27.682-27.682 72.564-27.682 100.246 0" opacity="1" style="display:block" transform="matrix(3.82 0 0 3.82 250 249)"/><path stroke="#121330" stroke-linecap="round" stroke-linejoin="round" stroke-width="3.5" d="M-38.966-.567c21.52-21.52 56.412-21.52 77.932 0" opacity="1" style="display:block" transform="matrix(3.82 0 0 3.82 250 249)"/><path stroke="#121330" stroke-linecap="round" stroke-linejoin="round" stroke-width="3.5" d="M-28.216 9.183C-12.633-6.4 12.633-6.4 28.216 9.183" opacity="1" style="display:block" transform="matrix(3.82 0 0 3.82 250 249)"/><path style="display:none"/><path style="display:none"/><path style="display:none"/><path stroke="#07A889" stroke-linecap="round" stroke-linejoin="round" stroke-width="3.5" d="M10.485 24.231c0 5.791-4.694 10.485-10.485 10.485-5.791 0-10.485-4.694-10.485-10.485 0-5.791 4.694-10.484 10.485-10.484 5.791 0 10.485 4.693 10.485 10.484z" opacity="1" style="display:block" transform="matrix(3.82 0 0 3.82 250 249)"/></g><g fill="none" clip-path="url(#c)" opacity="0" style="display:block"><path stroke="#121330" stroke-linecap="round" stroke-linejoin="round" stroke-width="3.5" d="M-28.216 9.183C-12.633-6.4 12.633-6.4 28.216 9.183" opacity="1" style="display:block" transform="matrix(3.82 0 0 3.82 250 249)"/><path stroke="#121330" stroke-linecap="round" stroke-linejoin="round" stroke-width="3.5" d="M-38.966-.567c21.52-21.52 56.412-21.52 77.932 0" opacity="1" style="display:block" transform="matrix(3.82 0 0 3.82 250 249.002)"/><path stroke="#121330" stroke-linecap="round" stroke-linejoin="round" stroke-width="3.5" d="M-50.179-10.713c27.682-27.682 72.564-27.682 100.246 0" opacity="1" style="display:block" transform="matrix(3.82 0 0 3.82 250 249)"/><path style="display:none"/><path style="display:none"/><path style="display:none"/><path stroke="#07A889" stroke-linecap="round" stroke-linejoin="round" stroke-width="3.5" d="M10.485 24.231c0 5.791-4.694 10.485-10.485 10.485-5.791 0-10.485-4.694-10.485-10.485 0-5.791 4.694-10.484 10.485-10.484 5.791 0 10.485 4.693 10.485 10.484z" opacity="1" style="display:block" transform="matrix(3.82 0 0 3.82 250 249)"/></g><g fill="none" stroke-linecap="round" stroke-linejoin="round" stroke-width="3.5" clip-path="url(#d)" style="display:block"><path stroke="#121330" d="M-50-10.602c27.614-27.614 72.386-27.614 100 0" style="display:block" transform="matrix(3.82 0 0 3.82 250 249)"/><path stroke="#121330" d="M-38.966-.567c21.52-21.52 56.412-21.52 77.932 0" style="display:block" transform="matrix(3.82 0 0 3.82 250 249.002)"/><path stroke="#121330" d="M-28.216 9.183C-12.633-6.4 12.633-6.4 28.216 9.183" style="display:block" transform="matrix(3.82 0 0 3.82 250 249)"/><path stroke="#07A889" d="M10.485 24.231c0 5.791-4.694 10.485-10.485 10.485-5.791 0-10.485-4.694-10.485-10.485 0-5.791 4.694-10.484 10.485-10.484 5.791 0 10.485 4.693 10.485 10.484z" style="display:block" transform="matrix(3.82 0 0 3.82 250 249)"/></g><g class="com" style="display:none"><path/><path/><path/><path/><path/><path/><path/><path/><path/><path/><path/><path/></g></g></svg>