<svg xmlns="http://www.w3.org/2000/svg" width="500" height="500" style="width:100%;height:100%;transform:translate3d(0,0,0);content-visibility:visible" viewBox="0 0 500 500"><defs><clipPath id="a"><path d="M0 0h500v500H0z"/></clipPath></defs><g clip-path="url(#a)"><path fill="none" stroke="#07A889" stroke-linecap="round" stroke-linejoin="round" stroke-width="12.6" d="M0 0" style="display:block" transform="translate(250 250)"/><g style="display:block"><path fill="none" stroke="#07A889" stroke-linecap="round" stroke-linejoin="round" stroke-width="12.6" d="M293.76 323.999h-87.52v-76.277h87.52v76.277z"/><path fill="none" stroke="#121330" stroke-linecap="round" stroke-linejoin="round" stroke-width="12.6" d="M293.76 223.58v186.54h-87.52V223.28c0-19.12 12.3-35.36 29.42-41.25V89.88h28.68v92.24c6.3 2.2 11.94 5.79 16.56 10.41 7.94 7.95 12.86 18.93 12.86 31.05z"/><path fill="#121330" d="M264.338 110.333h-28.676V89.881h28.676v20.452z"/><path fill="none" stroke="#121330" stroke-linecap="round" stroke-linejoin="round" stroke-width="12.6" d="M264.338 110.333h-28.676V89.881h28.676v20.452zM293.76 410.12c-8.794-13.769-18.479-22.034-24.953-26.687-10.429-7.496-15.893-8.04-18.807-8.016-3.498.029-8.548.918-18.333 8.016-6.614 4.798-16.331 13.113-25.427 26.687"/></g><g class="com" style="display:none"><path/><path/><path/><path/><path/><path/><path/><path/><path/><path/><path/><path/></g></g></svg>