<svg xmlns="http://www.w3.org/2000/svg" width="500" height="500" style="width:100%;height:100%;transform:translate3d(0,0,0);content-visibility:visible" viewBox="0 0 500 500"><defs><filter id="a" width="100%" height="100%" x="0%" y="0%" filterUnits="objectBoundingBox"><feComponentTransfer in="SourceGraphic"><feFuncA tableValues="1.0 0.0" type="table"/></feComponentTransfer></filter><filter id="c" width="100%" height="100%" x="0%" y="0%" filterUnits="objectBoundingBox"><feComponentTransfer in="SourceGraphic"><feFuncA tableValues="1.0 0.0" type="table"/></feComponentTransfer></filter><path id="d" fill="red" d="M-1.94-157h3.88c33.734 0 68.997 41.969 67.824 75.682l-8.809 2.075-1.381 39.706C58.458-7.442 32.115 18 0 18c-32.115 0-58.458-25.442-59.574-57.537l-1.94-55.781C-62.687-129.031-35.674-157-1.94-157z" style="display:block" transform="translate(250 250)"/><path id="b" fill="red" d="M284.094 332.932c-5.471 10.944-15.968 17.715-27.295 18.916-4.906-9.623-5.336-21.365-.136-31.766 5.421-10.843 15.677-17.667 26.849-19.166 5.234 9.59 5.839 21.501.582 32.016z" style="display:block"/><mask id="g" mask-type="alpha"><g filter="url(#a)"><path fill="#fff" d="M0 0h500v500H0z" opacity="0"/><use xmlns:ns1="http://www.w3.org/1999/xlink" ns1:href="#b"/></g></mask><mask id="f" mask-type="alpha"><g filter="url(#c)"><path fill="#fff" d="M0 0h500v500H0z" opacity="0"/><use xmlns:ns2="http://www.w3.org/1999/xlink" ns2:href="#d"/></g></mask><clipPath id="e"><path d="M0 0h500v500H0z"/></clipPath></defs><g clip-path="url(#e)"><g mask="url(#f)" style="display:block"><path fill="none" stroke="#07A889" stroke-linecap="round" stroke-linejoin="round" stroke-width="12.04" d="M321.721 164.362c-8.597 0-10.56 1.08-11.17 1.24 0 0-21.802.398-27.395 35.434-3.921 24.563 19.065 36.436 19.065 36.436 5.42 2.88 11.6 4.51 18.17 4.51 21.44 0 38.82-17.38 38.82-38.82 0-20.99-16.67-38.1-37.49-38.8z"/></g><path fill="none" stroke="#121330" stroke-linecap="round" stroke-linejoin="round" stroke-width="12.04" d="M95.67 46.802c17.654 15.221 28.83 37.749 28.83 62.888v27.76c0 7.62-5.71 14.03-13.28 14.9l-29.04 3.36a85.26 85.26 0 0 0-23.07 6.03c-18.91 7.91-39 11.88-59.11 11.92h-.3c-20.1 0-40.2-3.93-59.12-11.8l-.2-.08c-7.69-3.2-15.79-5.3-24.07-6.26l-27.53-3.17c-7.57-.87-13.28-7.28-13.28-14.9v-27.76c0-45.84 37.16-83 83-83h7.63m67.75 0h7.62c4.89 0 9.681.423 14.339 1.234" style="display:block" transform="translate(250 250)"/><g fill="none" stroke-linecap="round" stroke-linejoin="round" stroke-width="12.04" style="display:block"><path stroke="#121330" d="m190.14 170.07 1.47 42.16c.55 15.87 7.34 30.11 17.96 40.37 10.63 10.26 25.09 16.55 40.97 16.55 31.77 0 57.82-25.17 58.93-56.92l1.47-42.16"/><path stroke="#07A889" d="M316.088 172.533c-12.53-5.878-52.744-25.575-62.843-40.772a2.9 2.9 0 0 0-4.831-.053c-10.504 15.206-50.875 34.944-63.428 40.827-1.846.865-3.981-.398-4.098-2.433-.981-17.03.021-86.536 69.556-86.536 69.694 0 70.721 69.502 69.743 86.534-.117 2.036-2.253 3.299-4.099 2.433z"/></g><g fill="none" stroke-linecap="round" stroke-linejoin="round" stroke-width="12.04" mask="url(#g)" style="display:block"><path stroke="#121330" d="M216.495 300.899v-42.17m67 42.069v-42.17"/><path stroke="#07A889" d="M216.487 300.839c9.53 6.58 21.076 10.45 33.506 10.45s23.98-3.85 33.51-10.44"/></g><path fill="none" stroke="#07A889" stroke-linecap="round" stroke-linejoin="round" stroke-width="12.04" d="M13.75 6.55C8.279 17.494-2.218 24.265-13.545 25.466c-4.906-9.623-5.336-21.365-.136-31.766C-8.26-17.143 1.996-23.967 13.168-25.466c5.234 9.59 5.839 21.501.582 32.016z" style="display:block" transform="translate(270.344 326.382)"/><path fill="none" stroke="#07A889" stroke-linecap="round" stroke-linejoin="round" stroke-width="12.04" d="M-4.692-17.793c14.456-3.378 28.913 1.169 38.815 10.81C28.945 5.057 18.319 14.56 4.58 17.771c-14.322 3.347-28.643-.934-38.703-10.199 4.893-12.32 15.542-22.119 29.431-25.365z" style="display:block" transform="translate(317.636 293.345)"/><g class="com" style="display:none"><path/><path/><path/><path/><path/><path/><path/><path/><path/><path/><path/><path/></g></g></svg>