<svg xmlns="http://www.w3.org/2000/svg" viewBox="0 0 500 500">
    <defs>
        <clip-path id="a" mask-type="alpha">
            <path
                d="M89.88 250c0 88.43 71.69 160.12 160.12 160.12S410.12 338.43 410.12 250 338.43 89.88 250 89.88 89.88 161.57 89.88 250z" />
        </clip-path>
        <mask id="mask" mask-type="alpha">
            <path
                d="M89.88 250c0 88.43 71.69 160.12 160.12 160.12S410.12 338.43 410.12 250 338.43 89.88 250 89.88 89.88 161.57 89.88 250z" />
        </mask>
    </defs>
    <g clip-path="url(#a)">
        <g clip-path="url(#b)" display="block">
            <g display="block" mask="url(#mask)">
                <path fill="none" stroke="#07A889" stroke-linecap="round" stroke-linejoin="round"
                    stroke-width="12.04"
                    d="m353.2 324.7-8.66 32.79-41.47 59s-.77 18.29-1.2 22.8c-7.82-1.8-12.58-7.08-14.44-15.16 0 0-1.03-40.4-10.17-59.38-2.44-5.07-10.97-13.67-17.6-19.91a22.86 22.86 0 0 1-7.05-19.28l1.38-11.97 30.06-27.36s30.48 23.78 69.15 38.46zm-96.95-62.07-19.56 16.94-51.52-28.12-12.06-68.55s24.5-25.5 12.35-41.5c-6.5-8.58-10.47-11.45-19.5-7.25l-28.24-.42-7.03-28.36 17.84-17.62 155.68-.36 10.35 21.16-36.49 23.42L298.23 147l27.15-2.31s9.3 12.62 9.7 15.9c1.12 9.32-5.24 26.87-5.24 26.87l-44.53 1.69-13.82 27.32-26.91-20.1s-26.14 4-22.71 22.35l20.17 14.71 14.2 29.2zM498.1 123.06l-27.17 13.2c-4.82 2.98-26.5 17.64-26.5 17.64l32.8 1.26 50.85 18.33-12.88 30.3s-13.98 6.17-22.86-.52c-4.85-3.65-15.68-11.63-21.72-12.23-9.75-.98-47.55 19.56-47.55 19.56-22.04 17.34 2.3 34.4 16.34 51.08l27.14-2.8c1.7 1.9 7.36 46.44-.67 70.53 4.4 17.99 22.52 35.04 29.59 35.04 12.08 0 60.52-94.8 66-109.43l-27.33-4.17 20.62-34.78 8.8-31.34c11.55 9.55 38.98 27.52 48.02 53.82l13 1.19s5.31-33.04 22.6-33.48c4.47-.11 36.4 34.19 36.4 34.19s7.04-3.48 10.7-7.16c4.48-4.47-2.96-26.85-2.96-26.85s12.8-71.88 27.43-72.67l34.18-1.87c3.54 1.62 23.58-29.54 20.61-31.22-41.64-23.44-71.8-3.1-176.07-15.22-6.62-.77-17.39 17.86-17.39 17.86l-38.9 10.7-11.16-31.91-41.72-2.84c-7.7 4.2-28.05 22.75-28.05 22.75l37.85 21.04zM310.02 54.4s29.43 4.59 42.04 16.42c12.6 11.84 8.39 30.92 11.84 32.41 9.58 4.13 23.5-34.03 23.5-34.03l60.65-27.49S320.2 27.25 310.02 54.4zm488.52 311.1-22.17-23.95-42.68 32.9c-13.88 2.84-28.67 14.7-29.38 28.85l-1.34 26.7L758 417.25l10.71 15.4a24.46 24.46 0 0 0 21.7 10.45l13.21-.88 27.34-37.45a12.95 12.95 0 0 0 .68-14.23l-11.96-20.19-2.8-30.07-18.35 25.23zM652.77 258.04l-5.1 8.4 27.01 36.96 56.33 17.33 18.86-1.27-64.48-24.98-32.62-36.44zm464.44 66.65-8.67 32.8-41.47 59s-.77 18.29-1.2 22.8c-7.82-1.8-12.58-7.08-14.44-15.16 0 0-1.03-40.4-10.17-59.38-2.44-5.07-10.97-13.67-17.6-19.91a22.86 22.86 0 0 1-7.05-19.28l1.38-11.97 30.06-27.36s30.48 23.78 69.16 38.46zm-96.96-62.07-19.56 16.95-51.52-28.12-12.06-68.55s24.5-25.5 12.35-41.5c-6.5-8.58-10.47-11.45-19.5-7.25l-28.24-.42-7.03-28.36 17.84-17.62 155.68-.36 10.35 21.16-36.49 23.42 20.16 15.03 27.15-2.31s9.3 12.62 9.7 15.9c1.12 9.32-5.23 26.87-5.23 26.87l-44.54 1.69-13.82 27.32-26.91-20.1s-26.14 4-22.71 22.35l20.17 14.71 14.2 29.2zm241.86-139.56-27.17 13.2c-4.82 2.98-26.5 17.64-26.5 17.64l32.8 1.26 50.85 18.33-12.88 30.3s-13.97 6.17-22.86-.52c-4.85-3.65-15.67-11.63-21.72-12.23-9.75-.98-47.55 19.55-47.55 19.55-22.04 17.35 2.3 34.41 16.34 51.1l27.14-2.8c1.7 1.88 7.36 46.43-.67 70.52 4.4 17.99 22.52 35.04 29.59 35.04 12.08 0 60.52-94.8 66-109.43l-27.33-4.17 20.62-34.78 8.8-31.34c11.55 9.55 38.98 27.52 48.02 53.82l13 1.19s5.31-33.04 22.6-33.48c4.47-.12 36.4 34.19 36.4 34.19s7.04-3.48 10.7-7.16c4.48-4.47-2.96-26.85-2.96-26.85s12.8-71.88 27.44-72.67l34.18-1.87c3.53 1.62 23.57-29.54 20.6-31.22-41.64-23.44-71.8-3.1-176.07-15.22-6.62-.77-17.39 17.86-17.39 17.86l-38.9 10.7-11.15-31.91-41.72-2.84c-7.7 4.2-28.06 22.75-28.06 22.75l37.86 21.04zM1074.04 54.4s29.42 4.59 42.03 16.42c12.6 11.84 8.39 30.92 11.84 32.41 9.58 4.13 23.5-34.03 23.5-34.03l60.65-27.49S1084.2 27.25 1074.03 54.4zm488.5 311.11-22.16-23.96-42.68 32.91c-13.88 2.83-28.67 14.7-29.38 28.85l-1.34 26.68 55.05-12.74 10.7 15.4a24.46 24.46 0 0 0 21.7 10.44l13.21-.87 27.34-37.45a12.95 12.95 0 0 0 .68-14.23l-11.96-20.19-2.8-30.07-18.35 25.23zm-145.76-107.47-5.1 8.4 27.01 36.96 56.33 17.33 18.86-1.27-64.48-24.98-32.62-36.44z" />
            </g>
            <path fill="none" stroke="#121330" stroke-linecap="round" stroke-linejoin="round"
                stroke-width="12.04"
                d="M89.88 250c0 88.43 71.69 160.12 160.12 160.12S410.12 338.43 410.12 250 338.43 89.88 250 89.88 89.88 161.57 89.88 250z"
                display="block" />
        </g>
    </g>
</svg>