<svg xmlns="http://www.w3.org/2000/svg" width="500" height="500" style="width:100%;height:100%;transform:translate3d(0,0,0);content-visibility:visible" viewBox="0 0 500 500"><defs><clipPath id="a"><path d="M0 0h500v500H0z"/></clipPath></defs><g clip-path="url(#a)"><g fill="none" stroke-linecap="round" stroke-linejoin="round" stroke-width="12.04" style="display:block"><path stroke="#07A889" d="M63.194 300.534H330.06"/><path stroke="#121330" d="M327.467 338.038H81.236l-18.042-37.504 18.042-34.212 355.57-17.058-37.073 54.156c-14.633 21.375-42.277 34.618-72.266 34.618z"/></g><g fill="none" stroke-linecap="round" stroke-linejoin="round" stroke-width="12.04" style="display:block"><path stroke="#07A889" d="M207.743 189.147v-37.038m43.693 37.038v-37.038m21.59-.148h-86.874"/><path stroke="#121330" d="M369.366 252.502c-9.77-33.012-42.574-63.354-68.807-63.354H170.01m-20.252 30.123-32.642 45.336"/><path stroke="#121330" d="M350.409 219.272h-241.64s0 0 0 0c0-15.677 11.714-30.124 25.872-30.124h35.592m9.034 72.478V219.27m92.809 37.855v-37.854"/></g><g class="com" style="display:none"><path/><path/><path/><path/><path/><path/><path/><path/><path/><path/><path/><path/></g></g></svg>