<svg xmlns="http://www.w3.org/2000/svg" width="500" height="500" style="width:100%;height:100%;transform:translate3d(0,0,0);content-visibility:visible" viewBox="0 0 500 500"><defs><clipPath id="c"><path d="M0 0h500v500H0z"/></clipPath><clipPath id="d"><path d="M0 0h500v500H0z"/></clipPath><filter id="a" width="100%" height="100%" x="0%" y="0%" filterUnits="objectBoundingBox"><feComponentTransfer in="SourceGraphic"><feFuncA tableValues="1.0 0.0" type="table"/></feComponentTransfer></filter><mask id="e" mask-type="alpha"><g filter="url(#a)"><path fill="#fff" d="M0 0h500v500H0z" opacity="0"/><use xmlns:ns1="http://www.w3.org/1999/xlink" ns1:href="#b"/></g></mask><g id="b" style="display:block"><path fill="#FFF" d="M178.605 369.452c7.661 23.57 31.433 31.712 55.003 24.051l114.168-31.85c11.883-3.862 18.385-16.627 14.523-28.51-3.862-11.884-16.626-18.386-28.51-14.524l-154.943 50.36a.376.376 0 0 0-.241.473z"/><path fill-opacity="0" stroke="#121331" stroke-linecap="round" stroke-linejoin="round" stroke-width="0" d="M178.605 369.452s0 0 0 0c7.661 23.57 31.433 31.712 55.003 24.051l114.168-31.85c11.883-3.862 18.385-16.627 14.523-28.51 0 0 0 0 0 0-3.862-11.884-16.626-18.386-28.51-14.524l-154.943 50.36a.376.376 0 0 0-.241.473z"/><path fill-opacity="0" stroke="#121331" stroke-linecap="round" stroke-linejoin="round" stroke-width="0" d="M250.448 388.808c-4.283-12.982-8.568-25.942-12.851-38.924"/></g></defs><g clip-path="url(#c)"><g fill="none" stroke-linecap="round" stroke-linejoin="round" stroke-width="12.6" clip-path="url(#d)" mask="url(#e)" style="display:block"><g style="display:block"><path stroke="#121330" d="M296.97 302.61c3.75 11.62 7.51 20.06 7.51 20.06m-107.075-4.875s1.885-3.565 5.635-15.185"/><path stroke="#07A889" d="M203.92 223.98s6.57 23.05 6.57 39.69c0 12.68-3.72 27.37-7.45 38.94"/><path stroke="#07A889" d="M296.09 223.98s-6.57 23.05-6.57 39.69c0 12.67 3.72 27.38 7.45 38.94h-93.93"/></g><g stroke="#121330" style="display:block"><path d="M322.395 359.452s0 0 0 0c-7.661 23.57-31.433 31.712-55.003 24.051l-114.168-31.85c-11.883-3.862-18.385-16.627-14.523-28.51 0 0 0 0 0 0 3.862-11.884 16.626-18.386 28.51-14.524l154.943 50.36a.376.376 0 0 1 .241.473z"/><path d="M263.403 339.884c-4.283 12.982-8.568 25.942-12.851 38.924"/></g></g><g fill="none" stroke="#121330" stroke-linecap="round" stroke-linejoin="round" stroke-width="12.6" style="display:block"><path d="M178.605 369.452s0 0 0 0c7.661 23.57 31.433 31.712 55.003 24.051l114.168-31.85c11.883-3.862 18.385-16.627 14.523-28.51 0 0 0 0 0 0-3.862-11.884-16.626-18.386-28.51-14.524l-154.943 50.36a.376.376 0 0 0-.241.473z"/><path d="M250.448 388.808c-4.283-12.982-8.568-25.942-12.851-38.924"/></g><g fill="none" stroke="#121330" stroke-linecap="round" stroke-linejoin="round" stroke-width="12.6" style="display:block"><path d="M265.216 95.322c2.16-3.237 3.43-7.205 3.43-11.488 0-10.995-8.35-19.907-18.65-19.907-10.3 0-18.65 8.912-18.65 19.907 0 4.333 1.3 8.35 3.5 11.607"/><path d="M221.372 129.688c.629 12.022 6.001 20.397 7.967 23.081 4.982 6.801 12.079 12.407 20.658 15.908 8.579-3.501 15.677-9.107 20.659-15.909 6.573-8.973 7.703-18.261 7.966-23.08.598-10.972-2.57-28.369-15.181-35.498-6.113-3.456-12.671-3.495-13.444-3.491-.774.004-7.165.102-13.181 3.491-12.512 7.048-16.037 24.173-15.444 35.498z"/></g><path fill="none" stroke="#07A889" stroke-linecap="round" stroke-linejoin="round" stroke-width="12.6" d="m203.916 223.977-43.4 55.73c-2.229 2.87-5.54 4.62-9.06 5.11-.46.15-76.62 15.7-76.62 15.7s-8.31-25.017 17.39-30.259l48.65-9.92c4.818-6.189 46.574-58.359 52.464-65.22 8.686-10.118 20.552-13.108 29.134-13.412l27.526-.014m46.084 42.285 43.4 55.73c2.229 2.87 5.54 4.62 9.06 5.11.46.15 76.62 15.7 76.62 15.7s8.31-25.017-17.39-30.259l-48.65-9.92c-4.818-6.189-46.574-58.359-52.464-65.22-8.686-10.118-20.551-13.108-29.133-13.412L250 181.692" style="display:block"/><g class="com" style="display:none"><path/><path/><path/><path/><path/><path/><path/><path/><path/><path/><path/><path/></g></g></svg>