<?xml version="1.0" encoding="utf-8"?>
<!-- Generator: Adobe Illustrator 28.1.0, SVG Export Plug-In . SVG Version: 6.00 Build 0)  -->
<svg version="1.1" id="Layer_1" xmlns="http://www.w3.org/2000/svg" xmlns:xlink="http://www.w3.org/1999/xlink" x="0px" y="0px"
	 viewBox="0 0 1920 1333" style="enable-background:new 0 0 1920 1333;" xml:space="preserve">
<style type="text/css">
	.st0{fill:#141414;}
	.st1{fill:url(#SVGID_1_);fill-opacity:0.8;}
</style>
<path class="st0" d="M1920,1168V0l0,0L0,0l0,0c0,899.4,0,949.6,0,1323.6c0,11.4,22.7-5.3,34.6-8.7
	c1147.8-310.6,1528.9,61.7,1885.4-75.5C1920,1239.3,1920,1239.3,1920,1168z"/>
<linearGradient id="SVGID_1_" gradientUnits="userSpaceOnUse" x1="2821.886" y1="-478.9728" x2="83.3468" y2="1212.4094" gradientTransform="matrix(1 0 0 -1 0 1334)">
	<stop  offset="0" style="stop-color:#626161"/>
	<stop  offset="0.7348" style="stop-color:#000000;stop-opacity:0"/>
</linearGradient>
<path class="st1" d="M1920,1143.1V0l0,0L0,0l0,0c0,854.6,0,986.2,0,1323.6c0,11.4,22.7-5.3,34.6-8.7
	c1147.8-310.6,1528.9,61.7,1885.4-75.5C1920,1239.3,1920,1239.3,1920,1143.1z"/>
</svg>
