<svg id="Calque_1" data-name="Calque 1" xmlns="http://www.w3.org/2000/svg" viewBox="0 0 546.15 126.19"><defs><style>.cls-1{fill:none;stroke-miterlimit:10;}</style></defs><title>10 modifié</title><path class="cls-1" d="M24.81,494.76s26-31.19,49.5-32.11,59,12.84,76.43,11.62,40.36-10.7,52.28-23.54,40-43.41,19.87-53.2-32.1,0-35.16,3.37-12.34,18.88-11.23,29.57c.51,4.91,1.31,9.34,3.47,13.5,3.66,7,11.31,13.19,24.27,11.65,4.51-.53,9.56-4.6,13.34-8.67,10.52-11.34,15.7-31.19,19.07-33.21,4.59-2.75-6.42,27.51-6.73,31.79s-2.75,16.82,9.79,6.42,22-26.6,17.73-45.55-20.79-31.19-33.33-32.71-25.68-3.06-39.43,4.58S160.52,404,157.46,414.65s-2.14,28.74,5.2,38.22,20.18,20.18,37.3,21.71,33.33.61,48.31-9.79,24.46-38.82,27.82-48.3,14.67-43.72,34.85-46.47,64.51,4.28,72.77,5.19,67.87,9.18,37.3,19.88-40.67,21.75-49.23,25.85-17.73,16.38-27.82,0-33.32-68-34.24-34.72-5.2,44-6.73,49.22-5.5,26,10.7,16.51,39.44-40.35,15.29-21.4-22.93,27.21-15.9,27.21,48.47,6.84,57.79,8.26,45,14,23.23-.31c-18.3-12-21.28-21.86-25.76-31-1.67-3.44-1.45-10.85,7.11-.15s39.75,53.5,42.8,35.16,4-86.22,27.52-77.66,35.47,17.12,48.31,35.46,40.05,26.91,49.83,26,26.56-4.28,26.56-4.28" transform="translate(-24.42 -368.88)"/></svg>