<svg id="Calque_1" data-name="Calque 1" xmlns="http://www.w3.org/2000/svg" viewBox="0 0 536 278.68"><defs><style>.cls-1{fill:none;stroke-miterlimit:10;}</style></defs><title>11 modifié</title><path class="cls-1" d="M30,520H169.54s-22.93,5.5-8.25,18.34,40.35,17,67,22,73.07,5,83,5,56.41-3.36,72.46-7.49,39.44-11.77,44-15.21,9.17-9.86,6-17.2-12.32-5.62-12.32-5.62L566,519.78" transform="translate(-30 -287.2)"/><path class="cls-1" d="M425.59,500s-1.34,4-8.63,9.48c-8.34,6.27-31.7,11-54.95,12.08-12.15.54-70.94,1.37-75.53.91s-49.52-2-64-3.59c0,0-30.27-1.6-36.69-4.12s-16.51-6.2-16.51-12.85,11.47-12.84,13.53-20.63c1.84-7,3.32-16.13,1.16-22.58a13.34,13.34,0,0,0-.93-2.19s21-7.11,40-6.88,33.71.58,47.93,1.95,23.27,4.93,24.42,1,.23-5.57.23-5.57-28.9,1.22-54.12-1.53-48.38-3.9-53.88-6,3.9-38,9.7-45.32c5.2-6.57,10.25-15.9,43.95-23.92s56.64-9.4,79.34-8.26,53,5.5,71.08,24.54,22.24,34.16,22.93,44.94-11.92,12.15-19.26,13.3S301.62,447,301.62,447s78.88,2.12,88.28-17.38.46-28.2-1.84-31.41-30-17.43-48.84-20.87-67.81-15.53-68.56-15.71c-1.38-.33-4.12-7.67,4.13-9.74s32.56-3,37.38-2.52,12.84,2.75,15.59,8.94.69,3,.69,3-8.49-8-19.72-8-22.48,2.52-22.93-5.73a69.62,69.62,0,0,1,.23-12.84s15.36.68,18.34,2.75,4.81,10.77,4.81,10.77-.45-8.71-1.14-13.52-20.41-1.15-20.41-1.15a23.56,23.56,0,0,0,4.13-8.94c.77-3.56.81-5.55,1.53-6.54a2.11,2.11,0,0,1,1.68-.8c2.52-.23,4.81.69,5.27-1.61.27-1.36-.1-3.37.13-5.17a4,4,0,0,1,1.71-3.08c2.75-1.84,7.33-3,14.21-2.75s5.74-3.21,6.19-5.28,1.61-8.48-9.86-10.32a105.81,105.81,0,0,0-23.84-1.14c-3.9.23-14.91,1.14-15.6,5.5s-.91,10.32,3.21,11,14.27-1.88,16.29,4.05c1.89,5.56,1.22,8.48,1.22,8.48" transform="translate(-30 -287.2)"/><line class="cls-1" x1="244.23" y1="16.05" x2="291.18" y2="16.05"/><path class="cls-1" d="M308.43,338.05a11.27,11.27,0,0,0-1.31-6.1,14.38,14.38,0,0,1-4.58-6.07c-1.61-4-2.07-16-2.07-16h-7.35" transform="translate(-30 -287.2)"/><path class="cls-1" d="M294.43,446.67v19.65l5.51-.15s-46-.46-55.49-.76-35.93-1.84-41.58-2.91S187.15,460,184,458.65" transform="translate(-30 -287.2)"/><path class="cls-1" d="M206.23,469.76S264.11,475,298,474.58s58.9-1.19,69.45-2.11,39.42-4.77,44-7.75-1.59-6.86-1.59-6.86a63.86,63.86,0,0,1-11.1,3.95c-6.11,1.53-27,2.37-39.51,3.6s-59.31.76-59.31.76L299.55,447s16.9.07,56.64,1.91,48.84,4,52.51,7c.92.76,2.22,2.29,1.38,12.3s12.76,28,15.51,31.72,4.89,7.95,1.84,14.68-23.7,11.92-36.84,15-38.83,5.35-57.33,5.81c-11.37.28-81.63.3-111.29-2.14s-38.52-8.26-48.61-13.5-4-15.55-4-15.55" transform="translate(-30 -287.2)"/></svg>