<svg id="Calque_1" data-name="Calque 1" xmlns="http://www.w3.org/2000/svg" viewBox="0 0 550.95 224.1"><defs><style>.cls-1{fill:none;stroke-miterlimit:10;}</style></defs><title>12 modifié</title><path class="cls-1" d="M15.42,471.37s116.06,1.83,160.08,6c20.54,1.92,59.87,5.91,98.26,10.89,43.92,5.7,86.55,12.19,97.56,9.75,20.64-4.59,29.36-8.72,36.69-18.35s40.36-66.49,44.95-93.09-8.26-45.86-19.27-55.95c-4.64-4.26-8.78-6.49-11.92-6.08-4.3.57-6.93,5-8.25,6.08-2.3,1.83-8.72,5.16-19.84,5.62-14.31.59-28.55,11.46-32,25.56-3.82,15.7,1.37,31.43,10.78,39.21s27.08,12.36,43.81,5.52c6.61-2.7,10.45-7.77,13.4-12.86,5.58-9.61,6.29-21.14,4.59-29.92C432.54,354.77,428,344,415.14,339c-8.62-3.3-16.76-3.3-9-8.81,3.6-2.54,7.85-4.9,8.48-7.1.74-2.57-2.92-4.86-10.32-5.85-13.75-1.84-34.85,5.62-44.48,14.79s-20.64,26-17.43,48.49A171.91,171.91,0,0,0,358,431.47c5.5,11.46,25.86,44,32.56,50.9a37.75,37.75,0,0,0,21.55,11.47c7.8,1.37,34.93,6,41.77,7.79s25.95,10.09,17.24,20.18-21.4,13.3-36.08,16.05-49.41,2.41-62.83,1.84c-16.05-.69-38.6-10.24-40.89-11.62-1.15-.69-6.71-4-8.25-9s1-10.9,7.41-14.83c12.93-7.91,37.62-10.62,44-10.62s46.89,8.48,54.22,11.69,26,10.09,2.18,17.89-58.64,4.32-68.27-1.19-13.72-12.06-2-16.35c12.84-4.7,37.29-3.77,52.86-1.84s52.73,7.46,65.12,7,87.7-3.67,87.7-3.67" transform="translate(-15.41 -316.5)"/></svg>