<svg id="Calque_1" data-name="Calque 1" fill="none" xmlns="http://www.w3.org/2000/svg"
    viewBox="0 0 505.82 272.31">
    <title>13 modifié</title>
    <path class="cls-1"
        d="M572.65,593.08S562,589,525,579.9,400.3,586,403.34,576.35s-33.46-7.92-33.46-7.92c.51-12-3.55-21-30.41-18.94s-40.56,13.18-71,16.72-58.81-7.09-66.92-8.11-26.69-.5-35.82-8.11-1.69-13.68,7.94-16.22,53.74,3.89,68.94-1c15.65-5,22.84-15.66,24.67-20.45,5.39-14-37.85-17.07-47-19.09s-19.26-2-20.28-14.7,15.72-11.41,15.72-11.41,25.34,4.31,47.14,0,25.85,1.27,33.46,5.32,20.78,9.13,33.45,12.17,32.16,7.11,36.5,16.73,3,5.57,0,46.13-5.07,11.15-4.6,3.55.55-56.27,0-68.95,4.06-9.63,8.11-8.61,8.62-1.52,17.24-1,12.16,16.73,14.19,25.35-8.75,67.42-8.75,67.42,8.24-5.07,6.22-25.35-7.1-71-6.09-75,8.11,3,23.83,4.56l143-4.56"
        transform="translate(-67 -321.23)" />
    <path class="cls-1"
        d="M207.67,467a6.28,6.28,0,0,0,5.74,6.42c6,.84,15.29-1.27,16.65-2.2s0-2.59,0-2.59S209.52,465.34,207.67,467Z"
        transform="translate(-67 -321.23)" />
    <path class="cls-1" d="M186,533.22l-41.91-1s-8.61,4.22-1,11.83,27.36,8.84,27.36,8.84"
        transform="translate(-67 -321.23)" />
    <path class="cls-1"
        d="M148.36,532.25H80.43L78.91,405l113.55,5.07-1.27,122.17-.59-123.43v-2.54l-.16-32.95h88.46l-1.36,34.95S266,406.53,266,413.12s1.52,47.17,1.52,47.17,13.94-54.26-5.32-53-64.63-.25-64.63-.25l-42.84-.51-.25,125.72"
        transform="translate(-67 -321.23)" />
    <path class="cls-1"
        d="M154.69,408.4H67.5V372.06l122.94,3.55c-.39-1.76-35.91-9.71-35.75,11.91C154.85,408.4,154.69,408.4,154.69,408.4Z"
        transform="translate(-67 -321.23)" />
    <path class="cls-1"
        d="M166.1,374.91A158.65,158.65,0,0,0,193,348c13.68-17.23,33.3-24.07,37.69-21.54s14.52,12.42,10,29.66-31.46-1-50.18,6.59-17.25,3.68-24.34,9.37-9.38,6.09-20.53-1-6.84-6.59-22-11.41-24.59-12.92-19-26.1,25.09-12.42,29.91-11.16,16,6.34,24.84,25.35,10.12,21.16,20.77,27.58"
        transform="translate(-67 -321.23)" />
</svg>