<svg id="Calque_1" data-name="Calque 1" xmlns="http://www.w3.org/2000/svg"
    viewBox="0 0 536.66 249.01">
    <defs>
        <style>.cls-1{fill:none;stroke-miterlimit:10;}</style>
    </defs>
    <title>14 modifié</title>
    <path class="cls-1"
        d="M75.07,547.27c9.17-1.61,36.69-12.85,47-20.64s25.45-25.91,40.58-34.17,37.15-.68,37.15-.68L183.53,484c41.73,6,95.39,34.62,95.39,34.62l6-7.33S273,501.41,264.24,495s-39-26.14-39-26.14c14,4.58,21.1,9.63,21.1,9.63,30.72-9.63,84.84-49.07,84.84-49.07l-19.95,15.82C336.7,448,382.33,468.85,392.19,473s62.14,31.88,78.19,40.36S525,531.9,533.9,534.42,563,504.16,563,504.16c-8.26,5-25.68,26.37-25.68,26.37S417.18,461.74,393.57,448.9s-47-37.15-47-37.15c53.89-32.1,48.38-56.18,39.44-66.5s-27.75-8.48-44-2.29-101.8,61.91-101.8,61.91L257,390.42s-49.58-4.81-66.32-8.25-72.23-18.11-82.32-19.95-47.7-8.71-47.7-8.71L37.46,307l-8.94,3.21,13.3,35.77A16.09,16.09,0,0,0,52.6,358.09c9.63,3.44,163.49,48.16,163.49,48.16s12.15,4.58,14.45,10.54.22,11.24-5.51,12.62-8.48-5.05-8.71-6.42-22.93-77.05-22.93-77.05-2.75-25.22-29.12-17.2c0,0,3.44,45.63,3.67,55.72s-3.44,80.26-3.44,80.26,26.82-17.89,33.47-21.1,11.93-5.5,11.93-5.5L160.6,470s.69-21.55,3.9-29.58c0,0-28.25-7.84-41.58-12-8.87-2.76-44.41-13.4-53.12-7.47L160.6,470"
        transform="translate(-27.88 -298.75)" />
    <path class="cls-1"
        d="M160.6,470s-5,17.43,12.76,9.17,26.6-11,44-18.34,66-32.1,80.25-42.5,57.33-50.14,67.42-58.09,46.16-28.74,62.67-35.46,33-18.65,39.44-25.68"
        transform="translate(-27.88 -298.75)" />
</svg>