<svg xmlns="http://www.w3.org/2000/svg" viewBox="0 0 549.51 296.28">
    <defs>
        <style>.cls-1{fill:none;stroke-miterlimit:10;}</style>
    </defs>
    <title>Villa</title>
    <g id="Calque_2" data-name="Calque 2">
        <path class="cls-1"
            d="M383.59,447.51V343.09L354.85,311.9l-11.92,6.42,1.22,57.79-49.83,8.25.3,61.15h60.23V328.11L286.06,352v23.24l14.68-3.67v-29l-53.51,11.61.61,84.69h36.08l-1.83-76.13-43.42-26-52.28,17.12v77.65l51.06.92,2.14-75.21-60.54,15.59v80.11l56.57-12.23s-51.67-1.53-82.86,6.72c0,0-2.75-24.46-3.06-33.63s-.3-40.66,2.14-51.06,9.18-39.13,29.66-58.08c0,0,12.54,16.5-4.28,53.5,0,0,17.12-13.15,21.71-26.29s1.83-23.85-7-32.72,32.4,36.08,32.4,36.08.92-47.7-26-44.94,13.45,3.05,19.56,4.58,15.29,10.7,15.29,10.7-5.2-23.54-19.57-28.43-24.46,2.14-24.46,2.14-1.52-19.57-11-25.68S147,247.09,147,247.09s16.21,7.95,24.16,22.32c0,0,14.67,26,12.53,13.14,0,0-7.64-19.26-29-18.65s-28.44,6.73-28.44,6.73,21.4,4,35.16,15.29,14.37,5.19,14.37,5.19-7.95-15-26.6-7.64-25.37,19.57-26.9,24.15c0,0,18.65-11.31,24.76-11.92s17.74-1.84,23.24,1.53c0,0-20.79,2.44-25.68,10.7s-10.09,24.15-7.65,30.27c0,0,16.82-21.1,19.57-24.46s15-10.4,17.43-10.4c0,0-26.3,31.19-31.49,55.65,0,0-6.73,26.29-6.12,44.63S139,449.48,139,449.48,93.76,463.24,73,471.8s-49.83,22.93-49.83,22.93"
            transform="translate(-22.92 -246.56)" />
        <path class="cls-1"
            d="M383.59,439.83s79.54-1.6,81.37,30-33,34.4-55.72,33c-14.46-.87-71.63-14.49-79.15-15.5-4.71-.63-86-15.56-109.26-14.23-15.08.86-31.49,1.83-51.05,6.42-15.75,3.69-30.42,10.64-40.25,15.15-14.07,6.45-56.56,31.19-73.38,47.7,0,0,61.15-42.5,125.35-43.72s145.83,22.31,151,22.93,82.45,24,115.23,15.65c27.95-7.13,40.08-12.9,78-51.43s46.38-32.4,46.38-32.4"
            transform="translate(-22.92 -246.56)" />
    </g>
</svg>