<svg id="Calque_1" data-name="Calque 1" xmlns="http://www.w3.org/2000/svg" viewBox="0 0 551.47 259.13"><defs><style>.cls-1{fill:none;stroke-miterlimit:10;}</style></defs><title>16 modifié</title><path class="cls-1" d="M25,371.85s45-9.63,59.7,0,42.19,28.89,64.2,29.35,55-6.88,55-6.88a127.24,127.24,0,0,1,19.49-30c12.67-14.52,31.67-28.84,50-33.47,39.07-9.89,72.69-4.82,87.83,4.35s-11-7.79-11-7.79,5.5-9.17-.92-13.76c-4.54-3.24-.14-11.26,2.83-15.68a4.53,4.53,0,0,1,5.52-1.66l25.45,10.66a6.36,6.36,0,0,1,3.32,8.55l-2.94,6.34a7.56,7.56,0,0,1-7.08,4.31c-1.61,0-3.56.87-5.54,4-4.93,7.74,0,10.55,0,10.55s23.13,9.15,39.44,36.68c17.65,29.81,21.09,66.35,13.3,93.41s-24.31,55-61,71.92-74.75,12.61-97.22,2.06-53.34-32.4-63.75-70.62c-11.23-41.27,7.55-78.49,16.51-89.89,16-20.4,47.24-39,47.24-39s11.92,23.39,6.88-2.29c0,0,28.89-9.63,44-8.71S348.85,343,348.85,343l-18.34,79.18,45.86-10.39-39.9,24.76,58.24,37.15L327.3,457.61l10.09,47.24L312.66,464,275,521.81l17.43-66.95L246.59,465l39-24.77-53.66-33.93L302,436.51s2.22-7.41,11.08-5c6.35,1.69,7.34,10.09,4.59,13.76-1.82,2.42-7.34,4.09-11.39,1.45-2.08-1.35-3.65-3.29-4.41-7.87-1.21-7.34.21,3.67,8,5s9.63-.92,9.63-.92l88.05,36.69s31.65,21.56,62.37,15.14,53.2-29.81,79.8-32.11l26.6-2.29" transform="translate(-24.9 -295.42)"/><path class="cls-1" d="M218.15,398.91l77,19.95-10.55-46.55L309,412.9,356,345s43.11,24.31,50,49.3c0,0-25.45,16.51,3.9,9.4,0,0,15.59,46.92-1.38,76.5s-22.7,39.07-51.59,53.06c0,0-15.13-26.37-8.26,2.75,0,0-14.9,6.65-38.06,6.65S273.87,536,273.87,536s8.26-25.91-7.33-4.36c0,0-36.69-16.51-48.39-53.88,0,0,26.14-11.47-4.12-6.65C214,471.14,205.31,423.44,218.15,398.91Z" transform="translate(-24.9 -295.42)"/></svg>