<svg id="Calque_1" data-name="Calque 1" xmlns="http://www.w3.org/2000/svg" viewBox="0 0 523.3 317.91"><defs><style>.cls-1{fill:none;stroke-miterlimit:10;}</style></defs><title>17 modifié</title><path class="cls-1" d="M16.83,617.66h307s-20.48-15-32.1-24.76-10.39-27.83-13.14-39.14a51.11,51.11,0,0,0-9.18-19S259,544.9,247.66,555.6s-20.79-2.75-28.74-18.35-39.75-24.46-48.61-30.88-1.23-8.25-20.49-31.18-41.58-10.7-41.58-10.7c3.37,7.34,19.87,23.85,19.87,23.85a66.51,66.51,0,0,0,14.07,31.49c-.31,8.56,2.44,16.51,5.5,28.12s20.79,27.21,28.74,33,5.5,4.89,10.4,14.07,16.5,20.48,16.5,20.48,45.25-13.45,67.27-26.29-38.53,11.62-63.9,15.59,56.25-24.76,65.12-28.43,4.89-6.42-1.53-33.94c-2.12-9.07,20.79-25.68,31.18-33.94S310,494.45,305.75,489s-48.92-43.72-48.92-43.72c28.43,4.89,46.78,3.36,73.68,4.58s22-1.83,29.66-13.14,25.68-7.95,32.71-7,83.46,38.83,92.33,38.83,36.69-11,41-12.23,11.31-2.75,11.92,3.16,1.53,34.14,1.53,43.93S537.8,544,533.82,547s-11.62-.62-26.29-2.14-30.88,3.05-59.92,11.92-63,3.06-76.13-3.06-50.14-4.28-57.48-4-41.27,1.83-41-16.21S302.69,517.69,344,518s12.23-18.34,2.45-26.9-42.19-9.17-50.45-9.17-59.31-19.57-67.87-22.53-10.4-10.8-11-18.75,25.07.31,25.07.31l-86.46-71.56a4,4,0,0,0-4.61-.31c-5.5,3.43-19.47,12-32.14,19S91,406.32,85.11,410.85a2.78,2.78,0,0,0-.27,4.19c2.51,2.47,6.81,6.79,11.48,11.84C103.66,434.83,126,452,126,452l-7.33,5.2s-34.55-24.76-44.95-41.27,15.9-22,33-34.25,32.11-25.52,40.82-24.45,39.74,28.58,44.33,33.17,57.48,49.07,57.48,49.07-12.08,2.6,5.5,4.74l-4.73-4.64S343,395.7,347.63,393.1s32.56-20-8.87-9-80.67,21.25-56.54,4.59,64.95-39,68.47-41.28,31.79-19.87,11.92-18.34-86.87,42.18-77.2,24.61c4.28-7.78,28.3-20.57,43.32-30.36,13.4-8.73,19-17.22,7.57-13.7-24.19,7.45-32.39,15.63-41.56,18.38s-2.58-6.86,2.9-10.55,18.26-12.61,8.56-15c-8.18-2-8.25-1.68-8.25-1.68" transform="translate(-16.83 -300.25)"/></svg>