<svg id="Calque_1" data-name="Calque 1" xmlns="http://www.w3.org/2000/svg"
    viewBox="0 0 324.91 155.73">
    <defs>
        <style>.cls-1,.cls-2{fill:none;}.cls-1{stroke-miterlimit:10;}</style>
    </defs>
    <title>18 modifié</title>
    <path class="cls-1"
        d="M93.65,347.91H260.27s-15-4.59-18.34-24.77-5.5-23.23,0-38.21,19.57-22,27.21-25.07,47.08-14.52,55.95-9.86S352,270,341.9,277.59s-16.81,11.92-20.17,18.34-4.9,10.4-13.15,8.26-18-.92-26,2.75-13.14,6.73-24.46,4-18.95-9.18-15.28-16.82,10.7-25.38,26.29-30.57,41.82-12,51.67-11,15.79,8.43,14.67,19.57-8.86,8-13.75,14.37-5.2,11.36-12.54,11.94-23.85-1.24-30.27,3-13.75,9.17-20.79,4.58-11.61-2.82-10.39-13.45,11.31-20.18,20.48-23.54,33.33-12.84,42.5-7,8.87,13.76,3.06,18.95S300,294.71,283.82,295s-25.07,1.83-25.07-5.51,4.89-9.17,9.47-6.42,4.59,7.34,3.06,8.56-41.89-63-41.89-63-10.08-2.44-3-8.86,1.53,9.78-.31,12.84-23.23,39.13-23.23,39.13l13.45,1.84s13.07-40.36,3,.3a22.43,22.43,0,0,1,8-2.44c4.9-.62,5.2,1.83,5.2,1.83s-4.28-35.16,2.14-1.53a15.83,15.83,0,0,1,6.12-5.2c3.67-1.52,5.5-.91,5.5-.91l-6.11-12.23,7.33,10.09s7.34-7.34,13.15-7.95l-12.23-13.76,14.06,11.92s5.81-8.86,11.62-11l-15.9-5.81L274,240.6s3.36-7.95,10.4-11.93H270.06l13.76-1.83.3-8.52-53.5,7L267,279.42s34.55-15.59,39.75-15,6.11,4.59,5.19,10.4a47.71,47.71,0,0,1-1.83,8.27l-8.56,1.51s18.34-68.48,19.87-74.6,5-25.07,23.47-11.92,34.93,26.29,34.93,26.29-4,7.65-5.81,4.89-.92-5.5,2.44-5.19-.3,6.72-7,2.75S334.57,196,331.51,207.27s-18,61.45-18,61.45,4.28-17.73,14.07-21.4,12.84-15,12.84-15-3.67,19.26-2.76,22l-9.47-4.15s33.28,14.2,34.09,46c.8,31.59-3.67,28.2-.77,28.74,0,0,16.21-26.91,25.38-33s24.15-24.76,29-25.68c0,0-44-8.56-50.75,37.91,0,0,17.43-44.33,22.32-48.92s16.81-29.65,20.48-31.79c0,0-39.81,20-48,33,0,0-4.14,5.32-5.5,10.09,0,0,9.42-29.1,14.06-34.85,0,0-16.2,9.48-24.15,26.9"
        transform="translate(-93.65 -193.06)" />
    <path class="cls-2" d="M350.16,347.91c17.12-28.43,12.3-36.09,12.3-36.09"
        transform="translate(-93.65 -193.06)" />
    <path class="cls-1" d="M362.12,302.67s.67,24.11-11,45.61h62.93"
        transform="translate(-93.65 -193.06)" />
</svg>