<svg id="Calque_1" data-name="Calque 1" xmlns="http://www.w3.org/2000/svg" viewBox="0 0 472.24 748.49"><defs><style>.cls-1{fill:none;stroke-miterlimit:10;}</style></defs><title>19 modifié</title><path class="cls-1" d="M276.39,638.3c-26.14-1.38-50.44-12.84-62.82-3.21s-24.77,32.1-32.11,55c-2.61,8.17-7.16,17.69-10.54,26.83-6.1,16.5-9.77,31.79-30.16,32.1a408.34,408.34,0,0,1-46.89-2.52s5.51-115.11,14.68-133.46,20.18-67.41,39.44-67,52.74.92,28.43-8.71c0,0-16.51,8.25-33,4.58s-16.05-26.14-9.63-65.58.46-94.14,33-129.61,39.9-44.66,61.45-47.87c0,0,71.78,50.19,72,112.36s-12.65,38.06-10.45,29.35,6.32-57.78-18-87.59-65.58-45.4-45.4-59.16,17.88-6.42,23.84-10.09S266.31,260,273.64,271s19.72,35.77,36.23,45.4a253.48,253.48,0,0,0,33.48,16.05S331,356.72,320.88,349.84s-56.48-41.93-57.33-60.54,19.27-32.56,19.27-32.56,32.56,73.84,76.12,65.58,27.52-28.89,33-37.6,25.68-46.32,25.68-61.45-1.37-91.27-25.22-78-32.56,14.22-53.2,5.51-22.47-13.2-33.47-7.06S287.86,157.23,286,171.9s-1.38,39.44-8.26,29.35S266.31,182,259.43,184.74s-16.51,8.26,0,43.11,22.93,17.89,23.84,14.22-28.43-70.17-28.43-88.51,7.8-72,27.52-55.95,30.26,57.32,13.3,32.1-24.77-37.6-20.18-43.11,31.18-35.31,69.7-24.3,77.62,49.6,74.3,89-10.09,23.38-10.09,67.41S396.55,249,388.29,278.3s-14.67,36.23-26.6,39-17.42,12.38-12.84,16.05,13.3,6.42,15.6,11c0,0,12.84-9.18,16.05-16.06s5.5-25.68,13.3-5.5,14.67,114.65,6,133.91-31.65,67-33,89-.46,19.26-17-5.5-25.31-22-37.15-54.12c-9.63-26.14-3.21-9.17-5.5-15.13,0,0,38.06-13.3,50.91-17.89s35.31-12.38,34.85-26.14-9.17-128.86,1.37-136.2,8.26-7.8,11.93-4.59,27.51,22,27.06,72.92-.92,67.41-3.21,83,9.18,34.85,3.21,47.23,1.83,77.51-1.38,91.72.63,19.44.63,19.44S421,597.58,420.39,606c-.28,3.72.91,9.08,2.64,18,3,15.47,3,21.53,1.61,20s-10.9-9.43-12-10.55c-7-7.19-30.89-32.5-40.42-48.78-11-18.8-20.18-21.55-11.92-6.42,5.48,10,43.7,49.63,70.85,81.17,7.42,8.63,12.45,18.63,17.58,25.07,4.37,5.48,9.14,7.8,10.63,10.7,4.09,8,10.85,19.77,17.65,31,3.66,6,8.21,11.85,10.4,17.12,3.3,8,5.12,14.68-.77,17-6.11,2.37-14.52,1-22.77-8.17s-43.5-57.86-38.45-55.11,39.44,44.48,36.23,61c-.68,3.47-.46,6.7-2.14,7.87-6.31,4.42-18.54-5.33-22.17-7.87a85.57,85.57,0,0,1-14.44-12.38c-4.5-4.91-8.5-11.89-11.77-15.9-6.46-7.92-5.75-9.13-3.06-8.71,6,.92,12.77,24.61,32.48,33.78s18.65,13.15,11.32,18.19-28.13-4.89-41-15.9a52.62,52.62,0,0,1-14.52-21,.8.8,0,0,1,1.29-.85c2.88,2.58,6.47,11.41,12.62,17.51,5.26,5.22,22.56,13.65,27.13,17.27s-4.14,3.25-5,3.26c-3.14,0-8.53-.48-20.79-8.76-10.85-7.34-25.76-21.09-30.5-30.35-10.08-19.72-7.33-30-10.54-38.75-.77-2.07-3.21-7.29-6.88-10-10.63-7.87-28.31-24.28-28.66-30.57-.46-8.26,11,2.75,17.42,7.33S380.71,689,385.39,688.9c5.65-.08,6.42-3,11.62-5.58,6.54-3.28,15-5.63,23.08-1.91,6.5,3,12.75,7.91,19.64,13,12.54,9.23,25.76,23.16,29.28,40.2,5.44,26.42,4.43,47.09,12.68,52.59,2.47,1.64,9.9,2.52,15.29,3.52,5.81,1.07,21.37,11.25-2.75,15.43-12.29,2.14-23.49,1-33.17.39-17.42-1-28.37-4.25-30.73-5.43-3.67-1.83-7.41-7.41,10.63-12.69,9.63-2.82,15-7.7,18.65-12.46,3.9-5.08,3.18-12.8,4.73-12.23,5.43,2,9.86,13.07-4.51,23.16-14.59,10.26-20.94,7-1.37,9.4,24.19,3,67.41-1.14,67.41-1.14" transform="translate(-53.68 -59.38)"/><path class="cls-1" d="M53.71,757.07,306.2,745.15s12.39-22,14.68-38.06-4.59-22,3.67-43.57l4.13-11S270,620.87,271.35,580.06,286,523.65,303,528.23s33.48,18.81,35.32,21.56,17.42,21.09,15.59,8.25S330.05,530.53,325,522.27s-29.35-33.48-20.18-33.48-21.56-37.14-19.72-49.07,5-44.48-32.1-74.29-56.87-15.59-65.12-12.84S150.28,376.94,154,420.94s23.85,91.7,37.15,111.88,18.8,30.27,35.31,40.81,28.43,34.29,27.51,43.92" transform="translate(-53.68 -59.38)"/><path class="cls-1" d="M474.43,721.07s8.91-2.88,12.34,3.71c1.92,3.67,4,9.26,2.11,14.1s-6.74-2.09-15.13-13.07c-5.84-7.63-15.05-19.95-21.48-31.26-15.81-27.8-27.66-60.22-24.86-80.06a.85.85,0,0,1,1.37-.55c1.12.9,3.41,2.11,8.12,3.2,9.88,2.29,32.7,2.81,43.74,1.38,6.08-.79,17.06-2.15,21.1-3.9,8.44-3.65,4-6.54-4.42-7.16-5.91-.44-22.08-1.23-36.51-.75-15.78.53-29.72,2.49-31.76,6-2.48,4.3-11.52-5.87,10.19-9.71,4.72-.84,11.77-1.42,18.93-1.87,7.93-.5,16.07-.11,20.41-.06,5.27.07,12.77.65,19,1.21,9.59.86,17.1,2.86,16.4,12.15-.84,11.17-2.09,25.95-6.34,38.83-3.51,10.61-9.4,19.86-15.83,25.45-14.21,12.38-18.45,21.45-18.88,39.59" transform="translate(-53.68 -59.38)"/></svg>