<svg xmlns="http://www.w3.org/2000/svg" viewBox="0 0 274.35 294.07"><defs><style>.cls-1{fill:none;stroke-miterlimit:10;}</style></defs><title>2 modifié</title><g id="Calque_1" data-name="Calque 1"><path class="cls-1" d="M168.63,219.31S176.08,197.76,174,194s-4-.11-8.94-1.14-8-6.42-8.72-6.42-4.81,6.87,0,12,12.39,4.25,14.33,2.87c0,0,3.48-.34,3.69-13.3s1.47-24-4.37-18.57-12,11.23-11.47,14.1.63,6.13,7.22,7.45,9.41,0,10.09-4.58,1.84-11,1.84-15.37-1.24-16.91-2.41-19.6c-.29-.66-.34-1.72-4,0S167.1,158,168,159.69s3.68,5.28,6.67,5.51-4.7-44-.92-48.5,14.88,0,35.08-2c10.89-1,23.28-2.18,26.95-3.33s13.87-5.84-1.95-7.79-46.67.57-51.83,1.26-24.16,6.29-14,10.55c6.3,2.63,14,4.12,44.25,2.63S239,116.24,239,116.24s-.92,26.6-.46,31.18,2.52,19.61.34,26.37-4.24,11.24-4,.81-2-3.33-2.75-1.38-4.36,12.15,2.86,14.33,29,.69,33.82,7.11,4.48,17.08,7.57,22.7,11.58,18.25,13.64,17-6.19-9.12-8.94-15.65-8.48-17.54-9.28-21.56,1.49-8-8.37-9.28-12.16,0-11.35,4.58,3.21,17,5.5,22.36,8.6,23.62,10.78,27.17,13.3,15.82,17,19.15,21,17,25.69,19.37,19.49,10.09,17.19-2.4-8.83-19.38-4.35-33.94,24-36.46,29.12-37.49,25.22,1.72,30.26,10.09,3.67,23,3.67,30.27-.69,97.1.17,103.07,8.89,33-5.55,22.35-26.37-29.23-30-33-15.14-16.16-20.3-33.25-13.87-47.46-13.07-52.16,4.48-24.08,14-34.63a104.81,104.81,0,0,1,18.34-16.28s-7.91-15-17.31-22.7-20.29-21.09-22.7-24.42-10-16.85-22.24-18-46.66-6.42-46.78-6.42-2,21.44,1.38,26.37,6.42,7.23,15.71,6.65,13.64-2.52,19.94-1.26,12.23,4.17,11.78,2c-.15-.69-1.76-2.47-5.47-3.49s-8.22-1.32-15-1.06c-8.6.69-27.06,2.41-32.1,2.75s-17.36-3.49-23.39-6c-4.66-1.91-12.5-3-16-.11s-4.24,9.85-1.6,12.38,19.1,10.62,22.47,1.87c2.7-7-1.38-10.82-6.19-11.73s-13.76-1.72-13.76,7.33,3,10.08,5,11.7c3.53,2.79,15,8.83,21.9,10.55s15.25,2.75,21.78,1.94c0,0,41.74,120.85,44.37,132.08s9.63,29.35,3,37.84S278.35,378.1,268.83,382s-43.91,12.38-51.24,12.27-29.93-2.64-37.84-5.85-25.22-7.91-29.46-14.1-7.8-12,2.17-15.48,46-8.37,62.49-7.68,54.57-.92,63.4,5.39,8.94,11.58-11.69,20.86-53.77,9.4-58,9.4-33-3.89-45.17-11.23-19.26-12-21-15.59c0,0,2.52-28,4.7-38.07s12-63.06,13.3-67.53,4.35-32.36,8.94-34.74" transform="translate(-116.24 -102.4)"/><path class="cls-1" d="M116.58,360.44S157,397.54,223,395.92c67.27-1.65,99.06-39.76,99.06-39.76" transform="translate(-116.24 -102.4)"/></g><g id="Calque_2" data-name="Calque 2"><path class="cls-1" d="M212.89,210c15.28-.61,44,1.23,40.05,7.34s-27.21,15.29-43.72,16.82c-14.31,1.32-45.56-3.48-40.67-12.14S197.6,210.63,212.89,210Z" transform="translate(-116.24 -102.4)"/></g></svg>