<svg id="Calque_1" data-name="Calque 1" xmlns="http://www.w3.org/2000/svg" viewBox="0 0 406.4 133.09"><defs><style>.cls-1{fill:#fff;}.cls-2{fill:none;stroke:#000;stroke-miterlimit:10;}</style></defs><title>3 modifié</title><path class="cls-1" d="M30.36,310.94" transform="translate(-31.21 -178.35)"/><path class="cls-2" d="M31.21,310.94H212.32a1,1,0,0,0,.91-1.37l-41.4-95.91a1.37,1.37,0,0,1,.64-1.77c4.57-2.3,21.92-11,35.21-16.69S242,181.06,247.27,179a1.39,1.39,0,0,1,1.79.72c3.18,7.1,19.23,42.94,22,49.23,2.49,5.61,16.84,39.89,20,49a1.71,1.71,0,0,1-.88,2.1c-8.38,4.05-53.8,25.88-69,30.56a1.51,1.51,0,0,1-1.8-.8c-3.37-7.14-21.24-45.11-26.84-60-3.23-8.55-10.07-22.45-13.34-33.74a1.17,1.17,0,0,1,.61-1.39c4.44-2.19,24.31-11.95,33-15.34,9.37-3.65,21.61-9.42,30.8-12.39a1.46,1.46,0,0,1,1.78.8c3,6.62,17.89,39.16,22.2,49.28,4.82,11.29,14.13,34.37,16.27,39.68,0,0-17.59,8.13-27.06,12.61s-26.31,11.95-28.13,12.29c0,0-3.41-3.82-7.72-16.11l4.42-2.36a.21.21,0,0,0,0-.38,10.78,10.78,0,0,1-3-2.15c-1.5-1.58-2.91-4.32-.83-2.66s4.65,2.08,5.64-1.49,6.39-4.82,4.15-2.41-3.65,5.39-3.24,7.55L263,266.84l1.32-8.22s19.18-52.79,20.55-54,6.72-3.11,3.36,1.75-7.22,10.46-7.72,14.44l-.5,4s-4,.63-4-2.11,3.24-15.94,10.71-17.43c0,0,5.23-3,.49,7.47s-18.55,46.56-18.55,46.56l-4.6,7.47,2.86-1.49s-.62-1.87-1.74-4.86a16.7,16.7,0,0,0-2.37-4.48l-45.94,19.55a43.12,43.12,0,0,1-3.24-6,12.25,12.25,0,0,1-1.12-4l4.4-2a.29.29,0,0,0,0-.55c-1-.34-2.88-1-3.5-1.89,0,0-3.24-4.42-.19-2.56s4,1.81,4.74,0a13.81,13.81,0,0,1,3-4.29c.76-.54,3.79-2,.59,1.8a12.53,12.53,0,0,0-1.86,6.23l38.59-15.94s-1.05-3.42-1.93-5.66a19.07,19.07,0,0,0-2.17-4l-46,19.18a33.19,33.19,0,0,1-2.92-5,28.37,28.37,0,0,1-1.19-4.66l5.51-2.54a.26.26,0,0,0,0-.49,7.46,7.46,0,0,1-4-2.2c-1.31-1.81-2-3.3-1.19-2.93s4.18,3,5,1.49,2.38-5,4.42-5.47c1.67-.36,0,1.15-.8,3.17-1.84,4.69-1.25,5.42-1.25,5.42L250,226.75s-1.31-4.24-2.24-6.23a22.18,22.18,0,0,0-2.25-3.67L199.85,236.4s-6.1-8.16-8.59-15.13-1.12-6.41.87-8.78,9.34-6,8.41-9.65-3.92-5.73-2.12-7.34,2.43-3.43,2.18-4.61-1.81-4.86,1.56-6.41,5.66.62,7.15,2.74,4.18,1.24,5,1.12,1.74-1.25,5,5.91c0,0,1.37,3,2.36,3.42s11.08-3.17,13.07-2.55c0,0,2.31,0,2.87,1.37s-.25,2.74-2.49,3.8-18.8,8.9-20.61,9.71-18.24,8.09-19.3,8.34-3,.81-3.3-1.18,3.37-3,5.73-4,53.29-23.84,53.29-23.84a12.75,12.75,0,0,1,5-1.81c2.18-.06,181.72,0,181.72,0" transform="translate(-31.21 -178.35)"/></svg>