<?xml version="1.0" encoding="utf-8"?>
<!-- Generator: Adobe Illustrator 23.0.6, SVG Export Plug-In . SVG Version: 6.00 Build 0)  -->
<svg version="1.1" id="Calque_1" xmlns="http://www.w3.org/2000/svg" xmlns:xlink="http://www.w3.org/1999/xlink" x="0px" y="0px"
	 viewBox="0 0 492.65 218.51" style="enable-background:new 0 0 492.65 218.51;" xml:space="preserve">
<style type="text/css">
	.st0{fill:none;stroke-miterlimit:10;}
	.st1{fill:none;stroke:#1D1E1B;stroke-miterlimit:10;}
</style>
<title>4 modifié</title>
<path class="st0" d="M492.65,107.67l-480.88-0.49c0,0-27.64,0.06,3.66,2.11c0,0,36.44-3.58,48.42,9.14s6.6,26.16,3.67,31.54
	s-14.67,26.17-14.67,26.17s66.27-25.43,58.44-32.53s-19.56-10.76-27.64-11.49c0,0,13.12,12.94,20.54,14.8
	c3.42,0.85,32.28,14.3,35,13.44s3.42-1.58,2.08-3.05s-34.24-31.06-36.93-31.91s-16.26-3.79-16.14-5.63s2.08-35.46,2.33-24.45
	s-1,21.88-3.06,22s-4.28-2-6.36-1.84s-1.83,1.35-3.18,1.47s-4.15,1.1-3.79,2.57s11,18.46,30.33,16.87c3.29-0.22,6.5-1.14,9.41-2.69"
	/>
<path class="st0" d="M61.16,1.78c1.3,0.79,32.53,6.24,36.8,6.36s43,2.08,41.58,2.45c-1.42,0.37-3.49,0.61-2.76,2.5
	c0.81,2.08,30.63,27.09,29.9,27.94s-61.38-19.07-62.85-19.68s24.95-8.32,24.95-8.32l-31.92,6.24c0,0-33.21-12.11-36.21-13.82
	s-4.4-3.06-4.15-4.16s4.15-1.23,3.54,0.74s-2.57,3.42-8.92,7.33S27.27,20,27.27,20h63.71c0,0-63.58,0.12-61.38,5.63
	s11.37,19.8,18.34,17.24S79.12,29.66,87,27.09s12.11-5.5,9-0.36s-13.57,28.24-14.12,31c0,0-14.49-4.77-17.24-6.42s28.06,7,44.75,7.7
	s34.48-0.18,39.8-1.83s11.18-8.8,11.18-8.8l-5.87,7.15c0,0-45.42-29.1-50.68-34.17"/>
<path class="st1" d="M105.65,20.34c0,0-4.2-0.22-3.1,3.08s15.41,31.27,15.41,31.27s-16.72-31.72-18.19-29.84
	c-1.6,2.21-2.41,4.89-2.29,7.61c0.09,2.2,0.82,1.65,1.55,1.74s1.75,1.65-0.82,1.84s-2.59,1.46-0.74,2.75s0.74,8.62-0.09,13.39
	s-6,57.86-6,57.86l-0.73,7.81c3.83,1.94,7.95,3.24,12.2,3.85c7.06,1,12.83,7.15,15,9.17s22.46,21.73,27.6,21.18
	c5.14-0.55,13.48-6.33,17.51-9.81s14.22-13,14.86-10.73c0.64,2.27,0,9.54,0,9.54s-3.58,4.77-5.23,4.22s-6.05-2.3-4.31-3.58
	c1.74-1.28,6-5.11,7.06-7.1s4-5.46-1.74-5.65c-5.74-0.19-16.78-3.21-18.34-3.67s-3.39-2-9-0.27c-5.61,1.73-25.77,12.85-25.77,12.85"
	/>
<path class="st1" d="M79.96,156.85c0,0-27.51,11.65-24,15.13s33.83,25,33.83,30.9s1.56,14.49-2.2,14.58s-3.76-2.56-3.94-3.76
	c-0.44-2.09,0.22-4.27,1.74-5.77c2.57-2.39,25.95-17.33,24.85-21.46s-10.59-9.62-18.27-11.19c0,0-10.45-1.92-16.59-1.83
	s-9.45,0.82-8.72,0s9.72-5.87,13-6.51c5.29-1.04,10.78,0.3,15,3.66c5.78,4.5,15.87,12.2,19.45,11.38s36-27.88,37.41-29.17
	s16.14-11.82,6.6-2.2c-9.54,9.62-34.69,31.37-36.47,32.74s-9.81,7.8-8.52-3.12c0,0-1.11-3.27,9.53-15.22
	c9.72-10.91,5.27-10.7,4.41-11.19c-0.2-0.1-7.38-2.25-12.75-4.58c-5.93-2.57-4.86-5.05-13.21-0.74S79.96,156.85,79.96,156.85z"/>
</svg>
