<svg id="Calque_1" data-name="Calque 1" xmlns="http://www.w3.org/2000/svg"
    viewBox="0 0 494.69 212.03">
    <defs>
        <style>
            .cls-1{fill:#fff;}.cls-1,.cls-2{stroke-miterlimit:10;}.cls-2{fill:none;}</style>
    </defs>
    <title>5 modifié</title>
    <path class="cls-1" d="M486.2,620" transform="translate(-42.92 -432.18)" />
    <path class="cls-2"
        d="M537.57,577.3s-24.07,2-39.44,1.15c-8.72-.46-20.41-2.29-22.93-4.13s1.6-1.37,1.6-1.37l9.4,47s-6.65-20.4-6.88-28S478,571.34,478,571.34s-5.05,2.07-4.82,4.36,8.26,42.42,8.26,42.42-46.55,3.67-43.8,4.59,45.17,1.14,32.56-2.76-26.83-9.86-22.93-9.63,45.4,20.18,45.4,20.18c4.67,2.29,5.28-2,5.28-2L450.36,605s17.73-33.17,25.37-44.63,16.66-25.23,15.14-30.12-2.87,2.29-3.35,5-3.53,19-13.16,33.47-14.22,25.84-26.91,34.7-17.58,8.72-27.06,8.56-25.52-8.1-33.93-18.65c0,0,13.76,2,20.79-3.82s9.78-8,6.11-9.66-80.86.19-85.75.64,17.88.31,11.92.92-38.22,2.29-49.22.92-17.58-3-24.16-2.48-8.25,2.63-6.57.49,9.17-11.62,4-9.32S249,587.93,247.5,579.87s-4.75-21.24,2.14-12,21.1,28.58,11,23.38-6.57-7-9.94.16-4.74,9.17-4.28.3,2.91-7.33-4.12-8.86-11.62-3.21-1.84-4,11.31-.91-.46-1.53-38.83-.76-54.26,1.23-111.9.3-121.84,0-30.27-4.28-15-3.59c24.3,1.09,90.05.84,99.53-.08s29.35-2.91,36.38-4.59,10.09-1.68,12.53-1.53c0,0-3.36,5.51,8.41,4.28s28.42-3.47,34.4-1.83"
        transform="translate(-42.92 -432.18)" />
    <path class="cls-2"
        d="M244.14,472.9c0,.45,8.41,4,12.38,13.6s2,16.36,8.56,17.12,11.47-2.14,16.05,2.91.31,9.32,4.44,9.32,46.62,1.68,31.95,3.67-39.44,1.68-42.65,1.53-35.47-2-26.3,2.6-2.44,5.2-5.19,5.65-24.62.46-13,2.76,45.1,1.52,34.7,3.82-39.74-1.23-49.37.91-29.05,5.81-34.55,6.12-27.35-2.53-16.51,5.81c2,1.53,26.6.15,33.78,2.14s21.56,6.42,28.13,6.72,19.87,3.06,28.43,8.26,33.65-.23,39.9-.61c5.05-.31,9.79.15,13,1.68s-.77,2.29-1.53,2.14-2-1-4.13,0-1.38.93-4,0,5.05.59-4.89.74-5,3.21-2,2.75,6.26-.67,8.25.05,27.52-4.84,18.5,0-4.44,2.71-8.56,2.71-5.25-.68,1.07-1.38,19.56,2.93,26,1.85,13.61-4.6,14.22-8-5.35,30.57-2.45,31.49,4.74,1.22-2.59,1.22-8.41-2.14-13.3,2.75-9.18,8-16.05,2.6.45-9.17,1.52-9.48,7.8-.46,8.87,2.6-2.29,6.73-6.73,4.59.31-7,2.91-4.59.76,5-5.35,4.59-4-3.24-4-3.24-7,1.4-9.32,4.15,9.63.62,11-2.59-12.08,2.59-12.08,2.59-.46-11.92,9.17-12.68,10.24-1.84,15.75,1.83,12.07,11.77,13.14,4.89,8.1-77.5,8.1-77.5l6.43-54.73s2.9-7.79-20.18-8.4-50.3,2.44-50.3,2.44,67.72-3.06,80.87-.92,27.52,5.5,24.61-1.61-6-23.76-26.9-25-30.58,4.43-35.62,8.86-13.15,10.4-15.13,11.77,10.85-10.85,13.3-12.84c0,0,6.72-4.43,10.85-5.65,0,0-19.42,1.52-33.33,8.1s-25.22,14.83-25.68,20-2.44,12.69,4.28,13.15,58.86,2,58.86,2l-52.77-2.91s-12.51-2.75,3.24-3.21c0,0,23.08-.76,27.21-1.22s3.67-4.28,4-6.88,1.07-6.27,1.22,1.53,2,5,4.44,5,39.74,1.38,42.49,1.53,18.5,5.66,18.81.61,2.44-20-2.6-30.26,17.12.91,19.72,2.29,27.06,14.37,35.92,24.46,2.91,6.26,0,5-15.28-7.18-28.28-6.72-30.42,3.51-18.65,6.42,55.49,5.81,45.86,8.1-42.8,2.75-47.23,1.37,2.29-11.92-8.41-2.14l-24-1.37s0-24.92-2.29-6.12-9.63,87.44-9.63,87.44S351.78,527.63,353,522c1.07-5.05,3.67-14.22,5.66-14.53s18.83,1.07,23.23,0c5.66-1.37,10.55-4.12,13.91-5.5s6.58-4,10.4-2.45,2.75,5.51,8.25,1.84,11.77-8.56,14.53-8.56,8.71-2.45,12.22-.15,3.52,4.43,2.3,5.5-2.3.61-2.3-2.45,4.91-7.64,6.66-8.4a18.06,18.06,0,0,1,16.27.3c7.65,4.13,7.8,6.57,8.26,9.17s-2.45,4.74,3.67,5.35,9.32,2.14,10.09,4.74,17.12,1.23,20.94,2.6c0,0-81-1.53-72.92,1.68s7.8.31-13.6,1.68-40.36.77-32.41-.3,20.66-1.72,5.66-3.21-25.07.61-25.07.61"
        transform="translate(-42.92 -432.18)" />
    <path class="cls-2"
        d="M371.42,637.81a2.67,2.67,0,0,1,.09-2.74c7.69-12,68.73-107.07,70.59-106.51s3.21,2.73,6.58,2.88,38.36-2,38.21.77-.46,3.36-11.92,3.21-22,1.53-26.14.92-4-2.3-3.67-3.52-59,90.62-68.45,105.21a3.05,3.05,0,0,1-5.18,0Z"
        transform="translate(-42.92 -432.18)" />
    <path class="cls-2"
        d="M386.46,593.35l-1.68-1.68a8,8,0,0,0-5.35,4.28s10.85,12.54,23.39,21.25,23.45,13.89,26.17,14,2.16-7.77-3.7-9.85c-11.62-4.13-26.6-17.29-26.6-17.29"
        transform="translate(-42.92 -432.18)" />
    <path class="cls-2"
        d="M415.5,561.1l16.67,70.08s-.62,3.75,5,6.05c0,0,15.75,6.26,17.43,6.42s10.39.15,4.43-1.84-4-3-4.13-3.51.11-1.4-10.24-4.13c0,0-4.36-.94-6.38-3-1.08-1.09-6.12-21-10.43-40.42-3.8-17.13-6.86-34.25-8.72-33.18C415.2,559.88,415.21,559.87,415.5,561.1Z"
        transform="translate(-42.92 -432.18)" />
</svg>