<svg id="Calque_1" data-name="Calque 1" xmlns="http://www.w3.org/2000/svg"
    viewBox="0 0 521.47 275.12">
    <defs>
        <style>.cls-1,.cls-2{fill:none;}.cls-1{stroke-miterlimit:10;}</style>
    </defs>
    <title>6 modifié</title>
    <path class="cls-1"
        d="M261,381.71l16.74-19.26s-121.3,169-120.15,170.37,31.87,24.31,36,23.85,5-.46,8.25-4.13,42.42-57.1,42.42-57.1,12.84,1.38,11.93,3.67-11.7,13.76-13.53,13.07S245,497.05,248,497.74s14.91,4.58,15.82,6.19,1.84,3.44-.68,8.71-8.35,7.09-10.52,7.37-6.55-2-3.62-3.7A7.57,7.57,0,0,0,252.4,512s1.52-10.77,4.5-9.63,20.64,8,19.72,11.24-1.14,8-4.35,10.63c-3.91,3.26-4.75,2.73-6.88,2-4.13-1.45-2.52-6.42-.92-7.8s-.23-11.23,1.84-10.31,15.57,10.32,21.4,17.27c7.18,8.56,33.27,23.8,37.3,17.58s28.43-34.17,28.43-34.17l19.06,12.31s-9.7,30.85-11.11,34.55l-10,26.29s-19.59-12.47-23.48-15.1a87.28,87.28,0,0,1-11.15-9.44S353.55,515.45,353,514c-1.29-3.27-5.73.46-14.22-13.3-6.21-10.07-14.67-29.06-22.47-39.79-2.85-3.92-5.79-6.46-8.25-7.45a125.14,125.14,0,0,0-12.77-4.6s14.26,6.32,18.16,10.68,7.45,13.53,7.45,13.53l14.72-36.58a.67.67,0,0,1,.67-.43c2.73.11,16.54.65,30.32.59,16.34-.08,32.7-.89,33.17.53.92,2.75-26.83,81.17-26.83,81.17l24.44-78a1.08,1.08,0,0,0-1-1.39l-59.89-.89c.1-.26,3.69-12.36,4.73-12.38s17.08-1.25,33.95-.84c19,.45,38.37,2.6,37.68,5.19-.75,2.82-9,31.72-20.87,67.42-6.09,18.31-12.58,38.15-19.87,57-12.54,32.4-20.08,60.94-24.15,62.37-11.32,4-19.26.45-33.48-3.37-12.75-3.42-37.27-17.26-36.35-20s19.53-56,19.53-56L284.19,583,344.27,606s-.46,10.54-3,10.09,13.07-32.34,15.59-40.59c2.42-7.92,46.17-134.94,49.75-145.25a.56.56,0,0,1,.83-.28c3.57,2.35,22.77,15.49,39.53,17.35,18.58,2.06,36.69,3.44,59.85-8.71s36.74-13.76,39-11.7"
        transform="translate(-24.72 -344.02)" />
    <path class="cls-1"
        d="M25.08,545.66s16.05-17.43,35.77-22,28.44-4.13,54.12,6.88,70.62,33.93,78.42,30.72c0,0,6.88,1.38,19.72-16.51S247.5,495,247.5,495s-.66-.33-1.72-.92c-4.95-2.75-18.74-12.81-13.72-20.1a9.4,9.4,0,0,1,11.77-3.52s32.68,17.15,35.93,18.65c5.7,2.64,9.48,7,8.1-3.67,0,0,.69-4.43,3-6.27l2.29-1.83s1.76-2.14-6.42-7.73c-9-6.12-10.09-5.8-10.09-5.8l-10.77,15.36S327.07,395,325.69,391.8s-44.25-33.25-46.54-33.48,13.82-12,18.49-13.68,17.28,15.06,17.28,15.06-9.4,10.55-12.16,9.63,9.56-9.86,9.56-9.86,40.51,43.26,37.22,47.24c-4.34,5.24-54.89,45-58.7,44.25-2.33-.44,40.24-52.52,36.81-55.91-1-.95-28-20.33-48.86-34.14-11.88-7.86-21.43-13.61-22.34-12.45-2.53,3.21-105.71,152.26-109.38,151.11s-20.41-21.32-19.72-23.85,76.36-68.33,79.34-66.26S132.17,507.83,134.46,512s17.2,20.64,19.72,19.49S261.72,382.86,261.72,382.86"
        transform="translate(-24.72 -344.02)" />
    <path class="cls-1"
        d="M249,368.37s4.59-2.06,5-2.94.5-4.58,1.11-5.85c.42-.87.53-1.3,1.68-1.3s1.76,1.38,1.72,2.3c0,0-.27,2.37-.27,3.55a2.24,2.24,0,0,0,1,2.22c.84.72,4.4,3,4.93,3.36s3.52,1.8,2.53,3.75-1.53,1.75-2.41,1.45a36.74,36.74,0,0,1-3.82-2.52c-1-.61-3.37-2.95-3.86-1a12.29,12.29,0,0,0-.23,4.89c.19.81,2.83,3.48,3.59,4.25s2.14,2.94.23,2.37-4.82-4.44-6.42-3.71-3.06,3.67-4.17,2.25-1-1.79,0-2.4,4-2.18,4.16-3.83.88-5.25-.84-4.57-6.5,3.31-7.26,3.12-.5-2.18-.23-2.83S249,368.37,249,368.37Z"
        transform="translate(-24.72 -344.02)" />
    <path class="cls-2"
        d="M269.44,412.6l-1.25,1.76s-1.46-1.08-1.68-1.2a1,1,0,0,0-1.37.26c-.51.69-.35.81-.24,1.12s.49.67,1.52,1.35,5,3.75,5.42,4,1.2.85,1.77.07.38-1,.18-1.37a17.25,17.25,0,0,0-2.31-1.78l1.34-1.76s1.9,1.46,2.2,1.71a3.78,3.78,0,0,1,1.12,2.07,4,4,0,0,1-1.11,2.68"
        transform="translate(-24.72 -344.02)" />
    <path d="M256.29,425.89l-2.17-1.63,4.19-5.58,2.18,1.64Zm11.35,5.31-11-8.28,1.08-1.43,11,8.27Z"
        transform="translate(-24.72 -344.02)" />
    <path d="M260,416.47l12,9L270.83,427l-12-9Z" transform="translate(-24.72 -344.02)" />
    <path
        d="M275.21,421.4a2.78,2.78,0,0,1-1.65,1.1,4,4,0,0,1-2.22-.21,9.65,9.65,0,0,1-2.66-1.49l-3.29-2.47a9.82,9.82,0,0,1-2.17-2.15,4.12,4.12,0,0,1-.82-2.09,2.81,2.81,0,0,1,.59-1.88,2.42,2.42,0,0,1,1.46-.92,4.41,4.41,0,0,1,2.1.13,10.73,10.73,0,0,1,2.63,1.18l-1.12,1.48a5.86,5.86,0,0,0-1.21-.51,2.14,2.14,0,0,0-1-.05,1,1,0,0,0-.64.39,1.29,1.29,0,0,0-.12,1.37,4.18,4.18,0,0,0,1.38,1.56l3.28,2.47a4.19,4.19,0,0,0,1.88.9,1.3,1.3,0,0,0,1.28-.5,1.17,1.17,0,0,0,.11-1.17,4.18,4.18,0,0,0-1.05-1.49l1.12-1.48a10.62,10.62,0,0,1,1.84,2.2,4.48,4.48,0,0,1,.72,2A2.39,2.39,0,0,1,275.21,421.4Z"
        transform="translate(-24.72 -344.02)" />
    <path
        d="M278,417.38l-12-9,1.08-1.44,12,9Zm-1-2.36L274,413l-5-8.54,1.36-1.8Zm4.23-2-7.72-2.36-.3-2.15,9.29,2.81Z"
        transform="translate(-24.72 -344.02)" />
    <path
        d="M283.29,410.41l-12-9,1.08-1.43,12,9Zm-9.4-7.89-2.17-1.64,3.44-4.58,2.17,1.64Zm4.94,3.71-2.18-1.63,3-4,2.17,1.63Zm4.85,3.66-2.17-1.64,3.45-4.57,2.17,1.63Z"
        transform="translate(-24.72 -344.02)" />
    <path d="M277.69,397.47l-2.17-1.64,4.19-5.57,2.17,1.63Zm11.35,5.3-11-8.27,1.08-1.43,11,8.27Z"
        transform="translate(-24.72 -344.02)" />
</svg>