<svg id="Calque_1" data-name="Calque 1" xmlns="http://www.w3.org/2000/svg"
    viewBox="0 0 578.64 434.77">
    <defs>
        <style>.cls-1{fill:none;stroke-miterlimit:10;}</style>
    </defs>
    <title>7 modifié</title>
    <path class="cls-1"
        d="M11.62,669s66.66,29.05,104.27,38.83,104.25,30.88,105.47,10.7,1.84-53.2-14.06-117.7-21.71-107.32-30.88-127.8-22.93-64.82-30.88-83.47C138.88,374,128,338.37,116.8,331.8c-2.09-1.23-7.41,5-9.78,9.17-14.68,26-25.38,48-28.74,80s8.56,87.57,15,113.26,24.77,83.15,31.49,97.52,14.68,27.83,13.45,12.84-1.62-15.57-5.5-10.08S116.12,668.11,116.77,673s-.27,19.87,8.59.92,10.09-17.74,13.15-15,46.78,70.32,63.9,61.76,26.29-34.85,26.9-48.91S216.47,592.9,212.5,570.27s-19.57-63.9-23.54-75.21-10.71-25.68,4.58-19.87,26.29,12.23,52,7,59.61-32.71,68.48-35.16,47.69-29,60.23-14.67,37.3,34.85,41.27,50.14L387.38,530.6,367.2,495.67s-56.26-12.23-64.82-.3S259,541.84,250.41,548s-38.52,20.18-32.1,29.66,2.75,13.76,19.56,4.59,54.73-30.88,61.45-36.39,12.23-14.37,14.68-17.42c0,0,39.44,19.87,47.39,20.48s13.76-47.39,4.58-62.37-11.61-22.32-21.7-16.2-28.44,14.37-40,15.9-39.44,5.5-48,12.84-8.87,19.56-31.49,7.64-30.6-21.08-31.8-26.6,2.14-12.84,19.26-7.34,26.6,9.18,45.25-1.53,56.56-37.29,91.72-34.85,60.23,46.17,81,60.54,21.4,20.17,30,22.93,15,1.22,8.87,18.65S451.58,570,438.43,572.11,399,553.46,388.9,540.92s-12.84-28.13-16.51-8.86-10.39,30.26,0,32.4,43.72,14.07,69.41-1.83,37.6-51.67,38.82-61.45S487,437,487.35,432.39c0,0-40.36-28.13-34.55-41.89S477,376.13,477,376.13s-23.85-16.81-29-15.28-15.9,15.59-25.07,18-11-.61-13.15-4.58c0,0-12.84,4-18-8.26s-4.59-15.28-4.59-15.28-9.48,3.66-4-5.2l5.5-8.87S384,316.82,395,311.93s25.37-6.73,22.32,13.45-.61,30.88,3.05,21.1,13.76-16.82,11.93-4-15.59,10.4-11.31-8.56-7.65-21.71-14.07-21.09-4.92,6.35-11.62,6.72-15-5.73,3.06-16.2,24.77-11.62,34.24-8.87,29.05,23.85,11.93,19.57S413.06,298.48,425,302.45s19.87,8.87,24.15,19.87,11.62,12.23,10.7,19.26-11.31,3.06-20.48-7-15-18.07.61-10.09,17.12,33.63,10.09,31.8-20.18-20.48-12.84-16.82-15,21.6-20.79,29.05-23.24-5.2-31.18-.92S354.05,385.3,336,386.22s-111.9,15.59-130.85,15-30.57-6.72-24.15,1.22,32.71,3.37,32.71,11.62-.61,12.54,4.59,9.48,13.14-15,23.23-11.62A143.3,143.3,0,0,0,305.75,418c30.87-4,32.4-7,32.4-7s-24.46-47.7,4,.3c0,0,21.7-4.58,29-5.5s10.4-.61,10.4-.61,17.42-57.18,7-.92c0,0,10.7,29.66,17.73,39.74s5.5,20.49,7,24.16,15.29,27.21,32.41,32.4,24.46-26.29,25.68-29.65-2.14-4.89-21.7,2.75-24.46,1.83-11-7.64,47.08-32.1,27.51-35.16c0,0-23.84,12.84-22-5.2s14.68-38.52,28.44-41.58,15.28-2.45,22,4,5.81,6.42,8.86,9.78,2.14,1.22-11.61,16.2-2,16.35,4.28,2.75,13.14-9.78,16.2-6.72,23.54,22,27.21,44.33,2.75,51.67-1.83,52.28-12.23,1.83-14.07-10.09-5.5-44-17.42-52-17.13-4-11.32-16.82,14.37-2.14,18,5.2,21.4,68.48,14.37,81-12.23,14.06-17.43,16.2-3.66,6.42-7.94,8.56-16.82,12.54,4.89,2.45c0,0,1.53.61-1.84,7.64s-11.92,14.68,0,5.5,10.7-27.82,5.2-7-2.45,18,.92,15.59,9-25.79,8.25-19.56c-1.53,12.53-.91,20.79,1.53,18s7.95-22.63,7.95-22.63,1.53,24.15,4.28,12.54,1.53-18.65,6.73-20.49-2.45-19.1-.62-20.71,50.45-35.85,50.45-35.85"
        transform="translate(-11.42 -292.72)" />
</svg>