<svg id="Calque_1" data-name="Calque 1" xmlns="http://www.w3.org/2000/svg" viewBox="0 0 551.2 416.91"><defs><style>.cls-1{fill:none;stroke-miterlimit:10;}</style></defs><title>8 modifié</title><path class="cls-1" d="M32.88,644.72s53.2-19.26,90.34-14.22,41.28,18.8,84.39,17,109.14-14.68,109.14-14.68l27.52,10.55L378.66,642,369,556.67l-55.49-2.75,10.09-29.81h61.91l-9.17,27s-40.82-4.12-38.52,6.42,8.71,72.92,8.71,72.92-38.52,2.29-12.84-2.75l16-3.21-4.13-44s-89.42,1.38-91.72-.91,18.35-117.86,24.31-120.16,169.68-9.17,168.31,5.05-17.43,112.36-28.9,113.73-65.12,0-31.64-3.21l29.81-2.29s24.3-81.63,23.85-106.86c0,0-143.09-5-157.76-.45,0,0-21.56,92.63-21.56,108.22,0,0,29.4,5.47,75.21,3.67,0,0,11.47,25.69-.45,27.06s-104.56.46-104.56.46-30.27-11.92-44.49-27.52c0,0,55.5-4.12,53.66-.45s-11.93,11.92,7.79,10.08,35.77,0,7.34,3.21-11-5-12.84-18.34-13.3-4-20.18-20.1.92-16.13,11-12.46S271.35,559,231,543.37l-6.42-3.21,2.75-8.26S124.6,503,129.18,491.55s27.52-83.47,11.47-109.61-29.81,5.05-35.31,10.55-34.86,66.5-37.15,105-.92,34.85,13.3,40.35,48.61,20.64,66,21.1,65.58,2.29,65.58,2.29l7.79-28.43s-81.17-30.27-92.17-30.73c0,0-16.51,31.65-6.88-4.12s25-61.28,18.34-94.48c-6.88-34.39-25.58-18.29-.82-36.18,0,0,14.93-7.75,23.29-8.6,5.73-.59,5.52,1.79,10.55,6.26,12.38,11,25.22,22.93,33.94,9.17l8.71-13.75s14.68,27.05,23.85,13.75,5.5-14.67,4.12-17-13.14-9-13.14-9-4.28,19.56-23.08,10.39-22.48-16.35-22.48-16.35-25.66,20.41-10.66,13,11.35-16.51,11.35-18.58-1-18.91-1-18.91,11.35,14.79,22.59,16.05,18.23,3.21,22.58-.12,1.26-8.71,6.31-8.71,7.34,1.15,8.37,0,4-5-3.21-12.73a7.69,7.69,0,0,0-2.75-1.6" transform="translate(-32.71 -231.23)"/><path class="cls-1" d="M237.64,316.48s1-3.33.35-15.71-2.3-39.67-2.3-39.67l-49.3,1.38a146.07,146.07,0,0,0,24.88,1.83c14.34-.11,22,2.18,28.44,1.15s9.51-7.8,9.63-16-3.21-17.2-3.21-17.2-1.84,2.18-8.83,4.35-16.85-.45-21.1-1.26-21.89-3.09-26.94-2-11.35,7-16,13.19-7,26.48-6.08,32.56,10,5.27,16.05,7,7.69,16.51,6.43,20.53a14.13,14.13,0,0,1-16.51,8.71c-9.52-1.95-12-10-12.73-17.31s4.47-10.78,12.38-11.93,12.27,14,12.61,3.67-1.72-11.46-2.29-21.09-3.1-9.06-6.53-12.84,7.1-18.35,7.1-18.35c-8,.23-18.46,4-20.86,19.84s-1.49,21.21,0,28.89,2.66,6.76,4.93,7.11,4.7-4.13.23-1.95-6.19,5.16-1.84,15.59,15.59,2.52,15.59,2.52,14.45,16.51,24.2,20.89,19.14.09,19.14.09-.46-1.6,0,8.83,5.39,12,5.39,12a40.85,40.85,0,0,0,24.27,12.19c15.28,1.84,32.86,2.45,34.24,8.72s2,41.88,1.68,50.29-.46,41.89-5.5,32.71-3.36-29.35-3.52-36.38.77-34.09,1.84-40.2-.92-13,10.24-4,27.21,35.77,35.62,53.2,8.4,17.43,7.79,20.64-2.6,5.19-2.75,2.9S349,427,356.8,420s27.67-25.83,37.61-30.57c0,0,20.48,15.29,23.23,13S434,390.5,439.5,387.29s19.11-9.48,22-13.76,8.56-11.77-10.4.46c0,0,22.78-16.05,15.29-18.65s-21.71,13.91-21.71,13.91S464.42,352.9,464,349.84s-5.2-2.14-10.09,1.37-15,12.54-15,12.54,16.66-9.33,14.83-15.44-11,5.5-17.58,8.71-15.29,10.86-13.91,5.66,6.42-10.85,5.2-14.83-5.51-1.53-6.73.15-9,13.46-10.7,15.44-9.13,13.94-9.94,21.71,22.48,14.37,20.33,18.34-10.54,26.3-15.74,34.09-12.23,21.86-12.23,14.53,40.51-2,44.33-1.07,55.64,17.12,71.85,19.26,34.55,4.12,45.55,1.07,23.85-7,29.35-14.68" transform="translate(-32.71 -231.23)"/><path class="cls-1" d="M235.35,326.34s10,3.44,8.26-2.87-13.42-2.29-12.85-.8a15.32,15.32,0,0,0,2.69,3.64" transform="translate(-32.71 -231.23)"/></svg>