<svg id="Calque_1" data-name="Calque 1" xmlns="http://www.w3.org/2000/svg" viewBox="0 0 374.49 95.5">
    <defs>
        <style>.cls-1{fill:none;stroke-miterlimit:10;}</style>
    </defs>
    <title>9 modifié</title>
    <path class="cls-1"
        d="M63.08,286.15s30.26,4.28,51.05,10.4,47.39-2.14,57.18-7,37.6-10.09,53.5-5.8,32.14,5.08,38.87-5.93h-16a.71.71,0,0,0-.71.72l0,14.82a.66.66,0,0,0,.65.66l15,.06a1.05,1.05,0,0,0,1.08-1c.09-5.06.47-26.68.67-30.82.23-4.7,16.63-13.41,19.15-18.12s5.85-11.23,3.1-23.73S269.06,204.75,262,204.41s-15.71-.92-23.62,5.27-12.84,13.81-13.19,26.2l19-.12s-.11-17.6,13.19-16.34,11.36,13,7.83,18.55c-2.79,4.38-16.66,11.95-17.58,22.16s-.23,10.2-.23,10.2l13.65.11s.34-7.33-6.77-4.7-2.1,12.12,3.65,10.47c4.94-1.42,22.26-5.31,31.09-2.79s31,7.57,44.72,6.77,33.13-5.16,42.3-10,29.93-5.15,41.62-3,19.72,4.36,19.72,4.36"
        transform="translate(-63.01 -203.71)" />
</svg>