<?xml version="1.0" encoding="UTF-8"?>
<svg id="Layer_1" data-name="Layer 1" xmlns="http://www.w3.org/2000/svg" viewBox="0 0 177.03 83.25">
  <defs>
    <style>
      .cls-1 {
        fill: #7b4eb7;
        stroke-width: 0px;
      }
    </style>
  </defs>
  <path class="cls-1" d="M176.69,52.36c-3.04-.14-6.09.09-9.07.7-3.22.66-6.35,1.76-9.31,3.19-1.84.89-3.61,1.92-5.32,3.04-3.59,2.29-7.62,3.82-11.87,4.23-3.34.32-6.71-.02-9.94-.89-1.71-.46-3.39-1.07-5-1.82.85-1.96,1.52-3.99,2.02-6.08,1.93-8.1,1.02-16.72-2.49-24.26-1.73-3.71-4.09-7.14-6.93-10.08-1.44-1.49-3.01-2.85-4.68-4.08-.87-.64-1.77-1.24-2.7-1.81-.44-.27-.89-.53-1.34-.78.01,0-.18-.11-.27-.16.28-.59.51-1.2.76-1.8.24-.55.43-1.31,1.1-1.45.42-.09.78.19,1.19.24.45.06.92-.06,1.28-.33.41-.32.57-.77.77-1.22.44-1.04,1.05-2.11,1.35-3.2.36-1.27-.64-1.9-1.62-2.32l-7.16-3.05c-.93-.4-1.94-.81-2.75.11-.3.34-.44.83-.61,1.24l-.82,1.99c-.17.41-.4.85-.41,1.3,0,.41.14.82.4,1.14.26.31.65.4.92.68.59.59.12,1.34-.14,1.95l-.62,1.46c-.07.16-.06.39.13.48.42.2.84.4,1.26.61-.46-.18-.92-.36-1.39-.53-3.13-1.15-6.62-1.66-9.93-1.83-7.07-.36-14.17,1.3-20.33,4.78-6.49,3.67-11.75,9.26-15.29,15.79-.21.38-.49.79-.63,1.21-.07.2-.02.2,0,.2h-.01c-.09.08-.28.11-.39.15-.62.21-1.24.4-1.86.57-2.33.66-4.72,1.15-7.12,1.45-6.81.85-14.09.26-20.09-3.34-.85-.51-1.67-1.08-2.45-1.7-.01,0-.02-.02-.04-.03-.01-.01-.02-.02-.04-.03-2.96-2.24-6.33-3.94-9.95-4.82-3.19-.77-6.52-.9-9.78-.47-1.78.23-3.53.62-5.25,1.13-.43.13-.25.81.19.68,3-.89,6.12-1.4,9.26-1.35,3.34.06,6.66.79,9.71,2.16,1.93.87,3.75,1.98,5.44,3.26,5.64,4.47,12.89,5.89,19.95,5.49,4.19-.24,8.53-.97,12.49-2.42.07-.03.19-.05.25-.1.31-.22.48-.84.66-1.17.24-.46.49-.91.74-1.36.98-1.72,2.08-3.37,3.29-4.93,2.3-2.94,5-5.56,8.05-7.72,5.87-4.16,12.89-6.54,20.08-6.77,3.69-.12,7.39.32,10.96,1.27,2.2.59,4.29,1.51,6.4,2.34l.72.28c.36.14.54-.35.34-.59-.64-.78-1.78-1.27-2.65-1.73-.64-.34-1.29-.67-1.95-.98l.47-1.1c.19-.45.48-.96.52-1.46.03-.41-.09-.82-.33-1.16-.27-.36-.68-.45-.98-.75-.52-.51-.21-1.13.01-1.68l.77-1.87c.18-.44.33-1.06.7-1.38.7-.59,1.88.19,2.57.49l6.75,2.88c.48.21.94.5.92,1.11-.02.45-.33.93-.5,1.33l-.81,1.89c-.23.54-.43,1.21-1.13,1.27-.4.03-.73-.22-1.12-.26-.41-.05-.83.06-1.17.29-.47.32-.63.81-.84,1.31l-.78,1.83c-.15.34-.38.74-.03,1.04.37.31.94.51,1.36.76.47.28.93.56,1.39.86.88.57,1.74,1.18,2.56,1.82,1.6,1.25,3.1,2.64,4.47,4.15,5.44,5.97,8.79,13.74,9.4,21.79.44,5.83-.57,11.71-2.86,17.06-.37-.18-.74-.37-1.11-.57-.51-.28-1-.62-1.5-.92,2.59-6.26,3.29-13.28,1.82-19.99-.29-1.31-.65-2.6-1.1-3.86-.22-.62-.29-1.01-1-.96-.63.05-1.26.23-1.87.38-.57.14-1.21.2-1.78.36.15-.16.29-.34.44-.48.55-.52,1.14-1,1.7-1.51.33-.3.84-.71.95-1.17.07-.29-.09-.5-.21-.75-.26-.51-.53-1.02-.82-1.52-2.28-3.97-5.37-7.44-9.04-10.17-.96-.72-1.97-1.38-3-1.98-.5-.29-1-.57-1.51-.83-.51-.26-1.11-.66-1.66-.8-.46-.12-.74.29-1.03.6-.5.54-.96,1.1-1.45,1.65.13-.6.3-1.17.44-1.77.09-.37.3-.97,0-1.3-.12-.14-.37-.18-.53-.24-.35-.13-.7-.26-1.05-.39-.68-.24-1.37-.47-2.06-.68-4.94-1.5-10.12-1.92-15.18-.78-1.33.3-2.64.7-3.92,1.17-.59.22-1.17.45-1.75.7-.32.14-.68.2-.78.56-.13.46.09,1.1.19,1.54.16.72.36,1.43.49,2.15-.37-.48-.71-1.01-1.06-1.51-.31-.44-.62-1-1.05-1.34-.15-.12-.28-.18-.48-.15-.52.09-1.15.6-1.6.85-7,3.93-13.79,9.39-17.01,16.98-2.92,6.89-4.03,14.38-2.34,21.74,1.84,8.02,6.79,15,13.36,19.88,6.84,5.09,15.27,8.02,23.82,7.84,7.99-.17,15.83-2.97,22.13-7.89,4.7-3.67,8.44-8.48,10.9-13.89,1.21.56,2.46,1.04,3.72,1.45,6.83,2.19,14.2,1.87,20.68-1.28,1.05-.51,2.07-1.09,3.05-1.72,2.89-1.91,5.98-3.52,9.25-4.7,2.93-1.05,5.98-1.76,9.08-2.04,1.67-.15,3.34-.19,5.01-.11.45.02.45-.68,0-.71ZM109.68,13.82h0ZM105.74,16.42c.08-.05.05-.02,0,0h0ZM103.77,18.61c.47-.51.91-1.04,1.37-1.56.17-.19.35-.44.56-.6l.02-.02c.28.04.65.31.9.44,2.07,1.02,4.04,2.26,5.85,3.7,3.53,2.81,6.45,6.33,8.56,10.31.12.23.41.6.36.81-.05.21-.41.47-.55.61-.53.51-1.1.97-1.65,1.47-.34.31-1.93,1.8-.61,1.96.5.06,1.07-.13,1.55-.24.68-.16,1.36-.34,2.04-.48.15-.03.56-.17.71-.09-.02-.01.03.22.08.34.12.35.24.7.35,1.06.38,1.21.7,2.43.94,3.68,1.02,5.25.72,10.71-.86,15.82-.3.98-.65,1.94-1.04,2.88-.06-.03-.13-.06-.19-.09-1.18-.54-2.38-1.05-3.58-1.54l-18.42-11.71,12.62-7.66c.35-.21.12-.73-.27-.65l-14.4,3.21,5.16-21.13c.2-.14.38-.37.51-.51ZM102.72,72.68c-.27.35-.1.99-.04,1.38.11.69.26,1.38.37,2.07.03.2.15.57.08.77-.06.19.06.04-.16.12-.32.11-.63.22-.95.32-2.5.79-5.1,1.29-7.72,1.47-2.66.18-5.35.03-7.98-.45-1.3-.24-2.59-.55-3.86-.95-.64-.2-1.28-.42-1.91-.66-.15-.06-.3-.11-.45-.17-.04-.01-.19-.06-.29-.07v-.02c.14-.62.23-1.26.34-1.89.08-.49.28-1.17.16-1.67l11.66-18.34,7.66,12.62c.21.35.73.12.65-.27l-3.21-14.4,21.27,5.2c.92.39,1.84.78,2.76,1.18.32.14.63.29.92.46-1.42,3.22-3.35,6.21-5.72,8.81-1.51,1.65-3.18,3.16-5,4.47-.9.65-1.83,1.25-2.79,1.81-.44.25-.88.5-1.33.73-.24.13-.89.56-1.07.51-.16-.04-.38-.38-.49-.51-.24-.28-.47-.57-.69-.86-.4-.52-.79-1.09-1.28-1.53-.26-.24-.67-.47-.95-.12ZM77.14,75.24s-.02-.01-.02-.02c-.1-.15-.65-.35-.81-.43-.5-.28-.99-.57-1.48-.87-1.96-1.22-3.79-2.65-5.45-4.26-1.63-1.58-3.09-3.32-4.35-5.2-1.22-1.82-2.45-3.85-3.16-5.93,0,.01-.19.12-.02,0,.09-.06.18-.12.27-.18.28-.17.58-.33.87-.49.6-.33,1.21-.64,1.8-.99.27-.16.81-.41.75-.81-.07-.44-.64-.4-.97-.38-.68.05-1.35.19-2.03.3-.32.05-.64.11-.96.14-.12.01-.56.12-.66.03.06.05-.09-.58-.12-.67-.08-.28-.17-.57-.24-.86-.17-.65-.33-1.3-.46-1.95-.27-1.32-.46-2.66-.56-4-.39-5.1.45-10.24,2.39-14.97.94.42,1.87.89,2.87,1.14l21.39,5.23c.27.07.49-.17.43-.43l-2.87-12.86,6.84,11.27c.14.23.47.22.61,0l10.9-17.15-4.83,19.75c-.07.27.17.49.43.43l12.86-2.87-11.27,6.84c-.23.14-.22.47,0,.61l15.63,9.93c-4.18-1.71-20.54-8.39-20.79-8.49.66-1.53-.21-3.07-1.73-3.74-1.53-.67-3.12-.12-3.89,1.27-.01.01-.02.03-.03.05-2.32-.98-21.67-8.9-22.72-9.34-.38-.16-.6.44-.27.64l17.24,10.46-12.6,7.65c-.35.21-.12.73.27.65l14.4-3.21-5.17,21.14c-.52.31-1.15,1.12-1.31,1.29-.23.26-.46.52-.69.78-.12.14-.38.33-.49.5ZM96.71,51.72c-.27-.07-.49.17-.43.43l2.87,12.86-6.84-11.27c-.14-.23-.47-.22-.61,0l-10.9,17.15,4.83-19.75c.07-.27-.17-.49-.43-.43l-12.86,2.87,11.27-6.84c.23-.14.23-.47,0-.61l-13.9-8.43c1.4.58,16.09,6.59,16.38,6.71-.02,0,.25.11.31.13l1.89.8c-.27,1.34.48,2.73,1.74,3.35,1.34.66,3.08.37,3.88-.94,2.33.92,20.01,8.17,20.08,8.2l-17.25-4.21ZM93.39,47c-.75.41-1.76.46-2.54.13-.42-.18-.8-.46-1.08-.82-.3-.38-.49-.84-.66-1.3.01-.02.02-.04.03-.06.14-.25.31-.47.52-.67.73-.69,1.71-.67,2.58-.25,1.19.57,1.81,1.77,1.15,2.96ZM92.65,47.99c-.66.42-1.55.45-2.3.08-.69-.34-1.25-1-1.41-1.73.09.15.19.3.3.44.35.44.82.78,1.33,1,.64.27,1.38.34,2.08.22ZM79.82,76.57s0,.07,0,0h0ZM79.21,15.5c-.05.07-.19.03,0,0h0ZM121.99,66.94c-4.53,6.53-11.22,11.45-18.79,13.87-7.62,2.43-15.91,2.28-23.43-.44-7.86-2.84-14.97-8.19-19.39-15.34-4.26-6.89-5.73-15.17-4.17-23.11,1.19-6.06,3.82-11.58,8.04-16.11,1.82-1.95,3.86-3.65,6.05-5.17,1.1-.77,2.23-1.5,3.37-2.2.51-.31,1.02-.61,1.54-.91.25-.14,1.07-.59,1.23-.68.05-.03.3-.13.28-.19.12.09.28.36.34.43.2.26.39.54.58.81.39.56.76,1.13,1.19,1.67.2.26.55.73.94.52.36-.2.24-.75.19-1.07-.18-1.17-.69-2.34-.73-3.52.17-.02.37-.16.52-.22.32-.13.64-.26.96-.39.65-.25,1.31-.49,1.98-.7,1.24-.39,2.5-.71,3.79-.94,5.14-.91,10.34-.11,15.23,1.6.35.12.7.25,1.05.38.07.03.54.24.51.12.06.18-.11.6-.14.75-.15.66-.35,1.31-.49,1.98-.04.2-.13.53-.08.79l-11.65,18.33-7.66-12.62c-.21-.35-.73-.12-.65.27l3.21,14.4c-2.79-.68-20.84-5.1-21.06-5.15-.07-.01-.28-.07-.19-.04-.9-.31-1.77-.76-2.65-1.13-.16-.07-.4-.07-.48.13-2.11,4.99-3.04,10.42-2.59,15.83.1,1.26.28,2.51.52,3.75.13.66.28,1.31.45,1.96.16.61.27,1.37.56,1.92.22.42.68.36,1.1.32.72-.07,1.42-.21,2.13-.33.17-.03.34-.05.51-.08-.27.15-.54.3-.81.45-.59.32-1.2.61-1.76.99-.58.39-.45.66-.19,1.29,1.76,4.18,4.37,8,7.65,11.14,1.69,1.62,3.55,3.06,5.54,4.29.46.28.92.55,1.39.81.31.17.95.67,1.32.61.39-.06.74-.63.98-.9.44-.49.87-1,1.33-1.48,0,.1,0,.19,0,.24-.1.72-.25,1.43-.37,2.14-.08.47-.22.85.29,1.07,4.93,2.2,10.72,2.88,16.06,2.32,2.6-.27,5.16-.84,7.62-1.7.58-.2.71-.43.67-1.04-.05-.7-.22-1.38-.34-2.07-.06-.33-.13-.66-.16-.99,0-.03,0-.07,0-.11.09.08.17.15.21.19.25.29.49.6.73.9.42.53.81,1.12,1.32,1.57.53.48.89.2,1.48-.09,4.05-2.02,7.68-4.86,10.6-8.32,2.05-2.43,3.72-5.14,4.99-8.01.28.17.55.33.85.5.58.33,1.17.64,1.78.94-.91,2.02-2,3.96-3.27,5.79Z"/>
</svg>