<svg xmlns="http://www.w3.org/2000/svg" xmlns:xlink="http://www.w3.org/1999/xlink" width="500" zoomAndPan="magnify" viewBox="0 0 375 225" height="300" preserveAspectRatio="xMidYMid meet" version="1.0"><defs><g/></defs><rect x="-37.5" width="450" fill="#ffffff" y="-22.5" height="270" fill-opacity="1"/><rect x="-37.5" width="450" fill="#f8f8f8" y="-22.5" height="270" fill-opacity="1"/><g fill="#171717" fill-opacity="1"><g transform="translate(74.022664, 150.054331)"><g><path d="M 7.078125 0 L 5.171875 -2.6875 C 4.953125 -2.664062 4.726562 -2.65625 4.5 -2.65625 L 2.25 -2.65625 L 2.25 0 L 1.359375 0 L 1.359375 -8.375 L 4.5 -8.375 C 5.570312 -8.375 6.410156 -8.117188 7.015625 -7.609375 C 7.617188 -7.097656 7.921875 -6.394531 7.921875 -5.5 C 7.921875 -4.851562 7.753906 -4.300781 7.421875 -3.84375 C 7.097656 -3.394531 6.628906 -3.070312 6.015625 -2.875 L 8.0625 0 Z M 4.46875 -3.40625 C 5.300781 -3.40625 5.9375 -3.585938 6.375 -3.953125 C 6.8125 -4.328125 7.03125 -4.84375 7.03125 -5.5 C 7.03125 -6.175781 6.8125 -6.695312 6.375 -7.0625 C 5.9375 -7.425781 5.300781 -7.609375 4.46875 -7.609375 L 2.25 -7.609375 L 2.25 -3.40625 Z M 4.46875 -3.40625 "/></g></g></g><g fill="#171717" fill-opacity="1"><g transform="translate(86.330869, 150.054331)"><g><path d="M 7.28125 -0.765625 L 7.28125 0 L 1.359375 0 L 1.359375 -8.375 L 7.109375 -8.375 L 7.109375 -7.609375 L 2.25 -7.609375 L 2.25 -4.625 L 6.578125 -4.625 L 6.578125 -3.875 L 2.25 -3.875 L 2.25 -0.765625 Z M 7.28125 -0.765625 "/></g></g></g><g fill="#171717" fill-opacity="1"><g transform="translate(97.992536, 150.054331)"><g><path d="M 6.625 -2.234375 L 1.953125 -2.234375 L 0.953125 0 L 0.03125 0 L 3.859375 -8.375 L 4.734375 -8.375 L 8.5625 0 L 7.625 0 Z M 6.296875 -2.953125 L 4.28125 -7.453125 L 2.28125 -2.953125 Z M 6.296875 -2.953125 "/></g></g></g><g fill="#171717" fill-opacity="1"><g transform="translate(110.228909, 150.054331)"><g><path d="M 1.359375 -8.375 L 2.25 -8.375 L 2.25 -0.765625 L 6.9375 -0.765625 L 6.9375 0 L 1.359375 0 Z M 1.359375 -8.375 "/></g></g></g><g fill="#171717" fill-opacity="1"><g transform="translate(120.932742, 150.054331)"><g/></g></g><g fill="#171717" fill-opacity="1"><g transform="translate(127.7214, 150.054331)"><g><path d="M 7.28125 -0.765625 L 7.28125 0 L 1.359375 0 L 1.359375 -8.375 L 7.109375 -8.375 L 7.109375 -7.609375 L 2.25 -7.609375 L 2.25 -4.625 L 6.578125 -4.625 L 6.578125 -3.875 L 2.25 -3.875 L 2.25 -0.765625 Z M 7.28125 -0.765625 "/></g></g></g><g fill="#171717" fill-opacity="1"><g transform="translate(139.383064, 150.054331)"><g><path d="M 3.671875 0.078125 C 3.046875 0.078125 2.445312 -0.0195312 1.875 -0.21875 C 1.3125 -0.425781 0.875 -0.691406 0.5625 -1.015625 L 0.90625 -1.703125 C 1.207031 -1.398438 1.609375 -1.15625 2.109375 -0.96875 C 2.617188 -0.78125 3.140625 -0.6875 3.671875 -0.6875 C 4.421875 -0.6875 4.984375 -0.820312 5.359375 -1.09375 C 5.734375 -1.375 5.921875 -1.734375 5.921875 -2.171875 C 5.921875 -2.503906 5.816406 -2.769531 5.609375 -2.96875 C 5.410156 -3.164062 5.160156 -3.316406 4.859375 -3.421875 C 4.566406 -3.535156 4.160156 -3.65625 3.640625 -3.78125 C 3.003906 -3.9375 2.5 -4.085938 2.125 -4.234375 C 1.75 -4.390625 1.425781 -4.617188 1.15625 -4.921875 C 0.894531 -5.222656 0.765625 -5.632812 0.765625 -6.15625 C 0.765625 -6.570312 0.875 -6.953125 1.09375 -7.296875 C 1.320312 -7.648438 1.664062 -7.929688 2.125 -8.140625 C 2.59375 -8.347656 3.171875 -8.453125 3.859375 -8.453125 C 4.335938 -8.453125 4.804688 -8.382812 5.265625 -8.25 C 5.722656 -8.125 6.117188 -7.941406 6.453125 -7.703125 L 6.15625 -7 C 5.800781 -7.226562 5.421875 -7.398438 5.015625 -7.515625 C 4.617188 -7.640625 4.234375 -7.703125 3.859375 -7.703125 C 3.117188 -7.703125 2.5625 -7.554688 2.1875 -7.265625 C 1.820312 -6.984375 1.640625 -6.617188 1.640625 -6.171875 C 1.640625 -5.835938 1.738281 -5.566406 1.9375 -5.359375 C 2.144531 -5.160156 2.398438 -5.003906 2.703125 -4.890625 C 3.015625 -4.785156 3.429688 -4.671875 3.953125 -4.546875 C 4.566406 -4.398438 5.0625 -4.25 5.4375 -4.09375 C 5.820312 -3.945312 6.144531 -3.722656 6.40625 -3.421875 C 6.664062 -3.128906 6.796875 -2.726562 6.796875 -2.21875 C 6.796875 -1.789062 6.679688 -1.398438 6.453125 -1.046875 C 6.222656 -0.703125 5.875 -0.425781 5.40625 -0.21875 C 4.9375 -0.0195312 4.359375 0.078125 3.671875 0.078125 Z M 3.671875 0.078125 "/></g></g></g><g fill="#171717" fill-opacity="1"><g transform="translate(150.398191, 150.054331)"><g><path d="M 3 -7.609375 L 0.046875 -7.609375 L 0.046875 -8.375 L 6.828125 -8.375 L 6.828125 -7.609375 L 3.875 -7.609375 L 3.875 0 L 3 0 Z M 3 -7.609375 "/></g></g></g><g fill="#171717" fill-opacity="1"><g transform="translate(160.922422, 150.054331)"><g><path d="M 6.625 -2.234375 L 1.953125 -2.234375 L 0.953125 0 L 0.03125 0 L 3.859375 -8.375 L 4.734375 -8.375 L 8.5625 0 L 7.625 0 Z M 6.296875 -2.953125 L 4.28125 -7.453125 L 2.28125 -2.953125 Z M 6.296875 -2.953125 "/></g></g></g><g fill="#171717" fill-opacity="1"><g transform="translate(173.158797, 150.054331)"><g><path d="M 3 -7.609375 L 0.046875 -7.609375 L 0.046875 -8.375 L 6.828125 -8.375 L 6.828125 -7.609375 L 3.875 -7.609375 L 3.875 0 L 3 0 Z M 3 -7.609375 "/></g></g></g><g fill="#171717" fill-opacity="1"><g transform="translate(183.683035, 150.054331)"><g><path d="M 7.28125 -0.765625 L 7.28125 0 L 1.359375 0 L 1.359375 -8.375 L 7.109375 -8.375 L 7.109375 -7.609375 L 2.25 -7.609375 L 2.25 -4.625 L 6.578125 -4.625 L 6.578125 -3.875 L 2.25 -3.875 L 2.25 -0.765625 Z M 7.28125 -0.765625 "/></g></g></g><g fill="#171717" fill-opacity="1"><g transform="translate(195.344705, 150.054331)"><g/></g></g><g fill="#171717" fill-opacity="1"><g transform="translate(202.133369, 150.054331)"><g><path d="M 0.71875 -3.609375 L 3.859375 -3.609375 L 3.859375 -2.875 L 0.71875 -2.875 Z M 0.71875 -3.609375 "/></g></g></g><g fill="#171717" fill-opacity="1"><g transform="translate(210.358796, 150.054331)"><g/></g></g><g fill="#171717" fill-opacity="1"><g transform="translate(217.14746, 150.054331)"><g><path d="M 3.671875 0.078125 C 3.046875 0.078125 2.445312 -0.0195312 1.875 -0.21875 C 1.3125 -0.425781 0.875 -0.691406 0.5625 -1.015625 L 0.90625 -1.703125 C 1.207031 -1.398438 1.609375 -1.15625 2.109375 -0.96875 C 2.617188 -0.78125 3.140625 -0.6875 3.671875 -0.6875 C 4.421875 -0.6875 4.984375 -0.820312 5.359375 -1.09375 C 5.734375 -1.375 5.921875 -1.734375 5.921875 -2.171875 C 5.921875 -2.503906 5.816406 -2.769531 5.609375 -2.96875 C 5.410156 -3.164062 5.160156 -3.316406 4.859375 -3.421875 C 4.566406 -3.535156 4.160156 -3.65625 3.640625 -3.78125 C 3.003906 -3.9375 2.5 -4.085938 2.125 -4.234375 C 1.75 -4.390625 1.425781 -4.617188 1.15625 -4.921875 C 0.894531 -5.222656 0.765625 -5.632812 0.765625 -6.15625 C 0.765625 -6.570312 0.875 -6.953125 1.09375 -7.296875 C 1.320312 -7.648438 1.664062 -7.929688 2.125 -8.140625 C 2.59375 -8.347656 3.171875 -8.453125 3.859375 -8.453125 C 4.335938 -8.453125 4.804688 -8.382812 5.265625 -8.25 C 5.722656 -8.125 6.117188 -7.941406 6.453125 -7.703125 L 6.15625 -7 C 5.800781 -7.226562 5.421875 -7.398438 5.015625 -7.515625 C 4.617188 -7.640625 4.234375 -7.703125 3.859375 -7.703125 C 3.117188 -7.703125 2.5625 -7.554688 2.1875 -7.265625 C 1.820312 -6.984375 1.640625 -6.617188 1.640625 -6.171875 C 1.640625 -5.835938 1.738281 -5.566406 1.9375 -5.359375 C 2.144531 -5.160156 2.398438 -5.003906 2.703125 -4.890625 C 3.015625 -4.785156 3.429688 -4.671875 3.953125 -4.546875 C 4.566406 -4.398438 5.0625 -4.25 5.4375 -4.09375 C 5.820312 -3.945312 6.144531 -3.722656 6.40625 -3.421875 C 6.664062 -3.128906 6.796875 -2.726562 6.796875 -2.21875 C 6.796875 -1.789062 6.679688 -1.398438 6.453125 -1.046875 C 6.222656 -0.703125 5.875 -0.425781 5.40625 -0.21875 C 4.9375 -0.0195312 4.359375 0.078125 3.671875 0.078125 Z M 3.671875 0.078125 "/></g></g></g><g fill="#171717" fill-opacity="1"><g transform="translate(228.162592, 150.054331)"><g><path d="M 3 -7.609375 L 0.046875 -7.609375 L 0.046875 -8.375 L 6.828125 -8.375 L 6.828125 -7.609375 L 3.875 -7.609375 L 3.875 0 L 3 0 Z M 3 -7.609375 "/></g></g></g><g fill="#171717" fill-opacity="1"><g transform="translate(238.686829, 150.054331)"><g/></g></g><g fill="#171717" fill-opacity="1"><g transform="translate(245.475493, 150.054331)"><g><path d="M 6.640625 -4.328125 C 7.191406 -4.203125 7.613281 -3.960938 7.90625 -3.609375 C 8.207031 -3.253906 8.359375 -2.796875 8.359375 -2.234375 C 8.359375 -1.515625 8.09375 -0.960938 7.5625 -0.578125 C 7.039062 -0.191406 6.257812 0 5.21875 0 L 1.359375 0 L 1.359375 -8.375 L 4.984375 -8.375 C 5.910156 -8.375 6.628906 -8.1875 7.140625 -7.8125 C 7.660156 -7.4375 7.921875 -6.90625 7.921875 -6.21875 C 7.921875 -5.757812 7.804688 -5.367188 7.578125 -5.046875 C 7.347656 -4.722656 7.035156 -4.484375 6.640625 -4.328125 Z M 2.25 -7.640625 L 2.25 -4.609375 L 4.921875 -4.609375 C 5.597656 -4.609375 6.117188 -4.738281 6.484375 -5 C 6.847656 -5.257812 7.03125 -5.632812 7.03125 -6.125 C 7.03125 -6.625 6.847656 -7 6.484375 -7.25 C 6.117188 -7.507812 5.597656 -7.640625 4.921875 -7.640625 Z M 5.203125 -0.734375 C 5.953125 -0.734375 6.519531 -0.859375 6.90625 -1.109375 C 7.289062 -1.367188 7.484375 -1.769531 7.484375 -2.3125 C 7.484375 -3.351562 6.722656 -3.875 5.203125 -3.875 L 2.25 -3.875 L 2.25 -0.734375 Z M 5.203125 -0.734375 "/></g></g></g><g fill="#171717" fill-opacity="1"><g transform="translate(258.154864, 150.054331)"><g><path d="M 6.625 -2.234375 L 1.953125 -2.234375 L 0.953125 0 L 0.03125 0 L 3.859375 -8.375 L 4.734375 -8.375 L 8.5625 0 L 7.625 0 Z M 6.296875 -2.953125 L 4.28125 -7.453125 L 2.28125 -2.953125 Z M 6.296875 -2.953125 "/></g></g></g><g fill="#171717" fill-opacity="1"><g transform="translate(270.391228, 150.054331)"><g><path d="M 7.078125 0 L 5.171875 -2.6875 C 4.953125 -2.664062 4.726562 -2.65625 4.5 -2.65625 L 2.25 -2.65625 L 2.25 0 L 1.359375 0 L 1.359375 -8.375 L 4.5 -8.375 C 5.570312 -8.375 6.410156 -8.117188 7.015625 -7.609375 C 7.617188 -7.097656 7.921875 -6.394531 7.921875 -5.5 C 7.921875 -4.851562 7.753906 -4.300781 7.421875 -3.84375 C 7.097656 -3.394531 6.628906 -3.070312 6.015625 -2.875 L 8.0625 0 Z M 4.46875 -3.40625 C 5.300781 -3.40625 5.9375 -3.585938 6.375 -3.953125 C 6.8125 -4.328125 7.03125 -4.84375 7.03125 -5.5 C 7.03125 -6.175781 6.8125 -6.695312 6.375 -7.0625 C 5.9375 -7.425781 5.300781 -7.609375 4.46875 -7.609375 L 2.25 -7.609375 L 2.25 -3.40625 Z M 4.46875 -3.40625 "/></g></g></g><g fill="#171717" fill-opacity="1"><g transform="translate(282.699436, 150.054331)"><g><path d="M 3 -7.609375 L 0.046875 -7.609375 L 0.046875 -8.375 L 6.828125 -8.375 L 6.828125 -7.609375 L 3.875 -7.609375 L 3.875 0 L 3 0 Z M 3 -7.609375 "/></g></g></g><g fill="#171717" fill-opacity="1"><g transform="translate(293.223673, 150.054331)"><g><path d="M 3.671875 0.078125 C 3.046875 0.078125 2.445312 -0.0195312 1.875 -0.21875 C 1.3125 -0.425781 0.875 -0.691406 0.5625 -1.015625 L 0.90625 -1.703125 C 1.207031 -1.398438 1.609375 -1.15625 2.109375 -0.96875 C 2.617188 -0.78125 3.140625 -0.6875 3.671875 -0.6875 C 4.421875 -0.6875 4.984375 -0.820312 5.359375 -1.09375 C 5.734375 -1.375 5.921875 -1.734375 5.921875 -2.171875 C 5.921875 -2.503906 5.816406 -2.769531 5.609375 -2.96875 C 5.410156 -3.164062 5.160156 -3.316406 4.859375 -3.421875 C 4.566406 -3.535156 4.160156 -3.65625 3.640625 -3.78125 C 3.003906 -3.9375 2.5 -4.085938 2.125 -4.234375 C 1.75 -4.390625 1.425781 -4.617188 1.15625 -4.921875 C 0.894531 -5.222656 0.765625 -5.632812 0.765625 -6.15625 C 0.765625 -6.570312 0.875 -6.953125 1.09375 -7.296875 C 1.320312 -7.648438 1.664062 -7.929688 2.125 -8.140625 C 2.59375 -8.347656 3.171875 -8.453125 3.859375 -8.453125 C 4.335938 -8.453125 4.804688 -8.382812 5.265625 -8.25 C 5.722656 -8.125 6.117188 -7.941406 6.453125 -7.703125 L 6.15625 -7 C 5.800781 -7.226562 5.421875 -7.398438 5.015625 -7.515625 C 4.617188 -7.640625 4.234375 -7.703125 3.859375 -7.703125 C 3.117188 -7.703125 2.5625 -7.554688 2.1875 -7.265625 C 1.820312 -6.984375 1.640625 -6.617188 1.640625 -6.171875 C 1.640625 -5.835938 1.738281 -5.566406 1.9375 -5.359375 C 2.144531 -5.160156 2.398438 -5.003906 2.703125 -4.890625 C 3.015625 -4.785156 3.429688 -4.671875 3.953125 -4.546875 C 4.566406 -4.398438 5.0625 -4.25 5.4375 -4.09375 C 5.820312 -3.945312 6.144531 -3.722656 6.40625 -3.421875 C 6.664062 -3.128906 6.796875 -2.726562 6.796875 -2.21875 C 6.796875 -1.789062 6.679688 -1.398438 6.453125 -1.046875 C 6.222656 -0.703125 5.875 -0.425781 5.40625 -0.21875 C 4.9375 -0.0195312 4.359375 0.078125 3.671875 0.078125 Z M 3.671875 0.078125 "/></g></g></g><g fill="#171717" fill-opacity="1"><g transform="translate(69.008875, 126.500191)"><g><path d="M 39.609375 -52.335938 L 6.523438 -52.335938 L 6.523438 0 L 39.609375 0 L 39.609375 -1.589844 L 15.511719 -1.589844 L 15.511719 -25.371094 L 33.644531 -25.371094 L 33.644531 -26.964844 L 15.511719 -26.964844 L 15.511719 -50.746094 L 39.609375 -50.746094 Z M 39.609375 -52.335938 "/></g></g></g><g fill="#171717" fill-opacity="1"><g transform="translate(126.906, 126.500191)"><g><path d="M 15.511719 -52.335938 L 6.523438 -52.335938 L 6.523438 0 L 39.609375 0 L 39.609375 -1.589844 L 15.511719 -1.589844 Z M 15.511719 -52.335938 "/></g></g></g><g fill="#171717" fill-opacity="1"><g transform="translate(253.671083, 126.500191)"><g><path d="M 44.9375 -52.335938 L 44.9375 -13.125 L 8.035156 -52.335938 L 6.441406 -52.335938 L 6.441406 0 L 8.035156 0 L 8.035156 -39.210938 L 44.9375 0 L 46.53125 0 L 46.53125 -52.335938 Z M 44.9375 -52.335938 "/></g></g></g><g fill="#dec395" fill-opacity="1"><g transform="translate(240.714307, 76.080564)"><g><path d="M -50.902344 52.335938 L -49.152344 52.335938 L -30.859375 12.40625 L -13.441406 52.335938 L -3.578125 52.335938 L -26.644531 -0.476562 Z M -50.902344 52.335938 "/></g></g></g></svg>