<svg xmlns="http://www.w3.org/2000/svg" xmlns:xlink="http://www.w3.org/1999/xlink" width="500" zoomAndPan="magnify" viewBox="0 0 375 225" height="300" preserveAspectRatio="xMidYMid meet" version="1.0"><defs><g/></defs><g fill="#171717" fill-opacity="1"><g transform="translate(75.277526, 149.85765)"><g><path d="M 8.34375 -8.390625 L 4.625 0 L 3.75 0 L 0.03125 -8.390625 L 1 -8.390625 L 4.203125 -1.109375 L 7.4375 -8.390625 Z M 8.34375 -8.390625 "/></g></g></g><g fill="#171717" fill-opacity="1"><g transform="translate(86.343711, 149.85765)"><g><path d="M 1.359375 -8.390625 L 2.25 -8.390625 L 2.25 0 L 1.359375 0 Z M 1.359375 -8.390625 "/></g></g></g><g fill="#171717" fill-opacity="1"><g transform="translate(92.662106, 149.85765)"><g><path d="M 1.359375 -8.390625 L 2.25 -8.390625 L 2.25 -0.765625 L 6.953125 -0.765625 L 6.953125 0 L 1.359375 0 Z M 1.359375 -8.390625 "/></g></g></g><g fill="#171717" fill-opacity="1"><g transform="translate(102.421452, 149.85765)"><g><path d="M 1.359375 -8.390625 L 2.25 -8.390625 L 2.25 -0.765625 L 6.953125 -0.765625 L 6.953125 0 L 1.359375 0 Z M 1.359375 -8.390625 "/></g></g></g><g fill="#171717" fill-opacity="1"><g transform="translate(112.180795, 149.85765)"><g><path d="M 6.625 -2.234375 L 1.953125 -2.234375 L 0.953125 0 L 0.03125 0 L 3.859375 -8.390625 L 4.734375 -8.390625 L 8.5625 0 L 7.640625 0 Z M 6.296875 -2.953125 L 4.296875 -7.46875 L 2.28125 -2.953125 Z M 6.296875 -2.953125 "/></g></g></g><g fill="#171717" fill-opacity="1"><g transform="translate(123.474777, 149.85765)"><g/></g></g><g fill="#171717" fill-opacity="1"><g transform="translate(129.313587, 149.85765)"><g><path d="M 7.09375 0 L 5.171875 -2.703125 C 4.960938 -2.671875 4.738281 -2.65625 4.5 -2.65625 L 2.25 -2.65625 L 2.25 0 L 1.359375 0 L 1.359375 -8.390625 L 4.5 -8.390625 C 5.570312 -8.390625 6.410156 -8.132812 7.015625 -7.625 C 7.628906 -7.113281 7.9375 -6.410156 7.9375 -5.515625 C 7.9375 -4.859375 7.769531 -4.300781 7.4375 -3.84375 C 7.101562 -3.394531 6.628906 -3.070312 6.015625 -2.875 L 8.0625 0 Z M 4.484375 -3.421875 C 5.316406 -3.421875 5.953125 -3.601562 6.390625 -3.96875 C 6.828125 -4.332031 7.046875 -4.847656 7.046875 -5.515625 C 7.046875 -6.191406 6.828125 -6.710938 6.390625 -7.078125 C 5.953125 -7.441406 5.316406 -7.625 4.484375 -7.625 L 2.25 -7.625 L 2.25 -3.421875 Z M 4.484375 -3.421875 "/></g></g></g><g fill="#171717" fill-opacity="1"><g transform="translate(140.6795, 149.85765)"><g><path d="M 7.296875 -0.765625 L 7.296875 0 L 1.359375 0 L 1.359375 -8.390625 L 7.125 -8.390625 L 7.125 -7.625 L 2.25 -7.625 L 2.25 -4.640625 L 6.59375 -4.640625 L 6.59375 -3.890625 L 2.25 -3.890625 L 2.25 -0.765625 Z M 7.296875 -0.765625 "/></g></g></g><g fill="#171717" fill-opacity="1"><g transform="translate(151.397989, 149.85765)"><g><path d="M 8.375 -8.390625 L 8.375 0 L 7.640625 0 L 2.25 -6.8125 L 2.25 0 L 1.359375 0 L 1.359375 -8.390625 L 2.09375 -8.390625 L 7.5 -1.578125 L 7.5 -8.390625 Z M 8.375 -8.390625 "/></g></g></g><g fill="#171717" fill-opacity="1"><g transform="translate(163.842944, 149.85765)"><g><path d="M 3 -7.625 L 0.046875 -7.625 L 0.046875 -8.390625 L 6.828125 -8.390625 L 6.828125 -7.625 L 3.890625 -7.625 L 3.890625 0 L 3 0 Z M 3 -7.625 "/></g></g></g><g fill="#171717" fill-opacity="1"><g transform="translate(173.422449, 149.85765)"><g><path d="M 6.625 -2.234375 L 1.953125 -2.234375 L 0.953125 0 L 0.03125 0 L 3.859375 -8.390625 L 4.734375 -8.390625 L 8.5625 0 L 7.640625 0 Z M 6.296875 -2.953125 L 4.296875 -7.46875 L 2.28125 -2.953125 Z M 6.296875 -2.953125 "/></g></g></g><g fill="#171717" fill-opacity="1"><g transform="translate(184.716437, 149.85765)"><g><path d="M 1.359375 -8.390625 L 2.25 -8.390625 L 2.25 -0.765625 L 6.953125 -0.765625 L 6.953125 0 L 1.359375 0 Z M 1.359375 -8.390625 "/></g></g></g><g fill="#171717" fill-opacity="1"><g transform="translate(194.475785, 149.85765)"><g><path d="M 3.671875 0.078125 C 3.054688 0.078125 2.460938 -0.0195312 1.890625 -0.21875 C 1.316406 -0.425781 0.875 -0.691406 0.5625 -1.015625 L 0.90625 -1.703125 C 1.207031 -1.398438 1.609375 -1.15625 2.109375 -0.96875 C 2.617188 -0.78125 3.140625 -0.6875 3.671875 -0.6875 C 4.429688 -0.6875 5 -0.820312 5.375 -1.09375 C 5.75 -1.375 5.9375 -1.734375 5.9375 -2.171875 C 5.9375 -2.503906 5.832031 -2.769531 5.625 -2.96875 C 5.425781 -3.164062 5.175781 -3.316406 4.875 -3.421875 C 4.582031 -3.535156 4.171875 -3.65625 3.640625 -3.78125 C 3.015625 -3.945312 2.507812 -4.101562 2.125 -4.25 C 1.75 -4.394531 1.425781 -4.617188 1.15625 -4.921875 C 0.894531 -5.222656 0.765625 -5.632812 0.765625 -6.15625 C 0.765625 -6.582031 0.875 -6.96875 1.09375 -7.3125 C 1.320312 -7.664062 1.664062 -7.945312 2.125 -8.15625 C 2.59375 -8.363281 3.171875 -8.46875 3.859375 -8.46875 C 4.335938 -8.46875 4.804688 -8.398438 5.265625 -8.265625 C 5.722656 -8.128906 6.117188 -7.945312 6.453125 -7.71875 L 6.15625 -7.015625 C 5.800781 -7.242188 5.425781 -7.414062 5.03125 -7.53125 C 4.632812 -7.644531 4.242188 -7.703125 3.859375 -7.703125 C 3.117188 -7.703125 2.5625 -7.5625 2.1875 -7.28125 C 1.820312 -7 1.640625 -6.632812 1.640625 -6.1875 C 1.640625 -5.851562 1.738281 -5.582031 1.9375 -5.375 C 2.144531 -5.164062 2.398438 -5.007812 2.703125 -4.90625 C 3.015625 -4.800781 3.429688 -4.679688 3.953125 -4.546875 C 4.566406 -4.398438 5.0625 -4.253906 5.4375 -4.109375 C 5.820312 -3.960938 6.144531 -3.738281 6.40625 -3.4375 C 6.675781 -3.132812 6.8125 -2.726562 6.8125 -2.21875 C 6.8125 -1.789062 6.695312 -1.40625 6.46875 -1.0625 C 6.238281 -0.71875 5.882812 -0.441406 5.40625 -0.234375 C 4.9375 -0.0234375 4.359375 0.078125 3.671875 0.078125 Z M 3.671875 0.078125 "/></g></g></g><g fill="#171717" fill-opacity="1"><g transform="translate(204.546857, 149.85765)"><g/></g></g><g fill="#171717" fill-opacity="1"><g transform="translate(210.385672, 149.85765)"><g><path d="M 0.71875 -3.625 L 3.859375 -3.625 L 3.859375 -2.875 L 0.71875 -2.875 Z M 0.71875 -3.625 "/></g></g></g><g fill="#171717" fill-opacity="1"><g transform="translate(217.663219, 149.85765)"><g/></g></g><g fill="#171717" fill-opacity="1"><g transform="translate(223.502034, 149.85765)"><g><path d="M 3.671875 0.078125 C 3.054688 0.078125 2.460938 -0.0195312 1.890625 -0.21875 C 1.316406 -0.425781 0.875 -0.691406 0.5625 -1.015625 L 0.90625 -1.703125 C 1.207031 -1.398438 1.609375 -1.15625 2.109375 -0.96875 C 2.617188 -0.78125 3.140625 -0.6875 3.671875 -0.6875 C 4.429688 -0.6875 5 -0.820312 5.375 -1.09375 C 5.75 -1.375 5.9375 -1.734375 5.9375 -2.171875 C 5.9375 -2.503906 5.832031 -2.769531 5.625 -2.96875 C 5.425781 -3.164062 5.175781 -3.316406 4.875 -3.421875 C 4.582031 -3.535156 4.171875 -3.65625 3.640625 -3.78125 C 3.015625 -3.945312 2.507812 -4.101562 2.125 -4.25 C 1.75 -4.394531 1.425781 -4.617188 1.15625 -4.921875 C 0.894531 -5.222656 0.765625 -5.632812 0.765625 -6.15625 C 0.765625 -6.582031 0.875 -6.96875 1.09375 -7.3125 C 1.320312 -7.664062 1.664062 -7.945312 2.125 -8.15625 C 2.59375 -8.363281 3.171875 -8.46875 3.859375 -8.46875 C 4.335938 -8.46875 4.804688 -8.398438 5.265625 -8.265625 C 5.722656 -8.128906 6.117188 -7.945312 6.453125 -7.71875 L 6.15625 -7.015625 C 5.800781 -7.242188 5.425781 -7.414062 5.03125 -7.53125 C 4.632812 -7.644531 4.242188 -7.703125 3.859375 -7.703125 C 3.117188 -7.703125 2.5625 -7.5625 2.1875 -7.28125 C 1.820312 -7 1.640625 -6.632812 1.640625 -6.1875 C 1.640625 -5.851562 1.738281 -5.582031 1.9375 -5.375 C 2.144531 -5.164062 2.398438 -5.007812 2.703125 -4.90625 C 3.015625 -4.800781 3.429688 -4.679688 3.953125 -4.546875 C 4.566406 -4.398438 5.0625 -4.253906 5.4375 -4.109375 C 5.820312 -3.960938 6.144531 -3.738281 6.40625 -3.4375 C 6.675781 -3.132812 6.8125 -2.726562 6.8125 -2.21875 C 6.8125 -1.789062 6.695312 -1.40625 6.46875 -1.0625 C 6.238281 -0.71875 5.882812 -0.441406 5.40625 -0.234375 C 4.9375 -0.0234375 4.359375 0.078125 3.671875 0.078125 Z M 3.671875 0.078125 "/></g></g></g><g fill="#171717" fill-opacity="1"><g transform="translate(233.573106, 149.85765)"><g><path d="M 3 -7.625 L 0.046875 -7.625 L 0.046875 -8.390625 L 6.828125 -8.390625 L 6.828125 -7.625 L 3.890625 -7.625 L 3.890625 0 L 3 0 Z M 3 -7.625 "/></g></g></g><g fill="#171717" fill-opacity="1"><g transform="translate(243.15261, 149.85765)"><g/></g></g><g fill="#171717" fill-opacity="1"><g transform="translate(248.991425, 149.85765)"><g><path d="M 6.65625 -4.328125 C 7.207031 -4.203125 7.628906 -3.960938 7.921875 -3.609375 C 8.222656 -3.253906 8.375 -2.796875 8.375 -2.234375 C 8.375 -1.515625 8.109375 -0.960938 7.578125 -0.578125 C 7.046875 -0.191406 6.257812 0 5.21875 0 L 1.359375 0 L 1.359375 -8.390625 L 4.984375 -8.390625 C 5.921875 -8.390625 6.644531 -8.203125 7.15625 -7.828125 C 7.675781 -7.453125 7.9375 -6.921875 7.9375 -6.234375 C 7.9375 -5.765625 7.820312 -5.367188 7.59375 -5.046875 C 7.363281 -4.722656 7.050781 -4.484375 6.65625 -4.328125 Z M 2.25 -7.65625 L 2.25 -4.609375 L 4.921875 -4.609375 C 5.597656 -4.609375 6.117188 -4.738281 6.484375 -5 C 6.859375 -5.257812 7.046875 -5.640625 7.046875 -6.140625 C 7.046875 -6.628906 6.859375 -7.003906 6.484375 -7.265625 C 6.117188 -7.523438 5.597656 -7.65625 4.921875 -7.65625 Z M 5.21875 -0.734375 C 5.96875 -0.734375 6.53125 -0.859375 6.90625 -1.109375 C 7.289062 -1.367188 7.484375 -1.769531 7.484375 -2.3125 C 7.484375 -3.363281 6.726562 -3.890625 5.21875 -3.890625 L 2.25 -3.890625 L 2.25 -0.734375 Z M 5.21875 -0.734375 "/></g></g></g><g fill="#171717" fill-opacity="1"><g transform="translate(260.729015, 149.85765)"><g><path d="M 6.625 -2.234375 L 1.953125 -2.234375 L 0.953125 0 L 0.03125 0 L 3.859375 -8.390625 L 4.734375 -8.390625 L 8.5625 0 L 7.640625 0 Z M 6.296875 -2.953125 L 4.296875 -7.46875 L 2.28125 -2.953125 Z M 6.296875 -2.953125 "/></g></g></g><g fill="#171717" fill-opacity="1"><g transform="translate(272.022991, 149.85765)"><g><path d="M 7.09375 0 L 5.171875 -2.703125 C 4.960938 -2.671875 4.738281 -2.65625 4.5 -2.65625 L 2.25 -2.65625 L 2.25 0 L 1.359375 0 L 1.359375 -8.390625 L 4.5 -8.390625 C 5.570312 -8.390625 6.410156 -8.132812 7.015625 -7.625 C 7.628906 -7.113281 7.9375 -6.410156 7.9375 -5.515625 C 7.9375 -4.859375 7.769531 -4.300781 7.4375 -3.84375 C 7.101562 -3.394531 6.628906 -3.070312 6.015625 -2.875 L 8.0625 0 Z M 4.484375 -3.421875 C 5.316406 -3.421875 5.953125 -3.601562 6.390625 -3.96875 C 6.828125 -4.332031 7.046875 -4.847656 7.046875 -5.515625 C 7.046875 -6.191406 6.828125 -6.710938 6.390625 -7.078125 C 5.953125 -7.441406 5.316406 -7.625 4.484375 -7.625 L 2.25 -7.625 L 2.25 -3.421875 Z M 4.484375 -3.421875 "/></g></g></g><g fill="#171717" fill-opacity="1"><g transform="translate(283.38891, 149.85765)"><g><path d="M 3 -7.625 L 0.046875 -7.625 L 0.046875 -8.390625 L 6.828125 -8.390625 L 6.828125 -7.625 L 3.890625 -7.625 L 3.890625 0 L 3 0 Z M 3 -7.625 "/></g></g></g><g fill="#171717" fill-opacity="1"><g transform="translate(292.968414, 149.85765)"><g><path d="M 3.671875 0.078125 C 3.054688 0.078125 2.460938 -0.0195312 1.890625 -0.21875 C 1.316406 -0.425781 0.875 -0.691406 0.5625 -1.015625 L 0.90625 -1.703125 C 1.207031 -1.398438 1.609375 -1.15625 2.109375 -0.96875 C 2.617188 -0.78125 3.140625 -0.6875 3.671875 -0.6875 C 4.429688 -0.6875 5 -0.820312 5.375 -1.09375 C 5.75 -1.375 5.9375 -1.734375 5.9375 -2.171875 C 5.9375 -2.503906 5.832031 -2.769531 5.625 -2.96875 C 5.425781 -3.164062 5.175781 -3.316406 4.875 -3.421875 C 4.582031 -3.535156 4.171875 -3.65625 3.640625 -3.78125 C 3.015625 -3.945312 2.507812 -4.101562 2.125 -4.25 C 1.75 -4.394531 1.425781 -4.617188 1.15625 -4.921875 C 0.894531 -5.222656 0.765625 -5.632812 0.765625 -6.15625 C 0.765625 -6.582031 0.875 -6.96875 1.09375 -7.3125 C 1.320312 -7.664062 1.664062 -7.945312 2.125 -8.15625 C 2.59375 -8.363281 3.171875 -8.46875 3.859375 -8.46875 C 4.335938 -8.46875 4.804688 -8.398438 5.265625 -8.265625 C 5.722656 -8.128906 6.117188 -7.945312 6.453125 -7.71875 L 6.15625 -7.015625 C 5.800781 -7.242188 5.425781 -7.414062 5.03125 -7.53125 C 4.632812 -7.644531 4.242188 -7.703125 3.859375 -7.703125 C 3.117188 -7.703125 2.5625 -7.5625 2.1875 -7.28125 C 1.820312 -7 1.640625 -6.632812 1.640625 -6.1875 C 1.640625 -5.851562 1.738281 -5.582031 1.9375 -5.375 C 2.144531 -5.164062 2.398438 -5.007812 2.703125 -4.90625 C 3.015625 -4.800781 3.429688 -4.679688 3.953125 -4.546875 C 4.566406 -4.398438 5.0625 -4.253906 5.4375 -4.109375 C 5.820312 -3.960938 6.144531 -3.738281 6.40625 -3.4375 C 6.675781 -3.132812 6.8125 -2.726562 6.8125 -2.21875 C 6.8125 -1.789062 6.695312 -1.40625 6.46875 -1.0625 C 6.238281 -0.71875 5.882812 -0.441406 5.40625 -0.234375 C 4.9375 -0.0234375 4.359375 0.078125 3.671875 0.078125 Z M 3.671875 0.078125 "/></g></g></g><g fill="#171717" fill-opacity="1"><g transform="translate(69.008875, 126.500179)"><g><path d="M 39.609375 -52.335938 L 6.523438 -52.335938 L 6.523438 0 L 39.609375 0 L 39.609375 -1.589844 L 15.511719 -1.589844 L 15.511719 -25.371094 L 33.644531 -25.371094 L 33.644531 -26.964844 L 15.511719 -26.964844 L 15.511719 -50.746094 L 39.609375 -50.746094 Z M 39.609375 -52.335938 "/></g></g></g><g fill="#171717" fill-opacity="1"><g transform="translate(126.906, 126.500179)"><g><path d="M 15.511719 -52.335938 L 6.523438 -52.335938 L 6.523438 0 L 39.609375 0 L 39.609375 -1.589844 L 15.511719 -1.589844 Z M 15.511719 -52.335938 "/></g></g></g><g fill="#171717" fill-opacity="1"><g transform="translate(253.671083, 126.500179)"><g><path d="M 44.9375 -52.335938 L 44.9375 -13.125 L 8.035156 -52.335938 L 6.441406 -52.335938 L 6.441406 0 L 8.035156 0 L 8.035156 -39.210938 L 44.9375 0 L 46.53125 0 L 46.53125 -52.335938 Z M 44.9375 -52.335938 "/></g></g></g><g fill="#7b4eb7" fill-opacity="1"><g transform="translate(240.714307, 76.080564)"><g><path d="M -50.902344 52.335938 L -49.152344 52.335938 L -30.859375 12.40625 L -13.441406 52.335938 L -3.578125 52.335938 L -26.644531 -0.476562 Z M -50.902344 52.335938 "/></g></g></g></svg>