<svg xmlns="http://www.w3.org/2000/svg" version="1.0" viewBox="0 0 375 225">
    <path fill="#f8f8f8" d="M83.71 141.48 80 149.87h-.87l-3.72-8.39h.97l3.2 7.28 3.23-7.28Zm4.07 0h.9v8.39h-.9Zm6.32 0h.89v7.62h4.7v.77h-5.6Zm9.75 0h.9v7.62h4.7v.77h-5.6Zm15.02 6.16h-4.67l-1 2.23h-.93l3.83-8.39h.88l3.82 8.39h-.92Zm-.33-.72-2-4.52-2.02 4.52Zm17.92 2.95-1.93-2.7c-.2.03-.43.04-.67.04h-2.25v2.66h-.89v-8.39h3.14a3.8 3.8 0 0 1 2.52.77c.61.5.92 1.21.92 2.1a2.8 2.8 0 0 1-.5 1.68c-.34.45-.8.77-1.42.97l2.05 2.87Zm-2.61-3.42c.83 0 1.47-.18 1.9-.55.44-.36.66-.88.66-1.55s-.22-1.2-.66-1.56a2.92 2.92 0 0 0-1.9-.54h-2.24v4.2Zm14.17 2.65v.77h-5.94v-8.39h5.76v.77h-4.87v2.98h4.34v.75h-4.34v3.12Zm11.78-7.62v8.39h-.73l-5.4-6.81v6.81h-.88v-8.39h.73l5.4 6.81v-6.81Zm7.06.77h-2.95v-.77h6.78v.77h-2.94v7.62h-.89Zm13.2 5.39h-4.67l-1 2.23h-.92l3.83-8.39h.87l3.83 8.39h-.92Zm-.33-.72-2-4.52-2.01 4.52Zm6.35-5.44h.9v7.62h4.7v.77h-5.6Zm12.06 8.47c-.61 0-1.2-.1-1.78-.3a3.42 3.42 0 0 1-1.32-.8l.34-.68c.3.3.7.54 1.2.73.51.19 1.03.28 1.56.28.76 0 1.33-.13 1.7-.4.38-.28.57-.64.57-1.08 0-.33-.1-.6-.31-.8a2 2 0 0 0-.75-.45c-.3-.11-.7-.24-1.24-.36-.62-.16-1.13-.32-1.51-.47-.38-.14-.7-.37-.97-.67-.26-.3-.4-.71-.4-1.24 0-.42.12-.8.34-1.15.22-.35.57-.63 1.03-.85a5.06 5.06 0 0 1 4.33.44l-.3.7a4.43 4.43 0 0 0-2.3-.68c-.74 0-1.3.14-1.67.42-.37.28-.55.65-.55 1.1 0 .33.1.6.3.8.2.22.46.37.77.47.3.11.72.23 1.25.36.6.15 1.1.3 1.48.44.38.15.7.37.97.67.27.3.4.71.4 1.22 0 .43-.11.81-.34 1.16a2.4 2.4 0 0 1-1.06.83c-.47.2-1.05.3-1.74.3Zm12.95-3.7h3.14v.75h-3.14Zm16.06 3.7c-.62 0-1.21-.1-1.78-.3a3.42 3.42 0 0 1-1.33-.8l.35-.68c.3.3.7.54 1.2.73.5.19 1.03.28 1.56.28.76 0 1.33-.13 1.7-.4.38-.28.57-.64.57-1.08 0-.33-.1-.6-.32-.8a2 2 0 0 0-.75-.45 9.3 9.3 0 0 0-1.23-.36 14.3 14.3 0 0 1-1.52-.47c-.37-.14-.7-.37-.96-.67-.27-.3-.4-.71-.4-1.24 0-.42.11-.8.33-1.15.23-.35.57-.63 1.03-.85a5.06 5.06 0 0 1 4.33.44l-.3.7a4.43 4.43 0 0 0-2.3-.68c-.73 0-1.29.14-1.66.42-.37.28-.55.65-.55 1.1 0 .33.1.6.3.8.2.22.46.37.76.47.32.11.73.23 1.25.36.62.15 1.11.3 1.49.44.38.15.7.37.97.67.27.3.4.71.4 1.22 0 .43-.12.81-.34 1.16-.23.34-.59.62-1.06.83-.47.2-1.05.3-1.74.3Zm9.39-7.7h-2.95v-.77h6.78v.77h-2.94v7.62h-.89Zm19.06 3.29c.56.13.98.37 1.27.72.3.36.46.81.46 1.38 0 .71-.27 1.27-.8 1.65a4 4 0 0 1-2.36.58h-3.86v-8.39h3.62c.94 0 1.66.19 2.18.56.52.38.78.9.78 1.6a1.99 1.99 0 0 1-1.28 1.9Zm-4.4-3.33v3.05h2.67c.68 0 1.2-.13 1.56-.39.38-.26.57-.64.57-1.14 0-.49-.19-.86-.57-1.13a2.7 2.7 0 0 0-1.56-.39Zm2.97 6.93c.75 0 1.31-.13 1.69-.38.38-.26.57-.66.57-1.2 0-1.05-.75-1.58-2.26-1.58h-2.97v3.16Zm13.13-1.5h-4.67l-1 2.23h-.92l3.83-8.39h.87l3.83 8.39h-.92Zm-.32-.72-2-4.52-2.02 4.52Zm12.08 2.95-1.92-2.7c-.22.03-.44.04-.68.04h-2.25v2.66h-.89v-8.39h3.14a3.8 3.8 0 0 1 2.52.77c.61.5.92 1.21.92 2.1a2.8 2.8 0 0 1-.5 1.68c-.34.45-.8.77-1.42.97l2.05 2.87Zm-2.61-3.42c.83 0 1.47-.18 1.9-.55.44-.36.66-.88.66-1.55s-.22-1.2-.66-1.56a2.92 2.92 0 0 0-1.9-.54h-2.24v4.2Zm9.87-4.2h-2.95v-.77h6.78v.77h-2.94v7.62h-.89Zm10.24 7.7c-.61 0-1.2-.1-1.78-.3a3.42 3.42 0 0 1-1.33-.8l.35-.68c.3.3.7.54 1.2.73.5.19 1.03.28 1.56.28.76 0 1.33-.13 1.7-.4.38-.28.57-.64.57-1.08 0-.33-.1-.6-.31-.8a2 2 0 0 0-.75-.45c-.3-.11-.7-.24-1.24-.36-.62-.16-1.13-.32-1.51-.47-.38-.14-.7-.37-.97-.67-.26-.3-.4-.71-.4-1.24 0-.42.12-.8.34-1.15.22-.35.57-.63 1.03-.85a5.06 5.06 0 0 1 4.33.44l-.3.7a4.43 4.43 0 0 0-2.3-.68c-.74 0-1.3.14-1.67.42-.37.28-.55.65-.55 1.1 0 .33.1.6.3.8.2.22.46.37.77.47.3.11.72.23 1.25.36.6.15 1.1.3 1.48.44.38.15.7.37.97.67.27.3.4.71.4 1.22 0 .43-.11.81-.34 1.16-.23.34-.59.62-1.06.83-.47.2-1.05.3-1.74.3ZM108.62 74.16H75.53v52.34h33.09v-1.59h-24.1v-23.78h18.13v-1.6H84.52V75.76h24.1Zm33.8 0h-9v52.34h33.1v-1.59h-24.1Zm156.18 0v39.22l-36.9-39.22h-1.59v52.34h1.6V87.29l36.9 39.21h1.6V74.16Zm0 0"/>
    <path fill="#7b4eb7" d="M189.81 128.42h1.75l18.3-39.93 17.41 39.93h9.87L214.07 75.6Zm0 0"/>
  </svg>